<?xml version="1.0" encoding="utf-8"?>
<!-- Generator: Adobe Illustrator 24.3.0, SVG Export Plug-In . SVG Version: 6.00 Build 0)  -->
<svg version="1.1" id="Layer_1" xmlns="http://www.w3.org/2000/svg" xmlns:xlink="http://www.w3.org/1999/xlink" x="0px" y="0px"
	 viewBox="0 0 512 512" style="enable-background:new 0 0 512 512;" xml:space="preserve">
<style type="text/css">
	.st0{fill:#232C65;}
	.st1{fill:#FFFFFF;}
</style>
<g id="XMLID_1_">
	<path id="XMLID_2_" class="st0" d="M44.85,46.79h425.43c4.91,0.7,9.82-0.14,14.59,0.56c9.12,0.98,17.4,6.45,22.17,14.17
		c2.95,4.49,4.35,9.82,4.91,15.15v358.78c-0.56,4.21-1.4,8.28-3.37,12.07c-3.79,7.86-10.94,13.75-19.36,16.14
		c-7.72,2.24-15.86,0.14-23.57,1.54H41.34c-1.68-0.42-3.37-0.7-5.05-0.56c-4.91,0.28-10.1,0.14-14.87-1.4
		c-10.24-3.23-18.52-12.35-20.63-23.01c-1.4-6.88,0-13.89-0.84-20.91V89.03c0.7-4.77-0.14-9.68,0.42-14.59
		c1.12-12.63,10.94-23.71,23.29-26.52C30.68,46.23,37.83,47.64,44.85,46.79 M16.37,61.67c-4.49,3.93-7.16,9.82-7.16,15.86
		c0,21.19,0,42.23,0,63.42c164.59,0,329.17,0,493.76,0c0-20.91,0-41.95,0-62.86c0.28-6.45-2.81-12.77-7.72-16.84
		c-3.93-3.37-9.12-5.19-14.31-5.19c-149.99,0-300.13,0-450.12,0C25.49,56.05,20.3,58.16,16.37,61.67 M199.19,241.41
		c2.39,0,4.63,0,7.02,0c-13.05,41.11-26.24,82.22-39.29,123.19c8.28,0,16.56,0.14,24.84,0.14c-7.58,24.41-15.29,48.69-22.73,73.1
		c17.26-23.57,34.24-47.43,51.35-71c-2.39-0.14-4.63,0-7.02,0c6.17-18.94,12.91-37.74,19.22-56.69c5.05,0.42,10.24,0.84,15.29,1.4
		c-5.33,17.68-10.52,35.5-15.86,53.18c7.44,0.14,15.01,0,22.45,0.14c-8,25.4-15.71,50.93-23.71,76.47
		c18.94-24.69,37.46-49.67,56.41-74.23c-2.53-0.14-5.19-0.28-7.72-0.28c13.61-41.11,27.5-82.22,41.25-123.33
		c-8.84-0.28-17.68,0-26.52-0.14c7.44-25.12,15.29-50.09,22.87-75.35c-0.7,0.28-1.4,0.56-1.82,1.26
		c-14.87,20.49-29.75,40.97-44.48,61.46c-2.53,3.51-5.05,7.16-8,10.52c2.53,0,5.05,0,7.44,0.28c-5.61,18.38-11.79,36.76-17.54,55.14
		c-5.19-0.28-10.24-0.28-15.43-0.84c5.47-17.54,11.08-35.08,16.56-52.62c-8.28,0-16.56,0.14-24.84,0.14
		c7.72-25.4,16-50.65,23.71-76.19C234.97,191.74,217.15,216.71,199.19,241.41 M84.28,243.09c-15.71,38.59-28.34,78.29-41.67,117.72
		c-0.42,1.26-0.28,2.81,0.42,4.07c34.38-0.28,68.61-0.14,102.99-0.28c5.89-14.73,11.65-29.61,17.4-44.48
		c1.12-3.51,3.23-6.88,3.23-10.66c0.14-2.39-1.12-4.35-2.67-6.03c2.95-1.54,6.59-2.81,7.72-6.31c4.63-14.17,9.12-28.34,13.75-42.51
		c0.84-2.81,1.68-5.89,0.98-8.98c-0.56-2.1-2.95-2.81-4.91-2.81c-31.57,0-63.14,0-94.71,0C85.82,242.95,84.98,242.81,84.28,243.09
		 M422.71,242.95c-13.19,38.16-26.66,76.33-39.99,114.49c-0.56,2.39-0.14,4.91,0,7.44c23.85,0,47.71,0.14,71.7,0.56
		c2.95-3.93,4.77-8.84,4.49-13.89c-2.24,0-4.49-0.14-6.73-0.28c-5.75-0.42-11.37,0-17.12-0.56c11.51-35.5,23.29-70.86,34.8-106.36
		c-9.12-0.56-18.24-0.28-27.36-0.84C435.9,243.51,429.31,243.09,422.71,242.95 M338.66,243.23c-6.73,17.68-13.33,35.36-19.64,53.04
		c-7.58,21.33-14.73,42.94-22.03,64.4c-0.7,1.96,0.7,4.35,2.95,4.07c23.15,0,46.3,0.14,69.45,0.42c2.1-4.07,3.65-8.56,3.23-13.19
		c-8-0.56-16.14-1.26-24.13-1.82c4.63-13.19,9.54-26.24,14.31-39.29c8.42-0.42,16.84-0.28,25.26-0.28c2.1-4.21,3.37-8.7,3.65-13.47
		c-4.35,0-8.56-0.14-12.91-0.42c-3.65-0.14-7.44,0-11.08-0.28c4.77-13.61,9.26-27.22,14.03-40.83c3.09-0.56,6.17-0.28,9.26-0.42
		c5.33,0,10.52-0.42,15.72-0.42c2.39-3.37,3.37-7.58,3.79-11.65C386.79,243.51,362.66,242.95,338.66,243.23z"/>
	<path id="XMLID_9_" class="st0" d="M314.11,63.91c1.12-2.53,3.79-3.93,6.45-3.79c6.03,0,11.93,0.14,17.96,0.14
		c1.68,0,3.51,0.7,4.35,2.1c1.54,2.39,0.42,5.33-0.7,7.58c-3.79,0.28-7.58,0.28-11.51,0.28c0.28-1.26,0.7-2.39,0.98-3.65
		c-1.96,0-3.93,0-5.89-0.14c-0.7,2.24-1.4,4.63-1.96,6.88c7.3,0,14.59,0,21.75,0.14c-0.56,2.24-0.98,4.35-1.54,6.59
		c-6.59,0-13.33,0-19.92,0c-0.84,0-1.54,0-2.39,0.14c-1.12,3.51-1.96,7.16-3.09,10.66l-0.28,0.28c-6.03,0-11.93-0.14-17.96-0.28
		c-1.12,0-2.53,0.42-2.95,1.54c-0.7,2.39-1.4,4.91-1.26,7.44c4.63,0.42,9.26,0.14,13.89,0.28c1.26-0.14,2.25,0.84,2.67,1.96
		c0.84,1.82,0.98,3.93,0.42,5.89c-0.84,3.37-1.82,6.74-2.81,9.96c-0.98,3.37-3.79,6.31-7.44,6.74c-3.65,0.14-7.44-0.28-11.08-0.42
		c-0.84,3.79-1.96,7.44-2.95,11.22c-3.93,0-7.86,0-11.79,0c0.98-3.23,2.1-6.45,3.23-9.68c-1.12-1.82-2.39-3.93-2.1-6.17
		c0.14-2.95,2.81-5.05,5.61-5.61c2.53-0.56,5.47-0.98,7.86,0.42c0.98,0.56,1.4,1.68,1.82,2.67c1.82,0,4.21,0.98,5.61-0.7
		c0.98-3.09,1.82-6.17,1.68-9.4c-4.49-0.28-8.98,0-13.47-0.42c-1.96-0.14-3.51-1.82-3.37-3.79c0.14-2.67,0.98-5.19,1.54-7.72
		c0.56-2.1,0.84-4.49,1.82-6.45c1.12-1.96,3.23-3.37,5.33-3.65c4.91-0.42,9.96,0.42,14.73-0.14c1.12-1.12,1.26-3.09,1.68-4.63
		c-14.73,0-29.61,0-44.34,0c0.56-2.24,0.7-4.63,1.68-6.59c14.87,0,29.61,0,44.48-0.14C312.15,70.23,312.71,67,314.11,63.91z"/>
	<path id="XMLID_10_" class="st0" d="M101.4,64.61c1.26-2.95,4.63-4.21,7.72-4.35c5.75,0,11.65,0.42,17.4,0.28
		c2.67-0.28,5.05,2.39,4.63,5.05c-0.28,2.67-1.4,5.19-1.82,7.72c3.93,0,7.72,0,11.65,0c-0.42,2.24-0.84,4.49-1.68,6.59
		c-3.93,0-7.86,0-11.79,0c-5.05,18.1-9.96,36.2-15.15,54.3c-3.93-0.14-7.72-0.42-11.65-0.56c4.91-17.96,9.96-35.92,15.01-53.74
		c-2.39,0-4.77,0-7.16,0c-5.19,17.96-10.24,35.92-15.43,53.74c-3.93,0-7.86,0-11.79-0.14c0.7-3.23,1.82-6.31,2.67-9.4
		c-7.02-0.14-14.03,0.28-21.05-0.28c-3.09-1.12-4.21-4.91-3.23-7.86c2.53-8.7,5.05-17.4,7.72-26.1c0.7-2.53,3.23-4.07,5.75-4.35
		c7.44-0.98,15.01-0.28,22.45-0.84c0.42-1.68,0.7-3.23,1.12-4.91c-16.28,0-32.55,0-48.83,0c0.42-2.24,0.98-4.49,1.54-6.59
		c16.42,0,32.83,0,49.11,0C99.57,70.51,100.27,67.56,101.4,64.61 M112.34,66.72c-0.56,2.24-1.4,4.49-1.82,6.74c2.39,0,4.77,0,7.16,0
		c0.56-2.24,1.4-4.35,1.54-6.59C116.83,66.58,114.59,66.44,112.34,66.72 M83.72,91.83c1.68,4.63,3.65,9.12,5.05,13.75
		c1.4-4.63,2.67-9.4,4.07-14.03C89.75,91.69,86.8,91.83,83.72,91.83 M73.05,110.36c-0.56,2.1-1.4,4.35-0.98,6.59
		c2.95,1.12,6.17,0.28,9.12,0.56c-1.82-5.61-3.51-11.22-5.47-16.84C74.74,103.76,74.03,107.13,73.05,110.36z"/>
	<path id="XMLID_15_" class="st0" d="M149.66,73.45c36.06,0,72.12,0,108.04,0c-0.42,2.24-0.98,4.35-1.4,6.59c-3.37,0-6.74,0-10.1,0
		c-5.19,17.96-10.24,35.92-15.43,53.74c-3.93,0-7.86,0-11.65-0.28c0.84-3.23,1.82-6.45,2.67-9.54c-6.88-0.14-13.75-0.14-20.63-0.42
		c-2.39-0.56-3.65-3.23-3.65-5.61c-0.14-2.39,0.7-4.63,1.26-6.88c1.82-6.74,3.79-13.47,5.61-20.2c-2.95,0-5.75,0-8.7,0
		c0.56-2.25,1.12-4.35,1.82-6.59c8.98,0,18.1,0.42,27.08,0.42c-0.7,2.1-1.4,4.35-2.25,6.45c-1.68-0.14-3.37-0.14-4.91,0
		c-2.25,6.88-4.35,13.89-6.59,20.77c-0.56,1.4-0.84,2.95-0.56,4.35c0.7,0.98,1.96,0.7,3.09,0.84c3.37,0,6.74,0,10.24,0.14
		c3.51-12.35,6.88-24.69,10.38-37.18c-14.31,0-28.62,0-43.08,0c-2.25,8.28-4.35,16.56-6.59,24.69c-0.84,3.23-3.79,6.03-7.3,6.03
		c-3.93,0-7.72,0-11.65,0c0.56-2.25,1.4-4.35,2.25-6.59c1.54-0.14,3.37,0.28,4.63-0.7c0.7-0.7,0.84-1.68,1.12-2.53
		c1.96-6.88,3.79-13.89,5.75-20.91c-4.49,0-8.84,0-13.33,0c-2.25,8.14-4.35,16.42-6.45,24.55c-0.56,1.82-0.42,3.79,0.56,5.33
		c4.49,7.86,8.98,15.71,13.61,23.57c-4.35,0-8.7,0.28-13.05,0c-3.93-6.88-7.72-13.75-11.65-20.77c-1.82-3.09-1.68-6.74-0.7-9.96
		c2.1-7.58,4.21-15.15,6.45-22.73c-2.25,0-4.35,0-6.59,0C148.54,77.8,149.1,75.7,149.66,73.45z"/>
	<path id="XMLID_16_" class="st0" d="M354.38,73.45c36.62,0,73.24,0,109.72,0c-0.42,2.24-1.12,4.35-1.68,6.59
		c-2.67,0.14-5.33-0.28-8,0.14c-5.05,17.82-9.96,35.78-15.15,53.6c-3.93,0-7.86,0-11.79-0.14c3.93-13.75,7.86-27.36,11.79-41.11
		c-0.28-0.42-0.56-0.84-0.84-1.4c-1.82-0.14-3.79-0.28-5.61,0.14c-0.84,0.14-1.26,0.84-1.4,1.54c-1.54,5.89-2.81,11.79-4.35,17.68
		c-3.79,0-7.58,0-11.37,0c1.26-5.61,2.95-11.22,4.21-16.98c0.28-0.84,0.14-1.68,0-2.39c-2.1-0.14-4.21-0.28-6.17-0.14
		c-1.26,1.68-1.4,3.79-2.1,5.75c-3.37,12.21-6.59,24.55-10.1,36.76c-3.93,0-7.86,0.14-11.93,0c4.07-14.31,8-28.48,11.93-42.8
		c0.84-3.23,3.51-6.17,7.02-6.31c5.33,0,10.66,0,15.86,0c1.82-0.14,3.09,1.54,3.79,3.09c1.12-1.54,2.39-3.23,4.49-3.51
		c2.95-0.28,5.89-0.14,8.7,0.42c0.56-1.54,0.98-3.23,1.26-4.77c-15.29,0-30.59,0-45.88,0c-2.24,8.14-4.35,16.42-6.73,24.55
		c-0.84,3.23-3.51,6.17-7.02,6.17c-3.93,0-8,0-11.93,0c0.7-2.25,1.4-4.35,2.25-6.59c1.82,0,4.63,0.42,5.33-1.82
		c2.1-7.44,4.21-14.87,6.17-22.17c-4.35,0-8.84,0-13.19,0c-2.1,7.72-4.07,15.43-6.03,23.15c-0.28,1.26-0.7,2.67-0.7,4.07
		c0.14,2.1,1.54,3.79,2.39,5.47c3.93,7.02,8.14,13.89,12.07,20.91c-4.35,0-8.7,0.14-13.05-0.14c-3.09-5.33-6.03-10.8-9.12-16.28
		c-1.26-2.53-2.95-4.77-3.65-7.44c-0.28-2.39-0.14-4.77,0.56-7.16c2.1-7.58,4.21-15.01,6.31-22.59c-2.53,0-5.05,0-7.58,0
		C353.26,77.8,353.82,75.7,354.38,73.45z"/>
	<path id="XMLID_17_" class="st0" d="M119.36,255.72c3.51-0.14,7.16-0.84,10.66,0c1.96,0.42,2.81,2.39,3.09,4.07
		c0.28,2.67-0.84,5.05-1.68,7.58c-2.67,7.02-5.33,14.17-8,21.19c-1.12,2.81-2.95,5.75-6.03,6.59c-2.67,0.28-5.19,0-7.86-0.28
		c-1.12-0.14-2.1-0.56-2.95-1.12C110.52,280.98,115.15,268.35,119.36,255.72z"/>
	<path id="XMLID_18_" class="st0" d="M100.41,311.56c2.81,0,5.75-0.42,8.56-0.28c1.54,0.14,3.51,0.56,4.35,2.1
		c1.26,2.53,0.7,5.47-0.28,7.86c-2.81,7.44-5.61,14.87-8.56,22.31c-0.84,2.1-1.82,4.21-3.37,5.75c-1.54,1.54-3.79,2.24-5.89,1.96
		c-2.67-0.42-5.61,0-8-1.54C91.57,336.96,95.92,324.19,100.41,311.56z"/>
	<path id="XMLID_19_" class="st1" d="M16.37,61.67c3.93-3.51,9.12-5.61,14.31-5.75c149.99,0,300.13,0,450.12,0
		c5.19,0,10.38,1.82,14.31,5.19c4.91,4.07,8,10.38,7.72,16.84c0,20.91,0,41.95,0,62.86c-164.59,0-329.17,0-493.76,0
		c0-21.19,0-42.23,0-63.42C9.21,71.63,11.88,65.6,16.37,61.67 M314.11,63.91c-1.4,3.09-1.96,6.31-2.95,9.54
		c-14.87,0-29.61,0-44.48,0.14c-0.98,1.96-1.26,4.35-1.68,6.59c14.73,0,29.61,0,44.34,0c-0.56,1.54-0.56,3.51-1.68,4.63
		c-4.91,0.56-9.82-0.28-14.73,0.14c-2.25,0.28-4.21,1.68-5.33,3.65c-0.98,1.96-1.26,4.35-1.82,6.45c-0.42,2.53-1.4,5.05-1.54,7.72
		c-0.14,1.96,1.4,3.65,3.37,3.79c4.49,0.42,8.98,0.14,13.47,0.42c0,3.23-0.7,6.45-1.68,9.4c-1.4,1.68-3.79,0.7-5.61,0.7
		c-0.42-0.98-0.84-2.1-1.82-2.67c-2.39-1.4-5.19-0.98-7.86-0.42c-2.81,0.56-5.47,2.67-5.61,5.61c-0.28,2.25,0.98,4.35,2.1,6.17
		c-1.12,3.23-2.25,6.45-3.23,9.68c3.93,0,7.86,0,11.79,0c0.98-3.79,2.1-7.44,2.95-11.22c3.65,0.14,7.44,0.42,11.08,0.42
		c3.65-0.42,6.45-3.37,7.44-6.74c0.98-3.37,1.96-6.59,2.81-9.96c0.56-1.96,0.28-4.07-0.42-5.89c-0.42-0.98-1.4-1.96-2.67-1.96
		c-4.63-0.14-9.26,0.14-13.89-0.28c-0.28-2.53,0.56-5.05,1.26-7.44c0.42-1.12,1.82-1.54,2.95-1.54c6.03,0.14,11.93,0.28,17.96,0.28
		l0.28-0.28c1.12-3.51,1.96-7.16,3.09-10.66c0.7-0.28,1.54-0.14,2.39-0.14c6.59,0,13.33,0,19.92,0c0.56-2.1,0.98-4.35,1.54-6.59
		c-7.3-0.14-14.59,0-21.75-0.14c0.56-2.24,1.26-4.63,1.96-6.88c1.96,0,3.93,0.14,5.89,0.14c-0.28,1.26-0.7,2.39-0.98,3.65
		c3.79,0,7.58,0,11.51-0.28c1.12-2.24,2.1-5.33,0.7-7.58c-0.84-1.4-2.67-2.24-4.35-2.1c-6.03,0-11.93-0.14-17.96-0.14
		C317.9,59.98,315.23,61.53,314.11,63.91 M101.4,64.61c-0.98,2.95-1.82,5.89-2.67,8.84c-16.42,0-32.83,0-49.11,0
		c-0.56,2.24-1.12,4.35-1.54,6.59c16.28,0,32.55,0,48.83,0c-0.42,1.68-0.84,3.23-1.12,4.91c-7.44,0.56-15.01-0.28-22.45,0.84
		c-2.53,0.28-5.05,1.82-5.75,4.35c-2.67,8.7-5.19,17.4-7.72,26.1c-0.98,2.95,0.28,6.74,3.23,7.86c7.02,0.56,14.03,0.14,21.05,0.28
		c-0.98,3.09-1.96,6.17-2.67,9.4c3.93,0.14,7.86,0.14,11.79,0.14c5.19-17.96,10.24-35.92,15.43-53.74c2.39,0,4.77,0,7.16,0
		c-5.05,17.96-10.24,35.78-15.01,53.74c3.93,0,7.72,0.42,11.65,0.56c5.19-18.1,10.1-36.2,15.15-54.3c3.93,0,7.86,0,11.79,0
		c0.84-2.1,1.26-4.35,1.68-6.59c-3.93,0-7.72,0-11.65,0c0.56-2.67,1.54-5.05,1.82-7.72c0.42-2.67-1.96-5.33-4.63-5.05
		c-5.75,0.14-11.65-0.28-17.4-0.28C106.03,60.4,102.52,61.67,101.4,64.61 M149.66,73.45c-0.56,2.1-1.12,4.35-1.68,6.59
		c2.24,0.14,4.35,0,6.59,0c-2.25,7.58-4.21,15.15-6.45,22.73c-0.98,3.23-1.12,7.02,0.7,9.96c3.93,6.88,7.72,13.89,11.65,20.77
		c4.35,0.28,8.7,0,13.05,0c-4.49-7.86-9.12-15.71-13.61-23.57c-0.98-1.54-1.12-3.51-0.56-5.33c2.1-8.14,4.21-16.42,6.45-24.55
		c4.49,0,8.84,0,13.33,0c-1.96,7.02-3.79,13.89-5.75,20.91c-0.28,0.84-0.42,1.82-1.12,2.53c-1.4,0.98-3.09,0.56-4.63,0.7
		c-0.7,2.25-1.54,4.35-2.25,6.59c3.93,0,7.72,0,11.65,0c3.51,0,6.31-2.81,7.3-6.03c2.25-8.28,4.49-16.42,6.59-24.69
		c14.31,0,28.62,0,43.08,0c-3.51,12.35-6.88,24.84-10.38,37.18c-3.37,0-6.74,0-10.24-0.14c-0.98-0.14-2.39,0.14-3.09-0.84
		c-0.28-1.54,0-2.95,0.56-4.35c2.25-6.88,4.35-13.89,6.59-20.77c1.68,0,3.37,0,4.91,0c0.84-2.1,1.54-4.35,2.25-6.45
		c-8.98,0-18.1-0.42-27.08-0.42c-0.7,2.1-1.26,4.35-1.82,6.59c2.95,0,5.75,0,8.7,0c-1.82,6.74-3.79,13.47-5.61,20.2
		c-0.56,2.25-1.4,4.49-1.26,6.88c0,2.39,1.26,4.91,3.65,5.61c6.88,0.28,13.75,0.42,20.63,0.42c-0.84,3.23-1.82,6.31-2.67,9.54
		c3.93,0.28,7.72,0.28,11.65,0.28c5.19-17.96,10.24-35.92,15.43-53.74c3.37,0,6.74,0,10.1,0c0.42-2.24,1.12-4.35,1.4-6.59
		C221.78,73.45,185.72,73.45,149.66,73.45 M354.38,73.45c-0.7,2.24-1.12,4.35-1.68,6.59c2.53,0,5.05,0,7.58,0
		c-1.96,7.58-4.21,15.01-6.31,22.59c-0.7,2.25-0.84,4.77-0.56,7.16c0.7,2.67,2.39,5.05,3.65,7.44c3.09,5.33,6.03,10.94,9.12,16.28
		c4.35,0.28,8.7,0.14,13.05,0.14c-3.93-7.02-8-13.89-12.07-20.91c-0.84-1.82-2.39-3.37-2.39-5.47c0-1.4,0.28-2.67,0.7-4.07
		c2.1-7.72,4.07-15.43,6.03-23.15c4.35,0,8.84,0,13.19,0c-1.96,7.44-4.07,14.87-6.17,22.17c-0.7,2.25-3.51,1.82-5.33,1.82
		c-0.84,2.25-1.54,4.35-2.24,6.59c3.93,0.14,8,0,11.93,0c3.51-0.14,6.17-2.95,7.02-6.17c2.39-8.14,4.35-16.42,6.73-24.55
		c15.29,0,30.59,0,45.88,0c-0.28,1.68-0.7,3.23-1.26,4.77c-2.81-0.7-5.75-0.7-8.7-0.42c-1.96,0.14-3.37,1.96-4.49,3.51
		c-0.7-1.54-1.82-3.23-3.79-3.09c-5.33,0-10.66,0-15.86,0c-3.51,0-6.17,3.09-7.02,6.31c-4.07,14.31-8,28.48-11.93,42.8
		c3.93,0.14,7.86,0,11.93,0c3.51-12.21,6.73-24.41,10.1-36.76c0.56-1.96,0.84-4.07,2.1-5.75c2.1-0.14,4.21,0,6.17,0.14
		c0.14,0.84,0.28,1.68,0,2.39c-1.4,5.61-2.95,11.22-4.21,16.98c3.79-0.14,7.58-0.14,11.37,0c1.54-5.89,2.81-11.79,4.35-17.68
		c0.14-0.7,0.56-1.4,1.4-1.54c1.82-0.42,3.79-0.28,5.61-0.14c0.28,0.42,0.56,0.84,0.84,1.4c-3.93,13.61-7.86,27.36-11.79,41.11
		c3.93,0.14,7.86,0.14,11.79,0.14c5.19-17.82,10.1-35.78,15.15-53.6c2.67-0.42,5.33,0,8-0.14c0.7-2.1,1.26-4.35,1.68-6.59
		C427.62,73.45,391,73.45,354.38,73.45z"/>
	<path id="XMLID_25_" class="st1" d="M112.34,66.72c2.25-0.14,4.49,0,6.88,0c-0.28,2.24-0.98,4.49-1.54,6.59
		c-2.39,0.14-4.77,0.14-7.16,0C110.94,71.21,111.64,68.96,112.34,66.72z"/>
	<path id="XMLID_26_" class="st1" d="M83.72,91.83c3.09-0.14,6.03-0.14,9.12-0.28c-1.26,4.63-2.53,9.4-4.07,14.03
		C87.36,100.95,85.4,96.46,83.72,91.83z"/>
	<path id="XMLID_27_" class="st1" d="M73.05,110.36c0.84-3.23,1.68-6.45,2.67-9.68c1.96,5.61,3.65,11.22,5.47,16.84
		c-3.09-0.28-6.17,0.56-9.12-0.56C71.65,114.71,72.63,112.46,73.05,110.36z"/>
	<path id="XMLID_28_" class="st1" d="M199.19,241.41c17.96-24.69,35.78-49.67,53.74-74.37c-7.72,25.4-15.86,50.65-23.71,76.19
		c8.28,0,16.56-0.14,24.84-0.14c-5.61,17.54-11.22,35.08-16.56,52.62c5.05,0.56,10.24,0.56,15.43,0.84
		c5.75-18.38,11.79-36.76,17.54-55.14c-2.53-0.28-4.91-0.28-7.44-0.28c2.81-3.37,5.33-7.02,8-10.52
		c14.87-20.49,29.75-40.97,44.48-61.46c0.42-0.7,1.12-0.98,1.82-1.26c-7.44,25.12-15.29,50.09-22.87,75.35
		c8.84,0.14,17.68-0.14,26.52,0.14c-13.75,41.11-27.64,82.22-41.25,123.33c2.53,0.14,5.19,0.14,7.72,0.28
		c-18.94,24.55-37.46,49.67-56.41,74.23c8-25.4,15.71-50.93,23.71-76.47c-7.44-0.14-15.01,0-22.45-0.14
		c5.33-17.68,10.52-35.5,15.86-53.18c-5.05-0.56-10.1-0.98-15.29-1.4c-6.31,18.94-13.05,37.74-19.22,56.69c2.25,0,4.63,0,7.02,0
		c-17.12,23.71-34.24,47.43-51.35,71c7.58-24.41,15.29-48.69,22.73-73.1c-8.28,0-16.56-0.14-24.84-0.14
		c13.19-41.11,26.24-82.08,39.29-123.19C203.82,241.41,201.44,241.41,199.19,241.41z"/>
	<path id="XMLID_29_" class="st1" d="M84.28,243.09c0.7-0.42,1.54-0.14,2.24-0.28c31.57,0,63.14,0,94.71,0
		c1.96,0,4.35,0.7,4.91,2.81c0.7,2.95,0,6.03-0.98,8.98c-4.63,14.17-9.12,28.34-13.75,42.51c-1.12,3.37-4.77,4.77-7.72,6.31
		c1.54,1.68,2.81,3.65,2.67,6.03c0,3.79-2.1,7.16-3.23,10.66c-5.75,14.87-11.51,29.61-17.4,44.48c-34.38,0.14-68.61,0-102.99,0.28
		c-0.7-1.26-0.84-2.67-0.42-4.07C55.79,321.39,68.56,281.68,84.28,243.09 M119.36,255.72c-4.35,12.63-8.98,25.26-13.05,38.02
		c0.98,0.56,1.96,1.12,2.95,1.12c2.67,0.28,5.19,0.56,7.86,0.28c3.09-0.84,4.91-3.79,6.03-6.59c2.67-7.02,5.33-14.03,8-21.19
		c0.84-2.39,2.1-4.91,1.68-7.58c-0.14-1.82-1.12-3.79-3.09-4.07C126.51,254.74,123,255.44,119.36,255.72 M100.41,311.56
		c-4.49,12.63-8.84,25.4-13.19,38.02c2.39,1.68,5.33,1.26,8,1.54c2.1,0.28,4.35-0.42,5.89-1.96c1.68-1.54,2.67-3.79,3.37-5.75
		c2.81-7.44,5.61-14.87,8.56-22.31c0.84-2.53,1.54-5.47,0.28-7.86c-0.84-1.54-2.67-1.96-4.35-2.1
		C106.17,311.14,103.22,311.56,100.41,311.56z"/>
	<path id="XMLID_33_" class="st1" d="M422.71,242.95c6.59,0.14,13.19,0.56,19.78,0.56c9.12,0.56,18.24,0.28,27.36,0.84
		c-11.51,35.5-23.29,70.86-34.8,106.36c5.75,0.42,11.37,0.14,17.12,0.56c2.25,0.14,4.49,0.14,6.73,0.28
		c0.28,5.05-1.54,9.96-4.49,13.89c-23.85-0.42-47.71-0.42-71.7-0.56c-0.14-2.39-0.56-4.91,0-7.44
		C396.05,319.28,409.52,281.12,422.71,242.95z"/>
	<path id="XMLID_34_" class="st1" d="M338.66,243.23c23.99-0.28,48.13,0.28,72.12,0c-0.42,4.07-1.4,8.14-3.79,11.65
		c-5.33,0-10.52,0.42-15.71,0.42c-3.09,0.14-6.31-0.14-9.26,0.42c-4.77,13.61-9.26,27.22-14.03,40.83
		c3.65,0.28,7.44,0.14,11.08,0.28c4.35,0.28,8.56,0.42,12.91,0.42c-0.28,4.63-1.54,9.26-3.65,13.47c-8.42,0-16.84-0.14-25.26,0.28
		c-4.91,13.05-9.68,26.24-14.31,39.29c8,0.42,16.14,1.26,24.13,1.82c0.28,4.63-1.26,9.12-3.23,13.19
		c-23.15-0.28-46.3-0.42-69.45-0.42c-2.25,0.28-3.65-2.1-2.95-4.07c7.16-21.47,14.45-43.08,22.03-64.4
		C325.33,278.45,331.93,260.77,338.66,243.23z"/>
</g>
</svg>
