<?xml version="1.0" encoding="UTF-8"?>
<svg version="1.1" xmlns="http://www.w3.org/2000/svg" width="289" height="175">
<path d="M0 0 C0.85183868 0.00215515 1.70367737 0.0043103 2.58132935 0.00653076 C47.24273438 0.18719185 93.57583589 11.7809678 125.875 44.3125 C139.19944889 58.30896458 144.6287873 74.70322513 144.25 93.70703125 C143.45745848 110.50042001 134.32789848 123.65607667 122.875 135.3125 C122.08738281 136.12460938 121.29976563 136.93671875 120.48828125 137.7734375 C105.08899784 152.724656 84.85554029 161.69907238 64.625 168.0625 C63.78235596 168.33223633 62.93971191 168.60197266 62.0715332 168.87988281 C43.06582541 174.56075594 24.34344179 175.98551235 4.58154297 175.88891602 C0.6433417 175.87506451 -3.29246656 175.90925402 -7.23046875 175.94726562 C-38.28270384 176.04274564 -68.92747224 169.77701732 -96.125 154.3125 C-97.27226563 153.66410156 -98.41953125 153.01570312 -99.6015625 152.34765625 C-107.00923598 147.96724043 -113.68001294 143.00877584 -120.125 137.3125 C-120.83269531 136.70019531 -121.54039063 136.08789062 -122.26953125 135.45703125 C-133.69376041 124.88905595 -142.41686823 109.00247849 -143.36328125 93.37890625 C-143.85574573 73.43409497 -137.63332186 58.04106647 -124.125 43.3125 C-103.62952671 22.27176373 -75.78818506 10.87878628 -47.5625 4.5625 C-46.67771973 4.36358154 -45.79293945 4.16466309 -44.88134766 3.9597168 C-29.9807198 0.81642598 -15.184651 -0.06960911 0 0 Z M-121.375 52.75 C-131.3195465 64.37870357 -135.98689691 77.2460461 -135.5078125 92.640625 C-133.92450703 107.82743255 -126.39812072 118.56495452 -116.125 129.3125 C-115.33029297 130.21935547 -115.33029297 130.21935547 -114.51953125 131.14453125 C-91.45360029 156.4636894 -47.92363665 166.77095824 -15.125 168.3125 C10.85113238 169.23689099 35.75270637 167.2739705 60.875 160.3125 C61.54257324 160.12993652 62.21014648 159.94737305 62.89794922 159.75927734 C80.28324642 154.86754524 96.80074649 146.60180826 110.875 135.3125 C111.71160156 134.65765625 112.54820312 134.0028125 113.41015625 133.328125 C124.69872897 123.95647973 132.42016339 111.53918524 135.875 97.3125 C137.23632488 81.32484738 134.08787986 67.53047748 123.875 54.82421875 C96.61139605 23.51975922 56.16931146 11.58718539 15.85131836 8.49560547 C-32.63561644 5.51265074 -87.0396871 15.81352704 -121.375 52.75 Z " fill="#E23239" transform="translate(143.125,-0.3125)"/>
<path d="M0 0 C5.03755321 4.23071717 8.61280253 9.02099605 9.90234375 15.59765625 C11.28220843 31.46610003 7.33664717 42.50993212 -2.87109375 54.71875 C-13.06365274 65.74993726 -26.11127344 71.82396666 -40.94140625 72.7421875 C-45.64580373 72.52676336 -49.02325335 70.79817765 -53.09765625 68.59765625 C-57.66251972 67.07603509 -60.54970788 68.2646369 -65.09765625 69.59765625 C-68.87987838 69.92370988 -71.4120464 69.8510338 -74.97265625 68.53515625 C-77.09765625 66.59765625 -77.09765625 66.59765625 -78.16015625 63.41015625 C-78.06284818 57.47436417 -76.266684 53.766684 -72.0703125 49.5703125 C-67.64254836 45.86915581 -64.06948441 43.38049886 -58.09765625 43.59765625 C-56.67670844 44.05306478 -55.27098124 44.5582237 -53.8828125 45.10546875 C-53.17133057 45.38277832 -52.45984863 45.66008789 -51.72680664 45.94580078 C-50.9203772 46.26846924 -50.9203772 46.26846924 -50.09765625 46.59765625 C-48.1510718 42.62287238 -46.21707252 38.64208749 -44.28515625 34.66015625 C-43.73794922 33.54318359 -43.19074219 32.42621094 -42.62695312 31.27539062 C-39.65525732 25.13388597 -37.07209921 19.13063769 -35.09765625 12.59765625 C-30.33458188 11.64504138 -25.93100345 11.51432268 -21.09765625 11.59765625 C-21.60128636 16.97201042 -23.01246427 21.12160608 -25.53515625 25.91015625 C-25.8813501 26.5865918 -26.22754395 27.26302734 -26.58422852 27.95996094 C-29.85054201 34.27795476 -33.32244226 40.48734147 -36.85913086 46.6574707 C-37.26655518 47.37507568 -37.67397949 48.09268066 -38.09375 48.83203125 C-38.45654053 49.46334961 -38.81933105 50.09466797 -39.19311523 50.74511719 C-40.13661711 52.67744978 -40.65200974 54.49919829 -41.09765625 56.59765625 C-34.93796184 59.12141993 -30.63958981 60.09908362 -24.09765625 58.59765625 C-20.8805268 57.23951618 -20.8805268 57.23951618 -18.09765625 55.59765625 C-17.35515625 55.28828125 -16.61265625 54.97890625 -15.84765625 54.66015625 C-13.56710413 53.27553532 -13.23054233 52.01475254 -12.09765625 49.59765625 C-11.61167969 48.64890625 -11.12570313 47.70015625 -10.625 46.72265625 C-10.10035156 45.69140625 -9.57570313 44.66015625 -9.03515625 43.59765625 C-8.50792969 42.56640625 -7.98070313 41.53515625 -7.4375 40.47265625 C-3.91415717 32.91236377 -3.60841868 22.94438648 -6.28515625 15.03515625 C-8.99887438 9.88844946 -12.26792989 6.21325513 -17.828125 4.10546875 C-27.24808631 1.99773214 -36.53895414 3.27448931 -45.09765625 7.59765625 C-48.16040316 9.63813663 -48.16040316 9.63813663 -50.09765625 11.59765625 C-49.76765625 13.24765625 -49.43765625 14.89765625 -49.09765625 16.59765625 C-47.11765625 16.92765625 -45.13765625 17.25765625 -43.09765625 17.59765625 C-43.48660876 23.04299138 -45.31255155 25.72452586 -49.09765625 29.59765625 C-51.78868129 31.66077544 -53.07546813 31.59765625 -56.53515625 31.59765625 C-61.12308342 30.30981704 -62.51857773 28.54212929 -65.09765625 24.59765625 C-66.88312548 20.46875866 -65.72880188 16.99664125 -64.23046875 12.93359375 C-59.95229607 4.11170663 -51.51183355 -2.03308093 -42.41015625 -5.21484375 C-28.4028204 -9.56740574 -12.04981305 -8.86848809 0 0 Z M-67.09765625 53.59765625 C-67.09765625 55.57765625 -67.09765625 57.55765625 -67.09765625 59.59765625 C-64.62265625 60.09265625 -64.62265625 60.09265625 -62.09765625 60.59765625 C-61.76765625 59.60765625 -61.43765625 58.61765625 -61.09765625 57.59765625 C-62.26432292 55.34765625 -62.26432292 55.34765625 -64.09765625 53.59765625 C-65.08765625 53.59765625 -66.07765625 53.59765625 -67.09765625 53.59765625 Z " fill="#E8232B" transform="translate(123.09765625,53.40234375)"/>
<path d="M0 0 C1.27230469 0.22236328 1.27230469 0.22236328 2.5703125 0.44921875 C5.45035866 1.5280157 6.36075288 2.66619593 7.875 5.3125 C8.3676297 9.25353763 8.43623198 11.41452883 6.3125 14.8125 C2.89217697 16.91731417 0.68335623 16.19135144 -3.125 15.3125 C-3.96954356 11.93432575 -4.23344919 9.63784757 -3.125 6.3125 C-5.765 6.3125 -8.405 6.3125 -11.125 6.3125 C-10.58605395 12.12744426 -8.2353618 16.71946743 -5.6875 21.875 C2.3374666 38.34329639 2.3374666 38.34329639 0.875 46.3125 C-1.13972127 49.74247026 -3.5438684 52.5219342 -7.125 54.3125 C-10.06769626 54.5440658 -12.98967487 54.71465566 -15.9375 54.83984375 C-16.86256348 54.88116928 -17.78762695 54.92249481 -18.74072266 54.96507263 C-31.52958036 55.49949456 -44.32741589 55.67853084 -57.125 55.875 C-58.43351929 55.89617889 -59.74203857 55.91735779 -61.09020996 55.93917847 C-82.43640789 56.28341417 -103.77644349 56.4510993 -125.125 56.3125 C-124.64768501 52.01666508 -122.36646971 49.99148295 -119.125 47.3125 C-115.78892517 46.67999268 -115.78892517 46.67999268 -111.93334961 46.66894531 C-111.22657074 46.6600679 -110.51979187 46.65119049 -109.79159546 46.64204407 C-107.45303332 46.61835253 -105.11597846 46.62957857 -102.77734375 46.640625 C-101.12519238 46.63002019 -99.47305443 46.61709856 -97.82093811 46.60198975 C-93.45367656 46.56772975 -89.08685998 46.56240539 -84.71948242 46.56390381 C-80.3838715 46.5616131 -76.04842032 46.5368432 -71.71289062 46.51171875 C-70.86685587 46.50682686 -70.02082111 46.50193497 -69.14914894 46.49689484 C-67.45124504 46.48702888 -65.75334171 46.4770629 -64.055439 46.46699524 C-61.53845965 46.45318599 -59.02148364 46.44285026 -56.50448608 46.4329834 C-42.36292645 46.36792557 -28.25263668 45.95324348 -14.125 45.3125 C-12.90646805 40.43314694 -13.90448593 37.43894958 -15.875 32.9375 C-16.14054687 32.30328125 -16.40609375 31.6690625 -16.6796875 31.015625 C-17.75015327 28.46937147 -18.84446027 25.93570756 -19.97827148 23.41699219 C-22.01097196 18.84844153 -23.31888739 15.25305837 -22.125 10.3125 C-19.25976398 5.37956788 -15.45178638 2.35254585 -10.125 0.3125 C-6.47450446 -0.63481868 -3.70171353 -0.70751405 0 0 Z " fill="#E31E26" transform="translate(234.125,73.6875)"/>
<path d="M0 0 C0.76975159 0.00076035 1.53950317 0.00152069 2.33258057 0.00230408 C3.13318909 -0.00334061 3.93379761 -0.00898529 4.75866699 -0.01480103 C7.37334231 -0.02689287 9.98743688 -0.02053399 12.60211182 -0.00941467 C13.49141388 -0.00725952 14.38071594 -0.00510437 15.29696655 -0.00288391 C60.97374066 0.17562362 105.94823099 11.89912929 139.41461182 44.30308533 C140.32340088 45.14226501 140.32340088 45.14226501 141.25054932 45.99839783 C142.41461182 47.30308533 142.41461182 47.30308533 142.41461182 49.30308533 C141.09461182 49.63308533 139.77461182 49.96308533 138.41461182 50.30308533 C138.32051025 49.71914001 138.22640869 49.1351947 138.12945557 48.53355408 C137.25547612 45.80654718 136.03397832 44.58692724 133.97711182 42.61558533 C133.35965088 42.01359314 132.74218994 41.41160095 132.10601807 40.79136658 C130.47067628 39.22482426 130.47067628 39.22482426 128.41461182 38.30308533 C128.74461182 40.28308533 129.07461182 42.26308533 129.41461182 44.30308533 C130.40461182 44.30308533 131.39461182 44.30308533 132.41461182 44.30308533 C132.41461182 45.62308533 132.41461182 46.94308533 132.41461182 48.30308533 C132.97148682 48.50933533 133.52836182 48.71558533 134.10211182 48.92808533 C137.33962484 50.85309307 139.09692323 53.34159435 141.41461182 56.30308533 C140.42461182 57.29308533 140.42461182 57.29308533 139.41461182 58.30308533 C138.72496338 57.52964783 138.03531494 56.75621033 137.32476807 55.95933533 C108.50624608 23.88194463 68.50205607 12.38140685 26.41461182 9.30308533 C26.41461182 8.97308533 26.41461182 8.64308533 26.41461182 8.30308533 C27.46261963 8.17031189 28.51062744 8.03753845 29.59039307 7.90074158 C30.96931959 7.72251298 32.34822474 7.54411892 33.72711182 7.36558533 C34.41740479 7.27857361 35.10769775 7.19156189 35.81890869 7.10191345 C38.81603469 6.71098397 41.53911301 6.26158493 44.41461182 5.30308533 C37.87986252 3.65274988 31.85565743 2.97591908 25.12945557 2.88902283 C24.18776016 2.86965668 23.24606476 2.85029053 22.27583313 2.83033752 C19.30134824 2.7710966 16.32682346 2.72438059 13.35211182 2.67808533 C11.32149703 2.63985437 9.29089758 2.60079975 7.26031494 2.56089783 C2.31187341 2.46544144 -2.63664389 2.38120835 -7.58538818 2.30308533 C-5.05783006 -0.2244728 -3.44982076 0.04575691 0 0 Z " fill="#E4262E" transform="translate(129.58538818359375,-0.3030853271484375)"/>
<path d="M0 0 C2.45840605 -0.02691685 4.91651882 -0.04679802 7.375 -0.0625 C8.07367188 -0.07087891 8.77234375 -0.07925781 9.4921875 -0.08789062 C14.7734375 -0.11328125 14.7734375 -0.11328125 17 1 C18.56761301 19.11463926 9.98423231 39.51719421 -0.98046875 53.53125 C-4.17363195 57.03940608 -6.0412698 58.79227512 -10.75 59.8125 C-14 59 -14 59 -16.3125 56.9375 C-20.15292674 50.25231271 -20.26595361 44.09267548 -20.125 36.5625 C-20.11597656 35.64017578 -20.10695312 34.71785156 -20.09765625 33.76757812 C-20.0742766 31.51144191 -20.04150916 29.25586316 -20 27 C-20.639375 26.896875 -21.27875 26.79375 -21.9375 26.6875 C-22.618125 26.460625 -23.29875 26.23375 -24 26 C-24.33 25.01 -24.66 24.02 -25 23 C-24.01 21.515 -24.01 21.515 -23 20 C-20.6875 19.671875 -20.6875 19.671875 -18 19.75 C-16.6696875 19.77320313 -16.6696875 19.77320313 -15.3125 19.796875 C-13 20 -13 20 -11 21 C-11.0721875 21.7528125 -11.144375 22.505625 -11.21875 23.28125 C-11.99918489 32.21289373 -12.10345669 41.04524877 -12 50 C-5.48245076 47.47016181 -2.62650353 40.25300706 0.33984375 34.3203125 C3.36791014 27.05726359 4.03006605 19.79907155 3 12 C1.90923458 9.66911125 0.59093629 8.05282103 -1 6 C-0.62109375 2.84375 -0.62109375 2.84375 0 0 Z " fill="#E32D35" transform="translate(179,54)"/>
<path d="M0 0 C-0.33 2.64 -0.66 5.28 -1 8 C-0.01 8.495 -0.01 8.495 1 9 C-9.30623008 13.67912568 -19.62268826 17.71182186 -30.5 20.875 C-31.47710937 21.16060791 -32.45421875 21.44621582 -33.4609375 21.74047852 C-54.33972778 27.63739294 -54.33972778 27.63739294 -61.3125 25.1875 C-63 24 -63 24 -64 21 C-77.2 21 -90.4 21 -104 21 C-104 20.67 -104 20.34 -104 20 C-103.2471875 19.98541748 -102.494375 19.97083496 -101.71875 19.95581055 C-68.19772563 19.23626793 -35.04097829 16.04461056 -4.51171875 1.13671875 C-2 0 -2 0 0 0 Z " fill="#E43035" transform="translate(234,148)"/>
<path d="M0 0 C1.45823212 -0.0270043 2.91660675 -0.04639787 4.375 -0.0625 C5.18710938 -0.07410156 5.99921875 -0.08570312 6.8359375 -0.09765625 C9 0 9 0 11 1 C10.43812427 6.85287215 8.73623954 11.70952833 6.5 17.125 C3.67028073 23.88627841 3.67028073 23.88627841 2 31 C5.465 30.505 5.465 30.505 9 30 C7.80838951 34.63404081 5.53344734 36.4048178 1.75390625 38.984375 C-2.14149832 41.24006584 -5.58759844 41.31517154 -10 41 C-12 39.9375 -12 39.9375 -13 38 C-12.55521703 32.99580818 -11.33267976 28.71680024 -9.53125 24.04296875 C-9.29088013 23.41393143 -9.05051025 22.7848941 -8.80285645 22.13679504 C-8.04203639 20.15100345 -7.27109685 18.1693203 -6.5 16.1875 C-5.98242572 14.83944101 -5.46549279 13.49113561 -4.94921875 12.14257812 C-1.22988713 2.45977425 -1.22988713 2.45977425 0 0 Z " fill="#E8222A" transform="translate(198,73)"/>
<path d="M0 0 C3.3 0 6.6 0 10 0 C11.06415337 3.89313899 10.95673813 6.00089347 9.34765625 9.6875 C8.98349609 10.55117187 8.61933594 11.41484375 8.24414062 12.3046875 C7.65922852 13.63886719 7.65922852 13.63886719 7.0625 15 C6.2953586 16.76737085 5.53595521 18.53812502 4.78515625 20.3125 C4.44363525 21.09238281 4.10211426 21.87226562 3.75024414 22.67578125 C2.92362778 25.23659732 2.86481557 27.32589232 3 30 C4.98 30 6.96 30 9 30 C7.15349003 34.98557691 3.08922432 37.90315723 -1.5 40.3125 C-5.22944837 41.3380983 -8.41258411 41.81931143 -11.9375 40 C-13.66208399 36.75372426 -12.70913186 33.46870217 -12 30 C-11.07833106 27.01315395 -9.93762657 24.14000612 -8.75 21.25 C-8.43861084 20.47156738 -8.12722168 19.69313477 -7.80639648 18.89111328 C-6.88196068 16.58939866 -5.94382808 14.29382208 -5 12 C-4.73010254 11.34161133 -4.46020508 10.68322266 -4.18212891 10.00488281 C-2.80831379 6.66125274 -1.41529738 3.32627495 0 0 Z " fill="#E6333A" transform="translate(141,73)"/>
<path d="M0 0 C1.18443695 0.00141495 2.3688739 0.0028299 3.58920288 0.00428772 C7.33814111 0.00984416 11.0870176 0.02238843 14.8359375 0.03515625 C17.39192622 0.04017688 19.94791588 0.0447388 22.50390625 0.04882812 C28.73960408 0.05979929 34.97526637 0.07649349 41.2109375 0.09765625 C39.8909375 0.42765625 38.5709375 0.75765625 37.2109375 1.09765625 C37.2109375 2.08765625 37.2109375 3.07765625 37.2109375 4.09765625 C38.2009375 3.76765625 39.1909375 3.43765625 40.2109375 3.09765625 C40.7059375 4.58265625 40.7059375 4.58265625 41.2109375 6.09765625 C40.2109375 7.09765625 40.2109375 7.09765625 37.77488708 7.21791077 C36.69344925 7.21569016 35.61201141 7.21346954 34.49780273 7.21118164 C33.2766124 7.21110611 32.05542206 7.21103058 30.79722595 7.21095276 C29.45466064 7.20584536 28.11209575 7.20062936 26.76953125 7.1953125 C25.40332592 7.19344824 24.03711993 7.19202438 22.6709137 7.19102478 C19.06892055 7.18720019 15.4669675 7.17737042 11.86499023 7.1663208 C8.19190005 7.15610541 4.51880341 7.15152689 0.84570312 7.14648438 C-6.36590373 7.13574809 -13.5774775 7.11867239 -20.7890625 7.09765625 C-21.4490625 5.11765625 -22.1090625 3.13765625 -22.7890625 1.09765625 C-15.17244419 0.15398845 -7.66896915 -0.03504138 0 0 Z " fill="#E91F26" transform="translate(133.7890625,167.90234375)"/>
<path d="M0 0 C-0.66 0.66 -1.32 1.32 -2 2 C-2 1.34 -2 0.68 -2 0 C-2.99 0 -3.98 0 -5 0 C-5.33 1.65 -5.66 3.3 -6 5 C-7 2 -7 2 -7 0 C-8.98 0.99 -8.98 0.99 -11 2 C-11 3.65 -11 5.3 -11 7 C-11.86625 6.67 -12.7325 6.34 -13.625 6 C-22.80606068 3.43525026 -32.00867631 4.29210611 -40.59765625 8.22265625 C-43.4546406 9.14711135 -45.14625072 8.80881664 -48 8 C-47.67 6.68 -47.34 5.36 -47 4 C-44.03 4.495 -44.03 4.495 -41 5 C-40.67 4.01 -40.34 3.02 -40 2 C-39.01 1.67 -38.02 1.34 -37 1 C-37 -0.32 -37 -1.64 -37 -3 C-37.66 -3.33 -38.32 -3.66 -39 -4 C-25.97756745 -7.53150713 -11.63938506 -7.52764578 0 0 Z " fill="#E1454C" transform="translate(121,52)"/>
<path d="M0 0 C1.21370773 0.00707474 2.42741547 0.01414948 3.67790222 0.0214386 C7.55022087 0.04940236 11.42108792 0.11215034 15.29296875 0.17578125 C17.91990098 0.20086129 20.54685589 0.22367496 23.17382812 0.24414062 C29.60986935 0.29923595 36.04506534 0.3828847 42.48046875 0.48828125 C42.48046875 0.81828125 42.48046875 1.14828125 42.48046875 1.48828125 C24.99046875 1.81828125 7.50046875 2.14828125 -10.51953125 2.48828125 C-6.88953125 2.81828125 -3.25953125 3.14828125 0.48046875 3.48828125 C0.48046875 4.14828125 0.48046875 4.80828125 0.48046875 5.48828125 C39.09046875 6.47828125 39.09046875 6.47828125 78.48046875 7.48828125 C78.48046875 7.81828125 78.48046875 8.14828125 78.48046875 8.48828125 C69.25140873 8.66097517 60.02224107 8.827356 50.79296875 8.98828125 C50.11200638 9.0001585 49.43104401 9.01203575 48.72944641 9.02427292 C26.31186866 9.41325429 3.9016584 9.63384431 -18.51953125 9.48828125 C-18.20968459 6.69966134 -17.29011324 5.13778239 -15.73950195 2.76879883 C-10.74779975 -0.76653291 -5.96639788 -0.13078889 0 0 Z " fill="#DD4D53" transform="translate(127.51953125,120.51171875)"/>
<path d="M0 0 C0.33 0 0.66 0 1 0 C1.08302368 1.05912598 1.08302368 1.05912598 1.16772461 2.13964844 C1.42083142 5.34338537 1.67910904 8.54668511 1.9375 11.75 C2.02451172 12.86117187 2.11152344 13.97234375 2.20117188 15.1171875 C2.28818359 16.18710938 2.37519531 17.25703125 2.46484375 18.359375 C2.543396 19.34389648 2.62194824 20.32841797 2.70288086 21.34277344 C2.96368412 23.67521612 3.23295141 25.78274522 4 28 C4.66 28.33 5.32 28.66 6 29 C6 30.65 6 32.3 6 34 C6.99 34 7.98 34 9 34 C8.67 31.36 8.34 28.72 8 26 C7.34 26 6.68 26 6 26 C6 23.03 6 20.06 6 17 C6.66 17.33 7.32 17.66 8 18 C8.64982691 19.95834202 9.21951255 21.94351867 9.75 23.9375 C11.63427473 30.34965877 14.28244802 35.4833119 18 41 C18.63035156 41.96486328 18.63035156 41.96486328 19.2734375 42.94921875 C20.16749238 44.30932351 21.08089664 45.65669508 22 47 C21.01 47 20.02 47 19 47 C19 46.34 19 45.68 19 45 C18.01 45.495 18.01 45.495 17 46 C16.34786708 48.02463255 16.34786708 48.02463255 16 50 C16.5775 50.47050781 17.155 50.94101563 17.75 51.42578125 C18.4925 52.04839844 19.235 52.67101562 20 53.3125 C20.7425 53.92738281 21.485 54.54226562 22.25 55.17578125 C24 57 24 57 24 60 C12.74336792 51.08849961 1.12394273 36.29634801 -0.77612305 21.47045898 C-1.39083861 14.68713641 -1.30706956 7.79837722 -1 1 C-0.67 0.67 -0.34 0.34 0 0 Z " fill="#E33B44" transform="translate(1,78)"/>
<path d="M0 0 C0.66 0.33 1.32 0.66 2 1 C1.67 2.65 1.34 4.3 1 6 C2.98 6.66 4.96 7.32 7 8 C6.34 9.32 5.68 10.64 5 12 C4.34 11.01 3.68 10.02 3 9 C2.01 8.67 1.02 8.34 0 8 C0.33 10.64 0.66 13.28 1 16 C2.98 15.67 4.96 15.34 7 15 C7.66 17.31 8.32 19.62 9 22 C3.17937773 23.90061135 -1.90223624 25.14482574 -7.875 22.9375 C-10 21 -10 21 -11.0625 17.8125 C-10.96933778 12.12960483 -9.1875724 8.2015953 -5.171875 4.16015625 C-3.48877673 2.70626039 -1.78605797 1.32449243 0 0 Z " fill="#DD222A" transform="translate(56,99)"/>
<path d="M0 0 C2.3125 -0.328125 2.3125 -0.328125 5 -0.25 C6.3303125 -0.22679688 6.3303125 -0.22679688 7.6875 -0.203125 C10 0 10 0 12 1 C11.9278125 1.74121094 11.855625 2.48242188 11.78125 3.24609375 C10.96412455 12.51819785 10.89974826 21.69886646 11 31 C9.35 30.67 7.7 30.34 6 30 C5.67 30.66 5.34 31.32 5 32 C2.35618704 27.05586159 2.77495972 22.13199976 2.875 16.6875 C2.88402344 15.75615234 2.89304688 14.82480469 2.90234375 13.86523438 C2.92581737 11.5765564 2.95865271 9.28841328 3 7 C2.360625 6.896875 1.72125 6.79375 1.0625 6.6875 C0.381875 6.460625 -0.29875 6.23375 -1 6 C-1.33 5.01 -1.66 4.02 -2 3 C-1.34 2.01 -0.68 1.02 0 0 Z " fill="#D84D51" transform="translate(156,74)"/>
<path d="M0 0 C3.15835107 1.39750048 5.32272825 3.05198234 7.75 5.5 C8.67039062 6.41265625 8.67039062 6.41265625 9.609375 7.34375 C11 9 11 9 11 11 C11.75023437 11.05800781 12.50046875 11.11601563 13.2734375 11.17578125 C16.96452586 12.2915687 17.68763889 13.90990963 19.625 17.1875 C20.21796875 18.18910156 20.8109375 19.19070312 21.421875 20.22265625 C21.94265625 21.13917969 22.4634375 22.05570313 23 23 C23.61875 24.03125 24.2375 25.0625 24.875 26.125 C26.40193346 30.02716328 26.73195814 33.84072973 27 38 C26.34 38 25.68 38 25 38 C24.67 37.34 24.34 36.68 24 36 C23.01 36.495 23.01 36.495 22 37 C21.34 36.01 20.68 35.02 20 34 C19.34 34 18.68 34 18 34 C16.9901527 32.08850332 15.99245505 30.17058431 15 28.25 C14.443125 27.18265625 13.88625 26.1153125 13.3125 25.015625 C12 22 12 22 12 18 C11.34 17.34 10.68 16.68 10 16 C9.34 15.154375 8.68 14.30875 8 13.4375 C6.23362558 10.94690328 6.23362558 10.94690328 4 10 C4 8.68 4 7.36 4 6 C3.01 6 2.02 6 1 6 C1 5.34 1 4.68 1 4 C0.34 3.67 -0.32 3.34 -1 3 C-0.67 2.01 -0.34 1.02 0 0 Z " fill="#E1373E" transform="translate(258,38)"/>
<path d="M0 0 C-0.66 1.32 -1.32 2.64 -2 4 C-1.01 4.495 -1.01 4.495 0 5 C0 5.66 0 6.32 0 7 C-2.3736397 7.50734284 -4.74857425 8.00602386 -7.125 8.5 C-8.12273437 8.71462891 -8.12273437 8.71462891 -9.140625 8.93359375 C-13.95017325 9.92379486 -18.58943863 10.84695399 -23.3125 9.1875 C-25 8 -25 8 -26 5 C-39.2 5 -52.4 5 -66 5 C-66 4.67 -66 4.34 -66 4 C-65.2471875 3.98541748 -64.494375 3.97083496 -63.71875 3.95581055 C-49.35155761 3.64741283 -35.27599503 3.01205917 -21.03125 1.02294922 C-13.95534867 0.05219971 -7.15023289 -0.37706306 0 0 Z " fill="#E42D35" transform="translate(196,164)"/>
<path d="M0 0 C0.66 0.99 1.32 1.98 2 3 C1.69728039 4.34061543 1.36162029 5.67405895 1 7 C1.37907282 9.18703385 1.37907282 9.18703385 2 11 C3.65 9.68 5.3 8.36 7 7 C7.66 7.33 8.32 7.66 9 8 C5.66187479 18.14068306 -4.9027663 25.23026983 -14 30 C-14.66 30 -15.32 30 -16 30 C-16.33 28.68 -16.66 27.36 -17 26 C-15.35 26 -13.7 26 -12 26 C-12.34444881 23.52733235 -12.34444881 23.52733235 -13 21 C-13.66 20.67 -14.32 20.34 -15 20 C-10.25 16 -10.25 16 -8 16 C-7.73445313 15.46890625 -7.46890625 14.9378125 -7.1953125 14.390625 C-4.796875 9.59375 -2.3984375 4.796875 0 0 Z " fill="#E4383F" transform="translate(117,91)"/>
<path d="M0 0 C2.45840605 -0.02691685 4.91651882 -0.04679802 7.375 -0.0625 C8.07367188 -0.07087891 8.77234375 -0.07925781 9.4921875 -0.08789062 C14.7734375 -0.11328125 14.7734375 -0.11328125 17 1 C17.18451025 11.55808656 17.18451025 11.55808656 16 16 C15.34 15.34 14.68 14.68 14 14 C14 13.01 14 12.02 14 11 C13.01 11 12.02 11 11 11 C11 9.35 11 7.7 11 6 C9.35 6.66 7.7 7.32 6 8 C5.67 13.28 5.34 18.56 5 24 C4.67 24 4.34 24 4 24 C3.97421875 23.20335938 3.9484375 22.40671875 3.921875 21.5859375 C3.57109109 15.03265629 2.87012706 11.41817788 -1 6 C-0.6171875 2.8359375 -0.6171875 2.8359375 0 0 Z " fill="#E5373D" transform="translate(179,54)"/>
<path d="M0 0 C1.2065625 0.0309375 1.2065625 0.0309375 2.4375 0.0625 C2.60504147 4.15567863 2.76560824 8.24906495 2.91967773 12.34277344 C2.97309149 13.73575222 3.02842043 15.12865893 3.08569336 16.52148438 C3.16762069 18.52193602 3.24212098 20.5226875 3.31640625 22.5234375 C3.3635376 23.72790527 3.41066895 24.93237305 3.45922852 26.17333984 C3.4375 29.0625 3.4375 29.0625 2.4375 31.0625 C3.0975 31.0625 3.7575 31.0625 4.4375 31.0625 C5.79189668 33.77129335 5.50251451 36.07183268 5.4375 39.0625 C4.4475 39.0625 3.4575 39.0625 2.4375 39.0625 C2.4375 37.4125 2.4375 35.7625 2.4375 34.0625 C1.4475 33.7325 0.4575 33.4025 -0.5625 33.0625 C-1.99457792 25.3181563 -2.82398013 17.66978814 -3.25 9.8125 C-3.29825928 8.96647217 -3.34651855 8.12044434 -3.39624023 7.2487793 C-3.49581975 5.18834652 -3.53491307 3.12515321 -3.5625 1.0625 C-2.5625 0.0625 -2.5625 0.0625 0 0 Z " fill="#E71E26" transform="translate(4.5625,72.9375)"/>
<path d="M0 0 C-1.43652105 4.91441412 -3.54159615 9.00238358 -6.125 13.375 C-6.49753906 14.01566406 -6.87007812 14.65632813 -7.25390625 15.31640625 C-8.16434002 16.88048477 -9.08148191 18.44065534 -10 20 C-10.66 19.67 -11.32 19.34 -12 19 C-12 17.68 -12 16.36 -12 15 C-12.66 15 -13.32 15 -14 15 C-14.33 15.99 -14.66 16.98 -15 18 C-15.99 17.34 -16.98 16.68 -18 16 C-18 16.66 -18 17.32 -18 18 C-18.99 18 -19.98 18 -21 18 C-21 18.66 -21 19.32 -21 20 C-21.66 19.67 -22.32 19.34 -23 19 C-20.03 13.06 -17.06 7.12 -14 1 C-13 5 -13 5 -13 8 C-12.443125 7.484375 -11.88625 6.96875 -11.3125 6.4375 C-9 5 -9 5 -6.25 5.3125 C-5.5075 5.539375 -4.765 5.76625 -4 6 C-4.66 4.68 -5.32 3.36 -6 2 C-3 0 -3 0 0 0 Z " fill="#E4353D" transform="translate(96,81)"/>
<path d="M0 0 C0.144375 0.61875 0.28875 1.2375 0.4375 1.875 C0.93152225 4.03258322 0.93152225 4.03258322 2 6 C3.65 5.67 5.3 5.34 7 5 C6.34 5 5.68 5 5 5 C5 4.34 5 3.68 5 3 C5.99 3 6.98 3 8 3 C8 3.66 8 4.32 8 5 C8.66 5 9.32 5 10 5 C9.505 3.515 9.505 3.515 9 2 C9.99 2 10.98 2 12 2 C12 6 12 6 9.9375 8.75 C5.48161572 12.22881086 -0.17696039 11.51156119 -5.5390625 11.46875 C-9.05413036 10.99266857 -10.60279556 10.57973269 -13 8 C-13 7.01 -13 6.02 -13 5 C-18.28 4.67 -23.56 4.34 -29 4 C-29 3.67 -29 3.34 -29 3 C-19.76 2.67 -10.52 2.34 -1 2 C-0.67 1.34 -0.34 0.68 0 0 Z " fill="#E51B25" transform="translate(221,117)"/>
<path d="M0 0 C1.15480865 0.00118584 1.15480865 0.00118584 2.33294678 0.00239563 C3.13464294 -0.00297714 3.93633911 -0.00834991 4.7623291 -0.0138855 C7.37587118 -0.02529869 9.98893348 -0.01885628 12.60247803 -0.00932312 C13.48380402 -0.00916199 14.36513 -0.00900085 15.27316284 -0.00883484 C29.20541213 0.00897829 42.67536306 0.83972404 56.41497803 3.30317688 C52.89873048 5.24475705 50.44341293 5.48628756 46.41497803 5.30317688 C46.41497803 6.29317688 46.41497803 7.28317688 46.41497803 8.30317688 C39.71822667 9.33344632 33.18351043 9.40470487 26.41497803 9.30317688 C26.41497803 8.97317688 26.41497803 8.64317688 26.41497803 8.30317688 C27.46298584 8.17040344 28.51099365 8.03763 29.59075928 7.90083313 C30.96968581 7.72260453 32.34859095 7.54421047 33.72747803 7.36567688 C34.417771 7.27866516 35.10806396 7.19165344 35.8192749 7.102005 C38.8164009 6.71107553 41.53947922 6.26167648 44.41497803 5.30317688 C37.88022873 3.65284144 31.85602364 2.97601063 25.12982178 2.88911438 C24.18812637 2.86974823 23.24643097 2.85038208 22.27619934 2.83042908 C19.30171445 2.77118815 16.32718967 2.72447214 13.35247803 2.67817688 C11.32186324 2.63994592 9.29126379 2.6008913 7.26068115 2.56098938 C2.31223962 2.46553299 -2.63627768 2.3812999 -7.58502197 2.30317688 C-5.05754589 -0.2242992 -3.44970118 0.04591053 0 0 Z " fill="#E1494E" transform="translate(129.58502197265625,-0.3031768798828125)"/>
<path d="M0 0 C0.99 0 1.98 0 3 0 C3 0.66 3 1.32 3 2 C3.66 2 4.32 2 5 2 C5 1.34 5 0.68 5 0 C7.3125 -0.25 7.3125 -0.25 10 0 C12.73482251 2.35760561 12.98758539 3.90068314 13.4375 7.5 C13 11 13 11 11.4375 13.5 C8.01717697 15.60481417 5.80835623 14.87885144 2 14 C1.15545644 10.62182575 0.89155081 8.32534757 2 5 C1.34 4.67 0.68 4.34 0 4 C0.66 4 1.32 4 2 4 C2 3.34 2 2.68 2 2 C1.34 2 0.68 2 0 2 C0 1.34 0 0.68 0 0 Z " fill="#EC1A23" transform="translate(229,75)"/>
<path d="M0 0 C1.32 0 2.64 0 4 0 C4 1.65 4 3.3 4 5 C4.99 5 5.98 5 7 5 C8.1577506 8.47325181 8.06866652 11.36067448 8 15 C7.34 15 6.68 15 6 15 C5.67 15.99 5.34 16.98 5 18 C3.66923011 18.34342449 2.33568021 18.67619874 1 19 C0.34 19.99 -0.32 20.98 -1 22 C-1.66 22 -2.32 22 -3 22 C-2.89040282 18.70762945 -2.75971069 15.41643113 -2.625 12.125 C-2.5940625 11.18785156 -2.563125 10.25070313 -2.53125 9.28515625 C-2.49257812 8.38925781 -2.45390625 7.49335937 -2.4140625 6.5703125 C-2.3826416 5.74289551 -2.3512207 4.91547852 -2.31884766 4.06298828 C-2 2 -2 2 0 0 Z " fill="#EA1F27" transform="translate(186,60)"/>
<path d="M0 0 C3.59757585 1.54895627 6.12532462 3.73695948 9 6.375 C9.845625 7.14585938 10.69125 7.91671875 11.5625 8.7109375 C12.366875 9.46632813 13.17125 10.22171875 14 11 C14.763125 11.71414062 15.52625 12.42828125 16.3125 13.1640625 C18 15 18 15 18 17 C16.68 17.33 15.36 17.66 14 18 C13.90589844 17.41605469 13.81179688 16.83210938 13.71484375 16.23046875 C12.84086431 13.50346185 11.61936651 12.28384191 9.5625 10.3125 C8.94503906 9.71050781 8.32757813 9.10851562 7.69140625 8.48828125 C6.05606447 6.92173893 6.05606447 6.92173893 4 6 C4.33 7.98 4.66 9.96 5 12 C5.99 12 6.98 12 8 12 C8 13.32 8 14.64 8 16 C8.8353125 16.309375 8.8353125 16.309375 9.6875 16.625 C12.92501302 18.55000774 14.68231141 21.03850902 17 24 C16.34 24.66 15.68 25.32 15 26 C14.31035156 25.2265625 13.62070312 24.453125 12.91015625 23.65625 C7.78073107 17.95362783 2.61209676 12.52465436 -3.22265625 7.5234375 C-5 6 -5 6 -7 4 C-5.125 3.375 -5.125 3.375 -3 3 C-2.34 3.66 -1.68 4.32 -1 5 C-0.34 4.34 0.32 3.68 1 3 C0.67 2.01 0.34 1.02 0 0 Z " fill="#E03940" transform="translate(254,32)"/>
<path d="M0 0 C1.9453125 -0.29296875 1.9453125 -0.29296875 4.125 -0.1875 C5.40375 -0.125625 6.6825 -0.06375 8 0 C9.71050559 4.97601626 8.00885647 8.42616295 6 13 C4.54263913 13.19491452 3.08405407 13.38069358 1.625 13.5625 C0.81289062 13.66691406 0.00078125 13.77132812 -0.8359375 13.87890625 C-3 14 -3 14 -5 13 C-4.54803755 11.39402675 -4.08817673 9.79027492 -3.625 8.1875 C-3.36976563 7.29417969 -3.11453125 6.40085937 -2.8515625 5.48046875 C-2 3 -2 3 0 0 Z " fill="#E01A23" transform="translate(206,55)"/>
<path d="M0 0 C2.01822917 0.06510417 4.03645833 0.13020833 6.0546875 0.1953125 C7.38268853 3.73664857 7.01712482 6.04633806 5.6171875 9.4453125 C4.3157928 11.8700163 3.66257106 12.95911317 1.07421875 13.96484375 C-1.88282801 14.36881189 -4.23384681 14.55104534 -6.9453125 13.1953125 C-6.49536493 11.40152152 -6.03507107 9.61032322 -5.5703125 7.8203125 C-5.31507813 6.82257812 -5.05984375 5.82484375 -4.796875 4.796875 C-3.84176407 1.8789673 -3.21965272 0.32325831 0 0 Z " fill="#E61C29" transform="translate(150.9453125,54.8046875)"/>
<path d="M0 0 C2.01171228 3.01756841 2.43221762 4.51219396 3 8 C3.185625 9.093125 3.37125 10.18625 3.5625 11.3125 C3.706875 12.199375 3.85125 13.08625 4 14 C3.01 14 2.02 14 1 14 C1 14.66 1 15.32 1 16 C0.34 16 -0.32 16 -1 16 C-1 15.34 -1 14.68 -1 14 C-1.99 14 -2.98 14 -4 14 C-4 14.66 -4 15.32 -4 16 C-3.34 16 -2.68 16 -2 16 C-2.33 16.99 -2.66 17.98 -3 19 C-5.31 18.01 -7.62 17.02 -10 16 C-9.34 15.67 -8.68 15.34 -8 15 C-8 12.03 -8 9.06 -8 6 C-7.01 5.67 -6.02 5.34 -5 5 C-3.79117904 2.99983534 -3.79117904 2.99983534 -3 1 C-2.34 1.33 -1.68 1.66 -1 2 C-0.67 1.34 -0.34 0.68 0 0 Z " fill="#EA1B23" transform="translate(230,106)"/>
<path d="M0 0 C-0.30656385 6.62177926 -1.74288723 11.22125154 -5 17 C-5.99 17 -6.98 17 -8 17 C-8.33 17.66 -8.66 18.32 -9 19 C-9.99 18.67 -10.98 18.34 -12 18 C-12.34615998 12.34605369 -11.43425238 8.96993194 -9 4 C-8.01 4 -7.02 4 -6 4 C-6 3.01 -6 2.02 -6 1 C-3.92446352 0.4465236 -2.15634036 0 0 0 Z " fill="#E62C34" transform="translate(285,100)"/>
<path d="M0 0 C2 3 2 3 1.828125 5.15625 C1.63734375 5.9296875 1.4465625 6.703125 1.25 7.5 C1.06953125 8.2734375 0.8890625 9.046875 0.703125 9.84375 C0 12 0 12 -2 15 C-2 14.34 -2 13.68 -2 13 C-4.50037734 15.17424117 -5.43628586 16.73045798 -6 20 C-6.66 19.67 -7.32 19.34 -8 19 C-8.66 21.97 -9.32 24.94 -10 28 C-10.99 27.34 -11.98 26.68 -13 26 C-13.97341359 19.46422306 -11.4273368 13.99248774 -9 8 C-8.67 8.66 -8.34 9.32 -8 10 C-7.34 10 -6.68 10 -6 10 C-5.71125 9.38125 -5.4225 8.7625 -5.125 8.125 C-4 6 -4 6 -2 4 C-2 4.66 -2 5.32 -2 6 C-1.34 6 -0.68 6 0 6 C0 4.02 0 2.04 0 0 Z " fill="#E73138" transform="translate(191,72)"/>
<path d="M0 0 C1.25127906 3.54667178 0.72285053 5.72253438 -0.4375 9.25 C-0.72496094 10.14203125 -1.01242188 11.0340625 -1.30859375 11.953125 C-1.53675781 12.62859375 -1.76492187 13.3040625 -2 14 C-0.35 13.67 1.3 13.34 3 13 C3 13.66 3 14.32 3 15 C2.360625 15.103125 1.72125 15.20625 1.0625 15.3125 C0.0415625 15.6528125 0.0415625 15.6528125 -1 16 C-1.33 16.99 -1.66 17.98 -2 19 C0.97 18.67 3.94 18.34 7 18 C7 14.37 7 10.74 7 7 C7.33 8.32 7.66 9.64 8 11 C12.455 10.505 12.455 10.505 17 10 C14.50492366 14.99015269 11.43701573 17.72056674 6.5 20.3125 C2.77055163 21.3380983 -0.41258411 21.81931143 -3.9375 20 C-5.71313672 16.657625 -4.89051589 13.50933564 -4 10 C-2.80193414 6.60386976 -1.45170008 3.29502157 0 0 Z " fill="#DF3B44" transform="translate(133,93)"/>
<path d="M0 0 C1.5169043 -0.00386719 1.5169043 -0.00386719 3.06445312 -0.0078125 C4.63936523 0.00378906 4.63936523 0.00378906 6.24609375 0.015625 C7.29990234 0.00789062 8.35371094 0.00015625 9.43945312 -0.0078125 C10.44943359 -0.00523438 11.45941406 -0.00265625 12.5 0 C13.42240479 0.00225586 14.34480957 0.00451172 15.29516602 0.00683594 C17.68359375 0.265625 17.68359375 0.265625 20.68359375 2.265625 C9.86249594 8.50856604 -6.34296415 5.0032628 -18.31640625 4.265625 C-18.31640625 3.935625 -18.31640625 3.605625 -18.31640625 3.265625 C-17.713125 3.21664063 -17.10984375 3.16765625 -16.48828125 3.1171875 C-15.6890625 3.04242188 -14.88984375 2.96765625 -14.06640625 2.890625 C-12.88304687 2.78621094 -12.88304687 2.78621094 -11.67578125 2.6796875 C-9.32439458 2.39980208 -9.32439458 2.39980208 -7.5012207 1.25634766 C-4.85355447 0.05574093 -2.90096328 0.00708601 0 0 Z " fill="#E61A22" transform="translate(154.31640625,2.734375)"/>
<path d="M0 0 C0 0.66 0 1.32 0 2 C3.12525548 3.00454641 4.87400196 2.85254492 8 2 C9.66623639 1.96213099 11.33397597 1.95372155 13 2 C13 1.34 13 0.68 13 0 C15.64 0.33 18.28 0.66 21 1 C18.12017424 2.53858239 15.3302101 3.58253857 12.19140625 4.47265625 C11.27939453 4.73240234 10.36738281 4.99214844 9.42773438 5.25976562 C8.00944336 5.65711914 8.00944336 5.65711914 6.5625 6.0625 C5.62083984 6.33126953 4.67917969 6.60003906 3.70898438 6.87695312 C-0.51215828 8.07150373 -4.68762822 9.18076948 -9 10 C-9 9.34 -9 8.68 -9 8 C-8.34 8 -7.68 8 -7 8 C-6.67 6.35 -6.34 4.7 -6 3 C-7.98 3 -9.96 3 -12 3 C-4.82142857 -1.78571429 -4.82142857 -1.78571429 0 0 Z " fill="#E23C42" transform="translate(78,11)"/>
<path d="M0 0 C0.66 0.99 1.32 1.98 2 3 C4.11785113 4.11785113 4.11785113 4.11785113 7 5 C7.0272415 6.41655793 7.04650467 7.83327045 7.0625 9.25 C7.07410156 10.03890625 7.08570313 10.8278125 7.09765625 11.640625 C7 14 7 14 6 18 C3.03 18.33 0.06 18.66 -3 19 C-2.67 17.68 -2.34 16.36 -2 15 C-0.68 15 0.64 15 2 15 C2 14.34 2 13.68 2 13 C0.35 13.33 -1.3 13.66 -3 14 C-2.28547412 9.23649415 -1.20465156 4.65798604 0 0 Z " fill="#EB1B22" transform="translate(134,93)"/>
<path d="M0 0 C0.103125 0.639375 0.20625 1.27875 0.3125 1.9375 C0.539375 2.618125 0.76625 3.29875 1 4 C1.99 4.33 2.98 4.66 4 5 C5.238234 9.1649689 4.85080751 12.01200563 3.625 16.0625 C1.73471566 22.32892207 1.30030497 28.48648874 1 35 C0.67 35 0.34 35 0 35 C0 28.07 0 21.14 0 14 C-0.99 14.33 -1.98 14.66 -3 15 C-3.66 14.67 -4.32 14.34 -5 14 C-4.54636829 12.41531323 -4.08688548 10.83230076 -3.625 9.25 C-3.36976562 8.36828125 -3.11453125 7.4865625 -2.8515625 6.578125 C-2.0790066 4.23919428 -1.16374324 2.16557438 0 0 Z " fill="#E7484F" transform="translate(7,59)"/>
<path d="M0 0 C-0.43820891 4.55737263 -0.85041169 7.57653445 -4 11 C-4.33 10.01 -4.66 9.02 -5 8 C-5.66 8 -6.32 8 -7 8 C-7.33 7.34 -7.66 6.68 -8 6 C-10.52733235 5.34444881 -10.52733235 5.34444881 -13 5 C-13.09796875 5.69867188 -13.1959375 6.39734375 -13.296875 7.1171875 C-13.44640625 8.02726562 -13.5959375 8.93734375 -13.75 9.875 C-13.88921875 10.77992187 -14.0284375 11.68484375 -14.171875 12.6171875 C-15 15 -15 15 -17.078125 16.3203125 C-17.71234375 16.54460937 -18.3465625 16.76890625 -19 17 C-17.41078475 11.63904723 -15.81027062 6.29156027 -14 1 C-9.23692563 0.04738513 -4.8333472 -0.08333357 0 0 Z " fill="#E1252D" transform="translate(102,65)"/>
<path d="M0 0 C0.61875 0.556875 1.2375 1.11375 1.875 1.6875 C1.875 2.6775 1.875 3.6675 1.875 4.6875 C-1.31324568 6.28162284 -4.75396662 5.78924735 -8.25 5.75 C-9.00410156 5.74548828 -9.75820312 5.74097656 -10.53515625 5.73632812 C-12.39847127 5.72453499 -14.26174555 5.70659942 -16.125 5.6875 C-16.455 3.7075 -16.785 1.7275 -17.125 -0.3125 C-11.45016904 -1.9376248 -5.48335764 -2.30301021 0 0 Z " fill="#EA1C25" transform="translate(104.125,49.3125)"/>
<path d="M0 0 C1.32 0 2.64 0 4 0 C4.33 1.32 4.66 2.64 5 4 C5.33 2.68 5.66 1.36 6 0 C9.51121797 0.2926015 10.80482666 0.8099628 13.375 3.3125 C15 6 15 6 15.125 8.1875 C14 10 14 10 11.125 11.375 C10.09375 11.58125 9.0625 11.7875 8 12 C5 10 5 10 3 7 C2.01 7 1.02 7 0 7 C-0.38133299 5.0085944 -0.71325582 3.00720923 -1 1 C-0.67 0.67 -0.34 0.34 0 0 Z " fill="#EB1B23" transform="translate(110,52)"/>
<path d="M0 0 C1.32 0 2.64 0 4 0 C4 6.93 4 13.86 4 21 C2.02 21.66 0.04 22.32 -2 23 C-1.86068862 19.9163358 -1.71240719 16.83316583 -1.5625 13.75 C-1.52318359 12.87730469 -1.48386719 12.00460938 -1.44335938 11.10546875 C-1.40146484 10.26113281 -1.35957031 9.41679688 -1.31640625 8.546875 C-1.27974854 7.77182617 -1.24309082 6.99677734 -1.20532227 6.19824219 C-1.00396985 4.0425024 -0.58270703 2.08198525 0 0 Z " fill="#E61B23" transform="translate(281,77)"/>
<path d="M0 0 C7.73465096 1.13700865 14.73969251 3.10711152 22 6 C21.01 6.99 20.02 7.98 19 9 C17.35 8.34 15.7 7.68 14 7 C14 7.66 14 8.32 14 9 C10.1496895 11.56687367 8.41430237 10.83288724 4 10 C5.32 9.67 6.64 9.34 8 9 C8 8.34 8 7.68 8 7 C7.01 7 6.02 7 5 7 C4.67 6.34 4.34 5.68 4 5 C1.97536745 4.34786708 1.97536745 4.34786708 0 4 C0 2.68 0 1.36 0 0 Z " fill="#E33B42" transform="translate(196,6)"/>
<path d="M0 0 C2.31 0.33 4.62 0.66 7 1 C9.01454482 6.72838126 9.10977288 11.42146856 8.625 17.4375 C8.56828125 18.26443359 8.5115625 19.09136719 8.453125 19.94335938 C8.31303232 21.96302888 8.15805019 23.98165637 8 26 C6.68 25.67 5.36 25.34 4 25 C3.67 18.07 3.34 11.14 3 4 C2.01 4 1.02 4 0 4 C0 2.68 0 1.36 0 0 Z " fill="#EB1921" transform="translate(157,76)"/>
<path d="M0 0 C0.4375 2.0625 0.4375 2.0625 0 5 C-1.96769062 7.83441148 -4.14793626 10.05440613 -7 12 C-10.8125 12.3125 -10.8125 12.3125 -14 12 C-14.66 12.66 -15.32 13.32 -16 14 C-16.33 13.01 -16.66 12.02 -17 11 C-16.34 10.01 -15.68 9.02 -15 8 C-14.01 8 -13.02 8 -12 8 C-11.67 6.68 -11.34 5.36 -11 4 C-9.35 3.67 -7.7 3.34 -6 3 C-6 2.34 -6 1.68 -6 1 C-3.92446352 0.4465236 -2.15634036 0 0 0 Z " fill="#E52B32" transform="translate(267,129)"/>
<path d="M0 0 C0.66 0 1.32 0 2 0 C2.66 0.66 3.32 1.32 4 2 C4.64582031 2.29132813 5.29164062 2.58265625 5.95703125 2.8828125 C8.40747087 4.22282346 9.26350497 5.49418811 10.6875 7.875 C11.10386719 8.55304688 11.52023438 9.23109375 11.94921875 9.9296875 C12.97769469 11.95605274 13.54720627 13.78081315 14 16 C10.625 15.75 10.625 15.75 7 15 C6.28928362 13.68961668 5.62717977 12.35235637 5 11 C3.29622335 9.26557712 3.29622335 9.26557712 1.375 7.75 C0.74335938 7.22921875 0.11171875 6.7084375 -0.5390625 6.171875 C-1.02117188 5.78515625 -1.50328125 5.3984375 -2 5 C-1.34 3.35 -0.68 1.7 0 0 Z " fill="#E71C23" transform="translate(18,123)"/>
<path d="M0 0 C0.721875 0.309375 1.44375 0.61875 2.1875 0.9375 C4.90270531 2.10299286 4.90270531 2.10299286 7.5625 2.25 C11.19682638 3.36825427 12.167439 5.8099864 14 9 C13.67 9.66 13.34 10.32 13 11 C10.9375 11.625 10.9375 11.625 9 12 C9 11.34 9 10.68 9 10 C7.906875 9.87625 6.81375 9.7525 5.6875 9.625 C2 9 2 9 -1 7 C-1.25 3.9375 -1.25 3.9375 -1 1 C-0.67 0.67 -0.34 0.34 0 0 Z " fill="#E32B34" transform="translate(242,26)"/>
<path d="M0 0 C-1.43554025 0.50559908 -2.8735202 1.0042749 -4.3125 1.5 C-5.51326172 1.91765625 -5.51326172 1.91765625 -6.73828125 2.34375 C-9 3 -9 3 -12 3 C-12 3.66 -12 4.32 -12 5 C-16.95 4.67 -21.9 4.34 -27 4 C-27 3.34 -27 2.68 -27 2 C-24.36 2 -21.72 2 -19 2 C-19 1.01 -19 0.02 -19 -1 C-12.54450809 -2.32420347 -5.89489786 -3.37422887 0 0 Z " fill="#E3353B" transform="translate(195,6)"/>
<path d="M0 0 C-0.61875 0.2475 -1.2375 0.495 -1.875 0.75 C-4.37776452 2.22221442 -4.9940581 3.31748828 -6 6 C-6 6.66 -6 7.32 -6 8 C-4.35 8 -2.7 8 -1 8 C-1 8.33 -1 8.66 -1 9 C-4.87540045 9.17615457 -7.75515269 9.28341107 -11 7 C-11.495 5.515 -11.495 5.515 -12 4 C-25.2 4 -38.4 4 -52 4 C-52 3.67 -52 3.34 -52 3 C-50.8236499 2.970271 -50.8236499 2.970271 -49.62353516 2.93994141 C-35.82413993 2.57419378 -22.10532851 2.20458512 -8.40625 0.40234375 C-5.55491117 0.0655457 -2.8646673 -0.08263463 0 0 Z " fill="#E46266" transform="translate(182,165)"/>
<path d="M0 0 C0.33 0 0.66 0 1 0 C1.08302368 1.05912598 1.08302368 1.05912598 1.16772461 2.13964844 C1.42083142 5.34338537 1.67910904 8.54668511 1.9375 11.75 C2.02451172 12.86117187 2.11152344 13.97234375 2.20117188 15.1171875 C2.28818359 16.18710938 2.37519531 17.25703125 2.46484375 18.359375 C2.543396 19.34389648 2.62194824 20.32841797 2.70288086 21.34277344 C2.96368412 23.67521612 3.23295141 25.78274522 4 28 C4.66 28.33 5.32 28.66 6 29 C6 30.65 6 32.3 6 34 C6.99 34.33 7.98 34.66 9 35 C8.34 36.32 7.68 37.64 7 39 C4.53765015 36.01000375 3.1594825 33.20860977 1.875 29.5625 C1.54242188 28.63566406 1.20984375 27.70882812 0.8671875 26.75390625 C-0.94515169 20.99850476 -1.15352683 15.74063478 -1.125 9.75 C-1.12886719 8.92242187 -1.13273438 8.09484375 -1.13671875 7.2421875 C-1.12669335 1.12669335 -1.12669335 1.12669335 0 0 Z " fill="#DE4950" transform="translate(1,78)"/>
<path d="M0 0 C0.33 1.32 0.66 2.64 1 4 C3.97 3.34 6.94 2.68 10 2 C11.41687119 6.25061356 10.19320039 8.71851625 9 13 C8.34 11.68 7.68 10.36 7 9 C4.67642489 8.81509993 4.67642489 8.81509993 2 11 C0.68 11 -0.64 11 -2 11 C-2.33 12.32 -2.66 13.64 -3 15 C-3.66 15 -4.32 15 -5 15 C-1.92482916 4.44191344 -1.92482916 4.44191344 0 0 Z " fill="#E63B42" transform="translate(191,91)"/>
<path d="M0 0 C-0.33 1.65 -0.66 3.3 -1 5 C-1.66 5 -2.32 5 -3 5 C-3 5.66 -3 6.32 -3 7 C-4.98567708 6.96744792 -6.97135417 6.93489583 -8.95703125 6.90234375 C-11.20305461 6.91736783 -11.20305461 6.91736783 -14 8 C-14 7.34 -14 6.68 -14 6 C-15.65 6 -17.3 6 -19 6 C-13.06769375 1.01686275 -7.53303761 -0.39647566 0 0 Z " fill="#E1343B" transform="translate(72,14)"/>
<path d="M0 0 C14.85 0.33 29.7 0.66 45 1 C45 1.33 45 1.66 45 2 C39.32504784 2.81352241 33.85307186 3.13614934 28.125 3.09765625 C27.31506592 3.0962413 26.50513184 3.09482635 25.6706543 3.09336853 C23.11373006 3.08782383 20.55689724 3.07528207 18 3.0625 C16.25390753 3.05747784 14.50781366 3.05291619 12.76171875 3.04882812 C8.50777791 3.0378726 4.25390439 3.02064694 0 3 C0 2.01 0 1.02 0 0 Z " fill="#D66167" transform="translate(109,127)"/>
<path d="M0 0 C3.15835107 1.39750048 5.32272825 3.05198234 7.75 5.5 C8.67039062 6.41265625 8.67039062 6.41265625 9.609375 7.34375 C11 9 11 9 11 11 C12.32 11.33 13.64 11.66 15 12 C15 13.65 15 15.3 15 17 C13.35 17 11.7 17 10 17 C9.7525 16.401875 9.505 15.80375 9.25 15.1875 C8.1279694 12.86575942 8.1279694 12.86575942 5.875 11.5 C5.25625 11.005 4.6375 10.51 4 10 C4 8.68 4 7.36 4 6 C3.01 6 2.02 6 1 6 C1 5.34 1 4.68 1 4 C0.34 3.67 -0.32 3.34 -1 3 C-0.67 2.01 -0.34 1.02 0 0 Z " fill="#EC1B24" transform="translate(258,38)"/>
<path d="M0 0 C0.66 0 1.32 0 2 0 C1.45714121 4.48189516 0.32932899 7.7558983 -1.875 11.6875 C-2.38804687 12.61949219 -2.90109375 13.55148438 -3.4296875 14.51171875 C-4.80090455 16.68451791 -6.09714099 18.29654239 -8 20 C-8.33 18.02 -8.66 16.04 -9 14 C-10.65 14.66 -12.3 15.32 -14 16 C-12.8141763 12.62496331 -11.72426311 10.35277269 -9 8 C-8.34 9.98 -7.68 11.96 -7 14 C-7 13.01 -7 12.02 -7 11 C-6.34 11 -5.68 11 -5 11 C-5 9.35 -5 7.7 -5 6 C-4.01 6 -3.02 6 -2 6 C-1.855625 5.195625 -1.71125 4.39125 -1.5625 3.5625 C-1 1 -1 1 0 0 Z " fill="#DF4145" transform="translate(187,85)"/>
<path d="M0 0 C0.33 0.66 0.66 1.32 1 2 C4.69571901 3.56357343 8.15558369 2.66537975 12 2 C11.505 2.556875 11.01 3.11375 10.5 3.6875 C8.75245633 6.38162983 8.73781251 7.85375007 9 11 C8.01 11.33 7.02 11.66 6 12 C5.67 10.68 5.34 9.36 5 8 C4.34 8 3.68 8 3 8 C2.34 8.66 1.68 9.32 1 10 C0.34 9.67 -0.32 9.34 -1 9 C-1 8.34 -1 7.68 -1 7 C-1.66 7 -2.32 7 -3 7 C-3 7.66 -3 8.32 -3 9 C-3.66 9 -4.32 9 -5 9 C-3.90931332 5.22454612 -3.0916909 2.52956528 0 0 Z " fill="#E63B43" transform="translate(64,59)"/>
<path d="M0 0 C0.33 1.32 0.66 2.64 1 4 C-2.22791555 6.1519437 -3.28400809 6.20086443 -7 6 C-7.33 7.32 -7.66 8.64 -8 10 C-3.38 10 1.24 10 6 10 C6 10.33 6 10.66 6 11 C3.58265458 11.08117951 1.16805051 11.14056926 -1.25 11.1875 C-1.93191406 11.21263672 -2.61382812 11.23777344 -3.31640625 11.26367188 C-6.47446238 11.30966298 -8.67382069 11.17385973 -11.484375 9.67578125 C-13 8 -13 8 -13 5 C-18.28 4.67 -23.56 4.34 -29 4 C-29 3.67 -29 3.34 -29 3 C-19.76 2.67 -10.52 2.34 -1 2 C-0.67 1.34 -0.34 0.68 0 0 Z " fill="#ED6F74" transform="translate(221,117)"/>
<path d="M0 0 C0.33 0.66 0.66 1.32 1 2 C0.67 2.66 0.34 3.32 0 4 C-0.99 4.33 -1.98 4.66 -3 5 C-3 5.99 -3 6.98 -3 8 C-2.01 7.67 -1.02 7.34 0 7 C0.99 7 1.98 7 3 7 C1.54144353 10.68646141 -0.30229045 12.16143971 -3.625 14.25 C-4.44226563 14.77078125 -5.25953125 15.2915625 -6.1015625 15.828125 C-7.04128906 16.40820312 -7.04128906 16.40820312 -8 17 C-8.66 15.68 -9.32 14.36 -10 13 C-8.68 12.67 -7.36 12.34 -6 12 C-7.65 10.68 -9.3 9.36 -11 8 C-7.37 5.36 -3.74 2.72 0 0 Z " fill="#DE474D" transform="translate(255,133)"/>
<path d="M0 0 C1.231394 2.46278801 1.07159196 4.2795055 1 7 C1.66 7 2.32 7 3 7 C3 6.01 3 5.02 3 4 C3.99 4 4.98 4 6 4 C6.33 2.68 6.66 1.36 7 0 C8.32 0.33 9.64 0.66 11 1 C9.57757077 2.65950077 8.15484775 4.31873421 6.73046875 5.9765625 C5.5812117 7.32038903 4.43791326 8.66933547 3.30078125 10.0234375 C2.76839844 10.65507813 2.23601563 11.28671875 1.6875 11.9375 C1.19636719 12.52402344 0.70523437 13.11054687 0.19921875 13.71484375 C-0.19652344 14.13894531 -0.59226562 14.56304687 -1 15 C-1.33 15 -1.66 15 -2 15 C-2.125 9.25 -2.125 9.25 -1 7 C-2.65 7.33 -4.3 7.66 -6 8 C-4.26440562 4.942048 -2.61527381 2.36620011 0 0 Z " fill="#E1424A" transform="translate(21,41)"/>
<path d="M0 0 C0 2.15634036 -0.4465236 3.92446352 -1 6 C-2.41543415 6.19658808 -3.83244031 6.38187546 -5.25 6.5625 C-6.03890625 6.66691406 -6.8278125 6.77132812 -7.640625 6.87890625 C-10.00532874 7.00027349 -11.7511037 6.69633257 -14 6 C-14 4.68 -14 3.36 -14 2 C-12.04396149 1.47061343 -10.08507711 0.95173199 -8.125 0.4375 C-7.03445312 0.14746094 -5.94390625 -0.14257812 -4.8203125 -0.44140625 C-2 -1 -2 -1 0 0 Z " fill="#E52C32" transform="translate(211,161)"/>
<path d="M0 0 C2.56160784 1.28080392 2.76461393 2.4565581 4 5 C4.53625 5.680625 5.0725 6.36125 5.625 7.0625 C7.20584604 9.29005579 7 10.30718334 7 13 C4.69 13 2.38 13 0 13 C0.33 11.35 0.66 9.7 1 8 C-0.65 8.33 -2.3 8.66 -4 9 C-3.6875 5.625 -3.6875 5.625 -3 2 C-2.01 1.34 -1.02 0.68 0 0 Z " fill="#EE1A23" transform="translate(51,108)"/>
<path d="M0 0 C-0.66 0.66 -1.32 1.32 -2 2 C-2 1.34 -2 0.68 -2 0 C-2.99 0 -3.98 0 -5 0 C-5.33 1.65 -5.66 3.3 -6 5 C-7 2 -7 2 -7 0 C-9.64 0.66 -12.28 1.32 -15 2 C-15.33 1.01 -15.66 0.02 -16 -1 C-17.99665314 -2.68538601 -17.99665314 -2.68538601 -20 -4 C-12.86369566 -6.67611413 -6.1432708 -3.51277452 0 0 Z " fill="#E23339" transform="translate(121,52)"/>
<path d="M0 0 C7.16562789 -0.28100502 13.94546999 0.79556805 21 2 C17.48375245 3.94158017 15.0284349 4.18311068 11 4 C11 4.99 11 5.98 11 7 C4.30324864 8.03026944 -2.2314676 8.10152799 -9 8 C-9 7.67 -9 7.34 -9 7 C-7.95199219 6.86722656 -6.90398437 6.73445312 -5.82421875 6.59765625 C-4.44529222 6.41942765 -3.06638707 6.24103359 -1.6875 6.0625 C-0.99720703 5.97548828 -0.30691406 5.88847656 0.40429688 5.79882812 C3.40142288 5.40789865 6.12450119 4.9584996 9 4 C4.545 3.01 4.545 3.01 0 2 C0 1.34 0 0.68 0 0 Z " fill="#E2555A" transform="translate(165,1)"/>
<path d="M0 0 C3.875 1.75 3.875 1.75 5 4 C5.35752493 7.8612692 5.52046997 10.16724804 3.4375 13.5 C0.01717697 15.60481417 -2.19164377 14.87885144 -6 14 C-6.33 12.35 -6.66 10.7 -7 9 C-6.34 8.67 -5.68 8.34 -5 8 C-5 9.32 -5 10.64 -5 12 C-2.69 12 -0.38 12 2 12 C1.74438677 9.6568787 1.40729228 7.32156597 1 5 C0.34 4.67 -0.32 4.34 -1 4 C-0.67 2.68 -0.34 1.36 0 0 Z " fill="#D8545C" transform="translate(237,75)"/>
<path d="M0 0 C0 0.66 0 1.32 0 2 C-9.41002278 5.44419134 -9.41002278 5.44419134 -14 5 C-14 6.32 -14 7.64 -14 9 C-11.03 9.495 -11.03 9.495 -8 10 C-11.6441774 12.4294516 -13.71241272 12.16179575 -18 12 C-17.34 10.35 -16.68 8.7 -16 7 C-18.97 6.505 -18.97 6.505 -22 6 C-18.35118324 3.9282933 -14.46766307 2.92431922 -10.4375 1.875 C-9.76525391 1.69324219 -9.09300781 1.51148438 -8.40039062 1.32421875 C-5.51269145 0.56143029 -3.0002579 0 0 0 Z " fill="#E34C52" transform="translate(211,158)"/>
<path d="M0 0 C3.63 0.66 7.26 1.32 11 2 C10.01 2.33 9.02 2.66 8 3 C8 3.66 8 4.32 8 5 C6.68 4.67 5.36 4.34 4 4 C3.67 4.99 3.34 5.98 3 7 C4.65 7.33 6.3 7.66 8 8 C8 8.66 8 9.32 8 10 C3.13103697 9.40380045 -1.32790951 8.43023178 -6 7 C-5.195625 6.401875 -4.39125 5.80375 -3.5625 5.1875 C-0.77672016 3.19052724 -0.77672016 3.19052724 0 0 Z " fill="#E43E43" transform="translate(83,160)"/>
<path d="M0 0 C0 0.66 0 1.32 0 2 C1.32 2 2.64 2 4 2 C4 2.66 4 3.32 4 4 C5.32 3.67 6.64 3.34 8 3 C8.33 3.66 8.66 4.32 9 5 C9.99 5.66 10.98 6.32 12 7 C7.545 8.485 7.545 8.485 3 10 C2.67 8.68 2.34 7.36 2 6 C1.01 6 0.02 6 -1 6 C-1 5.34 -1 4.68 -1 4 C-2.65 4 -4.3 4 -6 4 C-2.25 0 -2.25 0 0 0 Z " fill="#E62229" transform="translate(58,151)"/>
<path d="M0 0 C-0.99 0.33 -1.98 0.66 -3 1 C-3 1.66 -3 2.32 -3 3 C-3.66 3 -4.32 3 -5 3 C-5 2.34 -5 1.68 -5 1 C-5.99 1 -6.98 1 -8 1 C-8 1.66 -8 2.32 -8 3 C-7.34 3 -6.68 3 -6 3 C-6 3.66 -6 4.32 -6 5 C-9.07617188 5.29296875 -9.07617188 5.29296875 -12.15234375 5.5859375 C-12.76207031 5.72257812 -13.37179688 5.85921875 -14 6 C-14.33 6.66 -14.66 7.32 -15 8 C-16.32 6.35 -17.64 4.7 -19 3 C-12.00967658 -0.7390102 -7.68446551 -1.1722066 0 0 Z " fill="#DD4951" transform="translate(237,74)"/>
<path d="M0 0 C7.75958885 2.19855018 14.15485378 5.77245623 21 10 C20.01 10.66 19.02 11.32 18 12 C18 11.34 18 10.68 18 10 C16.68 10.33 15.36 10.66 14 11 C13.67 12.32 13.34 13.64 13 15 C10.525 14.01 10.525 14.01 8 13 C8.99 12.67 9.98 12.34 11 12 C10.67 11.01 10.34 10.02 10 9 C10.33 8.01 10.66 7.02 11 6 C9.68 6 8.36 6 7 6 C7 5.34 7 4.68 7 4 C5.35 4 3.7 4 2 4 C2 3.34 2 2.68 2 2 C1.34 2 0.68 2 0 2 C0 1.34 0 0.68 0 0 Z " fill="#DC4149" transform="translate(228,17)"/>
<path d="M0 0 C0.33 0.99 0.66 1.98 1 3 C0.02616054 4.68208635 -0.97695052 6.34738161 -2 8 C-2.70670728 10.69254991 -2.70670728 10.69254991 -3 13 C-1.35 12.67 0.3 12.34 2 12 C1.67 13.65 1.34 15.3 1 17 C3.64 17 6.28 17 9 17 C8.67 17.66 8.34 18.32 8 19 C4.35841574 19.21421084 1.56701208 19.20954794 -1.875 17.9375 C-4 16 -4 16 -5.0625 12.8125 C-4.98460499 8.06090443 -3.46026535 3.46026535 0 0 Z " fill="#DD545A" transform="translate(50,104)"/>
<path d="M0 0 C0.33 1.98 0.66 3.96 1 6 C-5.31192661 7.33521524 -5.31192661 7.33521524 -8.4375 5.8125 C-10 4 -10 4 -10 0 C-6.33694766 -0.74926071 -3.57644848 -1.2380014 0 0 Z " fill="#E62831" transform="translate(44,142)"/>
<path d="M0 0 C0.99 0 1.98 0 3 0 C3 0.66 3 1.32 3 2 C4.32 2.33 5.64 2.66 7 3 C4.06485941 5.50030495 1.85302223 6.61469778 -2 7 C-4.3125 6.5625 -4.3125 6.5625 -6 6 C-6.33 7.32 -6.66 8.64 -7 10 C-7.66 10 -8.32 10 -9 10 C-9.33 8.68 -9.66 7.36 -10 6 C-9.34 6 -8.68 6 -8 6 C-8 5.01 -8 4.02 -8 3 C-6.1875 2.3125 -6.1875 2.3125 -4 2 C-2.25 3.4375 -2.25 3.4375 -1 5 C-0.67 3.35 -0.34 1.7 0 0 Z " fill="#E23037" transform="translate(50,23)"/>
<path d="M0 0 C-0.33 2.64 -0.66 5.28 -1 8 C-0.34 8.33 0.32 8.66 1 9 C-0.4562545 9.67119549 -1.91507867 10.33681807 -3.375 11 C-4.59316406 11.556875 -4.59316406 11.556875 -5.8359375 12.125 C-8 13 -8 13 -10 13 C-10 12.34 -10 11.68 -10 11 C-9.01 11 -8.02 11 -7 11 C-7.33 9.68 -7.66 8.36 -8 7 C-7.01 7 -6.02 7 -5 7 C-4.67 6.01 -4.34 5.02 -4 4 C-5.98 4.33 -7.96 4.66 -10 5 C-3.63636364 0 -3.63636364 0 0 0 Z " fill="#E0484D" transform="translate(234,148)"/>
<path d="M0 0 C3.73639216 1.24546405 4.18756513 2.63404953 6 6 C5.01 6 4.02 6 3 6 C3 5.34 3 4.68 3 4 C2.01 4.495 2.01 4.495 1 5 C0.34786708 7.02463255 0.34786708 7.02463255 0 9 C0.5775 9.47050781 1.155 9.94101563 1.75 10.42578125 C2.4925 11.04839844 3.235 11.67101562 4 12.3125 C4.7425 12.92738281 5.485 13.54226562 6.25 14.17578125 C8 16 8 16 8 19 C3.20166566 15.12442226 -1.42907477 11.07516114 -5 6 C-5 5.34 -5 4.68 -5 4 C-3.68 4 -2.36 4 -1 4 C-0.67 2.68 -0.34 1.36 0 0 Z " fill="#DD434B" transform="translate(17,119)"/>
<path d="M0 0 C1.25127906 3.54667178 0.72285053 5.72253438 -0.4375 9.25 C-0.72496094 10.14203125 -1.01242188 11.0340625 -1.30859375 11.953125 C-1.53675781 12.62859375 -1.76492187 13.3040625 -2 14 C-0.35 13.67 1.3 13.34 3 13 C3 13.66 3 14.32 3 15 C2.360625 15.103125 1.72125 15.20625 1.0625 15.3125 C0.0415625 15.6528125 0.0415625 15.6528125 -1 16 C-1.33 16.99 -1.66 17.98 -2 19 C0.31 19 2.62 19 5 19 C4.67 19.66 4.34 20.32 4 21 C-1.31365314 21.35424354 -1.31365314 21.35424354 -3.9375 20 C-5.71313672 16.657625 -4.89051589 13.50933564 -4 10 C-2.80193414 6.60386976 -1.45170008 3.29502157 0 0 Z " fill="#DA545A" transform="translate(133,93)"/>
<path d="M0 0 C0.66 0 1.32 0 2 0 C5.89974665 8.05483385 9.14281598 14.81514565 8 24 C5.99207152 20.98810728 5.11601284 18.41778932 4 15 C3.67 14.360625 3.34 13.72125 3 13.0625 C1.590582 10.15557538 0.86294622 7.10660638 0 4 C-0.33 3.34 -0.66 2.68 -1 2 C-0.67 1.34 -0.34 0.68 0 0 Z " fill="#DD4C51" transform="translate(227,96)"/>
<path d="M0 0 C0.80244141 0.04833984 1.60488281 0.09667969 2.43164062 0.14648438 C3.68170898 0.2305957 3.68170898 0.2305957 4.95703125 0.31640625 C6.22450195 0.3947168 6.22450195 0.3947168 7.51757812 0.47460938 C9.60189424 0.60414314 11.68576307 0.74083802 13.76953125 0.87890625 C13.76953125 1.20890625 13.76953125 1.53890625 13.76953125 1.87890625 C8.48953125 2.53890625 3.20953125 3.19890625 -2.23046875 3.87890625 C-2.23046875 5.19890625 -2.23046875 6.51890625 -2.23046875 7.87890625 C-4.21046875 7.87890625 -6.19046875 7.87890625 -8.23046875 7.87890625 C-7.57046875 7.21890625 -6.91046875 6.55890625 -6.23046875 5.87890625 C-6.56046875 5.21890625 -6.89046875 4.55890625 -7.23046875 3.87890625 C-6.57046875 3.87890625 -5.91046875 3.87890625 -5.23046875 3.87890625 C-5.23046875 3.21890625 -5.23046875 2.55890625 -5.23046875 1.87890625 C-5.89046875 1.54890625 -6.55046875 1.21890625 -7.23046875 0.87890625 C-4.35516794 -0.07952735 -2.93996944 -0.18765762 0 0 Z " fill="#E55056" transform="translate(114.23046875,166.12109375)"/>
<path d="M0 0 C0.33 0 0.66 0 1 0 C1 1.65 1 3.3 1 5 C2.98 4.67 4.96 4.34 7 4 C5.48109469 8.55671592 3.04597738 12.31723292 0 16 C-0.33 16 -0.66 16 -1 16 C-0.67 12.7 -0.34 9.4 0 6 C-0.99 5.67 -1.98 5.34 -3 5 C-2.03114628 3.31503702 -1.03013277 1.64821244 0 0 Z " fill="#E0444A" transform="translate(272,113)"/>
<path d="M0 0 C2 3 2 3 2 7 C1.360625 7.103125 0.72125 7.20625 0.0625 7.3125 C-0.618125 7.539375 -1.29875 7.76625 -2 8 C-3.10514766 11.31544299 -3.32107631 14.20410111 -3.5625 17.6875 C-3.64628906 18.86699219 -3.73007812 20.04648438 -3.81640625 21.26171875 C-3.87699219 22.16535156 -3.93757813 23.06898437 -4 24 C-4.33 24 -4.66 24 -5 24 C-5.06058594 23.0821875 -5.12117188 22.164375 -5.18359375 21.21875 C-5.62311242 14.781492 -6.10530999 8.39064295 -7 2 C-6.34 1.67 -5.68 1.34 -5 1 C-4.34 1.66 -3.68 2.32 -3 3 C-2.34 3.33 -1.68 3.66 -1 4 C-1 4.66 -1 5.32 -1 6 C-0.34 6 0.32 6 1 6 C0.67 4.02 0.34 2.04 0 0 Z " fill="#E76063" transform="translate(284,70)"/>
<path d="M0 0 C2 3 2 3 1.7578125 5.26171875 C1.54898438 6.06222656 1.34015625 6.86273438 1.125 7.6875 C0.92132813 8.49574219 0.71765625 9.30398437 0.5078125 10.13671875 C0.34023437 10.75160156 0.17265625 11.36648437 0 12 C-0.99 11.67 -1.98 11.34 -3 11 C-6.27773504 11.75150023 -6.27773504 11.75150023 -8 15 C-8.66 14.67 -9.32 14.34 -10 14 C-9.67 12.02 -9.34 10.04 -9 8 C-8.67 8.66 -8.34 9.32 -8 10 C-7.34 10 -6.68 10 -6 10 C-5.71125 9.38125 -5.4225 8.7625 -5.125 8.125 C-4 6 -4 6 -2 4 C-2 4.66 -2 5.32 -2 6 C-1.34 6 -0.68 6 0 6 C0 4.02 0 2.04 0 0 Z " fill="#E0393F" transform="translate(191,72)"/>
<path d="M0 0 C-0.33 1.65 -0.66 3.3 -1 5 C-2.32 5 -3.64 5 -5 5 C-5.33 5.99 -5.66 6.98 -6 8 C-6.99 8 -7.98 8 -9 8 C-9 8.99 -9 9.98 -9 11 C-9.66 11 -10.32 11 -11 11 C-11.8125 8.8125 -11.8125 8.8125 -12 6 C-9.16801079 2.41836659 -4.81007055 -2.40503527 0 0 Z " fill="#E81B21" transform="translate(33,37)"/>
<path d="M0 0 C2.31 0.33 4.62 0.66 7 1 C6.67 1.99 6.34 2.98 6 4 C4.02 4 2.04 4 0 4 C0.33 4.66 0.66 5.32 1 6 C1.33 6.66 1.66 7.32 2 8 C-3.95703125 9.7578125 -3.95703125 9.7578125 -6 10 C-6.99 9.34 -7.98 8.68 -9 8 C-9 7.34 -9 6.68 -9 6 C-6.94709452 4.97354726 -4.90024097 3.95439587 -2.8125 3 C-0.82798477 2.12855431 -0.82798477 2.12855431 0 0 Z " fill="#EA1B23" transform="translate(74,53)"/>
<path d="M0 0 C0 0.33 0 0.66 0 1 C-3.3 1.33 -6.6 1.66 -10 2 C-10 3.32 -10 4.64 -10 6 C-12.64 6 -15.28 6 -18 6 C-18.33 4.35 -18.66 2.7 -19 1 C-12.62694402 0.25492456 -6.41688675 -0.10349817 0 0 Z " fill="#E11820" transform="translate(130,168)"/>
<path d="M0 0 C1.455276 2.91055201 1.45067148 4.78091798 1 8 C-3.84210526 12 -3.84210526 12 -7 12 C-7.33 10.68 -7.66 9.36 -8 8 C-6.35 8 -4.7 8 -3 8 C-3.34444881 5.52733235 -3.34444881 5.52733235 -4 3 C-4.66 2.67 -5.32 2.34 -6 2 C-3 0 -3 0 0 0 Z " fill="#E03439" transform="translate(108,109)"/>
<path d="M0 0 C3.3 0 6.6 0 10 0 C10 1.32 10 2.64 10 4 C7.36 4.33 4.72 4.66 2 5 C1.67 5.99 1.34 6.98 1 8 C0.34 7.67 -0.32 7.34 -1 7 C-0.67 4.69 -0.34 2.38 0 0 Z " fill="#E0232D" transform="translate(140,74)"/>
<path d="M0 0 C2.97 0 5.94 0 9 0 C4.05032026 3.29978649 -0.7475985 4.28201019 -6.625 4.75 C-7.73101562 4.84796875 -8.83703125 4.9459375 -9.9765625 5.046875 C-12.99684269 5.00004895 -14.4839447 4.59554726 -17 3 C-13.39006828 1.86519473 -10.0157673 1.89984233 -6.25 1.9375 C-4.49429688 1.95103516 -4.49429688 1.95103516 -2.703125 1.96484375 C-1.81109375 1.97644531 -0.9190625 1.98804687 0 2 C0 1.34 0 0.68 0 0 Z " fill="#D65359" transform="translate(92,121)"/>
<path d="M0 0 C2.64 0.99 5.28 1.98 8 3 C8 4.98 8 6.96 8 9 C6.35 9 4.7 9 3 9 C2.67 8.01 2.34 7.02 2 6 C-0.49759982 4.30117552 -0.49759982 4.30117552 -3 3 C-2.01 2.67 -1.02 2.34 0 2 C0 1.34 0 0.68 0 0 Z " fill="#E8212A" transform="translate(231,20)"/>
<path d="M0 0 C2.31 0.33 4.62 0.66 7 1 C7.33 1.99 7.66 2.98 8 4 C11.51190809 5.22969878 11.51190809 5.22969878 15 6 C15 6.33 15 6.66 15 7 C13.25181409 7.22304441 11.50129677 7.4278645 9.75 7.625 C8.77546875 7.74101562 7.8009375 7.85703125 6.796875 7.9765625 C3.86570607 8.00112537 2.45471036 7.5312717 0 6 C0 5.34 0 4.68 0 4 C0.99 3.67 1.98 3.34 3 3 C3.33 2.34 3.66 1.68 4 1 C2.68 0.67 1.36 0.34 0 0 Z " fill="#E8454C" transform="translate(96,4)"/>
<path d="M0 0 C1.03640625 0.24363281 1.03640625 0.24363281 2.09375 0.4921875 C5.28281453 1.04941652 8.2636637 1.13256153 11.5 1.125 C13.15515625 1.12886719 13.15515625 1.12886719 14.84375 1.1328125 C17.96674015 1.08320635 17.96674015 1.08320635 20.84375 0.4296875 C21.5553125 0.28789063 22.266875 0.14609375 23 0 C24 1 24 1 24.0625 3.5625 C24.041875 4.366875 24.02125 5.17125 24 6 C23.02933594 5.67257813 22.05867188 5.34515625 21.05859375 5.0078125 C16.6989074 3.76218783 12.56624028 3.7746596 8.0625 3.875 C7.28326172 3.88402344 6.50402344 3.89304688 5.70117188 3.90234375 C3.80064553 3.92566309 1.90027992 3.96152414 0 4 C0 2.68 0 1.36 0 0 Z " fill="#E8565D" transform="translate(86,53)"/>
<path d="M0 0 C2.64 0 5.28 0 8 0 C7.34 2.31 6.68 4.62 6 7 C2.62537285 6.45276317 0.91765 5.9451 -2 4 C-2 3.34 -2 2.68 -2 2 C-1.34 2 -0.68 2 0 2 C0 1.34 0 0.68 0 0 Z " fill="#EC1A24" transform="translate(199,75)"/>
<path d="M0 0 C0.99 0 1.98 0 3 0 C3.335939 1.4577353 3.66866624 2.91621106 4 4.375 C4.185625 5.18710938 4.37125 5.99921875 4.5625 6.8359375 C5 9 5 9 5 11 C4.34 11 3.68 11 3 11 C2.67 10.34 2.34 9.68 2 9 C1.01 9.495 1.01 9.495 0 10 C-0.99 9.01 -1.98 8.02 -3 7 C-1.125 2.25 -1.125 2.25 0 0 Z " fill="#E1272E" transform="translate(280,65)"/>
<path d="M0 0 C2.05078125 0.03255208 4.1015625 0.06510417 6.15234375 0.09765625 C7.41498976 4.39065268 6.78184787 6.97596936 5.15234375 11.09765625 C3.15234375 9.09765625 3.15234375 9.09765625 2.90234375 6.59765625 C3.15234375 4.09765625 3.15234375 4.09765625 5.15234375 2.09765625 C3.17234375 2.09765625 1.19234375 2.09765625 -0.84765625 2.09765625 C-1.17765625 3.41765625 -1.50765625 4.73765625 -1.84765625 6.09765625 C-2.50765625 6.09765625 -3.16765625 6.09765625 -3.84765625 6.09765625 C-2.77957394 0.14691194 -2.77957394 0.14691194 0 0 Z " fill="#DC5A5E" transform="translate(207.84765625,54.90234375)"/>
<path d="M0 0 C4.95 0 9.9 0 15 0 C15.33 0.66 15.66 1.32 16 2 C11.05 2 6.1 2 1 2 C1.99 3.98 2.98 5.96 4 8 C3.34 8.66 2.68 9.32 2 10 C0.4375 8.375 0.4375 8.375 -1 6 C-0.67 4.02 -0.34 2.04 0 0 Z " fill="#DA5760" transform="translate(179,54)"/>
<path d="M0 0 C0.66 1.32 1.32 2.64 2 4 C2.66 3.67 3.32 3.34 4 3 C5.67654729 3.27942455 7.34608154 3.60828247 9 4 C9.33 5.65 9.66 7.3 10 9 C6.75 9.3125 6.75 9.3125 3 9 C0.5 6.75 0.5 6.75 -1 4 C-0.75 1.6875 -0.75 1.6875 0 0 Z " fill="#E03B40" transform="translate(162,104)"/>
<path d="M0 0 C1.32 0 2.64 0 4 0 C4 0.66 4 1.32 4 2 C4.99 2 5.98 2 7 2 C7 3.32 7 4.64 7 6 C7.556875 6.20625 8.11375 6.4125 8.6875 6.625 C11.92501302 8.55000774 13.68231141 11.03850902 16 14 C15.34 14.66 14.68 15.32 14 16 C12.22688737 14.08539961 10.45646638 12.16842507 8.6875 10.25 C8.18798828 9.71117187 7.68847656 9.17234375 7.17382812 8.6171875 C4.62043007 5.84396048 2.18903551 3.07809771 0 0 Z " fill="#DD5F66" transform="translate(255,42)"/>
<path d="M0 0 C0.66 0.66 1.32 1.32 2 2 C2.66 1.67 3.32 1.34 4 1 C5 4 5 4 4.4375 7.5 C3.59937115 11.10714492 3.59937115 11.10714492 6 14 C5.01 14 4.02 14 3 14 C0.33405453 11.23151816 -0.6292237 8.80045712 -1 5 C-0.5625 2.1875 -0.5625 2.1875 0 0 Z " fill="#E24146" transform="translate(58,68)"/>
<path d="M0 0 C0.33 1.32 0.66 2.64 1 4 C0.01 4.66 -0.98 5.32 -2 6 C-2.66 5.67 -3.32 5.34 -4 5 C-4 5.66 -4 6.32 -4 7 C-7.875 6.125 -7.875 6.125 -9 5 C-9.66 5.66 -10.32 6.32 -11 7 C-11 5.68 -11 4.36 -11 3 C-10.34 3 -9.68 3 -9 3 C-9 2.34 -9 1.68 -9 1 C-8.34 1 -7.68 1 -7 1 C-7 1.66 -7 2.32 -7 3 C-3.20452079 2.03223902 -3.20452079 2.03223902 0 0 Z " fill="#E31B20" transform="translate(70,65)"/>
<path d="M0 0 C2.31 0.33 4.62 0.66 7 1 C6.01 1.680625 6.01 1.680625 5 2.375 C4.01 3.179375 4.01 3.179375 3 4 C3 4.66 3 5.32 3 6 C3.99 6.66 4.98 7.32 6 8 C2.69564916 9.12377697 0.9493138 8.89554742 -2.25 7.5625 C-2.95640625 7.27503906 -3.6628125 6.98757812 -4.390625 6.69140625 C-4.92171875 6.46324219 -5.4528125 6.23507813 -6 6 C-6 5.34 -6 4.68 -6 4 C-3.69 4.33 -1.38 4.66 1 5 C0.67 3.35 0.34 1.7 0 0 Z " fill="#DB4447" transform="translate(219,14)"/>
<path d="M0 0 C2.64 0.33 5.28 0.66 8 1 C4.78213065 2.76712729 1.61245966 3.7697929 -1.9375 4.6875 C-2.95714844 4.95949219 -3.97679688 5.23148438 -5.02734375 5.51171875 C-8.0548421 6.00900823 -10.06509346 5.80534268 -13 5 C-11.0373772 2.95204577 -9.5722693 2.05023362 -6.73046875 1.80078125 C-4.48045617 1.81141123 -2.24614438 1.87041475 0 2 C0 1.34 0 0.68 0 0 Z " fill="#D94148" transform="translate(91,11)"/>
<path d="M0 0 C0.66 0 1.32 0 2 0 C2 4.95 2 9.9 2 15 C0.68 14.67 -0.64 14.34 -2 14 C-1.85923685 12.0412957 -1.7122324 10.08303907 -1.5625 8.125 C-1.48128906 7.03445312 -1.40007812 5.94390625 -1.31640625 4.8203125 C-1 2 -1 2 0 0 Z " fill="#DC1924" transform="translate(163,87)"/>
<path d="M0 0 C1.45823212 -0.0270043 2.91660675 -0.04639787 4.375 -0.0625 C5.18710938 -0.07410156 5.99921875 -0.08570312 6.8359375 -0.09765625 C9 0 9 0 11 1 C10.25 7.75 10.25 7.75 8 10 C6.875 5.25 6.875 5.25 8 3 C8.33 2.67 8.66 2.34 9 2 C6.36 2 3.72 2 1 2 C1 2.66 1 3.32 1 4 C0.34 4 -0.32 4 -1 4 C-0.67 2.68 -0.34 1.36 0 0 Z " fill="#DB5B5E" transform="translate(198,73)"/>
<path d="M0 0 C2.64 0 5.28 0 8 0 C9.00821159 2.68856424 9.22736824 4.41703215 8.17578125 7.11328125 C7.16604698 9.10794931 6.11893353 11.0646772 5 13 C3.35 13 1.7 13 0 13 C1.32 12.67 2.64 12.34 4 12 C4 10.35 4 8.7 4 7 C4.66 7 5.32 7 6 7 C5.7215625 6.0409375 5.7215625 6.0409375 5.4375 5.0625 C5.293125 4.381875 5.14875 3.70125 5 3 C5.33 2.67 5.66 2.34 6 2 C3.03 1.505 3.03 1.505 0 1 C0 0.67 0 0.34 0 0 Z " fill="#E16769" transform="translate(149,55)"/>
<path d="M0 0 C1.85776765 3.13498292 2.20140476 5.37471432 2 9 C0.68 9.33 -0.64 9.66 -2 10 C-3.61949011 7.42786866 -4.04408751 6.32330841 -3.625 3.25 C-3.41875 2.5075 -3.2125 1.765 -3 1 C-2.01 0.67 -1.02 0.34 0 0 Z " fill="#E52B34" transform="translate(276,57)"/>
<path d="M0 0 C-1.33912585 4.38259368 -3.12225036 6.54093925 -7 9 C-7.99 8.67 -8.98 8.34 -10 8 C-10 7.34 -10 6.68 -10 6 C-8.68 6 -7.36 6 -6 6 C-6.33 4.35 -6.66 2.7 -7 1 C-4 0 -4 0 0 0 Z " fill="#DC4E53" transform="translate(207,103)"/>
<path d="M0 0 C2 0.859375 2 0.859375 3.046875 2.92578125 C3.27890625 3.74949219 3.5109375 4.57320313 3.75 5.421875 C3.99234375 6.24816406 4.2346875 7.07445313 4.484375 7.92578125 C4.65453125 8.56386719 4.8246875 9.20195313 5 9.859375 C4.01 9.529375 3.02 9.199375 2 8.859375 C0.8125 5.796875 0.8125 5.796875 0 2.859375 C-1.65 4.179375 -3.3 5.499375 -5 6.859375 C-5 2.859375 -5 2.859375 -3.75 1.046875 C-2 -0.140625 -2 -0.140625 0 0 Z " fill="#DA343A" transform="translate(219,78.140625)"/>
<path d="M0 0 C0.625 2.875 0.625 2.875 1 6 C0.34 6.66 -0.32 7.32 -1 8 C-1 7.34 -1 6.68 -1 6 C-2.32 6.33 -3.64 6.66 -5 7 C-5.66 5.35 -6.32 3.7 -7 2 C-4.35261084 0.5393715 -3.10551666 0 0 0 Z " fill="#E82B30" transform="translate(97,73)"/>
<path d="M0 0 C3.63061667 1.53218685 5.9863773 3.7183144 8.75 6.5 C9.94882812 7.69109375 9.94882812 7.69109375 11.171875 8.90625 C13 11 13 11 13 13 C11.68 13.33 10.36 13.66 9 14 C8.87818359 13.13761719 8.87818359 13.13761719 8.75390625 12.2578125 C7.7692529 9.30895428 6.20463631 7.97819877 3.9375 5.875 C2.59001493 4.61987331 1.26847218 3.33492972 0 2 C0 1.34 0 0.68 0 0 Z " fill="#DB5153" transform="translate(259,36)"/>
<path d="M0 0 C0 0.66 0 1.32 0 2 C-0.78246094 2.20496094 -1.56492187 2.40992188 -2.37109375 2.62109375 C-3.38300781 2.89050781 -4.39492187 3.15992188 -5.4375 3.4375 C-6.44683594 3.70433594 -7.45617187 3.97117187 -8.49609375 4.24609375 C-10.91752001 4.75978077 -10.91752001 4.75978077 -12 6 C-14.33944736 5.71269945 -16.6739143 5.38063221 -19 5 C-15.912511 3.32518285 -12.88620072 2.29597217 -9.5 1.375 C-8.5615625 1.11460938 -7.623125 0.85421875 -6.65625 0.5859375 C-4 0 -4 0 0 0 Z " fill="#DB5355" transform="translate(96,5)"/>
<path d="M0 0 C-1.32 0.33 -2.64 0.66 -4 1 C-4 1.99 -4 2.98 -4 4 C-3.01 3.67 -2.02 3.34 -1 3 C-0.67 3.99 -0.34 4.98 0 6 C-5.75 6.125 -5.75 6.125 -8 5 C-8 4.34 -8 3.68 -8 3 C-10.31 3.33 -12.62 3.66 -15 4 C-10.34714182 0.89809455 -5.58467324 -0.33846504 0 0 Z " fill="#E61920" transform="translate(175,168)"/>
<path d="M0 0 C1.875 0.125 1.875 0.125 4 1 C5.25 4.0625 5.25 4.0625 6 7 C5.01 7.495 5.01 7.495 4 8 C4 6.68 4 5.36 4 4 C2.02 4.33 0.04 4.66 -2 5 C-2 5.66 -2 6.32 -2 7 C-3.65 7.33 -5.3 7.66 -7 8 C-6.21625 7.236875 -5.4325 6.47375 -4.625 5.6875 C-1.92742283 3.09108195 -1.92742283 3.09108195 0 0 Z " fill="#DC3941" transform="translate(263,125)"/>
<path d="M0 0 C0.33 0 0.66 0 1 0 C1.33 5.61 1.66 11.22 2 17 C0.35 16.67 -1.3 16.34 -3 16 C-3.33 16.66 -3.66 17.32 -4 18 C-4.33 16.35 -4.66 14.7 -5 13 C-4.01 13 -3.02 13 -2 13 C-1.20439236 10.08500057 -0.74677501 7.25438581 -0.4375 4.25 C-0.31181641 3.05117187 -0.31181641 3.05117187 -0.18359375 1.828125 C-0.12300781 1.22484375 -0.06242188 0.6215625 0 0 Z " fill="#E76469" transform="translate(165,88)"/>
<path d="M0 0 C0.66 0.33 1.32 0.66 2 1 C1.67 2.65 1.34 4.3 1 6 C2.98 6.66 4.96 7.32 7 8 C6.34 9.32 5.68 10.64 5 12 C4.34 11.01 3.68 10.02 3 9 C2.01 8.67 1.02 8.34 0 8 C0 9.65 0 11.3 0 13 C-0.33 13 -0.66 13 -1 13 C-1 10.03 -1 7.06 -1 4 C-2.32 4.33 -3.64 4.66 -5 5 C-3.35 3.35 -1.7 1.7 0 0 Z " fill="#E56A6F" transform="translate(56,99)"/>
<path d="M0 0 C2.475 0.99 2.475 0.99 5 2 C5 2.99 5 3.98 5 5 C2.11584117 6.44207941 -0.41721528 6.09394887 -3.625 6.0625 C-4.81351562 6.05347656 -6.00203125 6.04445313 -7.2265625 6.03515625 C-8.14179687 6.02355469 -9.05703125 6.01195312 -10 6 C-10 5.67 -10 5.34 -10 5 C-5.545 4.505 -5.545 4.505 -1 4 C-1 3.01 -1 2.02 -1 1 C-0.67 0.67 -0.34 0.34 0 0 Z " fill="#DF191F" transform="translate(101,49)"/>
<path d="M0 0 C-0.33 4.29 -0.66 8.58 -1 13 C-3 9 -3 9 -3.875 5.875 C-4.72172232 2.88668933 -4.72172232 2.88668933 -7.125 1.625 C-7.74375 1.41875 -8.3625 1.2125 -9 1 C-1.125 0 -1.125 0 0 0 Z " fill="#E0464F" transform="translate(168,75)"/>
<path d="M0 0 C-4.73778043 2.36889021 -6.63970918 3.04875255 -12 2 C-12 1.67 -12 1.34 -12 1 C-7.95858806 0.36605303 -4.0934693 -0.12404452 0 0 Z M-7 3 C-6 6 -6 6 -6 8 C-4.35 8 -2.7 8 -1 8 C-1 8.33 -1 8.66 -1 9 C-4.94727588 9.17942163 -7.5980513 9.09350689 -11 7 C-11 6.01 -11 5.02 -11 4 C-9.68 3.67 -8.36 3.34 -7 3 Z " fill="#F05C63" transform="translate(182,165)"/>
<path d="M0 0 C0 1.66666667 0 3.33333333 0 5 C-2.31 5 -4.62 5 -7 5 C-7.66 3.68 -8.32 2.36 -9 1 C-2.25 -1.125 -2.25 -1.125 0 0 Z " fill="#EA1B26" transform="translate(211,161)"/>
<path d="M0 0 C1.32 0 2.64 0 4 0 C4.33 1.65 4.66 3.3 5 5 C4.34 5 3.68 5 3 5 C3 5.99 3 6.98 3 8 C1.68 8 0.36 8 -1 8 C-2.2077558 4.37673261 -1.54311128 3.35853631 0 0 Z " fill="#E6212A" transform="translate(234,148)"/>
<path d="M0 0 C2 1 2 1 3.0703125 3.87109375 C3.41835937 5.04800781 3.76640625 6.22492188 4.125 7.4375 C4.47820313 8.61183594 4.83140625 9.78617188 5.1953125 10.99609375 C6 14 6 14 6 16 C5.01 16.33 4.02 16.66 3 17 C2.67 14.36 2.34 11.72 2 9 C1.34 9 0.68 9 0 9 C0 6.03 0 3.06 0 0 Z " fill="#DA4A4E" transform="translate(7,95)"/>
<path d="M0 0 C0.33 0 0.66 0 1 0 C1.66 2.64 2.32 5.28 3 8 C3.99 8 4.98 8 6 8 C6.125 11.375 6.125 11.375 6 15 C5.34 15.66 4.68 16.32 4 17 C0.92291196 11.06561592 -0.48736475 6.70126536 0 0 Z " fill="#E0494E" transform="translate(212,84)"/>
<path d="M0 0 C5.06998019 0.65419099 9.41990777 2.8546409 14 5 C12.140625 6.0546875 12.140625 6.0546875 10 7 C7.75 6.125 7.75 6.125 6 5 C6 4.34 6 3.68 6 3 C5.38125 3.350625 4.7625 3.70125 4.125 4.0625 C3.42375 4.371875 2.7225 4.68125 2 5 C1.34 4.67 0.68 4.34 0 4 C0 2.68 0 1.36 0 0 Z " fill="#DE373E" transform="translate(52,148)"/>
<path d="M0 0 C0 1.65 0 3.3 0 5 C-6.4 6.23076923 -6.4 6.23076923 -9.4375 5.0625 C-9.953125 4.711875 -10.46875 4.36125 -11 4 C-9.35 3.67 -7.7 3.34 -6 3 C-6 2.34 -6 1.68 -6 1 C-3.92446352 0.4465236 -2.15634036 0 0 0 Z " fill="#E81F27" transform="translate(267,129)"/>
<path d="M0 0 C0.66 0 1.32 0 2 0 C2.66 0.66 3.32 1.32 4 2 C4.33 2 4.66 2 5 2 C5 3.65 5 5.3 5 7 C1 7 1 7 -0.75 5.5 C-1.1625 5.005 -1.575 4.51 -2 4 C-1.34 2.68 -0.68 1.36 0 0 Z " fill="#E91A22" transform="translate(18,123)"/>
<path d="M0 0 C0.99 0.495 0.99 0.495 2 1 C2 1.99 2 2.98 2 4 C2.62648437 3.97679688 3.25296875 3.95359375 3.8984375 3.9296875 C4.71570313 3.91164063 5.53296875 3.89359375 6.375 3.875 C7.18710938 3.85179688 7.99921875 3.82859375 8.8359375 3.8046875 C11 4 11 4 13 6 C9.44646071 7.1845131 6.72986522 7.26641894 3 7 C1.0625 5.75 1.0625 5.75 0 4 C0 2.68 0 1.36 0 0 Z " fill="#DE5A5F" transform="translate(185,107)"/>
<path d="M0 0 C0.33 0 0.66 0 1 0 C1 1.65 1 3.3 1 5 C1.66 5.33 2.32 5.66 3 6 C2.360625 6.78375 1.72125 7.5675 1.0625 8.375 C-0.98142313 10.79539281 -0.98142313 10.79539281 -2 13 C-2.66 12.67 -3.32 12.34 -4 12 C-3.52494322 10.18641846 -3.04483958 8.37415821 -2.5625 6.5625 C-2.29566406 5.55316406 -2.02882812 4.54382812 -1.75390625 3.50390625 C-1 1 -1 1 0 0 Z " fill="#DA4B4E" transform="translate(148,56)"/>
<path d="M0 0 C6.41688675 -0.10349817 12.62694402 0.25492456 19 1 C19 1.33 19 1.66 19 2 C9.595 2.495 9.595 2.495 0 3 C0 2.01 0 1.02 0 0 Z " fill="#E3686D" transform="translate(112,7)"/>
<path d="M0 0 C3.3 0 6.6 0 10 0 C10.33 0.66 10.66 1.32 11 2 C7.7 2 4.4 2 1 2 C1.33 3.65 1.66 5.3 2 7 C0.68 6.34 -0.64 5.68 -2 5 C-1.34 3.35 -0.68 1.7 0 0 Z " fill="#D85D5F" transform="translate(156,74)"/>
<path d="M0 0 C0 2.79784711 -0.37195775 4.9790678 -1 7.6875 C-1.185625 8.49574219 -1.37125 9.30398437 -1.5625 10.13671875 C-1.7790625 11.05904297 -1.7790625 11.05904297 -2 12 C-2.66 11.01 -3.32 10.02 -4 9 C-4.99 9 -5.98 9 -7 9 C-6.67 8.34 -6.34 7.68 -6 7 C-5.34 7 -4.68 7 -4 7 C-3.67 5.02 -3.34 3.04 -3 1 C-2.01 0.67 -1.02 0.34 0 0 Z " fill="#E8262E" transform="translate(20,47)"/>
<path d="M0 0 C0.99 0.66 1.98 1.32 3 2 C1.71480435 4.86697492 0.42870746 6.97607712 -2 9 C-2.66 9 -3.32 9 -4 9 C-3.67 7.35 -3.34 5.7 -3 4 C-3.66 4 -4.32 4 -5 4 C-5 3.34 -5 2.68 -5 2 C-4.01 2 -3.02 2 -2 2 C-2 2.66 -2 3.32 -2 4 C-1.34 4 -0.68 4 0 4 C-0.33 3.01 -0.66 2.02 -1 1 C-0.67 0.67 -0.34 0.34 0 0 Z " fill="#E1383E" transform="translate(231,118)"/>
<path d="M0 0 C0.99 0 1.98 0 3 0 C3 0.66 3 1.32 3 2 C3.66 2 4.32 2 5 2 C5 1.34 5 0.68 5 0 C5.99 0 6.98 0 8 0 C8.33 0.99 8.66 1.98 9 3 C7.824375 3.12375 7.824375 3.12375 6.625 3.25 C3.85250896 3.72806339 3.85250896 3.72806339 2.6875 6.0625 C2.3471875 7.0215625 2.3471875 7.0215625 2 8 C2 7.01 2 6.02 2 5 C1.34 4.67 0.68 4.34 0 4 C0.66 4 1.32 4 2 4 C2 3.34 2 2.68 2 2 C1.34 2 0.68 2 0 2 C0 1.34 0 0.68 0 0 Z " fill="#E62A34" transform="translate(229,75)"/>
<path d="M0 0 C0 0.99 0 1.98 0 3 C0.66 3.33 1.32 3.66 2 4 C0.01432292 3.96744792 -1.97135417 3.93489583 -3.95703125 3.90234375 C-6.20305461 3.91736783 -6.20305461 3.91736783 -9 5 C-9.33 4.01 -9.66 3.02 -10 2 C-6.5980513 -0.09350689 -3.94727588 -0.17942163 0 0 Z " fill="#E91C23" transform="translate(67,17)"/>
<path d="M0 0 C-0.9375 2 -0.9375 2 -3 4 C-6.02534949 4.36475845 -8.96663814 4.22893297 -12 4 C-12 3.34 -12 2.68 -12 2 C-8.09971775 -0.60018816 -4.52565431 -0.15085514 0 0 Z " fill="#EA1A24" transform="translate(195,7)"/>
<path d="M0 0 C-0.375 1.9375 -0.375 1.9375 -1 4 C-1.99 4.495 -1.99 4.495 -3 5 C-3 5.66 -3 6.32 -3 7 C-4.65 7 -6.3 7 -8 7 C-8 5.68 -8 4.36 -8 3 C-7.34 3 -6.68 3 -6 3 C-6 2.34 -6 1.68 -6 1 C-3.92446352 0.4465236 -2.15634036 0 0 0 Z " fill="#EA1B25" transform="translate(230,152)"/>
<path d="M0 0 C0.66 0.99 1.32 1.98 2 3 C2.66 3 3.32 3 4 3 C4 3.66 4 4.32 4 5 C5.65 5 7.3 5 9 5 C9 5.66 9 6.32 9 7 C7.54263913 7.19491452 6.08405407 7.38069358 4.625 7.5625 C3.81289062 7.66691406 3.00078125 7.77132812 2.1640625 7.87890625 C0 8 0 8 -2 7 C-1.34 4.69 -0.68 2.38 0 0 Z " fill="#E76068" transform="translate(203,61)"/>
<path d="M0 0 C0.99 0.33 1.98 0.66 3 1 C3.75 2.9375 3.75 2.9375 4 5 C3.67 5.66 3.34 6.32 3 7 C3.66 7 4.32 7 5 7 C4.67 7.99 4.34 8.98 4 10 C1.5 8.875 1.5 8.875 -1 7 C-1.375 3.875 -1.375 3.875 -1 1 C-0.67 0.67 -0.34 0.34 0 0 Z " fill="#E42F36" transform="translate(242,26)"/>
<path d="M0 0 C0 0.66 0 1.32 0 2 C-1 3 -2 4 -3 5 C-3.33 5.99 -3.66 6.98 -4 8 C-4.99 7.67 -5.98 7.34 -7 7 C-7 6.34 -7 5.68 -7 5 C-8.32 5.33 -9.64 5.66 -11 6 C-8.24029211 2.78034079 -4.3526723 0 0 0 Z " fill="#E04148" transform="translate(53,20)"/>
<path d="M0 0 C1.60597325 0.45196245 3.20972508 0.91182327 4.8125 1.375 C6.15248047 1.75785156 6.15248047 1.75785156 7.51953125 2.1484375 C10 3 10 3 13 5 C9.7 5.33 6.4 5.66 3 6 C3 5.34 3 4.68 3 4 C2.01 3.34 1.02 2.68 0 2 C0 1.34 0 0.68 0 0 Z " fill="#DE4C50" transform="translate(66,154)"/>
<path d="M0 0 C1.38232443 1.62626404 2.71937515 3.2925002 4 5 C1.03 4.505 1.03 4.505 -2 4 C-2.33 5.32 -2.66 6.64 -3 8 C-3.66 8 -4.32 8 -5 8 C-5.33 6.68 -5.66 5.36 -6 4 C-5.34 4 -4.68 4 -4 4 C-4 3.01 -4 2.02 -4 1 C-2 0 -2 0 0 0 Z " fill="#E91921" transform="translate(46,25)"/>
<path d="M0 0 C0 0.66 0 1.32 0 2 C2.31 2.33 4.62 2.66 7 3 C7 3.33 7 3.66 7 4 C2.71 4 -1.58 4 -6 4 C-6.33 3.01 -6.66 2.02 -7 1 C-2.25 0 -2.25 0 0 0 Z " fill="#EF3B43" transform="translate(167,171)"/>
<path d="M0 0 C0 0.66 0 1.32 0 2 C-9.41002278 5.44419134 -9.41002278 5.44419134 -14 5 C-14 4.34 -14 3.68 -14 3 C-12.23050388 2.49528803 -10.45934777 1.99639315 -8.6875 1.5 C-7.70136719 1.2215625 -6.71523437 0.943125 -5.69921875 0.65625 C-3 0 -3 0 0 0 Z " fill="#D85358" transform="translate(211,158)"/>
<path d="M0 0 C3.36591866 1.44253657 5.51047079 3.33264727 8 6 C7.34 7.32 6.68 8.64 6 10 C4.68 9.01 3.36 8.02 2 7 C2.66 7 3.32 7 4 7 C3.01 5.824375 3.01 5.824375 2 4.625 C0 2 0 2 0 0 Z " fill="#DF4347" transform="translate(121,53)"/>
<path d="M0 0 C3.68754757 0.49831724 5.60490662 1.10067643 8 4 C7.01 4.495 7.01 4.495 6 5 C6 4.34 6 3.68 6 3 C5.01 3 4.02 3 3 3 C2.67 4.65 2.34 6.3 2 8 C1 5 1 5 1 3 C-0.32 2.67 -1.64 2.34 -3 2 C-2.01 2 -1.02 2 0 2 C0 1.34 0 0.68 0 0 Z " fill="#E43F44" transform="translate(113,49)"/>
<path d="M0 0 C0.66 0 1.32 0 2 0 C1.67 2.97 1.34 5.94 1 9 C-0.32 8.67 -1.64 8.34 -3 8 C-2.25 2.25 -2.25 2.25 0 0 Z " fill="#E32830" transform="translate(11,111)"/>
<path d="M0 0 C0 0.66 0 1.32 0 2 C-0.66 2 -1.32 2 -2 2 C-2.33 2.99 -2.66 3.98 -3 5 C-3.99 5.33 -4.98 5.66 -6 6 C-6.33 6.66 -6.66 7.32 -7 8 C-8.32 7.67 -9.64 7.34 -11 7 C-9.87720538 6.01830524 -8.75168527 5.03972702 -7.625 4.0625 C-6.68527344 3.24458984 -6.68527344 3.24458984 -5.7265625 2.41015625 C-3.71547429 0.76761588 -2.62199195 0 0 0 Z " fill="#DC4A4F" transform="translate(76,51)"/>
<path d="M0 0 C0.99 0 1.98 0 3 0 C3 1.65 3 3.3 3 5 C3.99 5.33 4.98 5.66 6 6 C5.34 7.32 4.68 8.64 4 10 C1.16625119 6.79663178 0.4794463 4.21912747 0 0 Z " fill="#DC3D45" transform="translate(4,107)"/>
<path d="M0 0 C-2.86177057 1.43088528 -4.93375773 0.59991697 -8 0 C-8 -0.66 -8 -1.32 -8 -2 C-8.78375 -1.79375 -9.5675 -1.5875 -10.375 -1.375 C-11.24125 -1.25125 -12.1075 -1.1275 -13 -1 C-13.66 -1.66 -14.32 -2.32 -15 -3 C-9.33265934 -4.96177177 -4.79030451 -3.24050011 0 0 Z " fill="#DE626A" transform="translate(73,101)"/>
<path d="M0 0 C0.33 0.66 0.66 1.32 1 2 C1.66 2.33 2.32 2.66 3 3 C2.34 3 1.68 3 1 3 C1 5.64 1 8.28 1 11 C0.71125 10.360625 0.4225 9.72125 0.125 9.0625 C-0.82823451 6.84793921 -0.82823451 6.84793921 -3 6 C-2.625 3.5625 -2.625 3.5625 -2 1 C-1.34 0.67 -0.68 0.34 0 0 Z " fill="#E01B21" transform="translate(11,57)"/>
<path d="M0 0 C5.29158974 1.40071493 7.77478044 4.85487245 11 9 C8 9 8 9 5.95703125 7.28515625 C5.24933594 6.55167969 4.54164062 5.81820312 3.8125 5.0625 C3.09707031 4.33160156 2.38164062 3.60070312 1.64453125 2.84765625 C0 1 0 1 0 0 Z " fill="#DB5B5E" transform="translate(15,128)"/>
<path d="M0 0 C1.32 0.99 2.64 1.98 4 3 C3.67 3.99 3.34 4.98 3 6 C2.34 6 1.68 6 1 6 C0.34 7.32 -0.32 8.64 -1 10 C-2.46726798 6.18510326 -1.43336419 3.70988378 0 0 Z " fill="#E23A3F" transform="translate(196,77)"/>
<path d="M0 0 C0.33 0 0.66 0 1 0 C1.19466332 1.79090253 1.38051213 3.58276505 1.5625 5.375 C1.66691406 6.37273437 1.77132812 7.37046875 1.87890625 8.3984375 C2 11 2 11 1 13 C0.34 13 -0.32 13 -1 13 C-0.67 8.71 -0.34 4.42 0 0 Z M5 4 C5.33 4 5.66 4 6 4 C6 5.65 6 7.3 6 9 C5.34 8.01 4.68 7.02 4 6 C4.33 5.34 4.66 4.68 5 4 Z " fill="#D51B22" transform="translate(184,69)"/>
<path d="M0 0 C0 0.66 0 1.32 0 2 C0.99 2.33 1.98 2.66 3 3 C2.01 4.485 2.01 4.485 1 6 C0.34 6 -0.32 6 -1 6 C-1 5.34 -1 4.68 -1 4 C-2.65 4 -4.3 4 -6 4 C-2.25 0 -2.25 0 0 0 Z " fill="#EE1A22" transform="translate(58,151)"/>
<path d="M0 0 C4.875 1.75 4.875 1.75 6 4 C0.375 6.125 0.375 6.125 -3 5 C-3.33 5.66 -3.66 6.32 -4 7 C-4 6.01 -4 5.02 -4 4 C-2.68 4 -1.36 4 0 4 C0 2.68 0 1.36 0 0 Z " fill="#EB1C23" transform="translate(244,142)"/>
<path d="M0 0 C0.99 0.33 1.98 0.66 3 1 C2.67 1.66 2.34 2.32 2 3 C3.65 3.33 5.3 3.66 7 4 C4 6 4 6 1.9375 5.75 C0 5 0 5 -2 3 C-1.34 2.01 -0.68 1.02 0 0 Z " fill="#E5393E" transform="translate(58,116)"/>
<path d="M0 0 C-0.33 0.99 -0.66 1.98 -1 3 C-2.32303717 3.3721042 -3.65737935 3.70630173 -5 4 C-5.33 4.66 -5.66 5.32 -6 6 C-6.66 5.67 -7.32 5.34 -8 5 C-8 3.33333333 -8 1.66666667 -8 0 C-5.13822943 -1.43088528 -3.06624227 -0.59991697 0 0 Z " fill="#E81D24" transform="translate(119,104)"/>
<path d="M0 0 C0.33 0.99 0.66 1.98 1 3 C1.99 2.34 2.98 1.68 4 1 C6.1875 1.375 6.1875 1.375 8 2 C7.67 3.32 7.34 4.64 7 6 C7 5.01 7 4.02 7 3 C6.38125 3.350625 5.7625 3.70125 5.125 4.0625 C4.42375 4.371875 3.7225 4.68125 3 5 C2.34 4.67 1.68 4.34 1 4 C1 4.99 1 5.98 1 7 C0.34 7 -0.32 7 -1 7 C-0.67 4.69 -0.34 2.38 0 0 Z " fill="#EA4F54" transform="translate(278,97)"/>
<path d="M0 0 C2 3 2 3 1.64453125 5.2265625 C1.23267578 6.41378906 1.23267578 6.41378906 0.8125 7.625 C0.55082031 8.42164062 0.28914063 9.21828125 0.01953125 10.0390625 C-1 12 -1 12 -4 13 C-3.52140759 11.39566191 -3.04210442 9.79153584 -2.5625 8.1875 C-2.29566406 7.29417969 -2.02882813 6.40085937 -1.75390625 5.48046875 C-1.19612127 3.64526945 -0.60655425 1.81966274 0 0 Z " fill="#D94D52" transform="translate(87,69)"/>
<path d="M0 0 C2.31 0 4.62 0 7 0 C6.67 1.65 6.34 3.3 6 5 C5.01 4.67 4.02 4.34 3 4 C2.01 4.33 1.02 4.66 0 5 C0 3.35 0 1.7 0 0 Z " fill="#E3171E" transform="translate(149,56)"/>
<path d="M0 0 C2.6015625 0.0234375 2.6015625 0.0234375 5.625 0.375 C6.62789062 0.48585938 7.63078125 0.59671875 8.6640625 0.7109375 C9.82035156 0.85402344 9.82035156 0.85402344 11 1 C11 1.99 11 2.98 11 4 C6.71 3.34 2.42 2.68 -2 2 C-1.34 1.34 -0.68 0.68 0 0 Z " fill="#DD5154" transform="translate(185,10)"/>
<path d="M0 0 C0.33 0.99 0.66 1.98 1 3 C-3.75 6 -3.75 6 -6 6 C-5.625 3.5625 -5.625 3.5625 -5 1 C-3 0 -3 0 0 0 Z " fill="#E21A22" transform="translate(83,160)"/>
<path d="M0 0 C2.625 -0.1875 2.625 -0.1875 5 0 C3.95125002 2.62187494 3.35068687 3.79371361 0.875 5.25 C0.25625 5.4975 -0.3625 5.745 -1 6 C-1.33 5.01 -1.66 4.02 -2 3 C-1.34 2.01 -0.68 1.02 0 0 Z " fill="#E03B42" transform="translate(253,140)"/>
<path d="M0 0 C0.66 0 1.32 0 2 0 C1.85892253 1.45880109 1.71197585 2.91703551 1.5625 4.375 C1.48128906 5.18710938 1.40007812 5.99921875 1.31640625 6.8359375 C1 9 1 9 0 11 C-0.66 11 -1.32 11 -2 11 C-2 9.35 -2 7.7 -2 6 C-1.34 6 -0.68 6 0 6 C0 4.02 0 2.04 0 0 Z " fill="#D53D43" transform="translate(283,100)"/>
<path d="M0 0 C2 3 2 3 1.625 5 C1.41875 5.66 1.2125 6.32 1 7 C1 7.99 1 8.98 1 10 C0.01 10.33 -0.98 10.66 -2 11 C-2.95465783 8.83032311 -3.14401212 7.43671207 -2.3984375 5.17578125 C-1.64129615 3.4315257 -0.82390802 1.71372869 0 0 Z " fill="#E35258" transform="translate(117,91)"/>
<path d="M0 0 C1.98 0 3.96 0 6 0 C5 3 5 3 3.125 4.25 C1 5 1 5 -2 4 C-1.34 2.68 -0.68 1.36 0 0 Z " fill="#F21824" transform="translate(207,57)"/>
<path d="M0 0 C2 1 2 1 3 3 C5.01669827 4.13350534 5.01669827 4.13350534 7 5 C7 5.66 7 6.32 7 7 C3.27566618 5.7874262 -0.37802806 4.49140021 -4 3 C-2.68 2.01 -1.36 1.02 0 0 Z " fill="#DE4C54" transform="translate(227,21)"/>
<path d="M0 0 C2.64 0.33 5.28 0.66 8 1 C5.01353231 2.99097846 2.40312738 3.94124926 -1 5 C-0.67 3.35 -0.34 1.7 0 0 Z " fill="#E64A53" transform="translate(61,20)"/>
<path d="M0 0 C1.32 1.32 2.64 2.64 4 4 C3.01 4.66 2.02 5.32 1 6 C1.99 6.33 2.98 6.66 4 7 C3.67 7.99 3.34 8.98 3 10 C1.35 9.01 -0.3 8.02 -2 7 C-1.34 4.69 -0.68 2.38 0 0 Z " fill="#E63E42" transform="translate(23,125)"/>
<path d="M0 0 C2.16264785 2.16264785 2.82246387 2.98188578 3 6 C1.0625 8.25 1.0625 8.25 -1 10 C-2.15837626 5.94568308 -1.83691257 3.78187881 0 0 Z " fill="#E43E47" transform="translate(136,85)"/>
<path d="M0 0 C-1.09068668 3.77545388 -1.9083091 6.47043472 -5 9 C-5 6.33333333 -5 3.66666667 -5 1 C-3 0 -3 0 0 0 Z " fill="#E44A51" transform="translate(96,81)"/>
<path d="M0 0 C1.485 0.99 1.485 0.99 3 2 C2.34 6.62 1.68 11.24 1 16 C0.67 16 0.34 16 0 16 C0 10.72 0 5.44 0 0 Z " fill="#DE5459" transform="translate(119,70)"/>
<path d="M0 0 C0.66 0.33 1.32 0.66 2 1 C1.67 2.65 1.34 4.3 1 6 C0.01 6.33 -0.98 6.66 -2 7 C-2.66 6.67 -3.32 6.34 -4 6 C-3.34 4.68 -2.68 3.36 -2 2 C-1.34 2 -0.68 2 0 2 C0 1.34 0 0.68 0 0 Z " fill="#E43036" transform="translate(38,32)"/>
<path d="M0 0 C3.63 0.66 7.26 1.32 11 2 C10.01 2.33 9.02 2.66 8 3 C8 3.66 8 4.32 8 5 C4.5625 4.1875 4.5625 4.1875 1 3 C0.67 2.01 0.34 1.02 0 0 Z " fill="#DE5258" transform="translate(83,160)"/>
<path d="M0 0 C0.66 0.33 1.32 0.66 2 1 C1.67 3.64 1.34 6.28 1 9 C0.01 8.34 -0.98 7.68 -2 7 C-2.1875 4.375 -2.1875 4.375 -2 2 C-1.34 2 -0.68 2 0 2 C0 1.34 0 0.68 0 0 Z " fill="#EC1924" transform="translate(180,91)"/>
<path d="M0 0 C0.33 0.66 0.66 1.32 1 2 C1.66 2 2.32 2 3 2 C3.33 1.34 3.66 0.68 4 0 C4.66 0.33 5.32 0.66 6 1 C6 1.66 6 2.32 6 3 C5.01 3.33 4.02 3.66 3 4 C2.01 5.485 2.01 5.485 1 7 C0.34 6.67 -0.32 6.34 -1 6 C-0.67 4.02 -0.34 2.04 0 0 Z " fill="#E93F48" transform="translate(182,80)"/>
<path d="M0 0 C1 2 1 2 0.375 4.5625 C-1 7 -1 7 -3.625 7.8125 C-4.40875 7.874375 -5.1925 7.93625 -6 8 C-4.26440562 4.942048 -2.61527381 2.36620011 0 0 Z " fill="#DC555B" transform="translate(21,41)"/>
<path d="M0 0 C2.97 0.33 5.94 0.66 9 1 C5.71536341 3.18975773 2.79303725 3.99806563 -1 5 C-0.67 3.35 -0.34 1.7 0 0 Z " fill="#E34A50" transform="translate(186,4)"/>
<path d="M0 0 C1.65 0 3.3 0 5 0 C5 0.66 5 1.32 5 2 C5.99 2 6.98 2 8 2 C8.33 2.99 8.66 3.98 9 5 C6.03 4.01 3.06 3.02 0 2 C0 1.34 0 0.68 0 0 Z " fill="#DD4D56" transform="translate(52,155)"/>
<path d="M0 0 C0.66 0.66 1.32 1.32 2 2 C4.32275177 2.40047444 6.65739357 2.7397104 9 3 C9 3.33 9 3.66 9 4 C7.20866022 4.05391993 5.41686101 4.09275571 3.625 4.125 C2.62726563 4.14820313 1.62953125 4.17140625 0.6015625 4.1953125 C-2 4 -2 4 -4 2 C-2.68 1.34 -1.36 0.68 0 0 Z " fill="#E2303B" transform="translate(114,124)"/>
<path d="M0 0 C2.64 0 5.28 0 8 0 C7.67 2.31 7.34 4.62 7 7 C5 5 5 5 4 2 C1.99983534 0.79117904 1.99983534 0.79117904 0 0 Z " fill="#E57F84" transform="translate(94,65)"/>
<path d="M0 0 C2.64 0.33 5.28 0.66 8 1 C4.46588679 3.12046792 1.05606165 3.53199289 -3 4 C-2.67 3.34 -2.34 2.68 -2 2 C-1.34 2 -0.68 2 0 2 C0 1.34 0 0.68 0 0 Z " fill="#DF5F63" transform="translate(91,11)"/>
<path d="M0 0 C1.65 0.33 3.3 0.66 5 1 C2.04816899 3.95183101 -0.95511947 4.08663988 -5 5 C-5 4.01 -5 3.02 -5 2 C-3.35 2 -1.7 2 0 2 C0 1.34 0 0.68 0 0 Z " fill="#DD4E56" transform="translate(216,161)"/>
<path d="M0 0 C2.31 0 4.62 0 7 0 C7.66 1.98 8.32 3.96 9 6 C7.35 5.67 5.7 5.34 4 5 C4 4.34 4 3.68 4 3 C2.68 2.67 1.36 2.34 0 2 C0 1.34 0 0.68 0 0 Z " fill="#D91823" transform="translate(56,114)"/>
<path d="M0 0 C2.1875 0.3125 2.1875 0.3125 4 1 C3.34 2.32 2.68 3.64 2 5 C-0.475 4.01 -0.475 4.01 -3 3 C-1.75 1.4375 -1.75 1.4375 0 0 Z " fill="#E4464A" transform="translate(170,103)"/>
<path d="M0 0 C1.65 1.65 3.3 3.3 5 5 C4.34 6.32 3.68 7.64 3 9 C2.38125 8.05125 1.7625 7.1025 1.125 6.125 C-0.81970969 3.05554891 -0.81970969 3.05554891 -3 1 C-2.01 0.67 -1.02 0.34 0 0 Z " fill="#DC4A52" transform="translate(113,58)"/>
<path d="M0 0 C2.97 0.495 2.97 0.495 6 1 C1.25 5 1.25 5 -1 5 C-1.33 4.01 -1.66 3.02 -2 2 C-1.34 2 -0.68 2 0 2 C0 1.34 0 0.68 0 0 Z " fill="#E24650" transform="translate(44,29)"/>
<path d="M0 0 C2.475 0.495 2.475 0.495 5 1 C5 1.99 5 2.98 5 4 C3.68 4.33 2.36 4.66 1 5 C0.67 3.35 0.34 1.7 0 0 Z " fill="#E23439" transform="translate(241,147)"/>
<path d="M0 0 C0.99 0.33 1.98 0.66 3 1 C1.75023244 4.65316671 1.32901247 5.78065836 -2 8 C-2.20086443 4.28400809 -2.1519437 3.22791555 0 0 Z " fill="#DE464F" transform="translate(123,98)"/>
<path d="M0 0 C1.5625 1.1875 1.5625 1.1875 3 3 C2.6875 5.6875 2.6875 5.6875 2 8 C-0.7839183 6.60804085 -0.97898997 4.84424221 -2 2 C-1.34 2 -0.68 2 0 2 C0 1.34 0 0.68 0 0 Z " fill="#E23738" transform="translate(147,77)"/>
<path d="M0 0 C2.31 0.33 4.62 0.66 7 1 C3.3558226 3.4294516 1.28758728 3.16179575 -3 3 C-2.01 2.67 -1.02 2.34 0 2 C0 1.34 0 0.68 0 0 Z " fill="#DB4248" transform="translate(196,167)"/>
<path d="M0 0 C5.75 0.875 5.75 0.875 8 2 C8 2.66 8 3.32 8 4 C2.25 3.125 2.25 3.125 0 2 C0 1.34 0 0.68 0 0 Z " fill="#DC4E53" transform="translate(66,161)"/>
<path d="M0 0 C0.33 0.99 0.66 1.98 1 3 C-0.65 3.66 -2.3 4.32 -4 5 C-4.66 4.34 -5.32 3.68 -6 3 C-6 2.34 -6 1.68 -6 1 C-4.02 0.67 -2.04 0.34 0 0 Z " fill="#E71A24" transform="translate(40,141)"/>
<path d="M0 0 C1.98 0.495 1.98 0.495 4 1 C3.67 2.65 3.34 4.3 3 6 C1.68 5.01 0.36 4.02 -1 3 C-0.67 2.01 -0.34 1.02 0 0 Z " fill="#E91A22" transform="translate(13,119)"/>
<path d="M0 0 C4.455 0.99 4.455 0.99 9 2 C5.77208445 4.1519437 4.71599191 4.20086443 1 4 C0.67 2.68 0.34 1.36 0 0 Z " fill="#DF5559" transform="translate(82,111)"/>
<path d="M0 0 C0.33 0.66 0.66 1.32 1 2 C2.64363134 2.72159424 4.31050386 3.39351421 6 4 C3.50935112 4.68707555 1.62113708 5 -1 5 C-0.67 3.35 -0.34 1.7 0 0 Z " fill="#E61923" transform="translate(164,103)"/>
<path d="M0 0 C0.99 0.33 1.98 0.66 3 1 C3.99 0.67 4.98 0.34 6 0 C5.34 1.32 4.68 2.64 4 4 C2.02 4 0.04 4 -2 4 C-1.34 2.68 -0.68 1.36 0 0 Z " fill="#E0383E" transform="translate(113,100)"/>
<path d="M0 0 C1.5625 1.0625 1.5625 1.0625 3 3 C2.6875 6.6875 2.6875 6.6875 2 10 C1.67 8.68 1.34 7.36 1 6 C0.34 6 -0.32 6 -1 6 C-0.67 4.02 -0.34 2.04 0 0 Z " fill="#E44045" transform="translate(138,79)"/>
<path d="M0 0 C0.33 0 0.66 0 1 0 C1 1.98 1 3.96 1 6 C1.99 5.67 2.98 5.34 4 5 C2.25 9.875 2.25 9.875 0 11 C0 7.37 0 3.74 0 0 Z " fill="#F31821" transform="translate(185,68)"/>
<path d="M0 0 C1.32 0 2.64 0 4 0 C4 0.66 4 1.32 4 2 C4.99 2 5.98 2 7 2 C7 2.99 7 3.98 7 5 C4.11424181 4.60196439 3.17810487 4.20990931 1.25 1.9375 C0.8375 1.298125 0.425 0.65875 0 0 Z " fill="#DB4E59" transform="translate(255,42)"/>
<path d="M0 0 C2.97 0.33 5.94 0.66 9 1 C7.515 2.485 7.515 2.485 6 4 C1.125 2.25 1.125 2.25 0 0 Z " fill="#E24D52" transform="translate(34,145)"/>
<path d="M0 0 C0.66 0 1.32 0 2 0 C2.625 2.3125 2.625 2.3125 3 5 C2.01 6.485 2.01 6.485 1 8 C0.34 5.69 -0.32 3.38 -1 1 C-0.67 0.67 -0.34 0.34 0 0 Z " fill="#E4434D" transform="translate(218,100)"/>
<path d="M0 0 C1.65 0 3.3 0 5 0 C4.25 5.75 4.25 5.75 2 8 C2.04125 7.05125 2.0825 6.1025 2.125 5.125 C2.34973818 1.89755144 2.34973818 1.89755144 0 0 Z " fill="#DD6E72" transform="translate(75,71)"/>
<path d="M0 0 C1.98 0.495 1.98 0.495 4 1 C3.34 2.65 2.68 4.3 2 6 C1.01 5.67 0.02 5.34 -1 5 C-0.67 3.35 -0.34 1.7 0 0 Z " fill="#E0363C" transform="translate(3,68)"/>
<path d="M0 0 C0.66 0 1.32 0 2 0 C2.625 2.8125 2.625 2.8125 3 6 C2.01 7.485 2.01 7.485 1 9 C-1.125 3.375 -1.125 3.375 0 0 Z " fill="#E7464A" transform="translate(9,64)"/>
<path d="M0 0 C1.98 0.495 1.98 0.495 4 1 C4 2.32 4 3.64 4 5 C2.68 5.33 1.36 5.66 0 6 C-1.125 2.25 -1.125 2.25 0 0 Z " fill="#E71A21" transform="translate(245,27)"/>
<path d="M0 0 C2.97 0.99 5.94 1.98 9 3 C9 3.33 9 3.66 9 4 C6.69 4 4.38 4 2 4 C2 3.34 2 2.68 2 2 C1.34 2 0.68 2 0 2 C0 1.34 0 0.68 0 0 Z " fill="#DA5B5E" transform="translate(228,17)"/>
<path d="M0 0 C2.31 0.33 4.62 0.66 7 1 C6.01 1.33 5.02 1.66 4 2 C4 2.66 4 3.32 4 4 C2.68 4 1.36 4 0 4 C0 2.68 0 1.36 0 0 Z " fill="#DE4A4C" transform="translate(196,6)"/>
<path d="M0 0 C2.97 0.99 5.94 1.98 9 3 C5 5 5 5 2.8125 4.3125 C1 3 1 3 0 0 Z " fill="#DD585D" transform="translate(57,150)"/>
<path d="M0 0 C1.42944945 2.35438733 2.08661261 3.48032433 1.625 6.25 C1.41875 6.8275 1.2125 7.405 1 8 C0.34 7.67 -0.32 7.34 -1 7 C-1.04254356 5.00045254 -1.04080783 2.99958364 -1 1 C-0.67 0.67 -0.34 0.34 0 0 Z " fill="#E91D26" transform="translate(227,99)"/>
<path d="M0 0 C0.99 0.33 1.98 0.66 3 1 C2.67 2.32 2.34 3.64 2 5 C0.0625 4.625 0.0625 4.625 -2 4 C-2.33 3.34 -2.66 2.68 -3 2 C-2.01 2 -1.02 2 0 2 C0 1.34 0 0.68 0 0 Z " fill="#F01A23" transform="translate(231,20)"/>
<path d="M0 0 C1.65 0 3.3 0 5 0 C5.33 1.32 5.66 2.64 6 4 C4.68 4.33 3.36 4.66 2 5 C2 4.01 2 3.02 2 2 C1.34 1.34 0.68 0.68 0 0 Z " fill="#E41825" transform="translate(101,4)"/>
</svg>
