<?xml version="1.0" encoding="UTF-8"?>
<svg version="1.1" xmlns="http://www.w3.org/2000/svg" width="180" height="180">
<path d="M0 0 C12.19513793 9.26233981 20.27706036 21.1304018 24 36 C24.18820313 36.74507812 24.37640625 37.49015625 24.5703125 38.2578125 C27.10886545 54.45839586 24.82406802 70.84924431 15.72265625 84.69921875 C4.93582816 99.10611613 -8.46866232 108.86578991 -26.1875 112.6875 C-45.49506274 114.27008711 -62.49549158 110.82077977 -77.6171875 98.1640625 C-89.12744442 87.7104849 -97.99411723 73.9441592 -99.14038086 58.05395508 C-99.96668435 39.43224783 -96.0943636 23.13620795 -83.6875 8.625 C-61.64647409 -14.42468303 -26.17854447 -18.46014209 0 0 Z M-47 -3 C-48.88773529 0.77547058 -50.01764214 3.0649664 -49.9375 7.3125 C-49.25863865 10.12694038 -49.25863865 10.12694038 -46.9375 11.375 C-46.298125 11.58125 -45.65875 11.7875 -45 12 C-45.33 11.34 -45.66 10.68 -46 10 C-46.07092842 7.7927077 -46.08415025 5.58332548 -46.0625 3.375 C-46.05347656 2.18648437 -46.04445312 0.99796875 -46.03515625 -0.2265625 C-46.02355469 -1.14179687 -46.01195312 -2.05703125 -46 -3 C-46.33 -3 -46.66 -3 -47 -3 Z M-38 -3 C-38.75241109 0.65456815 -39.40049704 4.31733897 -40 8 C-39.34 8 -38.68 8 -38 8 C-38.66 9.65 -39.32 11.3 -40 13 C-39.34 13 -38.68 13 -38 13 C-38.185625 14.0725 -38.37125 15.145 -38.5625 16.25 C-38.96211945 19.67530957 -38.79378138 20.86136887 -38 24 C-37.94156786 25.7316956 -37.94025017 27.46573411 -37.97827148 29.19799805 C-37.99836777 30.23816574 -38.01846405 31.27833344 -38.03916931 32.35002136 C-38.06620438 33.4758815 -38.09323944 34.60174164 -38.12109375 35.76171875 C-38.14470474 36.93974564 -38.16831573 38.11777252 -38.19264221 39.33149719 C-38.26919282 43.11695669 -38.35287891 46.90221299 -38.4375 50.6875 C-38.54373052 55.60800721 -38.6465236 60.52857228 -38.74609375 65.44921875 C-38.77069672 66.65633514 -38.79529968 67.86345154 -38.82064819 69.10714722 C-39.04878336 81.07166953 -39.05837658 93.03379815 -39 105 C-37.68 105 -36.36 105 -35 105 C-34.97684194 93.59531204 -34.9590672 82.19062967 -34.94818783 70.785923 C-34.9429666 65.49041158 -34.9358827 60.19491623 -34.92456055 54.89941406 C-34.91370473 49.79011629 -34.90771742 44.68083399 -34.90512276 39.57152557 C-34.90327338 37.62106838 -34.89966209 35.67061205 -34.89426994 33.72016144 C-34.88702381 30.99083111 -34.88601058 28.26156494 -34.88647461 25.53222656 C-34.88287933 24.72374268 -34.87928406 23.91525879 -34.87557983 23.08227539 C-34.88209282 19.54808527 -35.0491825 16.40014653 -36 13 C-35.34 12.67 -34.68 12.34 -34 12 C-34 9.03884367 -34.11931928 6.30226261 -34.4375 3.375 C-34.51871094 2.59898438 -34.59992188 1.82296875 -34.68359375 1.0234375 C-34.90492536 -1.06290181 -34.90492536 -1.06290181 -36 -3 C-36.66 -3 -37.32 -3 -38 -3 Z M-28 -3 C-27.98839844 -2.08476563 -27.97679688 -1.16953125 -27.96484375 -0.2265625 C-27.95582031 0.96195313 -27.94679688 2.15046875 -27.9375 3.375 C-27.92589844 4.55835938 -27.91429688 5.74171875 -27.90234375 6.9609375 C-28 10 -28 10 -29 12 C-26.93597032 11.51294288 -26.93597032 11.51294288 -25 10 C-23.77941678 5.76864483 -23.72749827 3.65163458 -25.4375 -0.4375 C-25.953125 -1.283125 -26.46875 -2.12875 -27 -3 C-27.33 -3 -27.66 -3 -28 -3 Z M-77 33 C-76.67 33.99 -76.34 34.98 -76 36 C-75.90474323 38.1754489 -75.8692687 40.35371759 -75.8671875 42.53125 C-75.86589844 43.81644531 -75.86460938 45.10164063 -75.86328125 46.42578125 C-75.86537598 47.09432129 -75.8674707 47.76286133 -75.86962891 48.45166016 C-75.87498057 50.49258865 -75.86967604 52.53329709 -75.86328125 54.57421875 C-75.86457031 55.85941406 -75.86585937 57.14460938 -75.8671875 58.46875 C-75.86831543 59.64888672 -75.86944336 60.82902344 -75.87060547 62.04492188 C-76 65 -76 65 -77 68 C-73.04 68 -69.08 68 -65 68 C-65.00523682 67.01080566 -65.01047363 66.02161133 -65.01586914 65.00244141 C-65.03394523 61.33855084 -65.04544158 57.67466423 -65.05493164 54.01074219 C-65.05996588 52.42382139 -65.06679369 50.83690523 -65.07543945 49.25 C-65.08754482 46.97134251 -65.09323733 44.69274624 -65.09765625 42.4140625 C-65.10281754 41.70255035 -65.10797882 40.99103821 -65.11329651 40.25796509 C-65.11387171 35.22774341 -65.11387171 35.22774341 -64 33 C-68.29 33 -72.58 33 -77 33 Z M-20 37 C-24.06772325 42.21502981 -25.2481456 47.4034628 -25 54 C-23.86888902 60.24286254 -21.10296507 63.41706708 -16 67 C-13.31432703 68.34283649 -11.12253147 68.24287519 -8.125 68.3125 C-7.07570313 68.34988281 -6.02640625 68.38726562 -4.9453125 68.42578125 C-1.36103556 67.90762981 -0.24972041 66.75509239 2 64 C1.26394531 64.05800781 0.52789062 64.11601563 -0.23046875 64.17578125 C-8.26072785 64.54706139 -8.26072785 64.54706139 -12.125 61.6875 C-15.60358039 56.70153477 -15.49917809 51.88317037 -15 46 C-14.15374391 42.59008574 -13.03609687 39.85107957 -10.25 37.5625 C-5.73964877 36.43491219 -2.2362855 36.36870527 1.9375 38.5 C2.9584375 39.2425 2.9584375 39.2425 4 40 C4 38.02 4 36.04 4 34 C-8.77161295 32.02448384 -8.77161295 32.02448384 -20 37 Z " fill="#14488D" transform="translate(127,38)"/>
<path d="M0 0 C3 1 3 1 4.24609375 3.046875 C14.91365412 27.24999557 17.03606406 50.86120641 8 76 C6.18541165 79.78928744 4.1932431 83.41770293 2 87 C0.68 86.67 -0.64 86.34 -2 86 C-1.22598167 82.18654383 0.33810044 78.81316018 1.875 75.25 C9.18509947 57.47723875 11.12559935 35.99809308 4.13867188 17.75048828 C2.89046618 14.84998605 1.59656492 11.98966062 0.16186523 9.17626953 C-2.15843513 4.48457963 -2.15843513 4.48457963 -1.19921875 1.55078125 C-0.80347656 1.03902344 -0.40773437 0.52726562 0 0 Z " fill="#5A7EAF" transform="translate(162,45)"/>
<path d="M0 0 C1.32 0.66 2.64 1.32 4 2 C2.74064519 5.91732 1.32029504 9.73561846 -0.20849609 13.55517578 C-8.84015184 35.44582155 -7.52303822 57.5187273 1.6953125 78.890625 C2.70432743 81.29534321 3.48410376 83.45826731 4 86 C2.02 86.495 2.02 86.495 0 87 C-11.32605292 66.63855655 -15.38517697 43.76196728 -8.92578125 21.01171875 C-6.66369283 13.66518675 -3.71883526 6.72555313 0 0 Z " fill="#5E82B1" transform="translate(16,45)"/>
<path d="M0 0 C9.06836425 8.14838527 11.6662226 24.27134111 12.38671875 35.9765625 C12.93795904 51.89209462 9.97268209 67.54097687 1 81 C0.01 80.67 -0.98 80.34 -2 80 C-1.7215625 79.30519531 -1.443125 78.61039062 -1.15625 77.89453125 C-0.7746875 76.93933594 -0.393125 75.98414062 0 75 C0.60328125 73.48986328 0.60328125 73.48986328 1.21875 71.94921875 C4.74422453 62.97430646 7.29791161 54.64535711 8 45 C8.05414063 44.34902344 8.10828125 43.69804688 8.1640625 43.02734375 C8.69516546 30.49814208 5.2765878 18.21492588 0 7 C-0.67734157 5.33764305 -1.34735761 3.67220816 -2 2 C-1.34 1.34 -0.68 0.68 0 0 Z " fill="#4F75A9" transform="translate(157,48)"/>
<path d="M0 0 C0.99 0.99 1.98 1.98 3 3 C2.60167969 3.79921875 2.20335937 4.5984375 1.79296875 5.421875 C-8.4619383 26.68022246 -8.93376995 47.55045125 -1.31640625 69.7578125 C-0.10719131 73.00623588 -0.10719131 73.00623588 1.72265625 75.7421875 C2.14417969 76.48726563 2.56570312 77.23234375 3 78 C2.67 78.99 2.34 79.98 2 81 C-1 80 -1 80 -2.46484375 77.65625 C-11.48600553 58.32177065 -14.20992289 37.71406805 -8 17 C-2.66915688 2.66915688 -2.66915688 2.66915688 0 0 Z " fill="#6687B4" transform="translate(22,48)"/>
<path d="M0 0 C3 1 3 1 4.24609375 2.94140625 C13.1119713 22.44633685 15.34218112 43.56797073 8 64 C6.24264978 67.84473939 4.29805892 71.45332907 2 75 C1.01 75 0.02 75 -1 75 C-0.7215625 74.31164062 -0.443125 73.62328125 -0.15625 72.9140625 C8.29850387 51.60579768 11.76653446 30.8905807 2.64306641 8.97094727 C1.47667111 6.2908438 0.25645255 3.63895698 -1 1 C-0.67 0.67 -0.34 0.34 0 0 Z " fill="#7996BE" transform="translate(152,51)"/>
<path d="M0 0 C0.99 0.33 1.98 0.66 3 1 C2.60167969 1.92039063 2.20335937 2.84078125 1.79296875 3.7890625 C-6.50258674 23.39887751 -8.66939581 41.69350092 -2 62 C-0.75368763 65.0539949 0.56855703 68.01320709 2.046875 70.9609375 C3 73 3 73 3 75 C1.15625 74.78515625 1.15625 74.78515625 -1 74 C-10.50474595 60.2678525 -12.16839034 39.65953951 -9.3046875 23.66015625 C-7.50601704 15.17330318 -4.28657303 7.54436854 0 0 Z " fill="#6B8AB7" transform="translate(26,51)"/>
<path d="M0 0 C1.65 0.33 3.3 0.66 5 1 C5 2.65 5 4.3 5 6 C5.66 6 6.32 6 7 6 C7.33 4.68 7.66 3.36 8 2 C9.65 2 11.3 2 13 2 C14.30211046 5.90633137 13.47812346 8.19538173 12.5625 12.1875 C12.27503906 13.45980469 11.98757812 14.73210937 11.69140625 16.04296875 C11.46324219 17.01878906 11.23507813 17.99460938 11 19 C10.39027344 18.8453125 9.78054687 18.690625 9.15234375 18.53125 C6.77969346 17.94562307 4.39854423 17.46800863 2 17 C0.33333333 16.66666667 -1.33333333 16.33333333 -3 16 C-2.57910004 10.39538469 -2.08386889 5.27913453 0 0 Z M7 12 C8 14 8 14 8 14 Z " fill="#708FBA" transform="translate(72,156)"/>
<path d="M0 0 C3.29308586 2.94976414 4.96911537 5.60120406 6.625 9.6875 C7.23214844 11.14736328 7.23214844 11.14736328 7.8515625 12.63671875 C13.92777634 30.43134499 12.50262198 50.10309163 4.25 66.9375 C3.5146466 68.29967573 2.77073702 69.65752773 2 71 C1.01 70.67 0.02 70.34 -1 70 C-0.59007812 69.01 -0.18015625 68.02 0.2421875 67 C0.78674125 65.66678219 1.33099605 64.33344224 1.875 63 C2.14441406 62.35160156 2.41382813 61.70320313 2.69140625 61.03515625 C6.0850539 52.67519497 7.36625638 45.29042156 7.3125 36.25 C7.30758545 35.27643555 7.3026709 34.30287109 7.29760742 33.29980469 C7.12559981 22.73236239 5.15506549 14.27136461 -0.109375 5.05859375 C-1 3 -1 3 0 0 Z " fill="#8AA4C7" transform="translate(148,53)"/>
<path d="M0 0 C0.99 0 1.98 0 3 0 C2.72285156 0.680625 2.44570313 1.36125 2.16015625 2.0625 C0.85969226 5.35525731 -0.36041843 8.67005462 -1.5625 12 C-2.21412109 13.794375 -2.21412109 13.794375 -2.87890625 15.625 C-8.71111012 33.18257542 -4.96268742 52.79024346 3 69 C1.515 69.495 1.515 69.495 0 70 C-8.82621866 52.54750937 -12.17024853 34.20599449 -7.06640625 15.0234375 C-5.21012678 9.76057921 -2.7107164 4.86876246 0 0 Z " fill="#7090BA" transform="translate(30,54)"/>
<path d="M0 0 C0.33 0 0.66 0 1 0 C1.33 7.92 1.66 15.84 2 24 C2.66 24 3.32 24 4 24 C4.34611328 25.45019531 4.34611328 25.45019531 4.69921875 26.9296875 C6.47345573 34.09671965 8.38680083 40.56457496 12.046875 47.046875 C13 49 13 49 13 52 C11.02 52.495 11.02 52.495 9 53 C7.88219086 50.9021938 6.78118731 48.79785439 5.6875 46.6875 C5.37876953 46.11193359 5.07003906 45.53636719 4.75195312 44.94335938 C-0.44653435 34.81998904 -1.44514749 25.1447676 -1.25 13.875 C-1.24484375 12.64523438 -1.2396875 11.41546875 -1.234375 10.1484375 C-1.15478516 1.15478516 -1.15478516 1.15478516 0 0 Z " fill="#547AAC" transform="translate(7,79)"/>
<path d="M0 0 C3 1 3 1 4.38671875 3.6171875 C4.81597656 4.69226563 5.24523437 5.76734375 5.6875 6.875 C6.34298828 8.47988281 6.34298828 8.47988281 7.01171875 10.1171875 C8 13 8 13 8 16 C5 17 5 17 2 16 C1.67 16.99 1.34 17.98 1 19 C0.01 19 -0.98 19 -2 19 C-3.03271642 16.90163996 -4.05083717 14.79609109 -5.0625 12.6875 C-5.63097656 11.51574219 -6.19945313 10.34398437 -6.78515625 9.13671875 C-8 6 -8 6 -7 3 C-5.35 3.33 -3.7 3.66 -2 4 C-1.34 2.68 -0.68 1.36 0 0 Z M0 12 C1 14 1 14 1 14 Z " fill="#6B8BB7" transform="translate(126,148)"/>
<path d="M0 0 C0.99 0 1.98 0 3 0 C3.5321441 2.08047297 4.05031786 4.16452293 4.5625 6.25 C4.85253906 7.41015625 5.14257812 8.5703125 5.44140625 9.765625 C5.95179964 12.72090983 6.02996165 14.24434101 5 17 C1.125 16.125 1.125 16.125 0 15 C-0.33 15.99 -0.66 16.98 -1 18 C-2.32 18 -3.64 18 -5 18 C-5.50404808 15.89679937 -6.00310508 13.79240209 -6.5 11.6875 C-6.91765625 9.92986328 -6.91765625 9.92986328 -7.34375 8.13671875 C-8 5 -8 5 -8 2 C-6.33388095 1.957279 -4.66617115 1.95936168 -3 2 C-2.67 2.33 -2.34 2.66 -2 3 C-1.34 2.01 -0.68 1.02 0 0 Z M-1 5 C0 7 0 7 0 7 Z " fill="#34609C" transform="translate(79,3)"/>
<path d="M0 0 C5.14770554 2.49940249 5.14770554 2.49940249 7 5 C7.1875 7.6875 7.1875 7.6875 7 10 C6.21625 10.2475 5.4325 10.495 4.625 10.75 C1.5988084 12.19104362 1.19298128 12.97166289 0 16 C-0.66 16.99 -1.32 17.98 -2 19 C-3.32 18.34 -4.64 17.68 -6 17 C-4.79618552 14.50638429 -3.54571278 12.31856917 -2 10 C-2.5775 10.515625 -3.155 11.03125 -3.75 11.5625 C-6 13 -6 13 -8.25 12.6875 C-8.8275 12.460625 -9.405 12.23375 -10 12 C-8.52278578 8.54798361 -6.56205999 6.35038064 -3.875 3.75 C-3.15054688 3.04359375 -2.42609375 2.3371875 -1.6796875 1.609375 C-1.12539062 1.07828125 -0.57109375 0.5471875 0 0 Z M1 5 C0.67 5.99 0.34 6.98 0 8 C0.99 7.67 1.98 7.34 3 7 C2.34 6.34 1.68 5.68 1 5 Z " fill="#325F9C" transform="translate(147,27)"/>
<path d="M0 0 C0.33 0 0.66 0 1 0 C1.23889655 9.59567793 0.78831859 18.53149174 -1 28 C-0.01 27.67 0.98 27.34 2 27 C0.67296379 35.55201116 -2.98119232 42.44593101 -7 50 C-8.32 49.67 -9.64 49.34 -11 49 C-10.22598167 45.18654383 -8.66189956 41.81316018 -7.125 38.25 C-2.04582275 25.93431984 -0.60015955 13.24490042 0 0 Z " fill="#456DA4" transform="translate(171,82)"/>
<path d="M0 0 C0.7425 0.350625 1.485 0.70125 2.25 1.0625 C5.1322726 2.04509293 6.21176345 2.0326802 9 1 C9 5 9 5 7 8 C6.9744911 10.5254223 6.9744911 10.5254223 7.375 13.1875 C7.48585938 14.08855469 7.59671875 14.98960938 7.7109375 15.91796875 C7.80632812 16.60503906 7.90171875 17.29210937 8 18 C6.68 18 5.36 18 4 18 C3.67 17.34 3.34 16.68 3 16 C1.35 16.33 -0.3 16.66 -2 17 C-3.48959804 14.02080393 -2.65011186 11.75137753 -2.125 8.5 C-1.94195312 7.3346875 -1.75890625 6.169375 -1.5703125 4.96875 C-1 2 -1 2 0 0 Z " fill="#446DA4" transform="translate(99,4)"/>
<path d="M0 0 C0.061875 0.61875 0.12375 1.2375 0.1875 1.875 C0.455625 2.57625 0.72375 3.2775 1 4 C1.804375 4.309375 2.60875 4.61875 3.4375 4.9375 C6 6 6 6 7.3125 8.625 C7.6528125 9.800625 7.6528125 9.800625 8 11 C6.35 12.65 4.7 14.3 3 16 C0.525 15.01 0.525 15.01 -2 14 C-2 13.01 -2 12.02 -2 11 C-2.804375 10.54625 -3.60875 10.0925 -4.4375 9.625 C-7 8 -7 8 -8 5.5 C-8 3 -8 3 -6.875 1.1875 C-4.46186517 -0.34081872 -2.80362763 -0.22732116 0 0 Z M0 9 C0.33 9.66 0.66 10.32 1 11 C1.99 10.67 2.98 10.34 4 10 C2.68 9.67 1.36 9.34 0 9 Z " fill="#6688B5" transform="translate(36,27)"/>
<path d="M0 0 C0.33 0 0.66 0 1 0 C1 7.92 1 15.84 1 24 C1.33 22.02 1.66 20.04 2 18 C2.33 18 2.66 18 3 18 C3.08636719 18.90878906 3.17273438 19.81757812 3.26171875 20.75390625 C4.40865801 31.01322534 6.13748722 41.85151026 11.72265625 50.7421875 C12.35494141 51.85980469 12.35494141 51.85980469 13 53 C12.67 53.99 12.34 54.98 12 56 C9 55 9 55 7.53515625 52.65625 C-0.39713835 35.65547007 -2.9981718 18.57403996 0 0 Z " fill="#95ACCB" transform="translate(12,73)"/>
<path d="M0 0 C0.33 0.66 0.66 1.32 1 2 C1.66 2 2.32 2 3 2 C4.44286687 13.00185991 6.42299998 28.36550004 0 38 C-0.66 38 -1.32 38 -2 38 C-1.9278125 37.34 -1.855625 36.68 -1.78125 36 C-0.93518574 26.97531452 -0.93478214 18.02349647 -1.03710938 8.96484375 C-1.04548828 7.95035156 -1.05386719 6.93585938 -1.0625 5.890625 C-1.07410156 4.97313477 -1.08570313 4.05564453 -1.09765625 3.11035156 C-1 1 -1 1 0 0 Z " fill="#4A72A7" transform="translate(172,72)"/>
<path d="M0 0 C2.475 0.99 2.475 0.99 5 2 C3.41078475 7.36095277 1.81027062 12.70843973 0 18 C-1.9375 17.625 -1.9375 17.625 -4 17 C-4.33 16.34 -4.66 15.68 -5 15 C-4.67 14.34 -4.34 13.68 -4 13 C-4.78375 13.185625 -5.5675 13.37125 -6.375 13.5625 C-9 14 -9 14 -11 13 C-9.46356148 9.31930113 -7.21849055 7.01224796 -4.375 4.25 C-3.55773437 3.45078125 -2.74046875 2.6515625 -1.8984375 1.828125 C-0.95871094 0.92320313 -0.95871094 0.92320313 0 0 Z " fill="#5379AC" transform="translate(129,14)"/>
<path d="M0 0 C8.46066952 7.60234072 11.4889121 22.70040935 12.16748047 33.71972656 C12.32828931 39.48687086 12.21459407 45.23576493 12 51 C11.67 51 11.34 51 11 51 C10.67 45.06 10.34 39.12 10 33 C9.34 33.99 8.68 34.98 8 36 C7.84144531 34.91203125 7.68289062 33.8240625 7.51953125 32.703125 C6.08915153 23.49236244 3.9936692 15.48819461 0 7 C-0.67734157 5.33764305 -1.34735761 3.67220816 -2 2 C-1.34 1.34 -0.68 0.68 0 0 Z " fill="#7794BD" transform="translate(157,48)"/>
<path d="M0 0 C3.65663554 1.29057725 5.73224146 3.62789026 8.25 6.5 C8.95640625 7.2940625 9.6628125 8.088125 10.390625 8.90625 C12 11 12 11 12 13 C10.35 13.33 8.7 13.66 7 14 C7 13.34 7 12.68 7 12 C6.01 12 5.02 12 4 12 C4.33 13.65 4.66 15.3 5 17 C3.68 17.33 2.36 17.66 1 18 C0.29994051 15.92085336 -0.38462244 13.83648414 -1.0625 11.75 C-1.44535156 10.58984375 -1.82820313 9.4296875 -2.22265625 8.234375 C-2.94852354 5.21418346 -3.2691101 3.79071332 -2 1 C-1.34 0.67 -0.68 0.34 0 0 Z " fill="#4B72A8" transform="translate(51,13)"/>
<path d="M0 0 C2.1875 1.0625 2.1875 1.0625 4.1875 4.0625 C3.8125 6.75 3.8125 6.75 3.1875 9.0625 C2.1975 9.0625 1.2075 9.0625 0.1875 9.0625 C-0.1425 8.0725 -0.4725 7.0825 -0.8125 6.0625 C-2.7925 7.0525 -2.7925 7.0525 -4.8125 8.0625 C-4.8125 8.7225 -4.8125 9.3825 -4.8125 10.0625 C-3.8225 10.3925 -2.8325 10.7225 -1.8125 11.0625 C-2.1425 12.3825 -2.4725 13.7025 -2.8125 15.0625 C-5.0625 15.8125 -5.0625 15.8125 -7.8125 16.0625 C-10.125 14.125 -10.125 14.125 -11.8125 12.0625 C-10.71514093 6.941491 -8.61348537 4.3069821 -4.625 1.1328125 C-2.8125 0.0625 -2.8125 0.0625 0 0 Z " fill="#708FB9" transform="translate(37.8125,133.9375)"/>
<path d="M0 0 C-0.33 0.99 -0.66 1.98 -1 3 C-2.32 3 -3.64 3 -5 3 C-4.67 3.66 -4.34 4.32 -4 5 C-2.68 5 -1.36 5 0 5 C0 6.32 0 7.64 0 9 C-1.32 9 -2.64 9 -4 9 C-4 9.99 -4 10.98 -4 12 C-2.35 11.67 -0.7 11.34 1 11 C1.33 12.32 1.66 13.64 2 15 C-0.95664519 16.4783226 -3.74229737 16.06032783 -7 16 C-8.70084819 10.67067568 -9.52013969 5.56890517 -10 0 C-6.30458414 -0.95024979 -3.69541586 -0.95024979 0 0 Z " fill="#5278AB" transform="translate(108,157)"/>
<path d="M0 0 C2.9719385 1.12451727 5.33440687 2.22293791 8 4 C7.67 4.99 7.34 5.98 7 7 C5.35 6.67 3.7 6.34 2 6 C2.99 6.99 3.98 7.98 5 9 C4.67 9.99 4.34 10.98 4 12 C2.35 11.67 0.7 11.34 -1 11 C-0.67 11.99 -0.34 12.98 0 14 C0.66 14.33 1.32 14.66 2 15 C1.67 15.99 1.34 16.98 1 18 C-2.49487715 17.35280053 -4.99709214 15.85752012 -8 14 C-7.043419 12.22821947 -6.08467012 10.45760924 -5.125 8.6875 C-4.59132812 7.70136719 -4.05765625 6.71523437 -3.5078125 5.69921875 C-2 3 -2 3 0 0 Z " fill="#5177AA" transform="translate(52,147)"/>
<path d="M0 0 C0.33 0 0.66 0 1 0 C1.54869379 17.26064046 1.46081578 30.99452579 -8 46 C-8.99 46 -9.98 46 -11 46 C-10.7215625 45.31164062 -10.443125 44.62328125 -10.15625 43.9140625 C-6.77717946 35.39789147 -3.68762916 27.11025973 -2.359375 18.01171875 C-2 16 -2 16 -1 15 C-0.76346477 12.47403741 -0.57826308 9.96892793 -0.4375 7.4375 C-0.39431641 6.72658203 -0.35113281 6.01566406 -0.30664062 5.28320312 C-0.20028223 3.52238088 -0.09961154 1.7612168 0 0 Z " fill="#5B7EAF" transform="translate(162,80)"/>
<path d="M0 0 C0.33 0 0.66 0 1 0 C1.01417969 0.80179687 1.02835938 1.60359375 1.04296875 2.4296875 C1.61136444 15.97901181 4.99314375 28.89094507 11.08203125 41.03125 C12 43 12 43 12 45 C10.16015625 44.80859375 10.16015625 44.80859375 8 44 C6.62109375 41.84765625 6.62109375 41.84765625 5.4375 39.0625 C4.84775391 37.71865234 4.84775391 37.71865234 4.24609375 36.34765625 C3.83488281 35.24292969 3.42367188 34.13820312 3 33 C2.7316333 32.27941406 2.4632666 31.55882813 2.18676758 30.81640625 C-0.09901093 24.08249872 -0.36285097 17.9429928 -0.1875 10.875 C-0.17396484 9.823125 -0.16042969 8.77125 -0.14648438 7.6875 C-0.11153356 5.12444046 -0.06247682 2.56251087 0 0 Z " fill="#4D74A8" transform="translate(17,81)"/>
<path d="M0 0 C3.40518414 3.02037655 5.01704748 5.78434695 6.6875 10 C7.10386719 11.03125 7.52023438 12.0625 7.94921875 13.125 C9.56780285 17.55354238 10.12182206 21.1228765 10.09765625 25.859375 C10.09443359 26.97441406 10.09121094 28.08945313 10.08789062 29.23828125 C10.07951172 30.39714844 10.07113281 31.55601563 10.0625 32.75 C10.05798828 33.92433594 10.05347656 35.09867188 10.04882812 36.30859375 C10.03705094 39.20578072 10.02060326 42.10286454 10 45 C9.67 45 9.34 45 9 45 C8.96132812 43.42025391 8.96132812 43.42025391 8.921875 41.80859375 C8.46133012 28.65696722 6.57771035 16.54455626 -0.14453125 4.953125 C-1 3 -1 3 0 0 Z " fill="#89A3C6" transform="translate(148,53)"/>
<path d="M0 0 C0.33 0 0.66 0 1 0 C1.02578125 1.05316406 1.0515625 2.10632813 1.078125 3.19140625 C1.55202473 16.68101713 3.99066443 28.76670973 10 41 C8.515 41.495 8.515 41.495 7 42 C6.0351342 39.98227749 5.07841603 37.96065793 4.125 35.9375 C3.59132813 34.81214844 3.05765625 33.68679687 2.5078125 32.52734375 C-0.78586198 24.82219334 -1.16109748 18.80231821 -0.625 10.5625 C-0.53992188 9.03592773 -0.53992188 9.03592773 -0.453125 7.47851562 C-0.31263762 4.98486463 -0.16133318 2.49237445 0 0 Z " fill="#93ABCB" transform="translate(23,82)"/>
<path d="M0 0 C0.99 0.33 1.98 0.66 3 1 C2.7628125 1.57621094 2.525625 2.15242187 2.28125 2.74609375 C1.72666657 5.10810869 1.72666657 5.10810869 3.46875 7.03515625 C4.47421875 8.03869141 4.47421875 8.03869141 5.5 9.0625 C7.53125 11.09765625 7.53125 11.09765625 9 13 C8.67 13.99 8.34 14.98 8 16 C7.01 16 6.02 16 5 16 C3.5703125 14.46875 3.5703125 14.46875 2.125 12.5 C-0.20763353 9.46732109 -0.20763353 9.46732109 -3.875 8.5625 C-4.926875 8.7790625 -4.926875 8.7790625 -6 9 C-6.33 8.01 -6.66 7.02 -7 6 C-5.90716423 4.96704564 -4.80029421 3.94892165 -3.6875 2.9375 C-3.07261719 2.36902344 -2.45773438 1.80054688 -1.82421875 1.21484375 C-0.92123047 0.61349609 -0.92123047 0.61349609 0 0 Z " fill="#3A659F" transform="translate(142,134)"/>
<path d="M0 0 C0.66 0 1.32 0 2 0 C2.33 10.23 2.66 20.46 3 31 C2.67 31 2.34 31 2 31 C1.05714196 26.04009131 0.69776624 21.1542194 0.4375 16.125 C0.293125 13.44375 0.14875 10.7625 0 8 C-0.33 15.26 -0.66 22.52 -1 30 C-1.33 30 -1.66 30 -2 30 C-3.96198994 5.94298491 -3.96198994 5.94298491 0 0 Z " fill="#6083B2" transform="translate(7,72)"/>
<path d="M0 0 C0.33 0.66 0.66 1.32 1 2 C1.66 2 2.32 2 3 2 C4.00858422 4.41339796 5.00702673 6.83018675 6 9.25 C6.28617188 9.93191406 6.57234375 10.61382812 6.8671875 11.31640625 C8.29345494 14.81415735 9 17.16900189 9 21 C6 20 6 20 4.39453125 17.3046875 C3.87246094 16.17289063 3.35039062 15.04109375 2.8125 13.875 C2.01779297 12.20050781 2.01779297 12.20050781 1.20703125 10.4921875 C-0.07910483 6.77113359 -0.22369165 3.90714741 0 0 Z " fill="#5E80B0" transform="translate(15,108)"/>
<path d="M0 0 C1.65 0.33 3.3 0.66 5 1 C5 3.31 5 5.62 5 8 C4.34 8 3.68 8 3 8 C2.67 10.64 2.34 13.28 2 16 C0.68 15.67 -0.64 15.34 -2 15 C-1.03644647 4.44191344 -1.03644647 4.44191344 0 0 Z " fill="#11458B" transform="translate(71,157)"/>
<path d="M0 0 C0.99 0.33 1.98 0.66 3 1 C0 7 0 7 -2 8 C-2 8.99 -2 9.98 -2 11 C-3.32 11 -4.64 11 -6 11 C-6.33 11.99 -6.66 12.98 -7 14 C-8.32 13.67 -9.64 13.34 -11 13 C-9.46356148 9.31930113 -7.21849055 7.01224796 -4.375 4.25 C-3.55773437 3.45078125 -2.74046875 2.6515625 -1.8984375 1.828125 C-0.95871094 0.92320313 -0.95871094 0.92320313 0 0 Z " fill="#4A72A7" transform="translate(129,14)"/>
<path d="M0 0 C2.08567308 7.18398506 1.06174959 15.12193664 0.6875 22.5 C0.62949219 23.6653125 0.57148438 24.830625 0.51171875 26.03125 C-0.04828793 29.28014373 -0.64436273 29.89077814 -3 32 C-3.3181514 20.84113421 -3.25110453 10.77895966 0 0 Z " fill="#8CA6C7" transform="translate(19,66)"/>
<path d="M0 0 C0.33 0 0.66 0 1 0 C1.06058594 1.19496094 1.12117187 2.38992187 1.18359375 3.62109375 C1.79215577 15.33528961 1.79215577 15.33528961 3 27 C2.01 27 1.02 27 0 27 C-1.01255033 23.96234901 -1.12900588 21.88837779 -1.1328125 18.7109375 C-1.13410156 17.68742187 -1.13539063 16.66390625 -1.13671875 15.609375 C-1.13285156 14.54203125 -1.12898437 13.4746875 -1.125 12.375 C-1.12886719 11.29992187 -1.13273438 10.22484375 -1.13671875 9.1171875 C-1.13542969 8.09625 -1.13414062 7.0753125 -1.1328125 6.0234375 C-1.13168457 5.08419434 -1.13055664 4.14495117 -1.12939453 3.17724609 C-1 1 -1 1 0 0 Z " fill="#053C86" transform="translate(7,79)"/>
<path d="M0 0 C0.33 0 0.66 0 1 0 C1.13430792 10.3864793 0.76214036 20.64305688 0 31 C-0.33 31 -0.66 31 -1 31 C-2.02325055 26.76783574 -2.1915989 22.6450407 -2.1875 18.3125 C-2.1884668 17.25772461 -2.1884668 17.25772461 -2.18945312 16.18164062 C-2.13336349 10.61856851 -1.44959773 5.38422014 0 0 Z " fill="#2B5998" transform="translate(14,71)"/>
<path d="M0 0 C0.66 0 1.32 0 2 0 C2.66 0.66 3.32 1.32 4 2 C4 1.34 4 0.68 4 0 C4.66 0 5.32 0 6 0 C5.25 4.75 5.25 4.75 3 7 C3.3185177 9.10820797 3.3185177 9.10820797 4 11 C2.68 11.33 1.36 11.66 0 12 C-2.08901197 8.60535554 -2.34361606 5.95158471 -2 2 C-1.34 1.34 -0.68 0.68 0 0 Z " fill="#39649F" transform="translate(124,155)"/>
<path d="M0 0 C0.33 0 0.66 0 1 0 C1.23889655 9.59567793 0.78831859 18.53149174 -1 28 C-0.01 27.67 0.98 27.34 2 27 C1.67 28.98 1.34 30.96 1 33 C0.67 32.34 0.34 31.68 0 31 C-1.65 32.32 -3.3 33.64 -5 35 C-4.88406494 34.43716309 -4.76812988 33.87432617 -4.64868164 33.29443359 C-2.38447007 22.18949988 -0.3816342 11.35361756 0 0 Z " fill="#8CA6C7" transform="translate(171,82)"/>
<path d="M0 0 C0.33 0 0.66 0 1 0 C1.82200425 6.24723226 -1.07448606 10.71317837 -4 16 C-5.32 16 -6.64 16 -8 16 C-5.89286808 10.38098156 -3.32923681 4.99385521 0 0 Z " fill="#6485B3" transform="translate(163,112)"/>
<path d="M0 0 C2.12966005 2.12966005 2.47624662 3.04068204 3.1875 5.875 C3.36667969 6.55304688 3.54585937 7.23109375 3.73046875 7.9296875 C4.02970718 10.22818556 3.69377386 11.80550964 3 14 C2.67 13.67 2.34 13.34 2 13 C1.67 15.97 1.34 18.94 1 22 C0.67 22 0.34 22 0 22 C-0.66 16.39 -1.32 10.78 -2 5 C-1.01 5.33 -0.02 5.66 1 6 C0.67 4.02 0.34 2.04 0 0 Z " fill="#6587B4" transform="translate(170,60)"/>
<path d="M0 0 C0.99 0 1.98 0 3 0 C3.5321441 2.08047297 4.05031786 4.16452293 4.5625 6.25 C4.85253906 7.41015625 5.14257812 8.5703125 5.44140625 9.765625 C5.95179964 12.72090983 6.02996165 14.24434101 5 17 C4.01 16.67 3.02 16.34 2 16 C2.66 16 3.32 16 4 16 C3.67 13.69 3.34 11.38 3 9 C2.01 9.33 1.02 9.66 0 10 C-0.95024979 6.30458414 -0.95024979 3.69541586 0 0 Z " fill="#6C8CB8" transform="translate(79,3)"/>
<path d="M0 0 C2.475 0.495 2.475 0.495 5 1 C5 2.65 5 4.3 5 6 C5.66 6 6.32 6 7 6 C7.33 5.01 7.66 4.02 8 3 C8 4.32 8 5.64 8 7 C7.34 7 6.68 7 6 7 C6 7.99 6 8.98 6 10 C5.34 10 4.68 10 4 10 C4.165 10.763125 4.33 11.52625 4.5 12.3125 C5 15 5 15 5 18 C4.01 17.67 3.02 17.34 2 17 C1.0234375 10.9453125 1.0234375 10.9453125 1 9 C1.66 8.34 2.32 7.68 3 7 C3.64767793 4.42938689 3.64767793 4.42938689 4 2 C2.68 1.34 1.36 0.68 0 0 Z " fill="#86A1C5" transform="translate(72,156)"/>
<path d="M0 0 C1.10941367 5.32867983 1.11548069 10.46281855 1.0625 15.875 C1.05798828 16.75414063 1.05347656 17.63328125 1.04882812 18.5390625 C1.03712337 20.69273803 1.01919069 22.84637817 1 25 C-1.07670092 23.31011183 -1.92334628 22.40213987 -2.43237305 19.73168945 C-2.45855713 18.86761475 -2.48474121 18.00354004 -2.51171875 17.11328125 C-2.54716797 16.17548828 -2.58261719 15.23769531 -2.61914062 14.27148438 C-2.64169922 13.29501953 -2.66425781 12.31855469 -2.6875 11.3125 C-2.72166016 10.32443359 -2.75582031 9.33636719 -2.79101562 8.31835938 C-2.87350538 5.87901947 -2.94265068 3.44003937 -3 1 C-1 0 -1 0 0 0 Z " fill="#9AB1CE" transform="translate(163,73)"/>
<path d="M0 0 C0.33 0 0.66 0 1 0 C0.67 7.92 0.34 15.84 0 24 C-0.66 24 -1.32 24 -2 24 C-2.05410136 20.93726169 -2.09372225 17.87548548 -2.125 14.8125 C-2.14175781 13.94818359 -2.15851562 13.08386719 -2.17578125 12.19335938 C-2.21038233 7.67791897 -2.15567916 4.09918517 0 0 Z " fill="#5F82B2" transform="translate(23,74)"/>
<path d="M0 0 C1.670625 0.061875 1.670625 0.061875 3.375 0.125 C4.5 2.4375 4.5 2.4375 5.375 5.125 C4.385 6.61 4.385 6.61 3.375 8.125 C0.25 8.3125 0.25 8.3125 -2.625 8.125 C-2.295 7.135 -1.965 6.145 -1.625 5.125 C-0.965 4.795 -0.305 4.465 0.375 4.125 C0.375 3.465 0.375 2.805 0.375 2.125 C-1.605 2.125 -3.585 2.125 -5.625 2.125 C-3.625 0.125 -3.625 0.125 0 0 Z " fill="#557AAC" transform="translate(38.625,32.875)"/>
<path d="M0 0 C0.99 0 1.98 0 3 0 C3.66 3.96 4.32 7.92 5 12 C3.68 11.67 2.36 11.34 1 11 C-0.86241101 7.64766019 -1.31695969 4.80351626 -1 1 C-0.67 0.67 -0.34 0.34 0 0 Z " fill="#5C80B0" transform="translate(166,54)"/>
<path d="M0 0 C0.66 0 1.32 0 2 0 C2.81381795 1.93694678 3.62600916 3.87457711 4.4375 5.8125 C4.88996094 6.89144531 5.34242187 7.97039062 5.80859375 9.08203125 C6.60375013 11.0295126 7.33479648 13.00438943 8 15 C7.01 15.33 6.02 15.66 5 16 C-0.74031891 5.62642369 -0.74031891 5.62642369 0 0 Z " fill="#7392BB" transform="translate(25,108)"/>
<path d="M0 0 C0.99 0.99 1.98 1.98 3 3 C1.35 6.3 -0.3 9.6 -2 13 C-2.33 12.34 -2.66 11.68 -3 11 C-3.66 11 -4.32 11 -5 11 C-3.77472971 6.94718288 -2.30119506 3.55639236 0 0 Z " fill="#6082B1" transform="translate(22,48)"/>
<path d="M0 0 C4 2 4 2 6 5 C5.34 5 4.68 5 4 5 C3.67 6.32 3.34 7.64 3 9 C2.01 8.67 1.02 8.34 0 8 C0.66 7.34 1.32 6.68 2 6 C1.34 6 0.68 6 0 6 C-0.33 5.34 -0.66 4.68 -1 4 C-2.32 5.32 -3.64 6.64 -5 8 C-5.66 7.67 -6.32 7.34 -7 7 C-4.69 4.69 -2.38 2.38 0 0 Z " fill="#6486B4" transform="translate(147,27)"/>
<path d="M0 0 C0.33 0.99 0.66 1.98 1 3 C1.66 3 2.32 3 3 3 C3 11.25 3 19.5 3 28 C2.67 28 2.34 28 2 28 C1.93941406 26.80761719 1.87882813 25.61523438 1.81640625 24.38671875 C1.73198851 22.82030075 1.64734113 21.25389512 1.5625 19.6875 C1.52318359 18.90181641 1.48386719 18.11613281 1.44335938 17.30664062 C1.40146484 16.54931641 1.35957031 15.79199219 1.31640625 15.01171875 C1.26141968 13.96697388 1.26141968 13.96697388 1.20532227 12.90112305 C1.04418847 10.7783428 1.04418847 10.7783428 0 8 C-0.12781786 5.32605036 -0.04391871 2.67904143 0 0 Z " fill="#436DA4" transform="translate(155,70)"/>
<path d="M0 0 C1.56073255 2.34109882 2.86373867 4.56333403 4.125 7.0625 C4.47820313 7.75472656 4.83140625 8.44695312 5.1953125 9.16015625 C6 11 6 11 6 13 C3.41729958 12.63493475 2.30204553 12.38594707 0.6640625 10.29296875 C0.32117188 9.59816406 -0.02171875 8.90335938 -0.375 8.1875 C-0.73335937 7.50042969 -1.09171875 6.81335938 -1.4609375 6.10546875 C-2 4 -2 4 -1.1015625 1.73828125 C-0.73804687 1.16464844 -0.37453125 0.59101562 0 0 Z " fill="#7895BD" transform="translate(23,113)"/>
<path d="M0 0 C1.67542976 0.28604898 3.34385343 0.61781233 5 1 C6 4 6 4 4.5625 7.1875 C3.7890625 8.5796875 3.7890625 8.5796875 3 10 C1.00902154 7.01353231 0.05875074 4.40312738 -1 1 C-0.67 0.67 -0.34 0.34 0 0 Z " fill="#587CAE" transform="translate(119,151)"/>
<path d="M0 0 C0.33 0.99 0.66 1.98 1 3 C1.99 3 2.98 3 4 3 C4.33 2.01 4.66 1.02 5 0 C5.58052245 3.00988272 6.05989746 5.92889402 6 9 C4.0625 11.0625 4.0625 11.0625 2 12 C0.86235649 7.73383684 0 4.43513689 0 0 Z " fill="#597EAF" transform="translate(6,103)"/>
<path d="M0 0 C2.57990385 0.29317089 3.71766051 0.69016956 5.484375 2.62890625 C5.90203125 3.26699219 6.3196875 3.90507812 6.75 4.5625 C7.17796875 5.20316406 7.6059375 5.84382813 8.046875 6.50390625 C8.36140625 6.99761719 8.6759375 7.49132812 9 8 C6.36 8 3.72 8 1 8 C0.855625 7.401875 0.71125 6.80375 0.5625 6.1875 C0.1127561 4.43849596 -0.42892341 2.71322977 -1 1 C-0.67 0.67 -0.34 0.34 0 0 Z " fill="#38649F" transform="translate(52,15)"/>
<path d="M0 0 C0.33 0.66 0.66 1.32 1 2 C1.66 2 2.32 2 3 2 C3.25 9.625 3.25 9.625 1 13 C0.34 13 -0.32 13 -1 13 C-0.67 8.71 -0.34 4.42 0 0 Z " fill="#1A4D90" transform="translate(171,97)"/>
<path d="M0 0 C0.66 0.66 1.32 1.32 2 2 C4.10820797 1.6814823 4.10820797 1.6814823 6 1 C5.01 1.495 5.01 1.495 4 2 C3.29848848 3.3153341 2.63474075 4.65117592 2 6 C1.01 7.485 1.01 7.485 0 9 C-1.32 8.34 -2.64 7.68 -4 7 C-2.79618552 4.50638429 -1.54571278 2.31856917 0 0 Z " fill="#6A8BB7" transform="translate(145,37)"/>
<path d="M0 0 C0.66 0 1.32 0 2 0 C3.25664978 2.90600261 4 4.79604584 4 8 C3.01 8.33 2.02 8.66 1 9 C-0.32 7.68 -1.64 6.36 -3 5 C-1.625 2.5 -1.625 2.5 0 0 Z " fill="#567BAD" transform="translate(130,156)"/>
<path d="M0 0 C0.33 0.99 0.66 1.98 1 3 C2.65 2.34 4.3 1.68 6 1 C6.625 2.875 6.625 2.875 7 5 C6.34 5.66 5.68 6.32 5 7 C3.68 7 2.36 7 1 7 C-1 4 -1 4 -0.625 1.8125 C-0.41875 1.214375 -0.2125 0.61625 0 0 Z " fill="#4970A7" transform="translate(29,143)"/>
<path d="M0 0 C1.32 0 2.64 0 4 0 C4 1.32 4 2.64 4 4 C2.68 4 1.36 4 0 4 C0 4.99 0 5.98 0 7 C1.65 6.67 3.3 6.34 5 6 C5.33 7.32 5.66 8.64 6 10 C3.69 9.67 1.38 9.34 -1 9 C-1 7.02 -1 5.04 -1 3 C0.32 3 1.64 3 3 3 C3 2.34 3 1.68 3 1 C2.01 0.67 1.02 0.34 0 0 Z " fill="#7694BD" transform="translate(104,162)"/>
<path d="M0 0 C2.375 0.3125 2.375 0.3125 5 1 C7 4 7 4 6.625 6.6875 C6.41875 7.450625 6.2125 8.21375 6 9 C5.01 9 4.02 9 3 9 C2.34 7.35 1.68 5.7 1 4 C1.99 3.67 2.98 3.34 4 3 C2.35 2.67 0.7 2.34 -1 2 C-0.67 1.34 -0.34 0.68 0 0 Z " fill="#7B98BF" transform="translate(35,134)"/>
<path d="M0 0 C0.99 0 1.98 0 3 0 C2.01 3.3 1.02 6.6 0 10 C-0.99 9.34 -1.98 8.68 -3 8 C-3.66 8 -4.32 8 -5 8 C-3.63029745 5.04987143 -2.17390875 2.4347778 0 0 Z " fill="#6184B3" transform="translate(131,16)"/>
<path d="M0 0 C0.99 0.33 1.98 0.66 3 1 C2.67 2.65 2.34 4.3 2 6 C1.34 6 0.68 6 0 6 C-0.33 5.34 -0.66 4.68 -1 4 C-1.66 4.66 -2.32 5.32 -3 6 C-2.34 6.66 -1.68 7.32 -1 8 C-2.65 8.33 -4.3 8.66 -6 9 C-6.33 8.01 -6.66 7.02 -7 6 C-5.90716423 4.96704564 -4.80029421 3.94892165 -3.6875 2.9375 C-3.07261719 2.36902344 -2.45773438 1.80054688 -1.82421875 1.21484375 C-0.92123047 0.61349609 -0.92123047 0.61349609 0 0 Z " fill="#7593BC" transform="translate(142,134)"/>
<path d="M0 0 C0.99 0 1.98 0 3 0 C3.33 2.97 3.66 5.94 4 9 C3.01 9.495 3.01 9.495 2 10 C1.67 9.01 1.34 8.02 1 7 C0.34 6.67 -0.32 6.34 -1 6 C-1.042721 4.33388095 -1.04063832 2.66617115 -1 1 C-0.67 0.67 -0.34 0.34 0 0 Z " fill="#305E9B" transform="translate(10,112)"/>
<path d="M0 0 C0.33 0 0.66 0 1 0 C1.14285714 8.57142857 1.14285714 8.57142857 0 12 C0.66 12 1.32 12 2 12 C2 13.32 2 14.64 2 16 C0.68 15.67 -0.64 15.34 -2 15 C-1.03644647 4.44191344 -1.03644647 4.44191344 0 0 Z " fill="#7B98BF" transform="translate(71,157)"/>
<path d="M0 0 C3 2 3 2 4 5 C4.06740865 6.56118428 4.08514456 8.1250252 4.0625 9.6875 C4.05347656 10.49574219 4.04445312 11.30398437 4.03515625 12.13671875 C4.02355469 12.75160156 4.01195312 13.36648437 4 14 C3.67 12.68 3.34 11.36 3 10 C2.34 10 1.68 10 1 10 C0.67 6.7 0.34 3.4 0 0 Z " fill="#5378AB" transform="translate(158,64)"/>
<path d="M0 0 C1.53508028 2.43338652 2.03088304 3.67124507 1.7578125 6.578125 C1.44457031 7.90070313 1.44457031 7.90070313 1.125 9.25 C0.92132812 10.14203125 0.71765625 11.0340625 0.5078125 11.953125 C0.34023438 12.62859375 0.17265625 13.3040625 0 14 C-0.66 14 -1.32 14 -2 14 C-1.85866501 12.22880197 -1.71176792 10.45804713 -1.5625 8.6875 C-1.48128906 7.70136719 -1.40007813 6.71523437 -1.31640625 5.69921875 C-1 3 -1 3 0 0 Z " fill="#6385B3" transform="translate(21,60)"/>
<path d="M0 0 C3.67230705 3.07999946 4.56802365 5.2482602 5 10 C1.91910327 7.22719294 0.31224548 4.93673644 -1 1 C-0.67 0.67 -0.34 0.34 0 0 Z " fill="#7493BC" transform="translate(148,53)"/>
<path d="M0 0 C1.98 0.495 1.98 0.495 4 1 C4.33 2.65 4.66 4.3 5 6 C4.01 6.33 3.02 6.66 2 7 C1.67 6.34 1.34 5.68 1 5 C0.01 5.495 0.01 5.495 -1 6 C-0.67 4.02 -0.34 2.04 0 0 Z " fill="#7593BC" transform="translate(99,4)"/>
<path d="M0 0 C2.50037734 2.17424117 3.43628586 3.73045798 4 7 C3.01 7.66 2.02 8.32 1 9 C0.01 6.69 -0.98 4.38 -2 2 C-1.34 1.34 -0.68 0.68 0 0 Z " fill="#7C98BF" transform="translate(157,48)"/>
<path d="M0 0 C1.65 0 3.3 0 5 0 C5.0825 0.61875 5.165 1.2375 5.25 1.875 C5.81258459 4.18437567 5.81258459 4.18437567 8.0625 5.25 C8.701875 5.4975 9.34125 5.745 10 6 C8.25 6.75 8.25 6.75 6 7 C3.75 5.0625 3.75 5.0625 2 3 C2.33 2.67 2.66 2.34 3 2 C2.01 1.34 1.02 0.68 0 0 Z " fill="#8FA8C9" transform="translate(31,36)"/>
<path d="M0 0 C1.65 0 3.3 0 5 0 C5.66 1.65 6.32 3.3 7 5 C5.68 4.34 4.36 3.68 3 3 C2.34 4.32 1.68 5.64 1 7 C0.67 4.69 0.34 2.38 0 0 Z " fill="#7593BC" transform="translate(71,5)"/>
<path d="M0 0 C0.66 0 1.32 0 2 0 C2 1.65 2 3.3 2 5 C1.34 5 0.68 5 0 5 C0 5.66 0 6.32 0 7 C-0.99 7 -1.98 7 -3 7 C-2.38722388 4.03824877 -1.74627478 2.61941217 0 0 Z " fill="#1E5092" transform="translate(169,113)"/>
<path d="M0 0 C2.83022097 3.99560608 1.76210446 7.42737323 1 12 C0.01 11.67 -0.98 11.34 -2 11 C-1 3.57142857 -1 3.57142857 0 0 Z " fill="#95ACCC" transform="translate(24,66)"/>
<path d="M0 0 C0.99 0 1.98 0 3 0 C3.042721 1.66611905 3.04063832 3.33382885 3 5 C2 6 2 6 -0.5625 6.0625 C-1.7690625 6.0315625 -1.7690625 6.0315625 -3 6 C-2.01 4.02 -1.02 2.04 0 0 Z " fill="#3B66A0" transform="translate(151,32)"/>
<path d="M0 0 C1.32 0 2.64 0 4 0 C4.125 2.875 4.125 2.875 4 6 C3.34 6.66 2.68 7.32 2 8 C2 6.68 2 5.36 2 4 C1.34 4 0.68 4 0 4 C0 2.68 0 1.36 0 0 Z " fill="#093E88" transform="translate(80,159)"/>
<path d="M0 0 C1.65 0.99 3.3 1.98 5 3 C4.67 3.99 4.34 4.98 4 6 C1.13275314 5.42655063 0.1385485 5.1385485 -2 3 C-1.34 2.01 -0.68 1.02 0 0 Z " fill="#7290BA" transform="translate(49,159)"/>
<path d="M0 0 C1.2065625 0.0309375 1.2065625 0.0309375 2.4375 0.0625 C2.7675 1.3825 3.0975 2.7025 3.4375 4.0625 C3.1075 3.4025 2.7775 2.7425 2.4375 2.0625 C0.4575 3.0525 -1.5225 4.0425 -3.5625 5.0625 C-3.5625 0.08689024 -3.5625 0.08689024 0 0 Z " fill="#11448B" transform="translate(36.5625,135.9375)"/>
<path d="M0 0 C0.33 0 0.66 0 1 0 C1.36923077 5.41538462 1.36923077 5.41538462 -0.5 8.375 C-0.995 8.91125 -1.49 9.4475 -2 10 C-3.34920635 4.6031746 -3.34920635 4.6031746 -1.625 1.625 C-1.08875 1.08875 -0.5525 0.5525 0 0 Z " fill="#5175AA" transform="translate(163,112)"/>
<path d="M0 0 C0.33 0.99 0.66 1.98 1 3 C0.01 4.485 0.01 4.485 -1 6 C-1 5.34 -1 4.68 -1 4 C-2.65 5.32 -4.3 6.64 -6 8 C-5.8125 5.6875 -5.8125 5.6875 -5 3 C-2.4375 1.1875 -2.4375 1.1875 0 0 Z " fill="#6587B4" transform="translate(172,109)"/>
<path d="M0 0 C2 2 2 2 2.125 4.625 C2.08375 5.40875 2.0425 6.1925 2 7 C1.34 7 0.68 7 0 7 C-0.33 7.99 -0.66 8.98 -1 10 C-1.02689216 8.52093108 -1.04634621 7.04172517 -1.0625 5.5625 C-1.07410156 4.73878906 -1.08570313 3.91507812 -1.09765625 3.06640625 C-1 1 -1 1 0 0 Z " fill="#10458B" transform="translate(172,72)"/>
<path d="M0 0 C2.31 0.33 4.62 0.66 7 1 C7.33 2.98 7.66 4.96 8 7 C7.67 6.01 7.34 5.02 7 4 C5.02 4 3.04 4 1 4 C0.67 2.68 0.34 1.36 0 0 Z " fill="#7997BE" transform="translate(81,48)"/>
<path d="M0 0 C1.32 0.66 2.64 1.32 4 2 C3.38125 2.2475 2.7625 2.495 2.125 2.75 C-0.35068687 4.20628639 -0.95125002 5.37812506 -2 8 C-2.33 6.02 -2.66 4.04 -3 2 C-2.01 1.34 -1.02 0.68 0 0 Z " fill="#708FBA" transform="translate(51,13)"/>
<path d="M0 0 C0.66 0 1.32 0 2 0 C1.38461538 5.53846154 1.38461538 5.53846154 -0.5625 7.875 C-1.036875 8.24625 -1.51125 8.6175 -2 9 C-2 7.02 -2 5.04 -2 3 C-1.34 3 -0.68 3 0 3 C0 2.01 0 1.02 0 0 Z " fill="#14478D" transform="translate(78,163)"/>
<path d="M0 0 C0.625 1.8125 0.625 1.8125 1 4 C0.01 5.485 0.01 5.485 -1 7 C-1.99 7 -2.98 7 -4 7 C-2.92598892 4.08482708 -2.22189824 2.22189824 0 0 Z " fill="#6586B4" transform="translate(155,119)"/>
<path d="M0 0 C0.99 0.33 1.98 0.66 3 1 C3.33 2.98 3.66 4.96 4 7 C3.01 6.67 2.02 6.34 1 6 C-0.1875 3.4375 -0.1875 3.4375 -1 1 C-0.67 0.67 -0.34 0.34 0 0 Z " fill="#6D8CB7" transform="translate(152,51)"/>
<path d="M0 0 C0.94875 0.04125 1.8975 0.0825 2.875 0.125 C3.205 2.105 3.535 4.085 3.875 6.125 C3.545 5.135 3.215 4.145 2.875 3.125 C0.235 2.795 -2.405 2.465 -5.125 2.125 C-3.125 0.125 -3.125 0.125 0 0 Z " fill="#033A85" transform="translate(38.125,32.875)"/>
<path d="M0 0 C1.65 0 3.3 0 5 0 C5 0.99 5 1.98 5 3 C3.02 3.33 1.04 3.66 -1 4 C-0.67 2.68 -0.34 1.36 0 0 Z " fill="#36619D" transform="translate(31,27)"/>
<path d="M0 0 C2.625 0.9375 2.625 0.9375 5 2 C5 2.66 5 3.32 5 4 C3.35 4.33 1.7 4.66 0 5 C0 4.01 0 3.02 0 2 C-0.66 1.67 -1.32 1.34 -2 1 C-1.34 0.67 -0.68 0.34 0 0 Z " fill="#5378AB" transform="translate(58,22)"/>
<path d="M0 0 C0.66 0.33 1.32 0.66 2 1 C2.40729228 3.32156597 2.74438677 5.6568787 3 8 C2.01 7.67 1.02 7.34 0 7 C-0.38133299 5.0085944 -0.71325582 3.00720923 -1 1 C-0.67 0.67 -0.34 0.34 0 0 Z " fill="#073D86" transform="translate(168,58)"/>
<path d="M0 0 C1.98 0 3.96 0 6 0 C6 0.99 6 1.98 6 3 C4.02 3 2.04 3 0 3 C-0.33 3.99 -0.66 4.98 -1 6 C-0.67 4.02 -0.34 2.04 0 0 Z " fill="#7F9CC1" transform="translate(92,49)"/>
<path d="M0 0 C1.32 0.66 2.64 1.32 4 2 C3.34 3.32 2.68 4.64 2 6 C2 5.34 2 4.68 2 4 C0.68 4.33 -0.64 4.66 -2 5 C-1.34 3.35 -0.68 1.7 0 0 Z " fill="#6D8DB8" transform="translate(16,45)"/>
<path d="M0 0 C0.33 0.66 0.66 1.32 1 2 C1.99 2 2.98 2 4 2 C4.33 1.34 4.66 0.68 5 0 C4.25 4.75 4.25 4.75 2 7 C1.67 6.01 1.34 5.02 1 4 C0.34 4 -0.32 4 -1 4 C-0.67 2.68 -0.34 1.36 0 0 Z " fill="#7594BC" transform="translate(165,118)"/>
<path d="M0 0 C0.99 0 1.98 0 3 0 C2.67 1.98 2.34 3.96 2 6 C1.01 5.34 0.02 4.68 -1 4 C-0.67 2.68 -0.34 1.36 0 0 Z " fill="#2D5B99" transform="translate(15,49)"/>
<path d="M0 0 C0.33 0 0.66 0 1 0 C1 2.31 1 4.62 1 7 C0.01 7 -0.98 7 -2 7 C-1.125 1.125 -1.125 1.125 0 0 Z " fill="#0C4289" transform="translate(10,64)"/>
<path d="M0 0 C1.5625 1.625 1.5625 1.625 3 4 C2.6875 7.25 2.6875 7.25 2 10 C1.67 10 1.34 10 1 10 C1 8.35 1 6.7 1 5 C0.34 5 -0.32 5 -1 5 C-0.67 3.35 -0.34 1.7 0 0 Z " fill="#5B7FAF" transform="translate(13,50)"/>
<path d="M0 0 C0.99 0.99 1.98 1.98 3 3 C2.01 4.32 1.02 5.64 0 7 C-0.66 5.68 -1.32 4.36 -2 3 C-1.34 2.01 -0.68 1.02 0 0 Z " fill="#85A0C4" transform="translate(22,48)"/>
<path d="M0 0 C1.98 0.495 1.98 0.495 4 1 C3.34 2.65 2.68 4.3 2 6 C1.67 5.01 1.34 4.02 1 3 C0.34 3 -0.32 3 -1 3 C-0.67 2.01 -0.34 1.02 0 0 Z " fill="#7997BE" transform="translate(105,5)"/>
</svg>
