<?xml version="1.0" encoding="utf-8"?>
<!-- Generator: Adobe Illustrator 24.3.0, SVG Export Plug-In . SVG Version: 6.00 Build 0)  -->
<svg version="1.1" id="Layer_1" xmlns="http://www.w3.org/2000/svg" xmlns:xlink="http://www.w3.org/1999/xlink" x="0px" y="0px"
	 viewBox="0 0 512 512" style="enable-background:new 0 0 512 512;" xml:space="preserve">
<style type="text/css">
	.st0{fill:url(#path14_1_);}
	.st1{fill:#005596;}
</style>
<g id="XMLID_1_">
	
		<linearGradient id="path14_1_" gradientUnits="userSpaceOnUse" x1="86.6694" y1="-250.5231" x2="546.7422" y2="-16.1043" gradientTransform="matrix(1 0 0 -1 -49.2389 65.4514)">
		<stop  offset="0.3371" style="stop-color:#005596"/>
		<stop  offset="0.927" style="stop-color:#0093D0"/>
	</linearGradient>
	<path id="path14" class="st0" d="M427.84,159.56c4.15-2.21,9.96-2.91,15.64-5.53c3.87-1.94,4.7-2.08,9.96-5.53
		c0.28-0.28,0.42-0.69-0.55-0.83c-2.49-0.28-6.78-1.25-7.06-4.29c-0.42-3.04,0.69-6.64,3.32-9.55c1.8-2.08,4.98-5.12,5.26-7.89
		c0.28-5.67-2.63-6.64-5.12-6.37c-0.14,5.26-4.98,9.82-7.06,12.18c-6.64,7.75-12.73,10.24-13.15,18.13
		c-0.14,2.77-1.38,7.2-2.21,9.41C426.6,159.97,427.29,159.83,427.84,159.56z M261.11,218.64c0.97-0.42,0.97-0.97,0-0.83
		c-13.01,1.52-26.01,5.95-38.19,11.76c-0.55-0.83-0.83-1.52-0.83-3.74c0-3.74,0.97-9.41,4.84-9.27c9.27,0.28,14.81-5.4,14.81-5.4
		s-14.25-1.8-13.15-7.89c0.42-1.8,1.38-2.63,3.18-2.35c5.4,0.97,7.33-3.46,7.33-3.46s-5.12-1.25-7.33-2.91
		c-0.42-0.28-1.11-0.83-0.42-1.66c0.83-0.83,1.8-1.66,3.32-1.25c4.29,1.11,6.92,1.38,8.3,1.38c0.97,0,1.52-0.69,0.69-1.11
		c-1.66-0.83-3.87-3.18-6.78-4.43c4.7-2.91,7.47-6.78,7.47-6.78s-1.25,0.42-3.74-0.55c-2.91-1.25-2.91-15.5-4.7-18.54
		c-2.08-3.46-6.5-6.92-9.13-8.03c-3.46-1.52-6.64-1.94-8.3-3.74c-2.77-2.91,2.08-21.31-17.71-21.31c-12.45,0-20.76,9.69-22.69,19.65
		c-0.69,3.32-0.14,7.2-0.14,7.2s10.38-2.21,14.11,8.3c-3.04-3.04-5.95-4.57-7.06-4.7c-4.01-0.69-6.5,1.8-7.2,5.26
		c-1.94,10.38,8.72,19.1,9.82,20.2c-2.08,20.76,6.78,34.04,7.75,50.5c0.55,10.65-7.06,15.22-8.44,16.47
		c-8.72,8.72-11.07,12.59-13.7,19.93c0-5.67,1.94-13.42,6.64-21.72c0.42-0.69,0.28-1.52-0.97-0.83c-3.87,2.08-9.82,5.53-14.67,9.55
		c-3.74,3.18-6.78,6.78-9.82,10.24c-4.98,1.52-12.59,4.7-22.69,11.76c-8.3,5.81-13.42,16.74-13.42,16.74s-8.58-0.69-21.17,0.28
		c-26.98,2.21-61.71,14.67-61.71,14.67h138.78C176.7,276.06,224.16,230.68,261.11,218.64z M213.09,163.15c0,0,2.21,1.94,7.06,1.8
		c4.84,0,7.2,1.38,8.3,3.04c-0.28,9.41-5.12,16.33-8.99,16.33c-0.83,0-1.25-0.55-1.25-1.11c0.28-1.66,0.14-3.6-0.97-5.26
		c-1.25-1.8-2.63-3.46-5.95-5.12c-0.69-0.28-2.08-1.25-2.08-2.91C209.36,166.06,213.09,163.15,213.09,163.15z M251.56,173.26
		c0.55,0,1.11-0.28,1.52-0.55c1.52-1.11,2.91-2.63,2.91-3.74c0-2.35-3.04-5.26-8.72-5.53c-2.08-0.14-2.49,0.28-3.74,1.52
		c-1.8,1.8-0.14,5.95,0.28,6.92C248.38,172.01,250.59,173.26,251.56,173.26z M507.96,109.05c-2.08,0.42-4.43,2.08-6.5,5.12
		c-0.55,1.11-2.91,5.12-4.01,7.61c-1.66,1.38-2.77,2.49-4.01,3.87c-1.52,1.66-3.87,4.43-4.01,4.7c-1.25,3.87-4.84,11.48-4.84,11.48
		c0.55-3.46,3.74-12.59,4.01-14.39c0.42-2.35-0.42-5.26-0.55-7.75c-0.14-1.8-0.28-3.6-0.28-5.4c0-0.83,0.83-6.09-0.97-5.95
		c-1.52,0.14-4.98,1.38-5.95,6.09c-0.55,2.77,0.14,7.75-0.28,13.15c-0.14,1.25-1.11,3.04-1.8,6.5c-0.83,3.87-1.8,9.13-3.18,13.56
		c0.14-1.52,1.66-10.24,1.8-13.98c0.28-3.6-2.91-15.08-3.18-16.88c-0.14-1.52-0.69-1.94-1.52-1.94c-2.77-0.28-5.4,3.87-4.57,9.41
		c0.28,1.66,2.35,6.5,2.21,9.27s-1.52,5.53-1.66,7.06c-0.28,3.87-0.55,9.13-0.97,11.48c0.42-1.94-0.28-11.62-0.42-13.56
		c-0.14-1.38-3.04-8.16-4.57-12.04c-0.55-1.66-1.8-1.66-2.49-1.38c-3.18,1.66-3.32,7.2-2.63,9.69c0.42,1.52,2.35,5.53,3.18,8.99
		c-2.08,16.05-5.53,17.16-5.53,17.16s-1.25,0.97-5.4,1.66c-7.33,1.25-20.06,4.84-23.66,0.97c-0.28-0.28-0.83-0.69-1.38-0.28
		c-1.11,0.83-10.38,8.86-16.05,13.15c-17.99,13.56-30.3,17.3-44.56,27.12c-16.47,25.74-31.83,34.32-52.03,39.99
		c-8.72,2.35-17.43,2.21-18.96-2.35c-3.87-11.07,10.52-16.74,20.62-18.4c0.55-0.14,0.55-0.83,0-1.11
		c-4.84-2.63-10.52-3.87-17.43-3.87c-50.92-1.25-98.38,59.5-94.09,92.43c0,0.69,0.14,1.25,0.28,1.94h52.17
		c7.33-6.78,15.08-15.64,22.83-26.57c0,0-13.7,2.91-25.46,2.08c0,0,15.64-2.77,38.05-18.26c36.67,9.69,70.15-38.33,79.84-22.14
		c0.28,0.55,0.97,0,1.25-0.14c29.47-20.06,41.1-45.39,61.71-63.1c9.27-7.89,11.07-11.21,27.12-15.5c4.43-1.25,4.98-2.91,6.5-4.7
		c2.08-2.49,5.12-0.28,7.33-4.15c0.83-1.52,0-3.87,4.29-4.7c4.43-0.97,4.84-4.98,6.92-7.33c5.53-6.09,4.84-5.67,9.55-10.65
		c1.8-2.08,8.86-10.65,9.55-12.04c0.97-1.94,3.46-8.44,6.64-12.18C513.63,109.47,511,108.36,507.96,109.05L507.96,109.05z"/>
	<g id="g16" transform="translate(-49.379002,-6.603265)">
		<path id="path18" class="st1" d="M225.28,409.27h32.66c2.91,0,4.84-2.08,4.84-5.12v-2.63c-1.52,0.42-3.87,0.55-8.3,0.55h-10.79
			l18.68-35.98h-36.67v7.06h16.47l-15.77,29.75C224.86,405.54,224.73,407.61,225.28,409.27"/>
		<path id="path20" class="st1" d="M192.76,386.3l8.44,16.19c2.35,4.7,3.46,6.64,8.72,6.64h12.04c-0.69-0.55-1.25-1.66-2.49-3.87
			l-12.31-22.55l14.39-16.74h-12.87L192.76,386.3z"/>
		<path id="path22" class="st1" d="M176.99,409.27h14.94v-51.61c0-5.4-3.87-8.86-9.27-8.86h-5.53v60.47H176.99z"/>
		<path id="path24" class="st1" d="M170.35,405.4l-14.94-44.28c-1.8-5.26-3.6-7.75-10.93-7.75h-7.06l-20.76,55.9h9.41l4.7-13.84
			h19.93l2.91,8.99c1.11,3.32,2.35,4.7,5.95,4.7h12.59C171.59,408.58,171.18,407.47,170.35,405.4z M133.26,388.65l8.03-23.38
			l7.47,23.38H133.26z"/>
		<path id="path26" class="st1" d="M287.82,410.24c12.31,0,22.97-8.86,22.97-23.52c0-12.45-9.96-21.72-22.69-21.72
			c-12.59,0-22.97,9.13-22.97,23.8C265.13,401.66,275.51,410.24,287.82,410.24 M287.96,402.35c-4.98,0-6.92-5.81-6.92-14.94
			c0-8.72,1.8-14.53,6.92-14.53s6.64,6.23,6.64,15.36C294.74,396.82,293.08,402.35,287.96,402.35"/>
		<path id="path28" class="st1" d="M317.43,409.27h9.27v-35.7l23.66,28.5c3.32,4.01,5.53,7.2,9.13,7.2h6.78v-51.2
			c0-2.91-1.94-4.84-4.98-4.84h-4.15v33.76l-22.83-27.12c-3.46-4.01-5.12-6.64-10.1-6.64h-6.78L317.43,409.27L317.43,409.27
			L317.43,409.27z"/>
		<path id="path30" class="st1" d="M395.47,410.24c12.31,0,22.97-8.86,22.97-23.52c0-12.45-9.96-21.72-22.69-21.72
			c-12.59,0-22.97,9.13-22.97,23.8C372.78,401.66,383.3,410.24,395.47,410.24 M395.75,402.35c-5.12,0-6.92-5.81-6.92-14.94
			c0-8.72,1.8-14.53,6.92-14.53c4.98,0,6.64,6.23,6.64,15.36C402.39,396.82,400.73,402.35,395.75,402.35"/>
		<path id="path32" class="st1" d="M515.99,388.52c0.28-1.66,0.42-3.46,0.42-4.98c0-10.24-7.61-18.4-20.62-18.4
			c-12.87,0-22.28,8.99-22.28,22.69c0,13.28,8.3,22.42,21.72,22.42c13.56,0,18.4-7.06,18.68-13.84c-2.91,2.08-7.33,3.32-12.31,3.32
			c-7.61,0-12.45-4.29-13.15-11.35L515.99,388.52L515.99,388.52z M488.46,382.57c0.42-6.36,2.91-10.38,7.06-10.38
			c5.81,0,6.92,10.38,6.92,10.38H488.46L488.46,382.57z"/>
		<path id="path34" class="st1" d="M450.96,365.55c-5.12,0-9.27,1.8-11.35,3.87v-11.76c0-5.4-3.87-8.86-9.27-8.86h-5.53v60.47h17.43
			c16.6,0,25.88-8.72,25.88-24.91C468.26,373.57,460.78,365.55,450.96,365.55L450.96,365.55z M441.97,402.08h-2.21v-27.81
			c0.97-0.14,1.8-0.14,3.18-0.14c5.67,0,9.96,5.26,9.96,12.18C452.9,396.54,448.88,402.08,441.97,402.08z"/>
		<path id="path36" class="st1" d="M522.5,409.27h14.81v-51.61c0-5.4-3.87-8.86-9.27-8.86h-5.53V409.27L522.5,409.27z"/>
	</g>
	<g id="g84" transform="translate(-49.379002,-6.603265)">
		<rect id="rect86" x="49.41" y="317.95" class="st1" width="488.17" height="1.66"/>
	</g>
</g>
</svg>
