<?xml version="1.0" encoding="utf-8"?>
<!-- Generator: Adobe Illustrator 24.3.0, SVG Export Plug-In . SVG Version: 6.00 Build 0)  -->
<svg version="1.1" id="Layer_1" xmlns="http://www.w3.org/2000/svg" xmlns:xlink="http://www.w3.org/1999/xlink" x="0px" y="0px"
	 viewBox="0 0 512 512" style="enable-background:new 0 0 512 512;" xml:space="preserve">
<style type="text/css">
	.st0{fill:#FFB319;}
	.st1{fill:#FF0000;}
</style>
<g id="XMLID_1_">
	<path id="XMLID_17_" class="st0" d="M288.32,228.49c-2.07-2.21-6.78-6.36-15.08-6.36c-1.66,0-3.46,0.14-4.84,0.55l0,0
		c-4.15,0.83-7.75,2.63-10.37,5.39c-0.41,0.41-1.11,1.11-1.66,1.66c0-1.66,0-2.9,0-3.04c0-0.83-0.14-1.8-0.41-2.49
		c-0.41-1.38-1.94-1.38-3.04-1.66c-0.69,0-1.38-0.14-1.66-0.83c-1.66-0.41-0.69,1.94-2.21,2.07c-0.41,0-0.97,0-1.24-0.41
		c-0.41-0.41,0-1.38-0.97-1.24c-0.55,0.41-1.11,0.14-1.8,0.28c-0.41-0.41-0.69-1.38-1.38-1.24c-0.41,0.14-0.83,0.28-0.97,0.69
		c-0.83,1.8-0.83,4.01-0.97,5.95l-0.14,0.14c-0.28,1.11-0.28,2.49-0.28,3.6c0.14,0.69,0,1.24,0.28,1.94
		c0.28,0.14,0.41,0.14,0.55-0.14c0-0.69,0.28-1.24,0.41-1.8c0.14-0.14,0.14,0,0.14,0c0.14,0.69,0.14,1.52,0.14,2.21
		c0,2.63,0,5.26-0.14,7.88v1.66c-0.41,2.77-0.14,5.67-0.28,8.44c0.14,2.49-0.28,5.12-0.14,7.75c0,0.55,0,1.11,0,1.66
		c0,0.69,0,1.24,0,1.94c0.14,0.69,0.83,1.24,1.11,0.14c0.14,0.14,0.14,0.28,0.28,0.28c0,2.35,0.14,4.7,0,7.05
		c0,1.38,0.14,2.9,0,4.29c0,1.24-0.14,2.63,0,3.87c-0.14,1.52-0.14,2.9-0.14,4.56c0,0.69,0.41,1.11,0.55,1.66
		c0,0.83,0.28,1.94-0.14,2.77c0,0.28-0.14,0.69,0,0.83c0.28,0.14,0,0.41,0.28,0.55c0.14,0.97-0.41,1.94-0.28,2.9
		c0.41,0.97,0.41,2.07,0.28,2.9c-0.28,0.14-0.41,0.41-0.41,0.69c-0.14,0.55,0.41,0.41,0.69,0.69c0.28-0.14,0.28-0.41,0.28-0.69
		c-0.28-0.69,0-1.66,0-2.35c-0.14-1.8,0.28-3.46,0.28-4.98c0.14-3.6,0.28-7.33,0.28-10.79c-0.14-1.94,0-3.73,0.14-5.67
		c0-1.11,0.83-0.28,0.69,1.24c0.14,2.49-0.14,5.12,0,7.47c-0.28,1.38-0.14,7.88,0.14,9.13c0.69-1.24,0.28-2.77,0.83-4.15
		c0.14-0.14,0.14,0,0.28,0c0,3.87,0.14,7.47,0,11.2c0,0.97-0.14,1.94,0,2.9c-0.28,0.83-0.28,1.94-0.14,2.9c0.14,0.14,0.28,0,0.41,0
		c0.14-0.41,0.41-0.83,0.55-1.24l-0.14-0.83c0.28-0.14,0.14-0.41,0.41-0.69c0-0.55-0.14-1.24-0.55-1.8c0-0.55,0.28-0.83,0.14-1.38
		c0.41-2.21,0.55-4.56,0.97-6.64c0.41,0,0.28,0.55,0.55,0.69c0,2.35,0,4.7-0.28,7.05c0,0.55-0.14,1.11,0,1.52
		c-0.14,1.66,0,3.32-0.28,4.98c0.14,0,0.14,0.14,0.14,0.28c0.14,0.41,0.41,0.41,0.69,0.55c0,0.41,0,0.83,0.14,1.11l-0.14,3.04
		c-0.14,1.11,0,2.21,0.69,3.04c0.14,0.83-0.14,1.8,0.28,2.49c0.14,0,0.28,0.14,0.41,0c0.14-2.49,0.28-5.26,0.83-7.74l0.14,0.28v2.21
		c0,0.97-0.14,1.8,0,2.63c0.28,0,0.14-0.14,0.28-0.28l0.28-1.66l0.97-1.11c0.28-0.69,0.41-1.52,0.41-2.49
		c0.28-4.29,0.41-8.71,0.55-12.86c0.14-0.83,0.55-1.52,1.24-1.94c0.28-0.28,0.14-0.55,0.28-0.83c0-0.69,0.14-1.24,0.14-1.94
		c0-0.55,0.14-1.11,0-1.8c0.14-2.35,0.14-4.56,0.28-6.78c0.14-1.66,0-3.46,0.14-5.12c-0.14-2.07,0.14-4.15,0-6.22
		c0.14-0.55,0.14-1.24,0.14-1.66v-0.41c0.83,1.11,1.94,2.07,2.77,2.9c3.04,2.35,6.22,3.32,8.71,3.73c1.52,0.28,2.77,0.28,3.6,0.28
		c5.39,0,16.46-1.66,20.88-14.66c1.8-5.26,1.94-10.23,1.94-12.03C294.55,237.34,291.23,231.53,288.32,228.49z M280.3,247.57
		c0,0.97,0.14,11.2-7.47,14.66c-0.69,0.41-2.49,0.69-4.56,0.69h0.14v0.55c-2.77,0-3.87-0.41-5.53-1.24
		c-5.12-2.77-6.78-8.57-6.78-13.83c0-1.52-0.14-9.54,6.22-13.55c1.8-1.11,3.87-1.8,5.95-1.94c0.28,0,0.55,0,0.69,0
		c2.77,0,4.56,0.83,5.53,1.38C280.44,237.89,280.3,246.47,280.3,247.57z"/>
	<path id="path2616" class="st0" d="M358.31,209.96h-0.14c-0.14-0.14-0.14-0.28-0.28-0.55c-0.14-0.14-0.28-0.14-0.41-0.41
		l-0.14-0.14c0-0.28,0-0.41-0.14-0.41c0-0.14,0.28-0.41,0.41-0.69c0.14-0.14,0-0.28-0.14-0.41c-0.14-0.14-0.28-0.41-0.14-0.55
		c0-0.28-0.14-0.41-0.28-0.55c-0.28-0.41-0.28-3.46-0.41-3.6c0.28-0.14,0.28-0.55,0.55-0.55c0.28,0,0.28-0.28,0.55-0.55
		c0.14-0.28,1.66,0.41,1.52,0.14c0.14-0.14,0-0.28,0.14-0.41c0.14,0,0.28-0.14,0.41-0.28c0-0.14,0.28-0.28,0.28-0.41
		c0.14-0.14,0.14,0.28,0.41,0.14c0.28,0,0.28-0.41,0.55-0.41c0-0.14,0.14-0.41,0.28-0.55c0-0.14,0-0.28,0.14-0.41
		c0.28-0.14,0.55,0.28,0.69-0.14c0-0.14-0.14-0.28,0-0.28c0.41,0,1.66-0.97,1.94-1.11c0.28-0.14,0.41-0.41,0.69-0.28
		c0.28,0.14,0.55-0.28,0.69-0.28l0,0c0,0,0.14,0,0.14,0.14c0.14,0,0.28,0.14,0.28,0.14c0,0.14,0.14,0.14,0.28,0.14l0.14-0.28
		c0.28,0,0.14,0.28,0.41,0.28c0,0,0.28,0.14,0.28,0.28c0.14,0,0.14,0.28,0.28,0.28c0.69-0.55,0.14,0.14,0.28,0.14
		c0.14,0,0.28,0.28,0.28,0.28c0.14,0,0,0.14,0.14,0.14c0,0.14,0.28,0,0.28,0.14c0.14,0.14,0.14,0.28,0.28,0.28
		c0,0.14,0.28,0.28,0,0.41c0.14,0,0.14,0.14,0.28,0.14c0.14,0.14,0.69,0.55,0.69,0.69c0,0.14,1.24,1.11,1.24,1.24
		c0,0,0.28,0.41,0.28,0.55c0,0.14,0.41,1.11,0.41,1.24c-0.14,0.14,0,0.28,0,0.41c0.28-0.14,0.28,0.14,0.28,0.28
		c0,0.14,0.14,0.55,0.14,0.69l0.14,0.14c0.14,0,0.28,0.41,0.28,0.55c-0.14,0.28-0.28,3.32-2.49,4.15c-0.14,0.14-0.14,0-0.41,0
		c-0.41,0-0.14,0.41-0.41,0.55c-0.28,0.14-0.28,0-0.41,0c-0.28,0-0.41,0-0.55,0c-0.28,0.14-0.55,0-0.69,0.28
		c-0.28,0.14,0.14,0.28,0,0.41c-0.14-0.14-0.28,0.14-0.55,0c-0.14,0-0.41,0.14-0.41,0.28c-0.28,0.14-0.28,0-0.55,0
		c-0.41-0.28-0.14,1.38-0.55,1.38c-0.41,0.14-0.55,0-0.69,0.14c-0.14,0.28-0.55,0.14-0.69,0.28c-0.14-0.14,0,0.69-0.14,0.69
		c0,0-0.83,0.14-0.97,0.14c-0.41,0.14-0.69,0-1.11,0c0-0.14-0.41,0-0.41-0.28c-0.41-0.28-0.69-1.94-0.97-2.35
		c-0.14-0.14-0.28-0.41-0.41-0.41c-0.28,0-0.55-0.14-0.55-0.41c-0.14-0.14-0.14-0.28-0.28-0.28
		C359.27,210.23,358.44,210.09,358.31,209.96"/>
	<path id="path2618" class="st1" d="M102.44,209.96h-0.14c-0.14-0.14-0.14-0.28-0.28-0.55c-0.14-0.14-0.28-0.14-0.41-0.41
		l-0.14-0.14c0-0.28-0.14-0.41-0.28-0.41c0-0.14,0.28-0.41,0.41-0.69c0-0.14-0.14-0.28-0.14-0.41c-0.14-0.14-0.28-0.41-0.14-0.55
		c0-0.28-0.14-0.41-0.28-0.55c-0.28-0.41-0.28-3.46-0.41-3.6c0.28-0.14,0.14-0.55,0.55-0.55c0.28,0,0.28-0.28,0.41-0.55
		c0.14-0.28,1.66,0.41,1.52,0.14c0.14-0.14,0-0.28,0.14-0.41c0.14,0,0.41-0.14,0.41-0.28c0-0.14,0.28-0.28,0.28-0.41
		c0.28-0.14,0.28,0.28,0.41,0.14c0.41,0,0.41-0.41,0.55-0.41c0-0.14,0.14-0.41,0.28-0.55c0-0.14,0-0.28,0.14-0.41
		c0.28-0.14,0.55,0.28,0.69-0.14c0-0.14-0.14-0.28,0-0.28c0.28,0,1.66-0.97,1.94-1.11c0.28-0.14,0.41-0.41,0.69-0.28
		c0.14,0.14,0.41-0.28,0.55-0.28c0.14,0,0.14,0,0.14,0.14c0.14,0,0.28,0.14,0.28,0.14c0,0.14,0.14,0.14,0.28,0.14l0.28-0.28
		c0.14,0,0,0.28,0.28,0.28c0.14,0,0.28,0.14,0.28,0.28c0.14,0,0.14,0.28,0.28,0.28c0.55-0.55,0.14,0.14,0.28,0.14
		c0.14,0,0.28,0.28,0.14,0.28c0.14,0,0,0.14,0.14,0.14c0.14,0.14,0.28,0,0.28,0.14c0.14,0.14,0.14,0.28,0.28,0.28
		c0,0.14,0.28,0.28,0.14,0.41c0.14,0,0.14,0.14,0.28,0.14c0.14,0.14,0.69,0.55,0.69,0.69c0,0.14,1.24,1.11,1.24,1.24
		c0,0,0.14,0.41,0.28,0.55c0,0.14,0.41,1.11,0.41,1.24c-0.14,0.14,0.14,0.28,0,0.41c0.28-0.14,0.28,0.14,0.28,0.28
		c0,0.14,0.14,0.55,0.28,0.69l0.14,0.14c0.14,0,0.28,0.41,0.28,0.55c0,0.28-0.28,3.32-2.49,4.15c-0.14,0.14-0.28,0-0.28,0
		c-0.41,0-0.14,0.41-0.41,0.55c-0.14,0.14-0.28,0-0.41,0c-0.14,0-0.41,0-0.55,0c-0.28,0.14-0.55,0-0.69,0.28
		c-0.28,0.14,0.14,0.28,0,0.41c-0.14-0.14-0.41,0.14-0.55,0c-0.14,0-0.41,0.14-0.41,0.28c-0.14,0.14-0.28,0-0.55,0
		c-0.28-0.28-0.14,1.38-0.55,1.38c-0.28,0.14-0.69,0-0.69,0.14c-0.14,0.28-0.55,0.14-0.69,0.28c-0.14-0.14,0.14,0.69-0.14,0.69
		c-0.14,0-0.83,0.14-0.97,0.14c-0.28,0.14-0.69,0-0.97,0c-0.14-0.14-0.55,0-0.41-0.28c-0.41-0.28-0.69-1.94-0.97-2.35
		c-0.14-0.14-0.28-0.41-0.41-0.41c-0.28,0-0.41-0.14-0.55-0.41c0-0.14-0.14-0.28-0.28-0.28
		C103.27,210.23,102.58,210.09,102.44,209.96"/>
	<path id="path2622" class="st0" d="M454.15,223.09h12.45v9.68h-12.45v21.16c0.14,2.07-0.14,8.99,8.02,8.99
		c1.24,0,2.49-0.14,4.98-0.69l0.28,10.1c-3.32,0.69-5.67,1.38-9.13,1.38c-1.24,0-8.71-0.14-13.14-4.29
		c-4.7-4.43-4.56-11.89-4.43-17.7v-18.95v-9.68v-4.56c0-6.5,5.39-8.99,10.23-10.1h3.04L454.15,223.09z"/>
	<path id="path2624" class="st0" d="M490.25,273.58c-4.43,0-7.75-0.28-15.77-2.07l0.14-1.66c0.41-2.35,1.94-6.64,8.16-6.5
		c1.8,0.41,3.73,0.69,5.81,0.69c6.09,0,9.4-2.49,9.4-5.39c-0.14-2.21-1.8-3.32-3.6-4.29c-3.6-1.66-7.47-2.35-11.06-3.87
		c-2.77-1.11-9.27-4.56-9.27-12.86c0-1.24,0.14-4.15,2.07-7.19c2.49-3.73,8.44-8.16,19.5-8.16c5.12,0,8.99,0.69,13.97,1.94
		l-0.97,9.4c-4.01-1.11-7.05-1.94-11.2-1.94c-3.46,0-5.53,0.69-6.92,1.38c-2.35,1.11-2.77,2.9-2.77,4.01c0,2.21,1.94,3.18,4.01,3.87
		c3.87,1.52,8.02,2.21,11.89,3.87c5.53,2.49,8.44,7.19,8.44,12.86c0,2.07-0.41,7.19-5.39,11.2
		C501.87,272.75,496.06,273.58,490.25,273.58"/>
	<path id="XMLID_2_" class="st0" d="M347.66,265.69c0-3.04-0.41-6.09-0.41-9.13v-11.76c0-5.95,0.14-8.85-0.97-11.76
		c-1.24-3.46-4.56-7.88-13.42-9.68c-3.46-0.69-6.36-0.41-7.75-0.41l0,0c-7.19,0-11.48,0.83-18.26,3.04l0.41,11.06
		c1.38-1.11,1.94-1.52,2.77-1.94c1.8-0.97,7.33-3.6,13.83-3.6c0.41,0,0.97,0,1.38,0c5.81,0.41,8.44,3.04,9.54,5.67
		c0.69,1.8,0.83,5.26,0.83,5.26c-2.63-0.14-5.26-0.14-7.88-0.14c-0.83,0-1.66,0-2.35,0c-7.88,0.14-17.29,1.52-21.99,8.16
		c-0.83,1.24-2.63,4.01-2.63,8.16c0,3.87,1.66,6.78,2.35,7.88c4.7,7.05,14.11,7.33,16.32,7.33c2.21,0,4.15-0.28,5.95-0.69
		c4.84-1.11,7.88-3.6,9.4-5.26c0.55-0.55,0.83-0.97,1.52-1.94c0,0.69,0.55,6.92,5.81,6.92h11.62
		C347.93,272.61,347.66,265.69,347.66,265.69z M335.62,250.48c-0.28,4.15-0.55,6.92-3.04,9.96c-2.35,2.9-5.39,4.01-7.61,4.43
		c-0.97,0.14-1.8,0.14-2.21,0.14c-1.24,0-5.81-0.14-7.61-3.87c-0.41-0.83-0.69-1.94-0.69-2.77c0-1.52,0.55-2.63,0.83-3.18
		c0.41-0.69,1.24-1.94,2.9-2.9c1.94-1.11,4.29-1.52,6.78-1.8C328.71,250.06,332.58,250.48,335.62,250.48L335.62,250.48z"/>
	<path id="XMLID_12_" class="st1" d="M47.4,265.69c-0.14-3.04-0.28-5.95-0.28-8.99v-11.76c0-5.95,0-8.85-1.11-11.89
		c-1.24-3.46-4.56-7.88-13.55-9.82c-3.46-0.83-6.5-0.55-7.75-0.55l0,0c-7.19,0-11.48,0.83-18.26,3.04l0.41,11.06
		c1.38-1.11,1.94-1.52,2.77-1.94c1.8-0.83,7.47-3.46,13.97-3.46c0.41,0,1.52,0,1.52,0l0,0c5.53,0.41,8.44,3.04,9.4,5.67
		c0.69,1.8,0.69,5.26,0.69,5.26c-2.63,0-5.26-0.14-7.88-0.14c-0.83,0-2.35,0-2.35,0l0,0c-8.3,0.14-17.43,1.52-22.27,8.16
		c-0.83,1.24-2.63,4.15-2.63,8.16c0,3.87,1.66,6.78,2.35,7.88c4.7,7.05,14.25,7.33,16.46,7.33s4.7-0.28,6.09-0.69l0,0
		c4.15-1.11,7.75-3.6,9.27-5.26c0.41-0.55,0.83-1.11,1.38-2.07c0,0.14,0.28,6.78,5.81,6.78h11.76
		C47.68,272.61,47.54,265.69,47.4,265.69z M36.06,250.62c-1.38,3.73-0.69,6.92-3.18,10.1c-2.35,2.9-6.5,4.01-7.88,4.43l0,0
		c-1.38,0.14-1.8,0.28-2.35,0.28c-1.24,0-5.81-0.14-7.75-3.87c-0.41-0.83-0.83-1.94-0.83-2.77c0-1.52,0.55-2.63,0.97-3.18
		c0.41-0.69,1.24-1.94,2.9-2.9c1.94-1.11,4.7-1.66,7.19-1.94C28.73,250.2,31.91,250.48,36.06,250.62L36.06,250.62z"/>
	<path id="XMLID_5_" class="st1" d="M170.49,265.69c0-3.04-0.28-5.95-0.28-8.99v-11.76c0-5.95,0-8.85-1.24-11.89
		c-1.24-3.46-4.56-7.88-13.55-9.82c-3.46-0.83-6.5-0.55-7.75-0.55l0,0c-7.19,0-11.48,0.83-18.26,3.04l0.41,11.06
		c1.38-1.11,1.94-1.52,2.77-1.94c1.94-0.83,7.47-3.46,14.11-3.46c0.41,0,0.14,0,1.52,0l0,0c5.53,0.41,8.3,3.04,9.27,5.67
		c0.69,1.8,0.69,5.26,0.69,5.26c-2.63,0-5.12-0.14-7.75-0.14c-0.83,0-2.21,0-2.21,0l0,0c-8.3,0.14-17.43,1.52-22.27,8.16
		c-0.83,1.24-2.77,4.15-2.77,8.16c0,3.87,1.66,6.78,2.35,7.88c4.7,7.05,14.25,7.33,16.46,7.33s3.32-0.28,6.09-0.69l0,0
		c4.15-1.11,7.61-3.6,9.27-5.26c0.55-0.55,0.69-1.11,1.38-2.07c0,0,0.14,6.92,5.81,6.92h11.76
		C170.63,272.61,170.49,265.69,170.49,265.69z M157.77,250.62c0,3.73-0.14,6.92-2.63,10.1c-2.21,2.9-5.67,4.01-7.05,4.43l0,0
		c-1.38,0.14-1.94,0.28-2.49,0.28c-1.24,0-5.81-0.14-7.75-3.87c-0.41-0.83-0.83-1.94-0.83-2.77c0-1.52,0.55-2.63,0.97-3.18
		c0.41-0.69,1.24-1.94,2.77-2.9c1.94-1.11,4.01-1.66,6.64-1.94C151.13,250.34,155,250.48,157.77,250.62L157.77,250.62z"/>
	<path id="path2632" class="st0" d="M358.03,263.62c0,5.67,5.67,9.13,10.23,9.13h3.46v-49.93h-13.69V263.62z"/>
	<path id="path2634" class="st1" d="M72.43,273.85c-4.29,0-7.75-0.28-15.77-2.21v-1.66c0.41-2.35,1.94-6.64,8.16-6.5
		c1.8,0.41,3.73,0.69,5.81,0.69c6.09,0,9.4-2.49,9.4-5.26c-0.14-2.21-1.8-3.46-3.6-4.29c-3.73-1.66-7.47-2.35-11.06-3.87
		c-2.77-1.11-9.4-4.56-9.4-12.86c0-1.24,0.14-4.15,2.07-7.05c2.49-3.87,8.44-8.16,19.5-8.16c5.12,0,8.99,0.69,13.97,1.94l-0.97,9.54
		c-4.01-1.11-7.05-1.94-11.2-1.94c-3.32,0-5.53,0.69-6.92,1.38c-2.35,1.11-2.77,2.9-2.77,4.01c0,2.35,1.94,3.18,3.87,3.87
		c3.87,1.52,8.02,2.35,11.89,3.87c5.53,2.49,8.44,7.19,8.44,12.86c0,2.07-0.41,7.19-5.39,11.2
		C84.19,272.88,78.38,273.85,72.43,273.85"/>
	<path id="path2636" class="st1" d="M229.96,233.61c0.41,1.52,0.69,8.3,0.83,15.21v24.34h-6.78c-3.04-1.38-5.67-2.35-6.5-6.36
		v-21.16c-0.14-4.7-0.83-9.4-4.84-11.62c-0.83-0.41-2.49-1.11-4.98-1.11c-1.94,0-6.22,0.41-9.27,4.56c-2.63,3.6-2.9,8.02-2.9,12.31
		l-0.14,23.1h-13.55v-49.65h12.72v7.75c1.11-1.38,2.63-3.46,6.36-5.67c2.35-1.24,5.67-2.77,11.89-2.77c0.83,0,3.6,0.14,6.09,0.69
		C224.29,224.62,228.44,228.49,229.96,233.61"/>
	<path id="path2638" class="st0" d="M431.05,253.66v1.66V253.66z M423.31,272.33c-2.63-1.24-4.84-2.49-5.67-6.09v-21.16
		c-0.14-4.7-0.83-9.27-4.84-11.48c-0.83-0.41-2.49-1.11-4.98-1.11c-1.94,0-6.22,0.55-9.27,4.56c-2.63,3.6-2.9,8.02-2.9,12.31v23.24
		h-13.69l-0.28-49.65h13l0.14,7.75c1.11-1.38,2.63-3.46,6.36-5.53c2.35-1.24,5.67-2.9,11.89-2.9c0.83,0,3.6,0.14,6.09,0.69
		c5.53,1.38,9.68,5.26,11.2,10.37c0.55,1.8,0.69,12.59,0.83,20.75v1.66v1.11c0,3.04,0,6.09,0.14,9.13c0.14,0,0.97,5.67,7.33,7.05
		h-13.55C424.42,272.61,423.86,272.47,423.31,272.33z"/>
	<path id="path2640" class="st1" d="M102.03,263.62c0,5.67,5.81,9.13,10.23,9.13h3.46v-49.93h-13.83v40.8H102.03z"/>
</g>
</svg>
