<?xml version="1.0" encoding="UTF-8"?>
<svg version="1.1" xmlns="http://www.w3.org/2000/svg" width="422" height="119">
<path d="M0 0 C2.16601284 1.66948498 4.19861379 3.41730237 6.2265625 5.25 C7.1134375 5.86875 8.0003125 6.4875 8.9140625 7.125 C17.63636535 15.1400891 21.57757063 26.91741849 22.26171875 38.53125 C22.09107472 51.727722 17.21630828 62.73144564 8.2265625 72.25 C-2.11636599 82.14993528 -13.50124142 84.99663373 -27.5234375 85.0625 C-28.80476563 85.08763672 -30.08609375 85.11277344 -31.40625 85.13867188 C-34.5289558 85.19693131 -37.65027943 85.23366013 -40.7734375 85.25 C-39.91735347 81.3279895 -38.25216874 78.58332536 -36.0859375 75.1875 C-32.97517226 70.24617973 -30.07861859 65.24440578 -27.31640625 60.09765625 C-25.61456902 56.95679716 -23.85790341 53.85183891 -22.0859375 50.75 C-21.60072632 49.89668091 -21.60072632 49.89668091 -21.10571289 49.02612305 C-19.0428749 45.41358353 -16.92877111 41.83633938 -14.78125 38.2734375 C-14.27295654 37.42072266 -13.76466309 36.56800781 -13.2409668 35.68945312 C-12.23438767 34.00234491 -11.21785991 32.32112595 -10.19067383 30.64648438 C-9.73200928 29.87369141 -9.27334473 29.10089844 -8.80078125 28.3046875 C-8.38562256 27.61874512 -7.97046387 26.93280273 -7.54272461 26.22607422 C-6.60631562 23.82071263 -6.91583596 22.64005898 -7.7734375 20.25 C-11.67181305 20.83792207 -13.85265179 22.68751536 -16.8359375 25.1875 C-17.80660156 26.00089844 -18.77726562 26.81429687 -19.77734375 27.65234375 C-23.59636533 30.96349023 -27.31855176 34.37199065 -31.0390625 37.79296875 C-34.51536978 40.91667915 -38.13068814 43.84143321 -41.765625 46.77734375 C-45.28046273 49.66681424 -48.71725921 52.63713204 -52.1484375 55.625 C-62.66447573 64.7660501 -62.66447573 64.7660501 -67.0234375 68.5 C-67.5601709 68.96583496 -68.0969043 69.43166992 -68.64990234 69.91162109 C-71.03453807 71.94559771 -72.76448571 73.24701607 -75.7734375 74.25 C-75.7734375 74.91 -75.7734375 75.57 -75.7734375 76.25 C-77.24034309 77.5827188 -78.77666251 78.83913869 -80.3359375 80.0625 C-85.0329445 83.81889969 -89.61696973 87.67069997 -94.1484375 91.625 C-95.42166839 92.73200851 -96.69510645 93.83877879 -97.96875 94.9453125 C-98.59813477 95.49219727 -99.22751953 96.03908203 -99.87597656 96.60253906 C-102.91785544 99.24363513 -105.96400647 101.87924699 -109.0234375 104.5 C-109.8285376 105.19875244 -109.8285376 105.19875244 -110.64990234 105.91162109 C-113.03453807 107.94559771 -114.76448571 109.24701607 -117.7734375 110.25 C-116.52037316 106.15345791 -115.00847122 102.62739443 -112.83203125 98.94140625 C-112.25283936 97.95462891 -111.67364746 96.96785156 -111.0769043 95.95117188 C-110.46113525 94.91541016 -109.84536621 93.87964844 -109.2109375 92.8125 C-108.57905518 91.73935547 -107.94717285 90.66621094 -107.29614258 89.56054688 C-103.53072541 83.17610597 -99.72335416 76.81737983 -95.88745117 70.47509766 C-93.34786852 66.25832128 -90.91908903 61.98742866 -88.5234375 57.6875 C-83.28996706 48.29759216 -77.79928015 39.06253421 -72.29980469 29.82666016 C-70.91541637 27.4896745 -69.54768951 25.14409222 -68.1875 22.79296875 C-60.340436 9.28803417 -51.87388928 -0.89196458 -36.2734375 -5.75 C-23.70892231 -8.50983571 -10.96732827 -6.92022967 0 0 Z " fill="#2C4398" transform="translate(117.7734375,8.75)"/>
<path d="M0 0 C0.80373047 -0.020625 1.60746094 -0.04125 2.43554688 -0.0625 C7.49196687 -0.09557552 10.92233948 0.46248778 15.3125 3.25 C17.76623319 6.26139982 17.60513398 9.61163718 17.5078125 13.3515625 C17.1403468 16.92332906 15.7994576 18.7630424 13.3125 21.25 C13.60125 21.79269531 13.89 22.33539063 14.1875 22.89453125 C14.55875 23.60996094 14.93 24.32539062 15.3125 25.0625 C15.869375 26.12404297 15.869375 26.12404297 16.4375 27.20703125 C17.3125 29.25 17.3125 29.25 17.3125 32.25 C14.3425 32.25 11.3725 32.25 8.3125 32.25 C7.3225 29.28 6.3325 26.31 5.3125 23.25 C3.6625 22.92 2.0125 22.59 0.3125 22.25 C0.3125 25.55 0.3125 28.85 0.3125 32.25 C-6.62109375 32.34765625 -6.62109375 32.34765625 -8.6875 32.25 C-10.57069268 30.36680732 -9.81804285 27.13069863 -9.8203125 24.625 C-9.82126923 23.96290527 -9.82222595 23.30081055 -9.82321167 22.61865234 C-9.82389326 21.21647039 -9.82204042 19.8142853 -9.81787109 18.41210938 C-9.81252246 16.25904287 -9.8178167 14.10618498 -9.82421875 11.953125 C-9.82355796 10.59374954 -9.82227679 9.2343742 -9.8203125 7.875 C-9.81918457 6.62976562 -9.81805664 5.38453125 -9.81689453 4.1015625 C-9.55233561 -1.72871708 -4.68262993 0.02933519 0 0 Z M0.3125 8.25 C0.3125 10.56 0.3125 12.87 0.3125 15.25 C2.64544775 15.29241723 4.97952567 15.29092937 7.3125 15.25 C8.59572547 14.1904123 8.59572547 14.1904123 8.4375 11.75 C8.59572547 9.3095877 8.59572547 9.3095877 7.3125 8.25 C4.97952567 8.20907063 2.64544775 8.20758277 0.3125 8.25 Z " fill="#2D4294" transform="translate(334.6875,52.75)"/>
<path d="M0 0 C8 0 8 0 9.82617188 1.28515625 C10.20322266 1.87167969 10.58027344 2.45820313 10.96875 3.0625 C11.39414063 3.69414062 11.81953125 4.32578125 12.2578125 4.9765625 C12.66773438 5.64429688 13.07765625 6.31203125 13.5 7 C13.94085938 7.66773438 14.38171875 8.33546875 14.8359375 9.0234375 C15.91548251 10.66622338 16.96121914 12.33113895 18 14 C18.33 9.38 18.66 4.76 19 0 C21.97 0 24.94 0 28 0 C28 10.23 28 20.46 28 31 C20 31 20 31 17.5390625 28.69921875 C16.90742188 27.70535156 16.27578125 26.71148437 15.625 25.6875 C14.97789062 24.70136719 14.33078125 23.71523438 13.6640625 22.69921875 C13.11492187 21.80847656 12.56578125 20.91773437 12 20 C11.34 19.01 10.68 18.02 10 17 C9.67 21.62 9.34 26.24 9 31 C6.03 31 3.06 31 0 31 C0 20.77 0 10.54 0 0 Z " fill="#6070B2" transform="translate(213,11)"/>
<path d="M0 0 C2.64 0 5.28 0 8 0 C10.0625 2.4375 10.0625 2.4375 10.92578125 4.06640625 C12.30103946 6.54187102 13.99359534 8.65583004 15.75 10.875 C16.8225 12.23625 17.895 13.5975 19 15 C19.33 10.05 19.66 5.1 20 0 C22.64 0 25.28 0 28 0 C28 10.56 28 21.12 28 32 C25.69 32 23.38 32 21 32 C20.67 31.01 20.34 30.02 20 29 C19.34 29 18.68 29 18 29 C16.53299085 27.02042138 15.19621241 25.07215564 13.875 23 C12.59625 21.02 11.3175 19.04 10 17 C9.67 21.95 9.34 26.9 9 32 C6.03 32 3.06 32 0 32 C0 21.44 0 10.88 0 0 Z " fill="#6071AF" transform="translate(169,53)"/>
<path d="M0 0 C8 0 8 0 10.20703125 2.046875 C10.73683594 2.93890625 11.26664062 3.8309375 11.8125 4.75 C12.35519531 5.63171875 12.89789063 6.5134375 13.45703125 7.421875 C13.96621094 8.27265625 14.47539062 9.1234375 15 10 C15.99 11.32 16.98 12.64 18 14 C18.33 9.38 18.66 4.76 19 0 C21.97 0 24.94 0 28 0 C28 10.23 28 20.46 28 31 C20 31 20 31 18.08203125 29.62304688 C17.66308594 28.99462891 17.24414062 28.36621094 16.8125 27.71875 C16.10673828 26.70361328 16.10673828 26.70361328 15.38671875 25.66796875 C14.92910156 24.95253906 14.47148437 24.23710938 14 23.5 C13.51144531 22.78457031 13.02289063 22.06914063 12.51953125 21.33203125 C11.32202274 19.57098933 10.15762634 17.78751127 9 16 C8.67 20.95 8.34 25.9 8 31 C5.36 31 2.72 31 0 31 C0 20.77 0 10.54 0 0 Z " fill="#8B9AD0" transform="translate(247,11)"/>
<path d="M0 0 C19.03571429 0 19.03571429 0 25.3125 4.75 C28.51320295 9.01760394 29.23547045 13.3400745 28.875 18.5625 C28.2281998 22.87695136 26.97554005 25.71124521 24 29 C18.52545101 31.92760332 14.19584395 32.3908451 8.0625 32.1875 C4.0715625 32.0946875 4.0715625 32.0946875 0 32 C0 21.44 0 10.88 0 0 Z M9 8 C8.67 13.61 8.34 19.22 8 25 C14.38519716 25.49205199 14.38519716 25.49205199 17.41015625 23.87890625 C19.65770441 21.22271297 19.50013644 19.37415276 19.4375 15.9375 C19.43621094 14.87402344 19.43492187 13.81054688 19.43359375 12.71484375 C19.29050781 11.81894531 19.14742187 10.92304687 19 10 C15.63019987 7.35284977 15.63019987 7.35284977 9 8 Z " fill="#94A0CD" transform="translate(203,53)"/>
<path d="M0 0 C3.196875 -0.0825 6.39375 -0.165 9.6875 -0.25 C10.68612061 -0.28641602 11.68474121 -0.32283203 12.71362305 -0.36035156 C16.98285395 -0.41369006 19.36670269 -0.38848656 23.08203125 1.890625 C26.34165948 5.47555217 26.27180722 8.11795229 26.2265625 12.80078125 C25.9346912 15.63394576 25.1306005 17.11523802 23 19 C22.34 19 21.68 19 21 19 C21.3609375 19.69867187 21.721875 20.39734375 22.09375 21.1171875 C22.5578125 22.02726562 23.021875 22.93734375 23.5 23.875 C23.9640625 24.77992187 24.428125 25.68484375 24.90625 26.6171875 C26 29 26 29 26 31 C23.03 31 20.06 31 17 31 C15.68 28.36 14.36 25.72 13 23 C11.68 23.33 10.36 23.66 9 24 C9.020625 24.969375 9.04125 25.93875 9.0625 26.9375 C9 30 9 30 8 31 C5.36 31 2.72 31 0 31 C0 20.77 0 10.54 0 0 Z M8 7 C8 9.64 8 12.28 8 15 C11.41656024 15.16677282 11.41656024 15.16677282 15 15 C17.28728734 13.16116119 17.28728734 13.16116119 17.125 10.375 C17.08375 9.59125 17.0425 8.8075 17 8 C14.04335481 6.5216774 11.25770263 6.93967217 8 7 Z " fill="#354A9A" transform="translate(314,11)"/>
<path d="M0 0 C2.64 0 5.28 0 8 0 C8.02505615 0.59014893 8.0501123 1.18029785 8.07592773 1.78833008 C8.19200052 4.46326814 8.31467572 7.1378638 8.4375 9.8125 C8.47681641 10.74126953 8.51613281 11.67003906 8.55664062 12.62695312 C8.61948242 13.9659668 8.61948242 13.9659668 8.68359375 15.33203125 C8.72025146 16.15421143 8.75690918 16.9763916 8.79467773 17.82348633 C8.93427772 20.17905178 8.93427772 20.17905178 10 23 C14.10223585 24.01540112 14.10223585 24.01540112 18 23 C18.02505615 22.3387915 18.0501123 21.67758301 18.07592773 20.99633789 C18.19153102 18.01817695 18.31441754 15.0403608 18.4375 12.0625 C18.47681641 11.02158203 18.51613281 9.98066406 18.55664062 8.90820312 C18.59853516 7.91884766 18.64042969 6.92949219 18.68359375 5.91015625 C18.72025146 4.99371338 18.75690918 4.07727051 18.79467773 3.13305664 C19 1 19 1 20 0 C21.8125 -0.1328125 21.8125 -0.1328125 24 -0.125 C24.721875 -0.12757812 25.44375 -0.13015625 26.1875 -0.1328125 C28 0 28 0 29 1 C29.28052624 4.57543444 29.23184747 8.1648749 29.25 11.75 C29.270625 12.75289062 29.29125 13.75578125 29.3125 14.7890625 C29.3614824 24.02224582 29.3614824 24.02224582 26 28 C22.29427431 31.42779626 19.42081828 32.29041032 14.5 32.4375 C9.99615028 32.25391917 6.73192617 31.70564647 3 29 C0.32050955 25.31165683 -0.36563567 22.79129024 -0.29296875 18.26171875 C-0.28330078 17.19501953 -0.27363281 16.12832031 -0.26367188 15.02929688 C-0.23853516 13.92650391 -0.21339844 12.82371094 -0.1875 11.6875 C-0.17396484 10.56537109 -0.16042969 9.44324219 -0.14648438 8.28710938 C-0.1112138 5.52424771 -0.06192235 2.76237171 0 0 Z " fill="#5B6AAA" transform="translate(236,53)"/>
<path d="M0 0 C0.9583374 0.00523682 1.9166748 0.01047363 2.90405273 0.01586914 C4.45576172 0.02070312 4.45576172 0.02070312 6.03881836 0.02563477 C7.12743164 0.03401367 8.21604492 0.04239258 9.33764648 0.05102539 C10.97636719 0.05779297 10.97636719 0.05779297 12.64819336 0.06469727 C15.35723144 0.07652713 18.06616248 0.09300996 20.77514648 0.11352539 C20.77514648 2.75352539 20.77514648 5.39352539 20.77514648 8.11352539 C15.82514648 8.11352539 10.87514648 8.11352539 5.77514648 8.11352539 C5.77514648 9.76352539 5.77514648 11.41352539 5.77514648 13.11352539 C10.06514648 13.11352539 14.35514648 13.11352539 18.77514648 13.11352539 C19.10514648 15.09352539 19.43514648 17.07352539 19.77514648 19.11352539 C18.77514648 20.11352539 18.77514648 20.11352539 15.83374023 20.21118164 C14.6387793 20.19958008 13.44381836 20.18797852 12.21264648 20.17602539 C10.41633789 20.16249023 10.41633789 20.16249023 8.58374023 20.14868164 C7.6569043 20.13708008 6.73006836 20.12547852 5.77514648 20.11352539 C5.77514648 21.76352539 5.77514648 23.41352539 5.77514648 25.11352539 C10.72514648 25.11352539 15.67514648 25.11352539 20.77514648 25.11352539 C20.77514648 27.42352539 20.77514648 29.73352539 20.77514648 32.11352539 C16.96266222 32.14239775 13.15020579 32.16028031 9.33764648 32.17602539 C8.2490332 32.1844043 7.16041992 32.1927832 6.03881836 32.20141602 C5.0043457 32.20463867 3.96987305 32.20786133 2.90405273 32.21118164 C1.94571533 32.21641846 0.98737793 32.22165527 0 32.22705078 C-2.22485352 32.11352539 -2.22485352 32.11352539 -3.22485352 31.11352539 C-3.32497753 28.90701883 -3.35566531 26.69730153 -3.35766602 24.48852539 C-3.35862274 23.82643066 -3.35957947 23.16433594 -3.36056519 22.48217773 C-3.36124678 21.07999578 -3.35939393 19.67781069 -3.35522461 18.27563477 C-3.34987598 16.12256826 -3.35517021 13.96971037 -3.36157227 11.81665039 C-3.36091148 10.45727493 -3.35963031 9.0978996 -3.35766602 7.73852539 C-3.35653809 6.49329102 -3.35541016 5.24805664 -3.35424805 3.96508789 C-3.18169226 0.16234905 -3.18169226 0.16234905 0 0 Z " fill="#4A5CA6" transform="translate(374.224853515625,52.886474609375)"/>
<path d="M0 0 C7.92 0 15.84 0 24 0 C24 2.31 24 4.62 24 7 C19.05 7 14.1 7 9 7 C9 8.65 9 10.3 9 12 C13.29 12 17.58 12 22 12 C22 14.31 22 16.62 22 19 C17.71 19 13.42 19 9 19 C9 20.65 9 22.3 9 24 C13.95 24 18.9 24 24 24 C24 26.31 24 28.62 24 31 C16.08 31 8.16 31 0 31 C0 20.77 0 10.54 0 0 Z " fill="#5163A8" transform="translate(185,11)"/>
<path d="M0 0 C3.3 0 6.6 0 10 0 C21 26.98969072 21 26.98969072 21 31 C18.03 31 15.06 31 12 31 C11.34 29.02 10.68 27.04 10 25 C6.7 25 3.4 25 0 25 C-0.66 26.98 -1.32 28.96 -2 31 C-4.97 31 -7.94 31 -11 31 C-8.02407067 20.41891794 -4.11751218 10.18542487 0 0 Z M4 11 C3.67 12.98 3.34 14.96 3 17 C4.65 17 6.3 17 8 17 C7.34 15.02 6.68 13.04 6 11 C5.34 11 4.68 11 4 11 Z " fill="#243A8C" transform="translate(289,11)"/>
<path d="M0 0 C4.7953125 -0.1546875 4.7953125 -0.1546875 9.6875 -0.3125 C11.18543091 -0.38078003 11.18543091 -0.38078003 12.71362305 -0.45043945 C17.308496 -0.52219817 19.33329198 -0.52365956 23.05859375 2.40234375 C27.04590965 7.73748474 27.04590965 7.73748474 26.875 12.4375 C25.92645533 16.29943186 24.74586726 18.17092464 22 21 C19.35541621 22.32229189 17.32238699 22.09677194 14.375 22.0625 C13.37210938 22.05347656 12.36921875 22.04445313 11.3359375 22.03515625 C10.56507813 22.02355469 9.79421875 22.01195313 9 22 C9 24.97 9 27.94 9 31 C6.03 31 3.06 31 0 31 C0 20.77 0 10.54 0 0 Z M9 7 C9 9.64 9 12.28 9 15 C12.41656024 15.16677282 12.41656024 15.16677282 16 15 C16.66 14.34 17.32 13.68 18 13 C17.83492354 10.42459787 17.83492354 10.42459787 17 8 C14.29120665 6.64560332 11.99066732 6.93498549 9 7 Z " fill="#253A8D" transform="translate(155,11)"/>
<path d="M0 0 C0.53882813 0.32226562 1.07765625 0.64453125 1.6328125 0.9765625 C1.6328125 3.2865625 1.6328125 5.5965625 1.6328125 7.9765625 C-5.2971875 7.4815625 -5.2971875 7.4815625 -12.3671875 6.9765625 C-12.3671875 7.9665625 -12.3671875 8.9565625 -12.3671875 9.9765625 C-11.1296875 10.069375 -11.1296875 10.069375 -9.8671875 10.1640625 C-5.41273702 11.19813136 -1.98656477 13.20372216 1.6328125 15.9765625 C3.20216844 19.11527438 2.98482353 21.51512072 2.6328125 24.9765625 C0.4600703 27.60672411 -1.31392538 29.44993144 -4.3671875 30.9765625 C-6.51042056 31.09927758 -8.65797752 31.15209645 -10.8046875 31.1640625 C-11.95839844 31.17824219 -13.11210937 31.19242188 -14.30078125 31.20703125 C-17.3671875 30.9765625 -17.3671875 30.9765625 -20.3671875 28.9765625 C-21.0546875 25.3515625 -21.0546875 25.3515625 -21.3671875 21.9765625 C-20.5421875 22.1415625 -19.7171875 22.3065625 -18.8671875 22.4765625 C-14.95446433 23.03552295 -11.31535577 23.04463437 -7.3671875 22.9765625 C-7.3671875 21.9865625 -7.3671875 20.9965625 -7.3671875 19.9765625 C-8.38039063 19.73873047 -8.38039063 19.73873047 -9.4140625 19.49609375 C-13.51989554 18.42216921 -16.69672329 17.50669699 -20.0546875 14.8515625 C-21.96159017 10.6745376 -21.84610037 7.30824172 -20.3671875 2.9765625 C-15.5571227 -2.3535093 -6.45852069 -2.79229772 0 0 Z " fill="#5B6CA9" transform="translate(290.3671875,54.0234375)"/>
<path d="M0 0 C1.051875 -0.00257812 2.10375 -0.00515625 3.1875 -0.0078125 C6 0.125 6 0.125 9 1.125 C9 3.765 9 6.405 9 9.125 C4.71 9.125 0.42 9.125 -4 9.125 C-1.20387292 11.92112708 2.00689962 12.70596541 5.6875 14.02734375 C8 15.125 8 15.125 10 18.125 C10.68873936 22.47366829 10.81177729 26.00530718 8.1875 29.625 C4.49349743 32.15803034 1.43321189 32.28548695 -2.9375 32.3125 C-3.97777344 32.32667969 -5.01804687 32.34085938 -6.08984375 32.35546875 C-8.95046613 32.12892282 -10.57670151 31.60233619 -13 30.125 C-13 27.815 -13 25.505 -13 23.125 C-8.71 23.455 -4.42 23.785 0 24.125 C0 23.135 0 22.145 0 21.125 C-0.75925781 20.90585938 -1.51851563 20.68671875 -2.30078125 20.4609375 C-10.41555806 17.87178692 -10.41555806 17.87178692 -13.25 14.25 C-14.11010387 10.66623386 -14.14302572 8.63027887 -13 5.125 C-9.1787784 0.41216002 -5.86006763 -0.01436291 0 0 Z " fill="#7786BD" transform="translate(412,52.875)"/>
<path d="M0 0 C4.31248609 -0.02886537 8.62494762 -0.04675255 12.9375 -0.0625 C14.16919922 -0.07087891 15.40089844 -0.07925781 16.66992188 -0.08789062 C17.83974609 -0.09111328 19.00957031 -0.09433594 20.21484375 -0.09765625 C21.84087524 -0.10551147 21.84087524 -0.10551147 23.49975586 -0.11352539 C26 0 26 0 27 1 C27.04092937 3.33297433 27.04241723 5.66705225 27 8 C24.03 8 21.06 8 18 8 C18 15.92 18 23.84 18 32 C15.03 32 12.06 32 9 32 C9 24.08 9 16.16 9 8 C6.03 8 3.06 8 0 8 C0 5.36 0 2.72 0 0 Z " fill="#8996C6" transform="translate(295,53)"/>
<path d="M0 0 C5.28 0 10.56 0 16 0 C16 1.65 16 3.3 16 5 C13.03 5 10.06 5 7 5 C7 10.94 7 16.88 7 23 C8.423125 22.690625 9.84625 22.38125 11.3125 22.0625 C12.11300781 21.88847656 12.91351563 21.71445313 13.73828125 21.53515625 C16.145401 21.00113841 16.145401 21.00113841 19 20 C18.67 21.65 18.34 23.3 18 25 C18.99 25 19.98 25 21 25 C20.34 26.32 19.68 27.64 19 29 C12.73 29 6.46 29 0 29 C0 19.43 0 9.86 0 0 Z " fill="#263C8F" transform="translate(204,55)"/>
<path d="M0 0 C2.97 0 5.94 0 9 0 C9 10.56 9 21.12 9 32 C6.03 32 3.06 32 0 32 C0 21.44 0 10.88 0 0 Z " fill="#5466AA" transform="translate(357,53)"/>
<path d="M0 0 C2.64 0 5.28 0 8 0 C9.88319268 1.88319268 9.13054285 5.11930137 9.1328125 7.625 C9.13376923 8.28709473 9.13472595 8.94918945 9.13571167 9.63134766 C9.13639326 11.03352961 9.13454042 12.4357147 9.13037109 13.83789062 C9.12502246 15.99095713 9.1303167 18.14381502 9.13671875 20.296875 C9.13605796 21.65625046 9.13477679 23.0156258 9.1328125 24.375 C9.13168457 25.62023437 9.13055664 26.86546875 9.12939453 28.1484375 C9 31 9 31 8 32 C5.36 32 2.72 32 0 32 C0 21.44 0 10.88 0 0 Z " fill="#717DB1" transform="translate(155,53)"/>
<path d="M0 0 C7 0 7 0 8.99609375 1.3125 C10.33072917 2.875 11.66536458 4.4375 13 6 C12 8 12 8 9.984375 9.578125 C7.09081708 13.1096327 7.33103166 16.30799161 7.25 20.75 C7.22035156 21.54277344 7.19070312 22.33554688 7.16015625 23.15234375 C7.08972213 25.10102094 7.04256518 27.05051495 7 29 C4.69 29 2.38 29 0 29 C0 19.43 0 9.86 0 0 Z " fill="#2E4293" transform="translate(170,55)"/>
<path d="M0 0 C4.7953125 -0.1546875 4.7953125 -0.1546875 9.6875 -0.3125 C11.18543091 -0.38078003 11.18543091 -0.38078003 12.71362305 -0.45043945 C17.308496 -0.52219817 19.33329198 -0.52365956 23.05859375 2.40234375 C27.11677019 7.83229814 27.11677019 7.83229814 26.625 12.75 C26.315625 14.35875 26.315625 14.35875 26 16 C25.67 16 25.34 16 25 16 C24.67 13.69 24.34 11.38 24 9 C22.68 8.67 21.36 8.34 20 8 C20 7.34 20 6.68 20 6 C19.34 6 18.68 6 18 6 C17.67 6.99 17.34 7.98 17 9 C14.36 8.34 11.72 7.68 9 7 C9 9.64 9 12.28 9 15 C11.31 15 13.62 15 16 15 C16 15.33 16 15.66 16 16 C13.03 16 10.06 16 7 16 C7 12.7 7 9.4 7 6 C5.35 5.67 3.7 5.34 2 5 C2.33 4.01 2.66 3.02 3 2 C2.34 1.67 1.68 1.34 1 1 C1 10.57 1 20.14 1 30 C3.31 30 5.62 30 8 30 C8 27.03 8 24.06 8 21 C12.62 20.67 17.24 20.34 22 20 C20 22 20 22 17.3984375 22.1953125 C16.40070313 22.17210938 15.40296875 22.14890625 14.375 22.125 C12.87066406 22.09792969 12.87066406 22.09792969 11.3359375 22.0703125 C10.56507813 22.04710938 9.79421875 22.02390625 9 22 C9 24.97 9 27.94 9 31 C6.03 31 3.06 31 0 31 C0 20.77 0 10.54 0 0 Z " fill="#7584BC" transform="translate(155,11)"/>
<path d="M0 0 C2.625 0.625 2.625 0.625 5 2 C5.625 4.0625 5.625 4.0625 6 6 C6.99 6.33 7.98 6.66 9 7 C9 9.64 9 12.28 9 15 C3.39720718 18.73519522 -2.41127518 18.70659027 -9 18 C-11.3671875 16.98046875 -11.3671875 16.98046875 -13 16 C-13 13.69 -13 11.38 -13 9 C-8.71 9.33 -4.42 9.66 0 10 C0 9.01 0 8.02 0 7 C-0.99 6.34 -1.98 5.68 -3 5 C-3 4.01 -3 3.02 -3 2 C-2.01 1.34 -1.02 0.68 0 0 Z " fill="#314597" transform="translate(412,67)"/>
<path d="M0 0 C0.53882813 0.32226562 1.07765625 0.64453125 1.6328125 0.9765625 C1.6328125 3.2865625 1.6328125 5.5965625 1.6328125 7.9765625 C-5.2971875 7.4815625 -5.2971875 7.4815625 -12.3671875 6.9765625 C-12.3671875 7.9665625 -12.3671875 8.9565625 -12.3671875 9.9765625 C-11.4184375 10.1003125 -10.4696875 10.2240625 -9.4921875 10.3515625 C-6.3671875 10.9765625 -6.3671875 10.9765625 -4.3671875 12.9765625 C-4.97046875 12.89277344 -5.57375 12.80898437 -6.1953125 12.72265625 C-6.99453125 12.62082031 -7.79375 12.51898438 -8.6171875 12.4140625 C-9.40609375 12.30964844 -10.195 12.20523438 -11.0078125 12.09765625 C-13.37251624 11.97628901 -15.1182912 12.28022993 -17.3671875 12.9765625 C-17.3671875 12.3165625 -17.3671875 11.6565625 -17.3671875 10.9765625 C-18.0271875 10.6465625 -18.6871875 10.3165625 -19.3671875 9.9765625 C-19.6971875 10.9665625 -20.0271875 11.9565625 -20.3671875 12.9765625 C-21.3671875 11.9765625 -21.3671875 11.9765625 -21.45703125 10.05078125 C-21.18790233 5.83442822 -20.95110555 3.62360683 -18.0546875 0.4140625 C-12.43204719 -1.77781423 -5.6693148 -2.4510899 0 0 Z " fill="#6574B2" transform="translate(290.3671875,54.0234375)"/>
<path d="M0 0 C2.31 0 4.62 0 7 0 C7 9.57 7 19.14 7 29 C4.69 29 2.38 29 0 29 C-0.103125 28.236875 -0.20625 27.47375 -0.3125 26.6875 C-1.04364039 23.82940576 -1.76951913 22.84257115 -4 21 C-3.01 20.34 -2.02 19.68 -1 19 C-0.49378487 16.97723319 -0.49378487 16.97723319 -0.48828125 14.6484375 C-0.43510742 13.37226563 -0.43510742 13.37226563 -0.38085938 12.0703125 C-0.35830078 11.18085938 -0.33574219 10.29140625 -0.3125 9.375 C-0.27833984 8.4778125 -0.24417969 7.580625 -0.20898438 6.65625 C-0.12637598 4.43762462 -0.05727281 2.2194006 0 0 Z " fill="#223889" transform="translate(233,12)"/>
<path d="M0 0 C0.80373047 -0.020625 1.60746094 -0.04125 2.43554688 -0.0625 C7.50805797 -0.09568078 10.87113384 0.52347473 15.3125 3.25 C14.9825 3.91 14.6525 4.57 14.3125 5.25 C13.6525 5.25 12.9925 5.25 12.3125 5.25 C10.97466607 5.56478446 9.64046291 5.89587656 8.3125 6.25 C8.6425 6.91 8.9725 7.57 9.3125 8.25 C9.35272391 10.5829866 9.35570247 12.91706666 9.3125 15.25 C6.09798731 16.85725635 2.87637464 16.30748185 -0.6875 16.25 C-0.6875 12.95 -0.6875 9.65 -0.6875 6.25 C1.2925 6.25 3.2725 6.25 5.3125 6.25 C4.3225 5.59 3.3325 4.93 2.3125 4.25 C2.6425 3.92 2.9725 3.59 3.3125 3.25 C-0.3175 2.92 -3.9475 2.59 -7.6875 2.25 C-7.6875 11.82 -7.6875 21.39 -7.6875 31.25 C-5.3775 31.25 -3.0675 31.25 -0.6875 31.25 C-0.6875 27.95 -0.6875 24.65 -0.6875 21.25 C0.9625 21.25 2.6125 21.25 4.3125 21.25 C4.6425 21.91 4.9725 22.57 5.3125 23.25 C3.6625 22.92 2.0125 22.59 0.3125 22.25 C0.3125 25.55 0.3125 28.85 0.3125 32.25 C-6.62109375 32.34765625 -6.62109375 32.34765625 -8.6875 32.25 C-10.57069268 30.36680732 -9.81804285 27.13069863 -9.8203125 24.625 C-9.82126923 23.96290527 -9.82222595 23.30081055 -9.82321167 22.61865234 C-9.82389326 21.21647039 -9.82204042 19.8142853 -9.81787109 18.41210938 C-9.81252246 16.25904287 -9.8178167 14.10618498 -9.82421875 11.953125 C-9.82355796 10.59374954 -9.82227679 9.2343742 -9.8203125 7.875 C-9.81918457 6.62976562 -9.81805664 5.38453125 -9.81689453 4.1015625 C-9.55233561 -1.72871708 -4.68262993 0.02933519 0 0 Z M0.3125 8.25 C0.3125 10.56 0.3125 12.87 0.3125 15.25 C2.64544775 15.29241723 4.97952567 15.29092937 7.3125 15.25 C8.59572547 14.1904123 8.59572547 14.1904123 8.4375 11.75 C8.59572547 9.3095877 8.59572547 9.3095877 7.3125 8.25 C4.97952567 8.20907063 2.64544775 8.20758277 0.3125 8.25 Z " fill="#C2CAE8" transform="translate(334.6875,52.75)"/>
<path d="M0 0 C6 0 6 0 9 2 C9 3.32 9 4.64 9 6 C8.01 6.495 8.01 6.495 7 7 C7.33 8.65 7.66 10.3 8 12 C7.34 12 6.68 12 6 12 C6 17.61 6 23.22 6 29 C4.02 29 2.04 29 0 29 C0 19.43 0 9.86 0 0 Z " fill="#24398B" transform="translate(248,12)"/>
<path d="M0 0 C0.66 0.99 1.32 1.98 2 3 C2.66 3.33 3.32 3.66 4 4 C4 4.66 4 5.32 4 6 C4.99 6 5.98 6 7 6 C7.66 4.35 8.32 2.7 9 1 C10.32 1.99 11.64 2.98 13 4 C-7.40876621 23.05530527 -7.40876621 23.05530527 -14 26 C-12.40193652 19.91117584 -9.1388717 14.9335245 -5.875 9.625 C-5.31167969 8.69816406 -4.74835937 7.77132812 -4.16796875 6.81640625 C-2.78393957 4.54096845 -1.39451078 2.2690237 0 0 Z " fill="#4D60A1" transform="translate(14,93)"/>
<path d="M0 0 C2.31 0 4.62 0 7 0 C7 9.57 7 19.14 7 29 C5.02 29 3.04 29 1 29 C2.05875074 25.59687262 3.00902154 22.98646769 5 20 C3.02 19.67 1.04 19.34 -1 19 C-0.67 12.73 -0.34 6.46 0 0 Z " fill="#273C8E" transform="translate(267,12)"/>
<path d="M0 0 C6.93 0 13.86 0 21 0 C21 1.65 21 3.3 21 5 C16.05 5 11.1 5 6 5 C6 6.65 6 8.3 6 10 C5.01 10.495 5.01 10.495 4 11 C4 10.34 4 9.68 4 9 C3.01 9.495 3.01 9.495 2 10 C2 15.28 2 20.56 2 26 C4.97 26.33 7.94 26.66 11 27 C11 27.33 11 27.66 11 28 C7.37 28 3.74 28 0 28 C0 18.76 0 9.52 0 0 Z " fill="#243889" transform="translate(373,55)"/>
<path d="M0 0 C0.9583374 0.00523682 1.9166748 0.01047363 2.90405273 0.01586914 C4.45576172 0.02070312 4.45576172 0.02070312 6.03881836 0.02563477 C7.12743164 0.03401367 8.21604492 0.04239258 9.33764648 0.05102539 C10.97636719 0.05779297 10.97636719 0.05779297 12.64819336 0.06469727 C15.35723144 0.07652713 18.06616248 0.09300996 20.77514648 0.11352539 C20.77514648 2.75352539 20.77514648 5.39352539 20.77514648 8.11352539 C15.82514648 8.11352539 10.87514648 8.11352539 5.77514648 8.11352539 C5.77514648 7.78352539 5.77514648 7.45352539 5.77514648 7.11352539 C10.39514648 7.11352539 15.01514648 7.11352539 19.77514648 7.11352539 C19.77514648 5.46352539 19.77514648 3.81352539 19.77514648 2.11352539 C12.84514648 2.11352539 5.91514648 2.11352539 -1.22485352 2.11352539 C-1.22485352 11.68352539 -1.22485352 21.25352539 -1.22485352 31.11352539 C5.70514648 31.11352539 12.63514648 31.11352539 19.77514648 31.11352539 C19.77514648 29.13352539 19.77514648 27.15352539 19.77514648 25.11352539 C20.10514648 25.11352539 20.43514648 25.11352539 20.77514648 25.11352539 C20.77514648 27.42352539 20.77514648 29.73352539 20.77514648 32.11352539 C16.96266222 32.14239775 13.15020579 32.16028031 9.33764648 32.17602539 C8.2490332 32.1844043 7.16041992 32.1927832 6.03881836 32.20141602 C5.0043457 32.20463867 3.96987305 32.20786133 2.90405273 32.21118164 C1.94571533 32.21641846 0.98737793 32.22165527 0 32.22705078 C-2.22485352 32.11352539 -2.22485352 32.11352539 -3.22485352 31.11352539 C-3.32497753 28.90701883 -3.35566531 26.69730153 -3.35766602 24.48852539 C-3.35862274 23.82643066 -3.35957947 23.16433594 -3.36056519 22.48217773 C-3.36124678 21.07999578 -3.35939393 19.67781069 -3.35522461 18.27563477 C-3.34987598 16.12256826 -3.35517021 13.96971037 -3.36157227 11.81665039 C-3.36091148 10.45727493 -3.35963031 9.0978996 -3.35766602 7.73852539 C-3.35653809 6.49329102 -3.35541016 5.24805664 -3.35424805 3.96508789 C-3.18169226 0.16234905 -3.18169226 0.16234905 0 0 Z " fill="#BAC3E1" transform="translate(374.224853515625,52.886474609375)"/>
<path d="M0 0 C2.31 0 4.62 0 7 0 C7 7.26 7 14.52 7 22 C1 21 1 21 0 20 C-0.08669432 18.5112814 -0.10703494 17.018555 -0.09765625 15.52734375 C-0.09443359 14.62822266 -0.09121094 13.72910156 -0.08789062 12.80273438 C-0.07951172 11.85720703 -0.07113281 10.91167969 -0.0625 9.9375 C-0.05798828 8.98810547 -0.05347656 8.03871094 -0.04882812 7.06054688 C-0.0370011 4.70696935 -0.02052025 2.35351523 0 0 Z " fill="#253B8E" transform="translate(237,55)"/>
<path d="M0 0 C2.97 0 5.94 0 9 0 C9 10.23 9 20.46 9 31 C6.36 31 3.72 31 1 31 C1 30.67 1 30.34 1 30 C3.31 30 5.62 30 8 30 C8 20.43 8 10.86 8 1 C5.69 1 3.38 1 1 1 C1.02356567 1.83978394 1.02356567 1.83978394 1.04760742 2.6965332 C1.10999848 5.2350859 1.14900218 7.77347729 1.1875 10.3125 C1.21263672 11.19357422 1.23777344 12.07464844 1.26367188 12.98242188 C1.27817383 14.25375977 1.27817383 14.25375977 1.29296875 15.55078125 C1.31653442 16.72120972 1.31653442 16.72120972 1.34057617 17.9152832 C0.91847304 20.49903853 -0.01489942 21.36292167 -2 23 C-1.01 23.99 -0.02 24.98 1 26 C0.67 26.99 0.34 27.98 0 29 C-1.50587739 27.04594482 -3.00478644 25.08718716 -4.5 23.125 C-4.92925781 22.56941406 -5.35851562 22.01382813 -5.80078125 21.44140625 C-9 17.2265625 -9 17.2265625 -9 15 C-7.68 15.33 -6.36 15.66 -5 16 C-5 14.68 -5 13.36 -5 12 C-4.67 11.34 -4.34 10.68 -4 10 C-3.01 11.32 -2.02 12.64 -1 14 C-0.67 9.38 -0.34 4.76 0 0 Z " fill="#8B9AC8" transform="translate(232,11)"/>
<path d="M0 0 C1.98 0 3.96 0 6 0 C6 7.26 6 14.52 6 22 C5.34 22 4.68 22 4 22 C3.67 22.66 3.34 23.32 3 24 C0.984375 22.640625 0.984375 22.640625 -1 20 C-1.36948557 16.55248584 -1.0540236 13.19560075 -0.75 9.75 C-0.68425781 8.81414063 -0.61851562 7.87828125 -0.55078125 6.9140625 C-0.38601171 4.60728901 -0.20181863 2.30377872 0 0 Z " fill="#233A8E" transform="translate(257,55)"/>
<path d="M0 0 C2.475 0.495 2.475 0.495 5 1 C6.17426264 3.34852528 6.11508173 4.73774065 6.09765625 7.3515625 C6.09443359 8.20234375 6.09121094 9.053125 6.08789062 9.9296875 C6.07951172 10.81914063 6.07113281 11.70859375 6.0625 12.625 C6.05798828 13.5221875 6.05347656 14.419375 6.04882812 15.34375 C6.03702591 17.56256648 6.02056155 19.78125018 6 22 C4.02 22 2.04 22 0 22 C0 14.74 0 7.48 0 0 Z " fill="#23398E" transform="translate(305,61)"/>
<path d="M0 0 C3.22886009 -0.11667875 6.45717445 -0.18740546 9.6875 -0.25 C11.05551758 -0.30027344 11.05551758 -0.30027344 12.45117188 -0.3515625 C16.81769795 -0.41507561 19.28725121 -0.43722486 23.08203125 1.890625 C26.34165948 5.47555217 26.27180722 8.11795229 26.2265625 12.80078125 C25.9346912 15.63394576 25.1306005 17.11523802 23 19 C22.34 19 21.68 19 21 19 C20.34 17.35 19.68 15.7 19 14 C17.68 14.33 16.36 14.66 15 15 C15.66 12.69 16.32 10.38 17 8 C18.32 8 19.64 8 21 8 C20.67 6.68 20.34 5.36 20 4 C18.68 3.67 17.36 3.34 16 3 C16 2.67 16 2.34 16 2 C10.72 1.67 5.44 1.34 0 1 C0 0.67 0 0.34 0 0 Z " fill="#6575B2" transform="translate(314,11)"/>
<path d="M0 0 C1.134375 0.020625 2.26875 0.04125 3.4375 0.0625 C4.0975 1.3825 4.7575 2.7025 5.4375 4.0625 C5.7675 3.7325 6.0975 3.4025 6.4375 3.0625 C8.10367115 3.02186168 9.77138095 3.019779 11.4375 3.0625 C14.4375 8.8125 14.4375 8.8125 14.4375 11.0625 C11.4675 11.0625 8.4975 11.0625 5.4375 11.0625 C4.1175 8.4225 2.7975 5.7825 1.4375 3.0625 C0.1175 3.3925 -1.2025 3.7225 -2.5625 4.0625 C-2.541875 5.031875 -2.52125 6.00125 -2.5 7 C-2.5625 10.0625 -2.5625 10.0625 -3.5625 11.0625 C-6.23308851 11.20365161 -8.88682238 11.10497107 -11.5625 11.0625 C-11.5625 10.7325 -11.5625 10.4025 -11.5625 10.0625 C-9.2525 10.0625 -6.9425 10.0625 -4.5625 10.0625 C-4.57410156 9.42441406 -4.58570313 8.78632812 -4.59765625 8.12890625 C-4.60667969 7.30261719 -4.61570312 6.47632813 -4.625 5.625 C-4.63660156 4.80128906 -4.64820313 3.97757813 -4.66015625 3.12890625 C-4.49001835 -0.47121162 -3.73687179 0.06555915 0 0 Z " fill="#5162A4" transform="translate(325.5625,30.9375)"/>
<path d="M0 0 C0.99 0.33 1.98 0.66 3 1 C5.77742477 7.06968926 4.8951004 12.83363484 3 19 C2.61199219 18.35546875 2.22398437 17.7109375 1.82421875 17.046875 C0.16053515 14.79121416 0.16053515 14.79121416 -2.48046875 14.390625 C-3.82044922 14.32101563 -3.82044922 14.32101563 -5.1875 14.25 C-6.53908203 14.16492188 -6.53908203 14.16492188 -7.91796875 14.078125 C-8.60503906 14.05234375 -9.29210937 14.0265625 -10 14 C-9.01 13.34 -8.02 12.68 -7 12 C-7.66 11.67 -8.32 11.34 -9 11 C-8.67 9.68 -8.34 8.36 -8 7 C-8 7.66 -8 8.32 -8 9 C-5.69 9 -3.38 9 -1 9 C0.81301758 4.56906802 0.81301758 4.56906802 0 0 Z " fill="#324796" transform="translate(299,20)"/>
<path d="M0 0 C-0.99 0.33 -1.98 0.66 -3 1 C-3 2.32 -3 3.64 -3 5 C-3.66 5 -4.32 5 -5 5 C-3.60667426 8.36720387 -2.0210714 9.9859524 1 12 C-0.32 12 -1.64 12 -3 12 C-3.33 12.66 -3.66 13.32 -4 14 C-3.01 14.33 -2.02 14.66 -1 15 C-1.99 15.33 -2.98 15.66 -4 16 C-4.66 15.34 -5.32 14.68 -6 14 C-6.845625 13.7525 -7.69125 13.505 -8.5625 13.25 C-11 12 -11 12 -11.9375 9.125 C-12.00181863 5.90906835 -11.91007191 4.54676254 -10 2 C-6.76837449 -0.30830393 -3.8810735 -0.17641243 0 0 Z " fill="#243A8D" transform="translate(410,55)"/>
<path d="M0 0 C1.32 0 2.64 0 4 0 C4 8.58 4 17.16 4 26 C3.01 26 2.02 26 1 26 C0 25 0 25 -0.11352539 22.59155273 C-0.10828857 21.54942627 -0.10305176 20.5072998 -0.09765625 19.43359375 C-0.09443359 18.30888672 -0.09121094 17.18417969 -0.08789062 16.02539062 C-0.07951172 14.84138672 -0.07113281 13.65738281 -0.0625 12.4375 C-0.05798828 11.24962891 -0.05347656 10.06175781 -0.04882812 8.83789062 C-0.03699675 5.89187774 -0.02051287 2.94596319 0 0 Z " fill="#243C95" transform="translate(157,56)"/>
<path d="M0 0 C1.32 0.33 2.64 0.66 4 1 C4 6.61 4 12.22 4 18 C1.69 18 -0.62 18 -3 18 C-2.88602456 15.56152549 -2.75929026 13.12486826 -2.625 10.6875 C-2.5940625 9.99720703 -2.563125 9.30691406 -2.53125 8.59570312 C-2.31875081 4.93009211 -2.08066139 3.12099208 0 0 Z " fill="#22388B" transform="translate(217,23)"/>
<path d="M0 0 C3.3 0 6.6 0 10 0 C14.125 8.625 14.125 8.625 13 12 C12.01 11.01 11.02 10.02 10 9 C10 9.66 10 10.32 10 11 C10.66 11.33 11.32 11.66 12 12 C11.01 13.98 10.02 15.96 9 18 C6.69 18 4.38 18 2 18 C2.33 16.68 2.66 15.36 3 14 C3 14.99 3 15.98 3 17 C4.65 17 6.3 17 8 17 C7.34 15.02 6.68 13.04 6 11 C5.34 11 4.68 11 4 11 C3.67 11.66 3.34 12.32 3 13 C2.67 11.02 2.34 9.04 2 7 C3.65 6.67 5.3 6.34 7 6 C7.33 4.68 7.66 3.36 8 2 C5.69 1.67 3.38 1.34 1 1 C0.34 2.32 -0.32 3.64 -1 5 C-0.67 3.35 -0.34 1.7 0 0 Z " fill="#7383BA" transform="translate(289,11)"/>
<path d="M0 0 C2.61943903 2.61943903 3.44197838 5.57473973 4.625 9 C4.85445313 9.64195313 5.08390625 10.28390625 5.3203125 10.9453125 C7 15.72442336 7 15.72442336 7 18 C4.03 18 1.06 18 -2 18 C-2.66 16.02 -3.32 14.04 -4 12 C-7.3 12 -10.6 12 -14 12 C-14.33 12.66 -14.66 13.32 -15 14 C-15 13.01 -15 12.02 -15 11 C-11.04 11 -7.08 11 -3 11 C-2.67 11.66 -2.34 12.32 -2 13 C-1.66127487 11.58461283 -1.32925376 10.16762037 -1 8.75 C-0.814375 7.96109375 -0.62875 7.1721875 -0.4375 6.359375 C0.12154828 3.74443998 0.12154828 3.74443998 0 0 Z " fill="#8A96C7" transform="translate(303,24)"/>
<path d="M0 0 C2.64 0 5.28 0 8 0 C7.67 0.66 7.34 1.32 7 2 C4.03 1.505 4.03 1.505 1 1 C1 10.57 1 20.14 1 30 C2.98 30 4.96 30 7 30 C7 24.39 7 18.78 7 13 C7.66 13 8.32 13 9 13 C8.34 12.34 7.68 11.68 7 11 C7.375 8.875 7.375 8.875 8 7 C8.66 7 9.32 7 10 7 C10.33 6.34 10.66 5.68 11 5 C11.309375 5.94875 11.61875 6.8975 11.9375 7.875 C12.87394742 10.86080408 12.87394742 10.86080408 14 13 C13.67 13.66 13.34 14.32 13 15 C11.35 14.67 9.7 14.34 8 14 C8 19.61 8 25.22 8 31 C5.36 31 2.72 31 0 31 C0 20.77 0 10.54 0 0 Z " fill="#6372AB" transform="translate(247,11)"/>
<path d="M0 0 C4.62 0.66 9.24 1.32 14 2 C12.02 2.99 12.02 2.99 10 4 C10 4.99 10 5.98 10 7 C12.64 7 15.28 7 18 7 C18 6.34 18 5.68 18 5 C18.99 5 19.98 5 21 5 C20.67 4.01 20.34 3.02 20 2 C20.99 2.33 21.98 2.66 23 3 C22.07663789 5.30840527 21.42407504 6.71595911 19.33203125 8.1171875 C16.28048509 9.27237918 13.69422203 9.26482012 10.4375 9.25 C9.30183594 9.25515625 8.16617187 9.2603125 6.99609375 9.265625 C4 9 4 9 1 7 C0.67 4.69 0.34 2.38 0 0 Z " fill="#5666A4" transform="translate(269,76)"/>
<path d="M0 0 C5.61 0 11.22 0 17 0 C17 0.33 17 0.66 17 1 C15.68 1.33 14.36 1.66 13 2 C13 2.66 13 3.32 13 4 C12.05125 4.103125 11.1025 4.20625 10.125 4.3125 C6.70892499 4.68539295 6.70892499 4.68539295 5 8 C4.01 7.67 3.02 7.34 2 7 C1.67 13.93 1.34 20.86 1 28 C0.67 28 0.34 28 0 28 C0 18.76 0 9.52 0 0 Z " fill="#22368A" transform="translate(327,55)"/>
<path d="M0 0 C2.64 0 5.28 0 8 0 C8 0.66 8 1.32 8 2 C5.69 2 3.38 2 1 2 C1.33 8.6 1.66 15.2 2 22 C3.65 22.33 5.3 22.66 7 23 C7.66 22.01 8.32 21.02 9 20 C9.33 20.99 9.66 21.98 10 23 C13.00847418 24.22520264 13.00847418 24.22520264 16 25 C16 25.33 16 25.66 16 26 C14.39743892 26.50512244 12.79288208 27.00391627 11.1875 27.5 C10.29417969 27.7784375 9.40085938 28.056875 8.48046875 28.34375 C6 29 6 29 3 29 C0.21010334 25.420918 -0.36474148 22.73555209 -0.29296875 18.26171875 C-0.28330078 17.19501953 -0.27363281 16.12832031 -0.26367188 15.02929688 C-0.23853516 13.92650391 -0.21339844 12.82371094 -0.1875 11.6875 C-0.17396484 10.56537109 -0.16042969 9.44324219 -0.14648438 8.28710938 C-0.1112138 5.52424771 -0.06192235 2.76237171 0 0 Z " fill="#6F7EB8" transform="translate(236,53)"/>
<path d="M0 0 C0 0.99 0 1.98 0 3 C-0.66 3.66 -1.32 4.32 -2 5 C-1.71125 5.54269531 -1.4225 6.08539063 -1.125 6.64453125 C-0.568125 7.71767578 -0.568125 7.71767578 0 8.8125 C0.556875 9.87404297 0.556875 9.87404297 1.125 10.95703125 C2 13 2 13 2 16 C-0.97 16 -3.94 16 -7 16 C-8.125 13.1875 -8.125 13.1875 -9 10 C-8.34 9.01 -7.68 8.02 -7 7 C-6.01 7 -5.02 7 -4 7 C-4.33 5.02 -4.66 3.04 -5 1 C-3.35 0.67 -1.7 0.34 0 0 Z " fill="#808DC0" transform="translate(350,69)"/>
<path d="M0 0 C0.99 0 1.98 0 3 0 C3.66 0.66 4.32 1.32 5 2 C5.66 2 6.32 2 7 2 C7.96070434 4.88211302 8.10581883 6.69850044 8.0625 9.6875 C8.05347656 10.49574219 8.04445312 11.30398437 8.03515625 12.13671875 C8.02355469 12.75160156 8.01195312 13.36648437 8 14 C7 14 6 14 5 14 C4.67 14.66 4.34 15.32 4 16 C3.01 15.67 2.02 15.34 1 15 C0.67 10.05 0.34 5.1 0 0 Z " fill="#253A8F" transform="translate(222,59)"/>
<path d="M0 0 C5.61 0 11.22 0 17 0 C16.67 0.66 16.34 1.32 16 2 C16.99 2.33 17.98 2.66 19 3 C19 3.99 19 4.98 19 6 C19.66 6.33 20.32 6.66 21 7 C19.02 7.99 19.02 7.99 17 9 C16.34 8.01 15.68 7.02 15 6 C12.80545319 5.42006301 12.80545319 5.42006301 10.375 5.3125 C8.93125 5.209375 7.4875 5.10625 6 5 C6 7.97 6 10.94 6 14 C5.67 14 5.34 14 5 14 C4.97421875 13.15695313 4.9484375 12.31390625 4.921875 11.4453125 C4.83679688 9.80175781 4.83679688 9.80175781 4.75 8.125 C4.70359375 7.03445312 4.6571875 5.94390625 4.609375 4.8203125 C4.40828125 3.88960937 4.2071875 2.95890625 4 2 C2.68 1.34 1.36 0.68 0 0 Z " fill="#283C8C" transform="translate(315,12)"/>
<path d="M0 0 C2.64 0 5.28 0 8 0 C8 1.65 8 3.3 8 5 C3.125 7 3.125 7 2 7 C2 8.98 2 10.96 2 13 C1.01 13 0.02 13 -1 13 C-1 12.34 -1 11.68 -1 11 C-1.66 11 -2.32 11 -3 11 C-3 8.69 -3 6.38 -3 4 C-2.34 4 -1.68 4 -1 4 C-0.67 2.68 -0.34 1.36 0 0 Z " fill="#2F4396" transform="translate(290,12)"/>
<path d="M0 0 C0.721875 0.00257812 1.44375 0.00515625 2.1875 0.0078125 C2.909375 0.00523438 3.63125 0.00265625 4.375 0 C6.1875 0.1328125 6.1875 0.1328125 7.1875 1.1328125 C7.27450342 2.76754132 7.29451063 4.40595305 7.28515625 6.04296875 C7.28193359 7.03232422 7.27871094 8.02167969 7.27539062 9.04101562 C7.26701172 10.08193359 7.25863281 11.12285156 7.25 12.1953125 C7.24548828 13.24009766 7.24097656 14.28488281 7.23632812 15.36132812 C7.22449913 17.9518791 7.20801689 20.54231809 7.1875 23.1328125 C6.8575 23.1328125 6.5275 23.1328125 6.1875 23.1328125 C6.1875 16.2028125 6.1875 9.2728125 6.1875 2.1328125 C3.8775 2.1328125 1.5675 2.1328125 -0.8125 2.1328125 C-0.80726318 2.69266846 -0.80202637 3.25252441 -0.79663086 3.8293457 C-0.77583309 6.36798987 -0.76283096 8.90661609 -0.75 11.4453125 C-0.74162109 12.32638672 -0.73324219 13.20746094 -0.72460938 14.11523438 C-0.72138672 14.96279297 -0.71816406 15.81035156 -0.71484375 16.68359375 C-0.70960693 17.46387939 -0.70437012 18.24416504 -0.69897461 19.0480957 C-0.8125 21.1328125 -0.8125 21.1328125 -1.8125 24.1328125 C-2.4725 23.8028125 -3.1325 23.4728125 -3.8125 23.1328125 C-3.67433041 19.48664579 -3.52568466 15.84098176 -3.375 12.1953125 C-3.31602539 10.63393555 -3.31602539 10.63393555 -3.25585938 9.04101562 C-3.21396484 8.05166016 -3.17207031 7.06230469 -3.12890625 6.04296875 C-3.09224854 5.12652588 -3.05559082 4.21008301 -3.01782227 3.26586914 C-2.76240513 0.61238577 -2.66606898 0.1953585 0 0 Z " fill="#CDD2EB" transform="translate(257.8125,52.8671875)"/>
<path d="M0 0 C2.31 0 4.62 0 7 0 C7.33 1.65 7.66 3.3 8 5 C7.01 5.495 7.01 5.495 6 6 C6.33 7.65 6.66 9.3 7 11 C6.34 11 5.68 11 5 11 C4.67 11.99 4.34 12.98 4 14 C3.34 13.34 2.68 12.68 2 12 C1.01 12.495 1.01 12.495 0 13 C0 8.71 0 4.42 0 0 Z " fill="#2A4397" transform="translate(249,13)"/>
<path d="M0 0 C0.66 0.99 1.32 1.98 2 3 C2.66 3.33 3.32 3.66 4 4 C4 4.66 4 5.32 4 6 C4.99 6 5.98 6 7 6 C7.66 4.35 8.32 2.7 9 1 C10.32 1.99 11.64 2.98 13 4 C7.06 9.445 7.06 9.445 1 15 C0.34 14.67 -0.32 14.34 -1 14 C-1 13.34 -1 12.68 -1 12 C-0.34 11.67 0.32 11.34 1 11 C0.67 9.02 0.34 7.04 0 5 C-0.33 5.66 -0.66 6.32 -1 7 C-1.66 7 -2.32 7 -3 7 C-1.125 1.125 -1.125 1.125 0 0 Z " fill="#5666A9" transform="translate(14,93)"/>
<path d="M0 0 C5.94 1.485 5.94 1.485 12 3 C11.34 3.66 10.68 4.32 10 5 C10.33 5.66 10.66 6.32 11 7 C13.64 7 16.28 7 19 7 C15.54916005 9.30055997 14.12824272 9.27010256 10.0625 9.25 C8.50208984 9.25773437 8.50208984 9.25773437 6.91015625 9.265625 C4.06901505 9.00629936 2.41292366 8.46519702 0 7 C0 4.69 0 2.38 0 0 Z " fill="#5969A9" transform="translate(399,76)"/>
<path d="M0 0 C1.65 0.33 3.3 0.66 5 1 C5.66 2.98 6.32 4.96 7 7 C5.824375 7.12375 5.824375 7.12375 4.625 7.25 C1.85250896 7.72806339 1.85250896 7.72806339 0.6875 10.0625 C0.460625 10.701875 0.23375 11.34125 0 12 C-3.36938898 10.87687034 -4.53174093 9.46825907 -7 7 C-6.67 6.34 -6.34 5.68 -6 5 C-3.4375 4.375 -3.4375 4.375 -1 4 C-1.33 3.67 -1.66 3.34 -2 3 C-1.34 2.01 -0.68 1.02 0 0 Z " fill="#253C95" transform="translate(21,88)"/>
<path d="M0 0 C0 0.99 0 1.98 0 3 C-0.66 3 -1.32 3 -2 3 C-3.33783393 3.31478446 -4.67203709 3.64587656 -6 4 C-5.67 4.66 -5.34 5.32 -5 6 C-4.95977609 8.3329866 -4.95679753 10.66706666 -5 13 C-8.21451269 14.60725635 -11.43612536 14.05748185 -15 14 C-15 10.7 -15 7.4 -15 4 C-13.02 4 -11.04 4 -9 4 C-9.99 3.34 -10.98 2.68 -12 2 C-7.8803623 0.70756464 -4.33168317 -0.26252625 0 0 Z M-14 6 C-14 8.31 -14 10.62 -14 13 C-11.66705225 13.04241723 -9.33297433 13.04092937 -7 13 C-5.71677453 11.9404123 -5.71677453 11.9404123 -5.875 9.5 C-5.71677453 7.0595877 -5.71677453 7.0595877 -7 6 C-9.33297433 5.95907063 -11.66705225 5.95758277 -14 6 Z " fill="#808FC6" transform="translate(349,55)"/>
<path d="M0 0 C2.625 0.375 2.625 0.375 5 1 C4.67 1.66 4.34 2.32 4 3 C6.31 3.33 8.62 3.66 11 4 C11 4.33 11 4.66 11 5 C7.37 5 3.74 5 0 5 C-0.33 7.31 -0.66 9.62 -1 12 C-3.97 12 -6.94 12 -10 12 C-9.34 9.69 -8.68 7.38 -8 5 C-7.34 5 -6.68 5 -6 5 C-5.87625 5.639375 -5.7525 6.27875 -5.625 6.9375 C-5.315625 7.9584375 -5.315625 7.9584375 -5 9 C-4.34 9.33 -3.68 9.66 -3 10 C-2.814375 8.081875 -2.814375 8.081875 -2.625 6.125 C-2.25 2.25 -2.25 2.25 0 0 Z " fill="#5D6CA9" transform="translate(288,30)"/>
<path d="M0 0 C3.53790403 3.69172595 3.59115883 7.09390595 4 12 C2.68 12 1.36 12 0 12 C-0.33 12.66 -0.66 13.32 -1 14 C-1.268125 13.38125 -1.53625 12.7625 -1.8125 12.125 C-2.95556848 9.7004767 -2.95556848 9.7004767 -6 8 C-6 7.01 -6 6.02 -6 5 C-5.195625 4.731875 -4.39125 4.46375 -3.5625 4.1875 C-2.716875 3.795625 -1.87125 3.40375 -1 3 C-0.67 2.01 -0.34 1.02 0 0 Z " fill="#243B90" transform="translate(332,22)"/>
<path d="M0 0 C1.84765625 0.33984375 1.84765625 0.33984375 4.0625 0.9375 C5.16271484 1.22947266 5.16271484 1.22947266 6.28515625 1.52734375 C7.13400391 1.76130859 7.13400391 1.76130859 8 2 C8.33 3.32 8.66 4.64 9 6 C8.01 6.33 7.02 6.66 6 7 C5.67 6.01 5.34 5.02 5 4 C4.01 4 3.02 4 2 4 C1.67 5.32 1.34 6.64 1 8 C-3.455 7.01 -3.455 7.01 -8 6 C-8 11.28 -8 16.56 -8 22 C-8.33 22 -8.66 22 -9 22 C-9 16.39 -9 10.78 -9 5 C-6.03 5 -3.06 5 0 5 C-0.33 3.68 -0.66 2.36 -1 1 C-0.67 0.67 -0.34 0.34 0 0 Z " fill="#7C8DBF" transform="translate(220,55)"/>
<path d="M0 0 C2.64 0 5.28 0 8 0 C8 0.99 8 1.98 8 3 C11.96 3 15.92 3 20 3 C20 3.33 20 3.66 20 4 C15.05 4 10.1 4 5 4 C5 5.65 5 7.3 5 9 C4.01 9.495 4.01 9.495 3 10 C3 9.34 3 8.68 3 8 C2.01 8.33 1.02 8.66 0 9 C0 6.03 0 3.06 0 0 Z " fill="#2E4395" transform="translate(374,56)"/>
<path d="M0 0 C0 0.66 0 1.32 0 2 C0.99 1.67 1.98 1.34 3 1 C3 3.97 3 6.94 3 10 C1.02 10.33 -0.96 10.66 -3 11 C-3.103125 10.236875 -3.20625 9.47375 -3.3125 8.6875 C-4.04364039 5.82940576 -4.76951913 4.84257115 -7 3 C-3.375 0 -3.375 0 0 0 Z " fill="#253B96" transform="translate(236,30)"/>
<path d="M0 0 C3.68802044 1.22934015 4.72356973 2.93859378 7 6 C6 8 6 8 4 10 C4.3185177 12.10820797 4.3185177 12.10820797 5 14 C4.01 14 3.02 14 2 14 C-0.44939347 10.83019669 -2.38390949 8.00458831 -3 4 C-2.34 4 -1.68 4 -1 4 C-0.67 2.68 -0.34 1.36 0 0 Z " fill="#4E5EA4" transform="translate(181,62)"/>
<path d="M0 0 C10.75103676 -0.56364659 10.75103676 -0.56364659 15 3 C16.20272819 5.40545638 16.10071472 6.94996953 16.0625 9.625 C16.05347656 10.44226563 16.04445313 11.25953125 16.03515625 12.1015625 C16.02355469 12.72804688 16.01195312 13.35453125 16 14 C15.67 14 15.34 14 15 14 C14.87625 13.030625 14.7525 12.06125 14.625 11.0625 C14.315625 9.5465625 14.315625 9.5465625 14 8 C13.34 7.67 12.68 7.34 12 7 C11.71125 6.34 11.4225 5.68 11.125 5 C10.1765144 2.79994195 10.1765144 2.79994195 7.875 2.25 C6.946875 2.12625 6.946875 2.12625 6 2 C5.34 3.32 4.68 4.64 4 6 C-2.75 5.125 -2.75 5.125 -5 4 C-5 3.34 -5 2.68 -5 2 C-4.360625 2.165 -3.72125 2.33 -3.0625 2.5 C-1.19173179 3.03926667 -1.19173179 3.03926667 0 3 C0 2.01 0 1.02 0 0 Z " fill="#5F70AC" transform="translate(406,66)"/>
<path d="M0 0 C7.26 0 14.52 0 22 0 C22 1.32 22 2.64 22 4 C17.38 4.33 12.76 4.66 8 5 C8.33 4.01 8.66 3.02 9 2 C6.03 1.67 3.06 1.34 0 1 C0 0.67 0 0.34 0 0 Z " fill="#22398C" transform="translate(298,55)"/>
<path d="M0 0 C0.99 0.33 1.98 0.66 3 1 C3.99 1 4.98 1 6 1 C7.67099977 1.31088368 9.33871537 1.64080332 11 2 C11.33 3.32 11.66 4.64 12 6 C9 8 9 8 5.4375 7.75 C2 7 2 7 0 5 C-0.125 2.375 -0.125 2.375 0 0 Z " fill="#4157A2" transform="translate(271,64)"/>
<path d="M0 0 C-0.33 1.65 -0.66 3.3 -1 5 C-0.01 5 0.98 5 2 5 C1.34 6.32 0.68 7.64 0 9 C-6.27 9 -12.54 9 -19 9 C-19 8.67 -19 8.34 -19 8 C-14.71 8 -10.42 8 -6 8 C-5.67 6.02 -5.34 4.04 -5 2 C-2 0 -2 0 0 0 Z " fill="#425298" transform="translate(223,75)"/>
<path d="M0 0 C0.66 0 1.32 0 2 0 C2 6.93 2 13.86 2 21 C0.02 20.67 -1.96 20.34 -4 20 C-4.33 18.68 -4.66 17.36 -5 16 C-3.68 16 -2.36 16 -1 16 C-0.67 10.72 -0.34 5.44 0 0 Z " fill="#304193" transform="translate(242,56)"/>
<path d="M0 0 C2.625 0.625 2.625 0.625 5 2 C5.8125 4.125 5.8125 4.125 6 6 C6.66 6 7.32 6 8 6 C7.67 6.66 7.34 7.32 7 8 C5.68 7.67 4.36 7.34 3 7 C2.67 8.32 2.34 9.64 2 11 C1.34 10.67 0.68 10.34 0 10 C0 9.01 0 8.02 0 7 C-0.99 6.34 -1.98 5.68 -3 5 C-3 4.01 -3 3.02 -3 2 C-2.01 1.34 -1.02 0.68 0 0 Z " fill="#4357A3" transform="translate(412,67)"/>
<path d="M0 0 C0.33 0.99 0.66 1.98 1 3 C2.32 2.67 3.64 2.34 5 2 C5 3.65 5 5.3 5 7 C5.66 7 6.32 7 7 7 C7.33 6.01 7.66 5.02 8 4 C8 4.99 8 5.98 8 7 C9.423125 7.185625 9.423125 7.185625 10.875 7.375 C14 8 14 8 16 10 C15.39671875 9.91621094 14.7934375 9.83242187 14.171875 9.74609375 C13.37265625 9.64425781 12.5734375 9.54242188 11.75 9.4375 C10.96109375 9.33308594 10.1721875 9.22867188 9.359375 9.12109375 C6.99467126 8.99972651 5.2488963 9.30366743 3 10 C3 9.34 3 8.68 3 8 C2.34 7.67 1.68 7.34 1 7 C0.67 7.99 0.34 8.98 0 10 C-0.33 9.67 -0.66 9.34 -1 9 C-0.91062197 7.47480724 -0.75462854 5.95318071 -0.5625 4.4375 C-0.46066406 3.61121094 -0.35882813 2.78492188 -0.25390625 1.93359375 C-0.17011719 1.29550781 -0.08632813 0.65742187 0 0 Z " fill="#6473B8" transform="translate(270,57)"/>
<path d="M0 0 C4.29 0 8.58 0 13 0 C13 1.65 13 3.3 13 5 C8.71 5 4.42 5 0 5 C0.99 4.34 1.98 3.68 3 3 C3 2.34 3 1.68 3 1 C2.01 0.67 1.02 0.34 0 0 Z " fill="#21368C" transform="translate(379,67)"/>
<path d="M0 0 C1.65 0.33 3.3 0.66 5 1 C0.87675353 5.25209792 -3.51282966 9.13635705 -8 13 C-8.33 12.01 -8.66 11.02 -9 10 C-9.66 10 -10.32 10 -11 10 C-11 9.01 -11 8.02 -11 7 C-10.34 7 -9.68 7 -9 7 C-9 7.66 -9 8.32 -9 9 C-8.34 9 -7.68 9 -7 9 C-7 8.01 -7 7.02 -7 6 C-5.68 5.67 -4.36 5.34 -3 5 C-3.66 4.34 -4.32 3.68 -5 3 C-4.360625 2.87625 -3.72125 2.7525 -3.0625 2.625 C-2.381875 2.41875 -1.70125 2.2125 -1 2 C-0.67 1.34 -0.34 0.68 0 0 Z " fill="#596BAB" transform="translate(59,64)"/>
<path d="M0 0 C2.64 0 5.28 0 8 0 C8 0.66 8 1.32 8 2 C9.65 1.34 11.3 0.68 13 0 C12.67 2.97 12.34 5.94 12 9 C11.61199219 8.35546875 11.22398437 7.7109375 10.82421875 7.046875 C9.16053515 4.79121416 9.16053515 4.79121416 6.51953125 4.390625 C5.17955078 4.32101563 5.17955078 4.32101563 3.8125 4.25 C2.46091797 4.16492187 2.46091797 4.16492187 1.08203125 4.078125 C0.39496094 4.05234375 -0.29210937 4.0265625 -1 4 C-0.01 3.34 0.98 2.68 2 2 C1.34 1.34 0.68 0.68 0 0 Z " fill="#25398D" transform="translate(290,30)"/>
<path d="M0 0 C4 4.75 4 4.75 4 7 C3.01 7 2.02 7 1 7 C1 7.66 1 8.32 1 9 C-1.64 9 -4.28 9 -7 9 C-7.33 7.68 -7.66 6.36 -8 5 C-6.865625 4.731875 -5.73125 4.46375 -4.5625 4.1875 C-3.386875 3.795625 -2.21125 3.40375 -1 3 C-0.67 2.01 -0.34 1.02 0 0 Z " fill="#233A8F" transform="translate(286,74)"/>
<path d="M0 0 C1.134375 0.020625 2.26875 0.04125 3.4375 0.0625 C4.4275 3.0325 5.4175 6.0025 6.4375 9.0625 C5.4475 9.5575 5.4475 9.5575 4.4375 10.0625 C3.4475 7.7525 2.4575 5.4425 1.4375 3.0625 C0.1175 3.3925 -1.2025 3.7225 -2.5625 4.0625 C-2.541875 5.031875 -2.52125 6.00125 -2.5 7 C-2.5625 10.0625 -2.5625 10.0625 -3.5625 11.0625 C-6.23308851 11.20365161 -8.88682238 11.10497107 -11.5625 11.0625 C-11.5625 10.7325 -11.5625 10.4025 -11.5625 10.0625 C-9.2525 10.0625 -6.9425 10.0625 -4.5625 10.0625 C-4.57410156 9.42441406 -4.58570313 8.78632812 -4.59765625 8.12890625 C-4.60667969 7.30261719 -4.61570312 6.47632813 -4.625 5.625 C-4.63660156 4.80128906 -4.64820313 3.97757813 -4.66015625 3.12890625 C-4.49001835 -0.47121162 -3.73687179 0.06555915 0 0 Z " fill="#7B89BB" transform="translate(325.5625,30.9375)"/>
<path d="M0 0 C0.33 0.99 0.66 1.98 1 3 C1.66 2.01 2.32 1.02 3 0 C5 1.3125 5 1.3125 7 3 C7 3.99 7 4.98 7 6 C0.375 8 0.375 8 -3 8 C-3 6.68 -3 5.36 -3 4 C-2.34 4 -1.68 4 -1 4 C-0.67 2.68 -0.34 1.36 0 0 Z " fill="#3C509C" transform="translate(172,24)"/>
<path d="M0 0 C0.99 0 1.98 0 3 0 C3 1.98 3 3.96 3 6 C1.35 6.66 -0.3 7.32 -2 8 C-1.9071875 9.175625 -1.9071875 9.175625 -1.8125 10.375 C-1.874375 11.24125 -1.93625 12.1075 -2 13 C-2.99 13.66 -3.98 14.32 -5 15 C-5.33 15.66 -5.66 16.32 -6 17 C-7 16 -7 16 -7.0625 13.4375 C-7.041875 12.633125 -7.02125 11.82875 -7 11 C-6.01 10.67 -5.02 10.34 -4 10 C-3.67 8.02 -3.34 6.04 -3 4 C-1.68 4.33 -0.36 4.66 1 5 C0.67 3.35 0.34 1.7 0 0 Z " fill="#243A8D" transform="translate(348,63)"/>
<path d="M0 0 C0.99 1.32 1.98 2.64 3 4 C2.01 4 1.02 4 0 4 C0.66 5.32 1.32 6.64 2 8 C0.8803014 9.00593243 -0.2459412 10.0045849 -1.375 11 C-2.00148438 11.556875 -2.62796875 12.11375 -3.2734375 12.6875 C-5 14 -5 14 -7 14 C-5.53967505 8.68972746 -3.01679014 4.53669968 0 0 Z " fill="#7E86B7" transform="translate(7,105)"/>
<path d="M0 0 C2.31 0.33 4.62 0.66 7 1 C7 3.31 7 5.62 7 8 C5.02 7.34 3.04 6.68 1 6 C0.67 4.02 0.34 2.04 0 0 Z " fill="#384C9B" transform="translate(286,71)"/>
<path d="M0 0 C1.66482422 -0.00773438 1.66482422 -0.00773438 3.36328125 -0.015625 C6.7671616 0.25636544 9.50761732 1.03769979 12.6875 2.25 C12.6875 2.58 12.6875 2.91 12.6875 3.25 C5.2969524 3.39715692 -1.95674835 2.95776992 -9.3125 2.25 C-5.77580969 -0.10779354 -4.18693306 -0.01931688 0 0 Z " fill="#919BC8" transform="translate(93.3125,1.75)"/>
<path d="M0 0 C-0.33 1.65 -0.66 3.3 -1 5 C-4.63 5 -8.26 5 -12 5 C-12.33 4.34 -12.66 3.68 -13 3 C-11.2092015 2.49689942 -9.41733089 1.99761372 -7.625 1.5 C-6.62726563 1.2215625 -5.62953125 0.943125 -4.6015625 0.65625 C-2 0 -2 0 0 0 Z " fill="#243A8F" transform="translate(254,78)"/>
<path d="M0 0 C5.61 0 11.22 0 17 0 C17 0.33 17 0.66 17 1 C12.545 1.495 12.545 1.495 8 2 C8.33 2.66 8.66 3.32 9 4 C8.01 4.495 8.01 4.495 7 5 C6.53348793 7.12576782 6.53348793 7.12576782 6.375 9.5625 C6.30023438 10.38878906 6.22546875 11.21507812 6.1484375 12.06640625 C6.09945313 12.70449219 6.05046875 13.34257812 6 14 C5.67 14 5.34 14 5 14 C4.97421875 13.15695313 4.9484375 12.31390625 4.921875 11.4453125 C4.83679688 9.80175781 4.83679688 9.80175781 4.75 8.125 C4.70359375 7.03445312 4.6571875 5.94390625 4.609375 4.8203125 C4.40828125 3.88960937 4.2071875 2.95890625 4 2 C2.68 1.34 1.36 0.68 0 0 Z " fill="#1D3481" transform="translate(315,12)"/>
<path d="M0 0 C4.62 0 9.24 0 14 0 C14 1.32 14 2.64 14 4 C11.36 4 8.72 4 6 4 C6 3.01 6 2.02 6 1 C4.02 1 2.04 1 0 1 C0 0.67 0 0.34 0 0 Z " fill="#213688" transform="translate(380,79)"/>
<path d="M0 0 C0.33 0.66 0.66 1.32 1 2 C3.02463255 2.65213292 3.02463255 2.65213292 5 3 C5 4.32 5 5.64 5 7 C2.69 7 0.38 7 -2 7 C-2.33 6.01 -2.66 5.02 -3 4 C-1.5625 1.8125 -1.5625 1.8125 0 0 Z " fill="#384996" transform="translate(346,77)"/>
<path d="M0 0 C1.5 1.375 1.5 1.375 3 3 C3 3.66 3 4.32 3 5 C3.66 5 4.32 5 5 5 C4.34 6.32 3.68 7.64 3 9 C1.68 8.67 0.36 8.34 -1 8 C-1.33 5.69 -1.66 3.38 -2 1 C-1.34 0.67 -0.68 0.34 0 0 Z " fill="#253D91" transform="translate(186,69)"/>
<path d="M0 0 C0.66 0.66 1.32 1.32 2 2 C2.99 2 3.98 2 5 2 C4.54625 2.7425 4.0925 3.485 3.625 4.25 C2.31359204 6.46930578 1.11719197 8.67967822 0 11 C-1.77084117 8.29165469 -2.01052504 7.10735541 -1.6875 3.8125 C-1 1 -1 1 0 0 Z " fill="#5765A8" transform="translate(400,57)"/>
<path d="M0 0 C0.66 0.66 1.32 1.32 2 2 C1.67 2.33 1.34 2.66 1 3 C0.95919217 4.99958364 0.95745644 7.00045254 1 9 C0.01 9 -0.98 9 -2 9 C-2 8.34 -2 7.68 -2 7 C-2.66 7 -3.32 7 -4 7 C-3.67 5.02 -3.34 3.04 -3 1 C-2.01 0.67 -1.02 0.34 0 0 Z " fill="#25378C" transform="translate(291,16)"/>
<path d="M0 0 C2.89932357 2.39509338 3.50168276 4.31245243 4 8 C2.68 7.67 1.36 7.34 0 7 C0 7.66 0 8.32 0 9 C-1.32 8.67 -2.64 8.34 -4 8 C-2.87548273 5.0280615 -1.77706209 2.66559313 0 0 Z " fill="#5263A9" transform="translate(91,68)"/>
<path d="M0 0 C7.66742597 4.81776765 7.66742597 4.81776765 9 10 C5 10 5 10 3.25 8.75 C2 7 2 7 2 3 C1.34 3 0.68 3 0 3 C0 2.01 0 1.02 0 0 Z " fill="#6572A9" transform="translate(122,13)"/>
<path d="M0 0 C2.5 2.3125 2.5 2.3125 5 5 C5 5.99 5 6.98 5 8 C3.33333333 8 1.66666667 8 0 8 C-0.33 8.99 -0.66 9.98 -1 11 C-1.99 9.35 -2.98 7.7 -4 6 C-1.525 6.495 -1.525 6.495 1 7 C0.67 4.69 0.34 2.38 0 0 Z " fill="#7988BD" transform="translate(259,19)"/>
<path d="M0 0 C0.33 0 0.66 0 1 0 C1 3.3 1 6.6 1 10 C0.34 10 -0.32 10 -1 10 C-1.33 12.31 -1.66 14.62 -2 17 C-2.33 17 -2.66 17 -3 17 C-3.05395478 15.37536158 -3.09277195 13.75021459 -3.125 12.125 C-3.14820313 11.22007813 -3.17140625 10.31515625 -3.1953125 9.3828125 C-3 7 -3 7 -1 5 C-0.35232207 2.42938689 -0.35232207 2.42938689 0 0 Z " fill="#223993" transform="translate(137,43)"/>
<path d="M0 0 C0.33 0.99 0.66 1.98 1 3 C1.66 3 2.32 3 3 3 C3.33 3.99 3.66 4.98 4 6 C3.4225 6.2475 2.845 6.495 2.25 6.75 C-0.3002997 8.16683317 -2.01785701 9.87627537 -4 12 C-3.33501617 7.61110675 -1.81242323 4.0188515 0 0 Z " fill="#6173B2" transform="translate(286,20)"/>
<path d="M0 0 C0.66 0.33 1.32 0.66 2 1 C1.34 1.5775 0.68 2.155 0 2.75 C-2.44290923 4.99653977 -2.44290923 4.99653977 -2 9 C-2.639375 9.103125 -3.27875 9.20625 -3.9375 9.3125 C-4.9584375 9.6528125 -4.9584375 9.6528125 -6 10 C-6.33 10.99 -6.66 11.98 -7 13 C-7.66 13 -8.32 13 -9 13 C-7.47987323 7.59510481 -3.72614782 4.01507372 0 0 Z " fill="#7884B4" transform="translate(63,13)"/>
<path d="M0 0 C-1.28519565 2.86697492 -2.57129254 4.97607712 -5 7 C-5.66 7 -6.32 7 -7 7 C-7 5.02 -7 3.04 -7 1 C-4.53721199 -0.231394 -2.7204945 -0.07159196 0 0 Z " fill="#4C5CA0" transform="translate(49,76)"/>
<path d="M0 0 C0.99 0.33 1.98 0.66 3 1 C3 1.66 3 2.32 3 3 C4.32 3.33 5.64 3.66 7 4 C6.01 4.495 6.01 4.495 5 5 C4.67 5.99 4.34 6.98 4 8 C3.34 8 2.68 8 2 8 C1.34 6.68 0.68 5.36 0 4 C-0.66 4 -1.32 4 -2 4 C-2 3.01 -2 2.02 -2 1 C-1.34 0.67 -0.68 0.34 0 0 Z " fill="#283C86" transform="translate(273,56)"/>
<path d="M0 0 C2 1.75 2 1.75 4 4 C4 5.32 4 6.64 4 8 C1.69 8 -0.62 8 -3 8 C-2.01 7.67 -1.02 7.34 0 7 C-0.185625 6.030625 -0.37125 5.06125 -0.5625 4.0625 C-0.706875 3.051875 -0.85125 2.04125 -1 1 C-0.67 0.67 -0.34 0.34 0 0 Z " fill="#2E4289" transform="translate(305,33)"/>
<path d="M0 0 C0.33 0.66 0.66 1.32 1 2 C1.66 2 2.32 2 3 2 C3 5.3 3 8.6 3 12 C1.68 12.33 0.36 12.66 -1 13 C-0.649375 12.2575 -0.29875 11.515 0.0625 10.75 C1.05379868 7.84219054 1.23956095 6.76517442 0 4 C-0.99 3.34 -1.98 2.68 -3 2 C-2.01 2 -1.02 2 0 2 C0 1.34 0 0.68 0 0 Z " fill="#6D7FB7" transform="translate(110,25)"/>
<path d="M0 0 C0.99 0.66 1.98 1.32 3 2 C2.6875 3.9375 2.6875 3.9375 2 6 C1.01 6.33 0.02 6.66 -1 7 C-1 7.66 -1 8.32 -1 9 C-0.01 9.33 0.98 9.66 2 10 C1.34 10.66 0.68 11.32 0 12 C-4 7.25 -4 7.25 -4 5 C-2.68 5.33 -1.36 5.66 0 6 C0 4.68 0 3.36 0 2 C0 1.34 0 0.68 0 0 Z " fill="#7381B5" transform="translate(227,21)"/>
<path d="M0 0 C-3.465 2.97 -3.465 2.97 -7 6 C-7.66 5.67 -8.32 5.34 -9 5 C-9.625 2.9375 -9.625 2.9375 -10 1 C-2.8 -1.4 -2.8 -1.4 0 0 Z " fill="#6F7CB5" transform="translate(36,90)"/>
<path d="M0 0 C0 1.65 0 3.3 0 5 C-3.63 4.67 -7.26 4.34 -11 4 C-7.13591159 1.10193369 -4.79603862 0 0 0 Z " fill="#2C4292" transform="translate(208,36)"/>
<path d="M0 0 C1.6875 1.75 1.6875 1.75 3 4 C2.6875 6.25 2.6875 6.25 2 8 C-3.75 3.25 -3.75 3.25 -6 1 C-3.92446352 0.4465236 -2.15634036 0 0 0 Z " fill="#5162A5" transform="translate(222,12)"/>
<path d="M0 0 C0.66 0.66 1.32 1.32 2 2 C1.625 4.125 1.625 4.125 1 6 C0.34 6 -0.32 6 -1 6 C-1.33 6.99 -1.66 7.98 -2 9 C-2.99 9.33 -3.98 9.66 -5 10 C-3.66511872 6.40608886 -2.03977277 3.24509304 0 0 Z " fill="#6C77B1" transform="translate(43,43)"/>
<path d="M0 0 C-1.28519565 2.86697492 -2.57129254 4.97607712 -5 7 C-5.66 7 -6.32 7 -7 7 C-7 5.35 -7 3.7 -7 2 C-2.25 0 -2.25 0 0 0 Z " fill="#5E6DA8" transform="translate(96,36)"/>
<path d="M0 0 C2.625 0.375 2.625 0.375 5 1 C4.67 1.66 4.34 2.32 4 3 C6.31 3.33 8.62 3.66 11 4 C11 4.33 11 4.66 11 5 C9.20906809 5.08086147 7.41710372 5.13912702 5.625 5.1875 C4.12839844 5.23970703 4.12839844 5.23970703 2.6015625 5.29296875 C1.74304688 5.19628906 0.88453125 5.09960938 0 5 C-0.66 4.01 -1.32 3.02 -2 2 C-1.34 1.34 -0.68 0.68 0 0 Z " fill="#465BA5" transform="translate(288,30)"/>
<path d="M0 0 C0.33 0.66 0.66 1.32 1 2 C1.66 2 2.32 2 3 2 C3.33 3.98 3.66 5.96 4 8 C1.625 7.3125 1.625 7.3125 -1 6 C-2.3125 3.375 -2.3125 3.375 -3 1 C-2.01 0.67 -1.02 0.34 0 0 Z " fill="#364B9F" transform="translate(332,26)"/>
<path d="M0 0 C0.99 0.66 1.98 1.32 3 2 C2.67 3.65 2.34 5.3 2 7 C0.35 6.67 -1.3 6.34 -3 6 C-3 4.68 -3 3.36 -3 2 C-2.01 2 -1.02 2 0 2 C0 1.34 0 0.68 0 0 Z " fill="#2C3E8F" transform="translate(262,25)"/>
<path d="M0 0 C0.33 0.99 0.66 1.98 1 3 C2.32 2.67 3.64 2.34 5 2 C5 3.32 5 4.64 5 6 C4.01 5.67 3.02 5.34 2 5 C1.67 6.65 1.34 8.3 1 10 C0.34 9.67 -0.32 9.34 -1 9 C-0.67 6.03 -0.34 3.06 0 0 Z " fill="#5E6FAD" transform="translate(270,57)"/>
<path d="M0 0 C0.66 0.33 1.32 0.66 2 1 C2.40729228 3.32156597 2.74438677 5.6568787 3 8 C1.35 7.67 -0.3 7.34 -2 7 C-2 5.68 -2 4.36 -2 3 C-1.34 3 -0.68 3 0 3 C0 2.01 0 1.02 0 0 Z " fill="#243A8F" transform="translate(13,97)"/>
<path d="M0 0 C1.32 0.66 2.64 1.32 4 2 C4 3.32 4 4.64 4 6 C2.02 6 0.04 6 -2 6 C-2.33 5.01 -2.66 4.02 -3 3 C-2.01 2.34 -1.02 1.68 0 1 C0 0.67 0 0.34 0 0 Z " fill="#24398D" transform="translate(346,56)"/>
<path d="M0 0 C0.66 0 1.32 0 2 0 C1.50168276 3.68754757 0.89932357 5.60490662 -2 8 C-2.99 7.67 -3.98 7.34 -5 7 C-4.67 6.34 -4.34 5.68 -4 5 C-3.34 5 -2.68 5 -2 5 C-1.34 3.35 -0.68 1.7 0 0 Z " fill="#263B92" transform="translate(85,82)"/>
<path d="M0 0 C1.98 0 3.96 0 6 0 C5.6875 1.9375 5.6875 1.9375 5 4 C4.01 4.33 3.02 4.66 2 5 C1.01 4.34 0.02 3.68 -1 3 C-0.67 2.01 -0.34 1.02 0 0 Z " fill="#243C90" transform="translate(415,74)"/>
<path d="M0 0 C1.65 0.33 3.3 0.66 5 1 C3.35 2.65 1.7 4.3 0 6 C-2.475 5.01 -2.475 5.01 -5 4 C-4.360625 3.71125 -3.72125 3.4225 -3.0625 3.125 C-0.84793921 2.17176549 -0.84793921 2.17176549 0 0 Z " fill="#5263A4" transform="translate(59,64)"/>
<path d="M0 0 C2 2 2 2 2.1953125 3.9453125 C2.13020833 5.96354167 2.06510417 7.98177083 2 10 C1.67 10 1.34 10 1 10 C1 8.35 1 6.7 1 5 C0.01 5 -0.98 5 -2 5 C-2.33 5.66 -2.66 6.32 -3 7 C-3 5.68 -3 4.36 -3 3 C-2.34 3 -1.68 3 -1 3 C-0.67 2.01 -0.34 1.02 0 0 Z " fill="#4F63A7" transform="translate(350,58)"/>
<path d="M0 0 C0.99 0.495 0.99 0.495 2 1 C2 1.66 2 2.32 2 3 C3.32 3 4.64 3 6 3 C5.34 4.65 4.68 6.3 4 8 C3.01 7.67 2.02 7.34 1 7 C0.67 4.69 0.34 2.38 0 0 Z " fill="#374D9E" transform="translate(281,32)"/>
<path d="M0 0 C1.05566977 3.16700931 0.97926374 3.96428241 0 7 C-0.33 7.66 -0.66 8.32 -1 9 C-5 4.25 -5 4.25 -5 2 C-4.360625 1.855625 -3.72125 1.71125 -3.0625 1.5625 C-1.02454854 1.18992819 -1.02454854 1.18992819 0 0 Z " fill="#5C6EAB" transform="translate(265,29)"/>
<path d="M0 0 C1.9375 0.625 1.9375 0.625 4 2 C4.75 5.125 4.75 5.125 5 8 C3.0625 7.375 3.0625 7.375 1 6 C0.25 2.875 0.25 2.875 0 0 Z " fill="#566AA6" transform="translate(237,75)"/>
<path d="M0 0 C1.32 0.99 2.64 1.98 4 3 C2.35 4.65 0.7 6.3 -1 8 C-1.66 7.67 -2.32 7.34 -3 7 C-2.01 4.69 -1.02 2.38 0 0 Z " fill="#6D7CB2" transform="translate(23,94)"/>
<path d="M0 0 C1.32 0 2.64 0 4 0 C4 1.98 4 3.96 4 6 C3.67 5.34 3.34 4.68 3 4 C1.68 4 0.36 4 -1 4 C-0.67 2.68 -0.34 1.36 0 0 Z " fill="#263888" transform="translate(416,55)"/>
<path d="M0 0 C0.66 0.33 1.32 0.66 2 1 C-0.25 3.5625 -0.25 3.5625 -3 6 C-4.32 5.67 -5.64 5.34 -7 5 C-4.69 3.35 -2.38 1.7 0 0 Z " fill="#7280B4" transform="translate(72,7)"/>
<path d="M0 0 C0.66 0 1.32 0 2 0 C2 1.32 2 2.64 2 4 C2.99 4 3.98 4 5 4 C5 4.66 5 5.32 5 6 C2.03 5.505 2.03 5.505 -1 5 C-1 2 -1 2 0 0 Z " fill="#213D92" transform="translate(73,8)"/>
<path d="M0 0 C1.32 0.33 2.64 0.66 4 1 C2.515 3.475 2.515 3.475 1 6 C0.01 5.67 -0.98 5.34 -2 5 C-1.34 3.35 -0.68 1.7 0 0 Z " fill="#495A9B" transform="translate(259,77)"/>
<path d="M0 0 C0.66 1.32 1.32 2.64 2 4 C0.68 5.32 -0.64 6.64 -2 8 C-2.66 7.67 -3.32 7.34 -4 7 C-3.67 5.68 -3.34 4.36 -3 3 C-2.34 3 -1.68 3 -1 3 C-0.67 2.01 -0.34 1.02 0 0 Z " fill="#6C77B8" transform="translate(72,53)"/>
<path d="M0 0 C-1.6454378 1.68762851 -3.31288577 3.3540349 -5 5 C-5.33 5 -5.66 5 -6 5 C-6 3.35 -6 1.7 -6 0 C-3 -1 -3 -1 0 0 Z " fill="#5E6BAA" transform="translate(80,51)"/>
<path d="M0 0 C1.67542976 0.28604898 3.34385343 0.61781233 5 1 C3.25 4.875 3.25 4.875 1 6 C0.34 4.35 -0.32 2.7 -1 1 C-0.67 0.67 -0.34 0.34 0 0 Z " fill="#495EA1" transform="translate(98,29)"/>
<path d="M0 0 C1.134375 0.020625 2.26875 0.04125 3.4375 0.0625 C3.7675 0.7225 4.0975 1.3825 4.4375 2.0625 C1.0625 2.6875 1.0625 2.6875 -2.5625 3.0625 C-3.2225 2.4025 -3.8825 1.7425 -4.5625 1.0625 C-3.5625 0.0625 -3.5625 0.0625 0 0 Z " fill="#223D96" transform="translate(326.5625,12.9375)"/>
<path d="M0 0 C0 1.65 0 3.3 0 5 C-1.65 5.33 -3.3 5.66 -5 6 C-5 5.34 -5 4.68 -5 4 C-4.34 4 -3.68 4 -3 4 C-3 3.01 -3 2.02 -3 1 C-1 0 -1 0 0 0 Z " fill="#475794" transform="translate(421,77)"/>
<path d="M0 0 C1.32 0 2.64 0 4 0 C3.67 1.32 3.34 2.64 3 4 C1.35 4.33 -0.3 4.66 -2 5 C-1.34 3.35 -0.68 1.7 0 0 Z " fill="#23388A" transform="translate(282,67)"/>
<path d="M0 0 C0.66 0.33 1.32 0.66 2 1 C1.43628586 4.26954202 0.50037734 5.82575883 -2 8 C-1.125 1.125 -1.125 1.125 0 0 Z " fill="#273D88" transform="translate(133,63)"/>
<path d="M0 0 C0.66 0.33 1.32 0.66 2 1 C2 2.65 2 4.3 2 6 C0.68 6 -0.64 6 -2 6 C-1.34 4.02 -0.68 2.04 0 0 Z " fill="#485CA5" transform="translate(267,34)"/>
<path d="M0 0 C0.33 0 0.66 0 1 0 C1.3125 2.3125 1.3125 2.3125 1 5 C-1.5 6.8125 -1.5 6.8125 -4 8 C-2.87548273 5.0280615 -1.77706209 2.66559313 0 0 Z " fill="#7583B6" transform="translate(53,26)"/>
<path d="M0 0 C2.475 0.495 2.475 0.495 5 1 C4.67 2.32 4.34 3.64 4 5 C3.34 5 2.68 5 2 5 C1.34 3.35 0.68 1.7 0 0 Z " fill="#6372AF" transform="translate(185,77)"/>
<path d="M0 0 C1.98 0.99 1.98 0.99 4 2 C4 3.65 4 5.3 4 7 C2 5.1875 2 5.1875 0 3 C0 2.01 0 1.02 0 0 Z " fill="#56659E" transform="translate(131,25)"/>
<path d="M0 0 C0.99 1.32 1.98 2.64 3 4 C2.34 4 1.68 4 1 4 C1 4.66 1 5.32 1 6 C-0.32 5.34 -1.64 4.68 -3 4 C-2.01 2.68 -1.02 1.36 0 0 Z " fill="#213789" transform="translate(226,21)"/>
</svg>
