<?xml version="1.0" encoding="UTF-8"?>
<svg version="1.1" xmlns="http://www.w3.org/2000/svg" width="225" height="225">
<path d="M0 0 C0.87351207 -0.00497769 1.74702414 -0.00995538 2.64700627 -0.01508391 C5.56776933 -0.02564346 8.48711726 -0.00052235 11.40777588 0.02450562 C13.50391265 0.02427888 15.60005016 0.02186421 17.69618225 0.01742554 C23.38399978 0.01171911 29.0713048 0.03701035 34.75902462 0.06810045 C40.70647839 0.09563646 46.65393285 0.09563991 52.60144043 0.09881592 C62.58499019 0.10801859 72.56834828 0.13555138 82.55181885 0.1758728 C96.64670913 0.2327462 110.74150311 0.25502763 124.83649015 0.2711575 C134.58635151 0.28359974 144.33619816 0.30428386 154.08604145 0.32653761 C156.45387122 0.33190421 158.82170152 0.33704033 161.18953228 0.34194994 C167.93494217 0.35622708 174.68029665 0.37561691 181.4256649 0.40342712 C183.47277192 0.41116711 185.51988608 0.4172209 187.56700325 0.42150497 C190.3511076 0.42769478 193.1351154 0.44003387 195.91918945 0.45410156 C197.14746983 0.4548482 197.14746983 0.4548482 198.40056396 0.45560992 C203.97709452 0.49373525 203.97709452 0.49373525 206.20562744 1.60800171 C206.22875356 10.32644173 206.2465439 19.04487127 206.25743961 27.76333523 C206.26266786 31.81125913 206.26976443 35.85916211 206.28106689 39.90707397 C206.29189787 43.81036142 206.29790472 47.7136287 206.30050468 51.61693001 C206.30235855 53.10933818 206.30597844 54.60174519 206.3113575 56.09414482 C206.31857075 58.1774831 206.31961827 60.26073702 206.31915283 62.34408569 C206.32137344 63.53211288 206.32359406 64.72014008 206.32588196 65.94416809 C206.20562744 68.60800171 206.20562744 68.60800171 205.20562744 69.60800171 C202.388446 69.70813487 199.59570655 69.74239291 196.77801514 69.73498535 C195.88356831 69.73654534 194.98912148 69.73810533 194.06757021 69.7397126 C191.04651563 69.74372662 188.02551059 69.7405314 185.00445557 69.73739624 C182.84832225 69.7387501 180.69218916 69.74052995 178.53605652 69.7427063 C172.66226324 69.74728242 166.78848744 69.74549034 160.91469383 69.74232721 C154.78254523 69.73980453 148.65039817 69.74214089 142.51824951 69.74371338 C132.21823863 69.74553534 121.9182349 69.74312806 111.6182251 69.7383728 C99.69114054 69.73293013 87.76407307 69.73469277 75.83698893 69.74019921 C65.61707872 69.74472957 55.39717367 69.74538126 45.17726278 69.74276054 C39.06440545 69.74119734 32.95155616 69.74100516 26.83869934 69.74429703 C21.093244 69.74717463 15.3478108 69.7452021 9.60235786 69.73940277 C7.48710225 69.73807458 5.37184478 69.73847029 3.25658989 69.74066544 C0.38211423 69.74337462 -2.49228926 69.73999867 -5.36676025 69.73498535 C-6.63954433 69.73833143 -6.63954433 69.73833143 -7.93804121 69.74174511 C-13.68022273 69.72215153 -13.68022273 69.72215153 -14.79437256 68.60800171 C-14.91987166 66.67168892 -14.97515765 64.73079305 -15.00311279 62.7906189 C-15.02240341 61.54552551 -15.04169403 60.30043213 -15.06156921 59.01760864 C-15.07637666 57.64670852 -15.09015004 56.27579689 -15.10296631 54.90487671 C-15.10953814 54.21698311 -15.11610996 53.52908951 -15.12288094 52.82035065 C-15.15550563 49.17716021 -15.17994521 45.53399934 -15.19940186 41.89071655 C-15.21720026 38.87563405 -15.25198857 35.86148953 -15.30194092 32.84677124 C-15.36216777 29.20802159 -15.39288088 25.57014019 -15.40257454 21.93091583 C-15.41112937 20.54498451 -15.42994903 19.15907639 -15.45931816 17.77342987 C-15.4982755 15.83030187 -15.49568146 13.8864764 -15.49139404 11.94296265 C-15.50170151 10.83789368 -15.51200897 9.73282471 -15.52262878 8.5942688 C-14.68915859 5.17656426 -13.37802734 3.80934411 -10.64414698 1.65676785 C-7.24038385 -0.27306288 -3.82827531 -0.06561605 0 0 Z " fill="#FAF31C" transform="translate(16.79437255859375,77.39199829101563)"/>
<path d="M0 0 C3.96 0 7.92 0 12 0 C12.33 1.32 12.66 2.64 13 4 C13.969375 4.144375 14.93875 4.28875 15.9375 4.4375 C19 5 19 5 20 6 C20.66 5.01 21.32 4.02 22 3 C24.64 3.33 27.28 3.66 30 4 C30 4.66 30 5.32 30 6 C30.80824219 5.94199219 31.61648437 5.88398437 32.44921875 5.82421875 C35.69558355 5.68715872 38.76856652 5.642371 42 6 C44.625 8.4375 44.625 8.4375 47 11 C51.66178793 12.25254444 56.31556192 12.18208431 61.0625 11.5 C68.30296101 10.4637746 75.74254087 11.45839857 83 12 C83.33 9.69 83.66 7.38 84 5 C96.87 5.495 96.87 5.495 110 6 C110.33 4.35 110.66 2.7 111 1 C110.01 0.505 110.01 0.505 109 0 C116.1531272 -0.12695099 123.30596306 -0.21441503 130.45996094 -0.2746582 C132.89268857 -0.29977629 135.32534092 -0.33387704 137.7578125 -0.37719727 C141.25800159 -0.43796444 144.7571915 -0.46623783 148.2578125 -0.48828125 C149.34240753 -0.51408768 150.42700256 -0.5398941 151.54446411 -0.56648254 C159.9858505 -0.56960611 159.9858505 -0.56960611 163.73388672 2.53051758 C164.4817041 3.34544678 165.22952148 4.16037598 166 5 C165.814375 5.804375 165.62875 6.60875 165.4375 7.4375 C165.293125 8.283125 165.14875 9.12875 165 10 C166.17320459 11.3819554 166.17320459 11.3819554 169.4375 11.375 C170.613125 11.58125 171.78875 11.7875 173 12 C175.32520903 15.48781355 175.19013819 16.78036679 175.0625 20.875 C174.97224944 24.00630204 174.92940054 26.68387632 175.61328125 29.74609375 C175.80470703 30.86177734 175.80470703 30.86177734 176 32 C174.125 34.1875 174.125 34.1875 172 36 C171.67 36.66 171.34 37.32 171 38 C129.75 38 88.5 38 46 38 C46.66 37.34 47.32 36.68 48 36 C44.00967159 35.39735687 44.00967159 35.39735687 40 35 C39.67 35.33 39.34 35.66 39 36 C37.189715 36.09879565 35.37547273 36.12971514 33.5625 36.125 C32.57378906 36.12757812 31.58507813 36.13015625 30.56640625 36.1328125 C28 36 28 36 26 35 C26 33.02 26 31.04 26 29 C25.34 29 24.68 29 24 29 C24 30.65 24 32.3 24 34 C21.51594043 35.24202979 19.83102337 35.09908841 17.0625 35.0625 C16.18722656 35.05347656 15.31195313 35.04445312 14.41015625 35.03515625 C13.61480469 35.02355469 12.81945312 35.01195312 12 35 C9.37886292 35 7.49064888 35.31292445 5 36 C5 36.66 5 37.32 5 38 C3.68 38 2.36 38 1 38 C1 37.34 1 36.68 1 36 C0.25234375 36.04640625 -0.4953125 36.0928125 -1.265625 36.140625 C-9.25453113 36.43341214 -9.25453113 36.43341214 -12.6875 34.4375 C-14.46422538 31.13786716 -14.34179024 28.69133463 -14 25 C-13.67 24.34 -13.34 23.68 -13 23 C-12.34 23 -11.68 23 -11 23 C-10.94392578 21.67935547 -10.94392578 21.67935547 -10.88671875 20.33203125 C-10.78810547 18.58986328 -10.78810547 18.58986328 -10.6875 16.8125 C-10.62949219 15.66394531 -10.57148438 14.51539062 -10.51171875 13.33203125 C-9.97235751 9.82000728 -9.1005277 7.83700902 -7 5 C-4.04335481 3.5216774 -1.25770263 3.93967217 2 4 C1.34 2.68 0.68 1.36 0 0 Z " fill="#F3EF31" transform="translate(31,81)"/>
<path d="M0 0 C62.04 0 124.08 0 188 0 C186.68 2.97 185.36 5.94 184 9 C183.34 11.31 182.68 13.62 182 16 C119.96 16 57.92 16 -6 16 C-5.01 13.69 -4.02 11.38 -3 9 C-2.01 6.03 -1.02 3.06 0 0 Z " fill="#121103" transform="translate(21,120)"/>
<path d="M0 0 C7.1531272 -0.12695099 14.30596306 -0.21441503 21.45996094 -0.2746582 C23.89268857 -0.29977629 26.32534092 -0.33387704 28.7578125 -0.37719727 C32.25800159 -0.43796444 35.7571915 -0.46623783 39.2578125 -0.48828125 C40.34240753 -0.51408768 41.42700256 -0.5398941 42.54446411 -0.56648254 C50.9858505 -0.56960611 50.9858505 -0.56960611 54.73388672 2.53051758 C55.85561279 3.75291138 55.85561279 3.75291138 57 5 C56.7215625 6.2065625 56.7215625 6.2065625 56.4375 7.4375 C56.293125 8.283125 56.14875 9.12875 56 10 C57.17320459 11.3819554 57.17320459 11.3819554 60.4375 11.375 C61.613125 11.58125 62.78875 11.7875 64 12 C66.32520903 15.48781355 66.19013819 16.78036679 66.0625 20.875 C65.97224944 24.00630204 65.92940054 26.68387632 66.61328125 29.74609375 C66.80470703 30.86177734 66.80470703 30.86177734 67 32 C65.125 34.1875 65.125 34.1875 63 36 C62.505 36.99 62.505 36.99 62 38 C20.75 38 -20.5 38 -63 38 C-63 37.67 -63 37.34 -63 37 C-61.35 37 -59.7 37 -58 37 C-58.226875 36.484375 -58.45375 35.96875 -58.6875 35.4375 C-59.17216589 31.65710608 -57.79370047 29.27814225 -56 26 C-53.8125 25.0625 -53.8125 25.0625 -52 25 C-50.72648692 27.54702616 -51.19808075 28.4282945 -51.9375 31.125 C-52.13214844 31.84945312 -52.32679687 32.57390625 -52.52734375 33.3203125 C-52.68332031 33.87460938 -52.83929688 34.42890625 -53 35 C-50.72886197 34.85899143 -48.45809275 34.71203245 -46.1875 34.5625 C-44.92292969 34.48128906 -43.65835938 34.40007812 -42.35546875 34.31640625 C-39.00818107 34.12815453 -39.00818107 34.12815453 -36 33 C-36 33.66 -36 34.32 -36 35 C-33.36 35 -30.72 35 -28 35 C-27.96261719 34.40574219 -27.92523438 33.81148437 -27.88671875 33.19921875 C-27.3576382 26.52865413 -25.93377584 20.39727101 -24 14 C-22.68 14.33 -21.36 14.66 -20 15 C-19.4355282 22.33813334 -21.44672896 28.16088115 -24 35 C-21.36 34.67 -18.72 34.34 -16 34 C-15.823479 33.39937744 -15.64695801 32.79875488 -15.46508789 32.17993164 C-14.66755 29.47312842 -13.86509318 26.76780837 -13.0625 24.0625 C-12.78470703 23.11697266 -12.50691406 22.17144531 -12.22070312 21.19726562 C-11.81948242 19.84858398 -11.81948242 19.84858398 -11.41015625 18.47265625 C-11.16402588 17.64000244 -10.91789551 16.80734863 -10.66430664 15.94946289 C-10 14 -10 14 -9 13 C-6.32941149 12.85884839 -3.67567762 12.95752893 -1 13 C-0.80083984 12.07767578 -0.80083984 12.07767578 -0.59765625 11.13671875 C-0.42105469 10.32847656 -0.24445313 9.52023438 -0.0625 8.6875 C0.11152344 7.88699219 0.28554687 7.08648437 0.46484375 6.26171875 C1 4 1 4 2 1 C1.34 0.67 0.68 0.34 0 0 Z " fill="#F5F030" transform="translate(140,81)"/>
<path d="M0 0 C0.87351207 -0.00497769 1.74702414 -0.00995538 2.64700627 -0.01508391 C5.56776933 -0.02564346 8.48711726 -0.00052235 11.40777588 0.02450562 C13.50391265 0.02427888 15.60005016 0.02186421 17.69618225 0.01742554 C23.38399978 0.01171911 29.0713048 0.03701035 34.75902462 0.06810045 C40.70647839 0.09563646 46.65393285 0.09563991 52.60144043 0.09881592 C62.58499019 0.10801859 72.56834828 0.13555138 82.55181885 0.1758728 C96.64670913 0.2327462 110.74150311 0.25502763 124.83649015 0.2711575 C134.58635151 0.28359974 144.33619816 0.30428386 154.08604145 0.32653761 C156.45387122 0.33190421 158.82170152 0.33704033 161.18953228 0.34194994 C167.93494217 0.35622708 174.68029665 0.37561691 181.4256649 0.40342712 C183.47277192 0.41116711 185.51988608 0.4172209 187.56700325 0.42150497 C190.3511076 0.42769478 193.1351154 0.44003387 195.91918945 0.45410156 C197.14746983 0.4548482 197.14746983 0.4548482 198.40056396 0.45560992 C203.97709452 0.49373525 203.97709452 0.49373525 206.20562744 1.60800171 C206.22875356 10.32644173 206.2465439 19.04487127 206.25743961 27.76333523 C206.26266786 31.81125913 206.26976443 35.85916211 206.28106689 39.90707397 C206.29189787 43.81036142 206.29790472 47.7136287 206.30050468 51.61693001 C206.30235855 53.10933818 206.30597844 54.60174519 206.3113575 56.09414482 C206.31857075 58.1774831 206.31961827 60.26073702 206.31915283 62.34408569 C206.32137344 63.53211288 206.32359406 64.72014008 206.32588196 65.94416809 C206.20562744 68.60800171 206.20562744 68.60800171 205.20562744 69.60800171 C202.388446 69.70813487 199.59570655 69.74239291 196.77801514 69.73498535 C195.88356831 69.73654534 194.98912148 69.73810533 194.06757021 69.7397126 C191.04651563 69.74372662 188.02551059 69.7405314 185.00445557 69.73739624 C182.84832225 69.7387501 180.69218916 69.74052995 178.53605652 69.7427063 C172.66226324 69.74728242 166.78848744 69.74549034 160.91469383 69.74232721 C154.78254523 69.73980453 148.65039817 69.74214089 142.51824951 69.74371338 C132.21823863 69.74553534 121.9182349 69.74312806 111.6182251 69.7383728 C99.69114054 69.73293013 87.76407307 69.73469277 75.83698893 69.74019921 C65.61707872 69.74472957 55.39717367 69.74538126 45.17726278 69.74276054 C39.06440545 69.74119734 32.95155616 69.74100516 26.83869934 69.74429703 C21.093244 69.74717463 15.3478108 69.7452021 9.60235786 69.73940277 C7.48710225 69.73807458 5.37184478 69.73847029 3.25658989 69.74066544 C0.38211423 69.74337462 -2.49228926 69.73999867 -5.36676025 69.73498535 C-6.63954433 69.73833143 -6.63954433 69.73833143 -7.93804121 69.74174511 C-13.68022273 69.72215153 -13.68022273 69.72215153 -14.79437256 68.60800171 C-14.91987166 66.67168892 -14.97515765 64.73079305 -15.00311279 62.7906189 C-15.02240341 61.54552551 -15.04169403 60.30043213 -15.06156921 59.01760864 C-15.07637666 57.64670852 -15.09015004 56.27579689 -15.10296631 54.90487671 C-15.10953814 54.21698311 -15.11610996 53.52908951 -15.12288094 52.82035065 C-15.15550563 49.17716021 -15.17994521 45.53399934 -15.19940186 41.89071655 C-15.21720026 38.87563405 -15.25198857 35.86148953 -15.30194092 32.84677124 C-15.36216777 29.20802159 -15.39288088 25.57014019 -15.40257454 21.93091583 C-15.41112937 20.54498451 -15.42994903 19.15907639 -15.45931816 17.77342987 C-15.4982755 15.83030187 -15.49568146 13.8864764 -15.49139404 11.94296265 C-15.50170151 10.83789368 -15.51200897 9.73282471 -15.52262878 8.5942688 C-14.68915859 5.17656426 -13.37802734 3.80934411 -10.64414698 1.65676785 C-7.24038385 -0.27306288 -3.82827531 -0.06561605 0 0 Z M41.20562744 4.60800171 C40.54562744 4.27800171 39.88562744 3.94800171 39.20562744 3.60800171 C37.31923624 3.52308671 35.42984229 3.5008087 33.54156494 3.51034546 C31.85933838 3.51517944 31.85933838 3.51517944 30.14312744 3.52011108 C28.37968994 3.53267944 28.37968994 3.53267944 26.58062744 3.54550171 C25.39726807 3.55001343 24.21390869 3.55452515 22.99468994 3.55917358 C20.06495238 3.57098704 17.13531472 3.58745913 14.20562744 3.60800171 C14.86562744 4.92800171 15.52562744 6.24800171 16.20562744 7.60800171 C15.13312744 7.52550171 14.06062744 7.44300171 12.95562744 7.35800171 C9.28480121 7.30749764 9.28480121 7.30749764 6.89312744 9.04550171 C3.45274057 14.26979288 2.88985989 20.45053446 3.20562744 26.60800171 C2.54562744 26.60800171 1.88562744 26.60800171 1.20562744 26.60800171 C-0.34024132 29.69973922 -0.08796777 32.20229723 0.20562744 35.60800171 C1.36488282 38.26978012 1.36488282 38.26978012 4.20562744 39.60800171 C7.89669871 39.93196624 11.51090113 39.83732955 15.20562744 39.60800171 C15.20562744 40.26800171 15.20562744 40.92800171 15.20562744 41.60800171 C16.52562744 41.60800171 17.84562744 41.60800171 19.20562744 41.60800171 C19.20562744 40.94800171 19.20562744 40.28800171 19.20562744 39.60800171 C21.51562744 38.94800171 23.82562744 38.28800171 26.20562744 37.60800171 C26.20562744 37.93800171 26.20562744 38.26800171 26.20562744 38.60800171 C27.83053698 38.6349836 29.45557378 38.65438928 31.08062744 38.67050171 C31.98554932 38.68210327 32.89047119 38.69370483 33.82281494 38.70565796 C36.22248594 38.77049428 36.22248594 38.77049428 38.20562744 37.60800171 C38.20562744 35.95800171 38.20562744 34.30800171 38.20562744 32.60800171 C38.86562744 32.60800171 39.52562744 32.60800171 40.20562744 32.60800171 C40.20562744 34.58800171 40.20562744 36.56800171 40.20562744 38.60800171 C42.81482572 39.91260085 44.79505359 39.74066111 47.70562744 39.73300171 C48.68531494 39.73557983 49.66500244 39.73815796 50.67437744 39.74081421 C53.19993798 39.77740224 53.19993798 39.77740224 55.20562744 38.60800171 C57.54566914 38.89042053 59.88067467 39.22050958 62.20562744 39.60800171 C59.60006576 42.21356339 58.46942861 41.87799542 54.83795166 41.92684937 C53.15643509 41.9566539 53.15643509 41.9566539 51.44094849 41.98706055 C49.61903488 42.00438736 49.61903488 42.00438736 47.76031494 42.02206421 C46.52016632 42.04143036 45.2800177 42.06079651 44.00228882 42.08074951 C40.70450965 42.13048981 37.40676605 42.17172648 34.10882568 42.20889282 C30.7438541 42.24889173 27.37905353 42.30000274 24.01422119 42.35018921 C17.41146637 42.44639958 10.80863733 42.53140554 4.20562744 42.60800171 C3.94008057 43.51163452 3.67453369 44.41526733 3.40093994 45.34628296 C3.04773682 46.52577515 2.69453369 47.70526733 2.33062744 48.92050171 C1.98258057 50.09225952 1.63453369 51.26401733 1.27593994 52.47128296 C0.20562744 55.60800171 0.20562744 55.60800171 -1.79437256 58.60800171 C60.24562744 58.60800171 122.28562744 58.60800171 186.20562744 58.60800171 C186.86562744 55.30800171 187.52562744 52.00800171 188.20562744 48.60800171 C188.86562744 48.60800171 189.52562744 48.60800171 190.20562744 48.60800171 C189.21562744 51.90800171 188.22562744 55.20800171 187.20562744 58.60800171 C185.85748632 58.60605348 185.85748632 58.60605348 184.48211002 58.6040659 C162.5977187 58.57484486 140.7136399 58.5842491 118.82928562 58.63646793 C108.2460659 58.66079263 97.66313231 58.67211813 87.07989502 58.65267944 C77.85385369 58.63576673 68.62821264 58.64340947 59.402224 58.68034929 C54.51848285 58.69905074 49.63541841 58.70558409 44.75168037 58.68269539 C40.15075546 58.66152055 35.55106771 58.67328529 30.95025063 58.7098465 C29.26569478 58.71751278 27.58103509 58.71335019 25.89654922 58.69618797 C17.09717583 58.61343579 10.3923493 58.69197553 3.57046413 65.01026058 C2.09737524 66.38450636 2.09737524 66.38450636 2.20562744 67.60800171 C68.86562744 67.60800171 135.52562744 67.60800171 204.20562744 67.60800171 C204.20562744 46.15800171 204.20562744 24.70800171 204.20562744 2.60800171 C183.24837458 2.56289952 162.29116086 2.52603862 141.33387184 2.50437737 C131.60360607 2.4940535 121.87337253 2.47997203 112.14312744 2.4571228 C103.66478815 2.43722283 95.18647221 2.42429335 86.70811021 2.41982472 C82.21658781 2.41721157 77.72513219 2.41104663 73.23363113 2.3965416 C69.0098875 2.38301121 64.78623845 2.37876981 60.5624752 2.38178635 C59.00880482 2.38123414 57.45513142 2.3772297 55.90147972 2.36959076 C53.78697497 2.35970039 51.67283149 2.36201088 49.55831909 2.36749268 C48.37289331 2.36564909 47.18746754 2.3638055 45.96611977 2.36190605 C43.06270245 2.32324367 43.06270245 2.32324367 41.20562744 4.60800171 Z " fill="#F7F024" transform="translate(16.79437255859375,77.39199829101563)"/>
<path d="M0 0 C62.04 0 124.08 0 188 0 C188 0.33 188 0.66 188 1 C137.51 1.495 137.51 1.495 86 2 C83.30519348 7.92444454 83.30519348 7.92444454 81 14 C76.35923813 16.13096265 71.90015268 16.27607506 66.88330078 16.22705078 C65.69692772 16.22748886 65.69692772 16.22748886 64.48658752 16.22793579 C61.8893817 16.22654973 59.29246781 16.21102287 56.6953125 16.1953125 C54.88784949 16.19157979 53.08038446 16.18873404 51.2729187 16.18673706 C46.52838501 16.1791209 41.78397483 16.1594898 37.03948975 16.1373291 C32.19301016 16.11682715 27.34651051 16.10772605 22.5 16.09765625 C12.9999459 16.07624196 3.49998324 16.04213044 -6 16 C-5.3503125 14.5459375 -5.3503125 14.5459375 -4.6875 13.0625 C-2.91292479 8.79037448 -1.46287982 4.38863945 0 0 Z " fill="#100F02" transform="translate(21,120)"/>
<path d="M0 0 C27.73720784 -0.02333053 55.47441421 -0.04097994 83.21162987 -0.05181217 C96.08965762 -0.0569748 108.96767928 -0.06401687 121.84570312 -0.07543945 C133.06640331 -0.0853873 144.28709909 -0.09185367 155.50780356 -0.09408849 C161.45247736 -0.09539543 167.39713855 -0.09848021 173.34180832 -0.10573006 C178.93130266 -0.11249185 184.52077913 -0.11461663 190.11027718 -0.11310768 C192.1670612 -0.11338394 194.22384579 -0.11538812 196.2806263 -0.11920547 C199.07816894 -0.12414518 201.87564319 -0.12299723 204.67318726 -0.12025452 C205.49613356 -0.12316736 206.31907986 -0.1260802 207.16696393 -0.12908131 C212.77175758 -0.11412121 212.77175758 -0.11412121 215 1 C215.02312611 9.71844003 215.04091646 18.43686956 215.05181217 27.15533352 C215.05704041 31.20325742 215.06413699 35.25116041 215.07543945 39.29907227 C215.08627043 43.20235971 215.09227728 47.10562699 215.09487724 51.0089283 C215.09673111 52.50133647 215.100351 53.99374348 215.10573006 55.48614311 C215.11294331 57.56948139 215.11399083 59.65273531 215.11352539 61.73608398 C215.115746 62.92411118 215.11796661 64.11213837 215.12025452 65.33616638 C215 68 215 68 214 69 C211.18281856 69.10013316 208.39007911 69.13439121 205.5723877 69.12698364 C204.67794087 69.12854363 203.78349404 69.13010362 202.86194277 69.13171089 C199.84088819 69.13572491 196.81988315 69.13252969 193.79882812 69.12939453 C191.64269481 69.13074839 189.48656172 69.13252824 187.33042908 69.13470459 C181.4566358 69.13928071 175.58285999 69.13748863 169.70906639 69.1343255 C163.57691779 69.13180282 157.44477073 69.13413918 151.31262207 69.13571167 C141.01261118 69.13753364 130.71260746 69.13512635 120.41259766 69.13037109 C108.4855131 69.12492842 96.55844563 69.12669106 84.63136148 69.1321975 C74.41145128 69.13672786 64.19154623 69.13737955 53.97163534 69.13475883 C47.85877801 69.13319563 41.74592872 69.13300345 35.6330719 69.13629532 C29.88761656 69.13917292 24.14218336 69.13720039 18.39673042 69.13140106 C16.28147481 69.13007287 14.16621734 69.13046858 12.05096245 69.13266373 C9.17648678 69.13537291 6.3020833 69.13199696 3.4276123 69.12698364 C2.15482823 69.13032973 2.15482823 69.13032973 0.85633135 69.13374341 C-4.88585018 69.11414982 -4.88585018 69.11414982 -6 68 C-6.0940067 66.03630847 -6.11743381 64.06920801 -6.11352539 62.10327148 C-6.11344986 60.84203964 -6.11337433 59.5808078 -6.11329651 58.28135681 C-6.1081891 56.89460206 -6.10297309 55.50784771 -6.09765625 54.12109375 C-6.09579201 52.71004791 -6.09436814 51.29900143 -6.09336853 49.88795471 C-6.08954379 46.16759465 -6.0797139 42.4472734 -6.06866455 38.72692871 C-6.05844948 34.93319219 -6.05387071 31.13944942 -6.04882812 27.34570312 C-6.03809158 19.89711769 -6.0210157 12.44856428 -6 5 C-5.34 4.67 -4.68 4.34 -4 4 C-4 24.79 -4 45.58 -4 67 C67.61 67 139.22 67 213 67 C213 45.55 213 24.1 213 2 C208.36485352 2.03552979 203.72970703 2.07105957 198.95410156 2.10766602 C183.41201157 2.22577321 167.86987342 2.33620157 152.32770157 2.4429636 C142.93067615 2.50769175 133.53368112 2.57484111 124.13671875 2.64819336 C82.40675616 2.97262668 40.71999929 3.1987377 -1 2 C-0.67 1.34 -0.34 0.68 0 0 Z " fill="#F7F366" transform="translate(8,78)"/>
<path d="M0 0 C3.96 0 7.92 0 12 0 C12.33 1.32 12.66 2.64 13 4 C13.969375 4.144375 14.93875 4.28875 15.9375 4.4375 C19 5 19 5 20 6 C20.66 5.01 21.32 4.02 22 3 C24.64 3.33 27.28 3.66 30 4 C30 4.66 30 5.32 30 6 C27.69 6.33 25.38 6.66 23 7 C22.6443396 8.11242065 22.6443396 8.11242065 22.28149414 9.24731445 C21.20868564 12.60243694 20.13559614 15.9574695 19.0625 19.3125 C18.50272461 21.06336914 18.50272461 21.06336914 17.93164062 22.84960938 C17.39506836 24.52700195 17.39506836 24.52700195 16.84765625 26.23828125 C16.51773682 27.26993408 16.18781738 28.30158691 15.84790039 29.36450195 C15.24244543 31.24641566 14.62515397 33.12453808 14 35 C12.515 34.505 12.515 34.505 11 34 C7.84979639 34.88319294 7.84979639 34.88319294 5 36 C5 36.66 5 37.32 5 38 C3.68 38 2.36 38 1 38 C1 37.34 1 36.68 1 36 C0.25234375 36.04640625 -0.4953125 36.0928125 -1.265625 36.140625 C-9.25453113 36.43341214 -9.25453113 36.43341214 -12.6875 34.4375 C-14.46422538 31.13786716 -14.34179024 28.69133463 -14 25 C-13.67 24.34 -13.34 23.68 -13 23 C-12.34 23 -11.68 23 -11 23 C-10.94392578 21.67935547 -10.94392578 21.67935547 -10.88671875 20.33203125 C-10.78810547 18.58986328 -10.78810547 18.58986328 -10.6875 16.8125 C-10.62949219 15.66394531 -10.57148438 14.51539062 -10.51171875 13.33203125 C-9.97235751 9.82000728 -9.1005277 7.83700902 -7 5 C-4.04335481 3.5216774 -1.25770263 3.93967217 2 4 C1.34 2.68 0.68 1.36 0 0 Z " fill="#F6F128" transform="translate(31,81)"/>
<path d="M0 0 C7.20822151 -0.05063235 14.4163973 -0.08570496 21.62475586 -0.10986328 C24.07789829 -0.11993245 26.53102869 -0.13358861 28.98413086 -0.15087891 C32.50637783 -0.17508679 36.02846639 -0.18647388 39.55078125 -0.1953125 C41.20089958 -0.21079636 41.20089958 -0.21079636 42.88435364 -0.22659302 C44.41560127 -0.22681961 44.41560127 -0.22681961 45.9777832 -0.22705078 C46.87713089 -0.231492 47.77647858 -0.23593323 48.70307922 -0.24050903 C51 0 51 0 54 2 C54 2.66 54 3.32 54 4 C49.545 4.495 49.545 4.495 45 5 C45 6.98 45 8.96 45 11 C42.36 11.66 39.72 12.32 37 13 C37.66 13.37125 38.32 13.7425 39 14.125 C41 16 41 16 41.25 19.1875 C41.1675 20.115625 41.085 21.04375 41 22 C38.36 22 35.72 22 33 22 C33 20.68 33 19.36 33 18 C30.08961458 18.02525184 30.08961458 18.02525184 27 19 C24.56650252 22.65024621 24 24.57704202 24 29 C26.37429296 29.25069913 26.37429296 29.25069913 29 29 C29.45375 28.505 29.9075 28.01 30.375 27.5 C32 26 32 26 35.6875 25.8125 C37.3271875 25.9053125 37.3271875 25.9053125 39 26 C38.09447999 29.25987205 37.06692589 30.93483532 34.625 33.3125 C29.53625034 35.6814007 24.53599661 35.88671807 19 35 C16.76126154 33.46622599 16.12739164 32.60252801 15.56640625 29.94921875 C15.55515013 23.43192415 17.24669219 19.94997265 21.75 15.125 C22.1625 14.75375 22.575 14.3825 23 14 C21.68 14 20.36 14 19 14 C19 14.99 19 15.98 19 17 C18.01 16.67 17.02 16.34 16 16 C15.34 14.68 14.68 13.36 14 12 C9.71 12 5.42 12 1 12 C-0.125 5.25 -0.125 5.25 2 1 C1.34 0.67 0.68 0.34 0 0 Z " fill="#FAF31C" transform="translate(140,81)"/>
<path d="M0 0 C1.28970703 -0.05607422 1.28970703 -0.05607422 2.60546875 -0.11328125 C9.07880432 -0.20305016 9.07880432 -0.20305016 12.62109375 2.84765625 C13.32363281 3.68167969 14.02617188 4.51570313 14.75 5.375 C18.43441504 6.26027109 18.43441504 6.26027109 21.75 6.375 C21.75 6.705 21.75 7.035 21.75 7.375 C19.44 7.375 17.13 7.375 14.75 7.375 C14.64042969 7.98085937 14.53085938 8.58671875 14.41796875 9.2109375 C10.97525995 27.4041141 10.97525995 27.4041141 6.75 30.375 C4.12109375 30.703125 4.12109375 30.703125 1.1875 30.625 C-0.26849609 30.60179687 -0.26849609 30.60179687 -1.75390625 30.578125 C-4.25 30.375 -4.25 30.375 -6.25 29.375 C-6.25 27.395 -6.25 25.415 -6.25 23.375 C-6.91 23.375 -7.57 23.375 -8.25 23.375 C-8.25 25.025 -8.25 26.675 -8.25 28.375 C-11.46451269 29.98225635 -14.68612536 29.43248185 -18.25 29.375 C-17.51436036 23.37749349 -15.598058 17.78851102 -13.75 12.0625 C-13.26853516 10.54172852 -13.26853516 10.54172852 -12.77734375 8.99023438 C-9.95579268 0.17731441 -9.10364971 0.14748181 0 0 Z " fill="#E4E03C" transform="translate(63.25,86.625)"/>
<path d="M0 0 C17.16 0 34.32 0 52 0 C50.35 4.95 48.7 9.9 47 15 C31.82 15 16.64 15 1 15 C1.33 14.34 1.66 13.68 2 13 C3.65 12.67 5.3 12.34 7 12 C7.99 8.7 8.98 5.4 10 2 C8.68 2 7.36 2 6 2 C5.67 2.99 5.34 3.98 5 5 C4.67 4.01 4.34 3.02 4 2 C2.68 1.34 1.36 0.68 0 0 Z " fill="#0A0902" transform="translate(156,121)"/>
<path d="M0 0 C2.05078125 0.03255208 4.1015625 0.06510417 6.15234375 0.09765625 C3.45934555 11.19280885 3.45934555 11.19280885 1.96484375 15.59765625 C0.94628637 18.29355936 0.94628637 18.29355936 1.15234375 22.09765625 C3.52609236 22.4319136 3.52609236 22.4319136 6.15234375 22.09765625 C9.68058652 18.64272761 10.52939769 14.028327 11.77734375 9.41015625 C14.04181594 1.20818406 14.04181594 1.20818406 15.15234375 0.09765625 C17.82293226 -0.04349536 20.47666613 0.05518518 23.15234375 0.09765625 C18.77919935 21.59691366 18.77919935 21.59691366 11.9375 26.7734375 C8.45469158 28.42935903 5.87016425 28.4631888 2.02734375 28.41015625 C0.19816406 28.40435547 0.19816406 28.40435547 -1.66796875 28.3984375 C-4.84765625 28.09765625 -4.84765625 28.09765625 -7.84765625 26.09765625 C-9.05070056 17.37558499 -5.79204297 9.20678688 -2.84765625 1.09765625 C-1.84765625 0.09765625 -1.84765625 0.09765625 0 0 Z " fill="#0C0B03" transform="translate(26.84765625,87.90234375)"/>
<path d="M0 0 C1.03382812 0.01546875 2.06765625 0.0309375 3.1328125 0.046875 C5.875 0.25 5.875 0.25 8.875 1.25 C10.39518673 6.09738787 9.24363709 9.83250839 7.9375 14.5625 C7.74220703 15.30306641 7.54691406 16.04363281 7.34570312 16.80664062 C6.8650719 18.62366113 6.37133486 20.43720614 5.875 22.25 C2.20833333 22.25 -1.45833333 22.25 -5.125 22.25 C-5.92035156 22.27320312 -6.71570313 22.29640625 -7.53515625 22.3203125 C-8.84806641 22.34738281 -8.84806641 22.34738281 -10.1875 22.375 C-11.50427734 22.40980469 -11.50427734 22.40980469 -12.84765625 22.4453125 C-15.125 22.25 -15.125 22.25 -17.125 20.25 C-17.5625 17.9375 -17.5625 17.9375 -17.125 15.25 C-13.2074213 10.71385625 -10.84515053 9.21206479 -5 8.6875 C-3.63488281 8.56181641 -3.63488281 8.56181641 -2.2421875 8.43359375 C-1.54351562 8.37300781 -0.84484375 8.31242187 -0.125 8.25 C0.205 7.26 0.535 6.27 0.875 5.25 C-2.41575996 5.62904208 -2.41575996 5.62904208 -5.125 7.25 C-7.45797433 7.29092937 -9.79205225 7.29241723 -12.125 7.25 C-11.9375 5.4375 -11.9375 5.4375 -11.125 3.25 C-7.35402133 0.43025919 -4.66123194 -0.11682286 0 0 Z " fill="#110F03" transform="translate(106.125,93.75)"/>
<path d="M0 0 C1.47057839 0.00031709 2.94118001 0.01164091 4.41162109 0.03173828 C5.18565277 0.03456818 5.95968445 0.03739807 6.75717163 0.04031372 C9.23329016 0.05152325 11.70904909 0.07662875 14.18505859 0.10205078 C15.86213671 0.1120796 17.53922049 0.12120562 19.21630859 0.12939453 C23.33103082 0.15146504 27.44548371 0.18599977 31.56005859 0.22705078 C30.89339193 4.22705078 30.22672526 8.22705078 29.56005859 12.22705078 C31.54005859 12.22705078 33.52005859 12.22705078 35.56005859 12.22705078 C35.56005859 13.21705078 35.56005859 14.20705078 35.56005859 15.22705078 C24.67005859 15.22705078 13.78005859 15.22705078 2.56005859 15.22705078 C4.05476593 12.2376361 6.63562923 11.68926546 9.56005859 10.22705078 C9.89005859 9.56705078 10.22005859 8.90705078 10.56005859 8.22705078 C8.91005859 8.22705078 7.26005859 8.22705078 5.56005859 8.22705078 C5.56005859 8.88705078 5.56005859 9.54705078 5.56005859 10.22705078 C4.90005859 10.22705078 4.24005859 10.22705078 3.56005859 10.22705078 C3.89005859 8.57705078 4.22005859 6.92705078 4.56005859 5.22705078 C5.55005859 4.89705078 6.54005859 4.56705078 7.56005859 4.22705078 C7.56005859 4.88705078 7.56005859 5.54705078 7.56005859 6.22705078 C8.88005859 6.22705078 10.20005859 6.22705078 11.56005859 6.22705078 C11.23005859 5.23705078 10.90005859 4.24705078 10.56005859 3.22705078 C6.52995503 2.87957142 6.52995503 2.87957142 2.56005859 3.22705078 C0.22375112 5.62564122 0.22375112 5.62564122 -1.43994141 8.22705078 C-2.42994141 8.22705078 -3.41994141 8.22705078 -4.43994141 8.22705078 C-5.06494141 5.35205078 -5.06494141 5.35205078 -5.43994141 2.22705078 C-3.43994141 0.22705078 -3.43994141 0.22705078 0 0 Z " fill="#090802" transform="translate(28.43994140625,120.77294921875)"/>
<path d="M0 0 C2.64 0 5.28 0 8 0 C7.34 2.97 6.68 5.94 6 9 C6.99 8.34 7.98 7.68 9 7 C15.33333333 6.66666667 15.33333333 6.66666667 18 8 C18.65872256 15.0812675 16.38694039 21.38558686 14 28 C13 29 13 29 9.4375 29.0625 C8.303125 29.041875 7.16875 29.02125 6 29 C7.15058556 23.60204011 8.42421759 18.29012667 10 13 C7.02544589 13.5071895 7.02544589 13.5071895 4 15 C2.44611828 18.01835566 2.44611828 18.01835566 1.6875 21.5625 C0.02218935 27.97781065 0.02218935 27.97781065 -1 29 C-3.33297433 29.04092937 -5.66705225 29.04241723 -8 29 C-6.36559954 19.0301572 -3.13564949 9.57803752 0 0 Z " fill="#100F02" transform="translate(187,87)"/>
<path d="M0 0 C2.6875 1.4375 2.6875 1.4375 4 4 C4.00539574 7.13492321 3.54948371 9.88625895 3 13 C-2.28 13 -7.56 13 -13 13 C-12.67 14.32 -12.34 15.64 -12 17 C-8.70924004 16.62095792 -8.70924004 16.62095792 -6 15 C-3.32941149 14.85884839 -0.67567762 14.95752893 2 15 C0.53050837 18.87411431 -1.33070074 20.17559981 -5 22 C-7.97265625 22.43359375 -7.97265625 22.43359375 -11.0625 22.4375 C-12.08472656 22.45683594 -13.10695312 22.47617188 -14.16015625 22.49609375 C-17.70964925 21.87603101 -18.89974024 20.89604164 -21 18 C-21.65144934 13.52128577 -20.29947793 9.59895586 -18.3125 5.625 C-13.22778901 -0.1468341 -7.37794373 -1.08462079 0 0 Z " fill="#131403" transform="translate(151,94)"/>
<path d="M0 0 C62.04 0 124.08 0 188 0 C188 0.33 188 0.66 188 1 C96.92 1.495 96.92 1.495 4 2 C2.87873219 5.79788698 2.87873219 5.79788698 3 9 C6.19525998 8.27846354 6.19525998 8.27846354 7.6875 5.4375 C10 3 10 3 12.03515625 2.671875 C14.02639403 2.68592253 16.01559106 2.83463259 18 3 C18.33 4.32 18.66 5.64 19 7 C17.68 7 16.36 7 15 7 C15 6.34 15 5.68 15 5 C12.7522025 7.05233685 11.9977758 8.00667261 11 11 C11.66 11 12.32 11 13 11 C13 10.34 13 9.68 13 9 C14.65 9 16.3 9 18 9 C16.98618914 11.9400515 16.10033228 12.93637465 13.4375 14.625 C9.27973839 16.28810465 6.03860785 16.34313355 1.625 16.1875 C0.88894531 16.17396484 0.15289062 16.16042969 -0.60546875 16.14648438 C-2.40396743 16.11144869 -4.20208422 16.05765288 -6 16 C-5.3503125 14.5459375 -5.3503125 14.5459375 -4.6875 13.0625 C-2.91292479 8.79037448 -1.46287982 4.38863945 0 0 Z " fill="#534F13" transform="translate(21,120)"/>
<path d="M0 0 C8.25 0 16.5 0 25 0 C24.34 1.98 23.68 3.96 23 6 C20.36 6.33 17.72 6.66 15 7 C14.823479 7.60062256 14.64695801 8.20124512 14.46508789 8.82006836 C13.66755 11.52687158 12.86509318 14.23219163 12.0625 16.9375 C11.78470703 17.88302734 11.50691406 18.82855469 11.22070312 19.80273438 C10.95322266 20.70185547 10.68574219 21.60097656 10.41015625 22.52734375 C10.04096069 23.77632446 10.04096069 23.77632446 9.66430664 25.05053711 C9 27 9 27 8 28 C5.32941149 28.14115161 2.67567762 28.04247107 0 28 C1.52463563 20.50387484 3.68006154 13.28640866 6 6 C3.69 6 1.38 6 -1 6 C-0.67 4.02 -0.34 2.04 0 0 Z " fill="#0B0A03" transform="translate(116,88)"/>
<path d="M0 0 C2.3203125 1.328125 2.3203125 1.328125 4 3 C4.25 6.1875 4.25 6.1875 4 9 C1.36 9 -1.28 9 -4 9 C-4 7.68 -4 6.36 -4 5 C-6.91038542 5.02525184 -6.91038542 5.02525184 -10 6 C-12.43349748 9.65024621 -13 11.57704202 -13 16 C-10.62570704 16.25069913 -10.62570704 16.25069913 -8 16 C-7.54625 15.505 -7.0925 15.01 -6.625 14.5 C-5 13 -5 13 -1.3125 12.8125 C-0.219375 12.874375 0.87375 12.93625 2 13 C1.09447999 16.25987205 0.06692589 17.93483532 -2.375 20.3125 C-7.46374966 22.6814007 -12.46400339 22.88671807 -18 22 C-20.23873846 20.46622599 -20.87260836 19.60252801 -21.43359375 16.94921875 C-21.44306154 11.46737076 -20.76629277 8.26185761 -17 4 C-12.00516175 -0.62936228 -6.53993967 -1.09657599 0 0 Z " fill="#0C0B02" transform="translate(177,94)"/>
<path d="M0 0 C0.66 0 1.32 0 2 0 C2 1.98 2 3.96 2 6 C4.12493141 6.02693575 6.24995912 6.04636628 8.375 6.0625 C9.55835938 6.07410156 10.74171875 6.08570312 11.9609375 6.09765625 C14.91921521 6.21466593 14.91921521 6.21466593 17 5 C20.5625 5.3125 20.5625 5.3125 24 6 C24.495 6.99 24.495 6.99 25 8 C88.855 8.495 88.855 8.495 154 9 C154 9.33 154 9.66 154 10 C92.29 10 30.58 10 -33 10 C-33 9.67 -33 9.34 -33 9 C-28.38 9 -23.76 9 -19 9 C-19 8.34 -19 7.68 -19 7 C-17.03533587 5.93224776 -15.03144641 4.93446535 -13 4 C-12.34 4.33 -11.68 4.66 -11 5 C-9.46331135 5.22467831 -7.92031946 5.40796805 -6.375 5.5625 C-5.55773437 5.64628906 -4.74046875 5.73007813 -3.8984375 5.81640625 C-3.27195312 5.87699219 -2.64546875 5.93757813 -2 6 C-1.34 4.02 -0.68 2.04 0 0 Z " fill="#FAF545" transform="translate(55,110)"/>
<path d="M0 0 C1.90845703 0.05414063 1.90845703 0.05414063 3.85546875 0.109375 C4.83128906 0.15578125 5.80710937 0.2021875 6.8125 0.25 C7.61203138 3.53696233 7.90908936 4.96023192 6.8125 8.25 C7.72857436 10.99822309 8.41977617 12.01898598 10.9375 13.5 C11.55625 13.7475 12.175 13.995 12.8125 14.25 C11.8125 15.25 11.8125 15.25 8.94506836 15.36352539 C7.69346924 15.35828857 6.44187012 15.35305176 5.15234375 15.34765625 C4.15564415 15.34553383 4.15564415 15.34553383 3.1388092 15.34336853 C1.00916101 15.33775518 -1.12038339 15.32520054 -3.25 15.3125 C-4.69075369 15.30748671 -6.13150903 15.30292351 -7.57226562 15.29882812 C-11.11071102 15.28778145 -14.64909539 15.27050792 -18.1875 15.25 C-17.8575 14.59 -17.5275 13.93 -17.1875 13.25 C-15.5375 13.25 -13.8875 13.25 -12.1875 13.25 C-12.07792969 12.64671875 -11.96835938 12.0434375 -11.85546875 11.421875 C-11.69691406 10.62265625 -11.53835937 9.8234375 -11.375 9 C-11.22417969 8.21109375 -11.07335937 7.4221875 -10.91796875 6.609375 C-8.95153697 0.25790551 -6.47037758 -0.23744505 0 0 Z " fill="#070702" transform="translate(114.1875,120.75)"/>
<path d="M0 0 C0.33 1.32 0.66 2.64 1 4 C5.62 3.67 10.24 3.34 15 3 C15.66 4.65 16.32 6.3 17 8 C17.66 8.33 18.32 8.66 19 9 C19 8.01 19 7.02 19 6 C22.465 5.505 22.465 5.505 26 5 C25.2575 5.53625 24.515 6.0725 23.75 6.625 C19.9027276 9.94764435 17.21106949 12.57102569 16.75390625 17.83203125 C16.75039578 20.56668812 16.82521137 23.27135524 17 26 C17.66 26.33 18.32 26.66 19 27 C18.01 27 17.02 27 16 27 C15.67 26.67 15.34 26.34 15 26 C15 26.99 15 27.98 15 29 C14.15179688 28.83628906 13.30359375 28.67257813 12.4296875 28.50390625 C8.9354469 27.99051555 5.65372426 27.90149261 2.125 27.9375 C0.97257812 27.94652344 -0.17984375 27.95554687 -1.3671875 27.96484375 C-2.23601562 27.97644531 -3.10484375 27.98804687 -4 28 C-4 27.67 -4 27.34 -4 27 C-3.00419922 26.94392578 -3.00419922 26.94392578 -1.98828125 26.88671875 C4.98566329 26.39055034 4.98566329 26.39055034 11 23 C11.33 22.34 11.66 21.68 12 21 C8.58343976 20.83322718 8.58343976 20.83322718 5 21 C4.34 21.66 3.68 22.32 3 23 C0.375 22.625 0.375 22.625 -2 22 C-2 20.68 -2 19.36 -2 18 C3.28 18 8.56 18 14 18 C14.0928125 15.8653125 14.0928125 15.8653125 14.1875 13.6875 C14.22230469 12.88699219 14.25710937 12.08648437 14.29296875 11.26171875 C14.16957064 8.95890011 14.16957064 8.95890011 12.78515625 7.234375 C9.25599331 4.79407853 5.0927359 5.45347381 1 6 C-3.29159938 7.33764137 -5.60805705 9.34254731 -7.9375 13.25 C-9.13568248 17.47887934 -9.22971662 20.63538425 -9 25 C-9.99 24.01 -10.98 23.02 -12 22 C-12.99 23.98 -13.98 25.96 -15 28 C-16.34312444 25.31375111 -15.68597623 24.30514611 -14.8203125 21.46484375 C-14.41619141 20.12776367 -14.41619141 20.12776367 -14.00390625 18.76367188 C-13.71386719 17.83103516 -13.42382812 16.89839844 -13.125 15.9375 C-12.84269531 15.00099609 -12.56039062 14.06449219 -12.26953125 13.09960938 C-10.14409541 6.14409541 -10.14409541 6.14409541 -9 5 C-6.32941149 4.85884839 -3.67567762 4.95752893 -1 5 C-0.67 3.35 -0.34 1.7 0 0 Z " fill="#E3E041" transform="translate(140,89)"/>
<path d="M0 0 C1.051875 -0.00386719 1.051875 -0.00386719 2.125 -0.0078125 C4 0.125 4 0.125 6 1.125 C5.7215625 2.3315625 5.7215625 2.3315625 5.4375 3.5625 C5.293125 4.408125 5.14875 5.25375 5 6.125 C6.96822886 8.09322886 10.34808709 7.78748381 13 8.125 C12.67 8.785 12.34 9.445 12 10.125 C10.39125 10.063125 10.39125 10.063125 8.75 10 C4.81438522 9.87016767 4.81438522 9.87016767 1 12.125 C1.99 8.825 2.98 5.525 4 2.125 C1.36 2.125 -1.28 2.125 -4 2.125 C-4.309375 4.0121875 -4.309375 4.0121875 -4.625 5.9375 C-6.31552461 14.52685666 -9.28727292 22.81620699 -12 31.125 C-15.96 31.62 -15.96 31.62 -20 32.125 C-20 31.465 -20 30.805 -20 30.125 C-19.05125 29.50625 -18.1025 28.8875 -17.125 28.25 C-14.17758128 26.24575527 -13.16146167 25.37709269 -12 22.125 C-16.58636471 22.55767592 -18.84561842 22.82723743 -22 26.125 C-24.6875 26.3125 -24.6875 26.3125 -27 26.125 C-27.94721072 23.52017051 -28.30222393 21.81825299 -27.17578125 19.234375 C-26.17063275 17.49917127 -25.0893855 15.80859577 -24 14.125 C-22.02 14.125 -20.04 14.125 -18 14.125 C-18 15.445 -18 16.765 -18 18.125 C-15.36 18.125 -12.72 18.125 -10 18.125 C-10.66 15.815 -11.32 13.505 -12 11.125 C-16.455 10.135 -16.455 10.135 -21 9.125 C-21 8.795 -21 8.465 -21 8.125 C-16.05 7.795 -11.1 7.465 -6 7.125 C-6 5.145 -6 3.165 -6 1.125 C-3.75487738 0.00243869 -2.48543351 -0.00913762 0 0 Z " fill="#EBE93F" transform="translate(191,84.875)"/>
<path d="M0 0 C0.33 0 0.66 0 1 0 C0.98839844 0.80824219 0.97679687 1.61648437 0.96484375 2.44921875 C0.95582031 3.51785156 0.94679687 4.58648437 0.9375 5.6875 C0.92589844 6.74324219 0.91429687 7.79898438 0.90234375 8.88671875 C0.90071255 11.96446561 0.90071255 11.96446561 1.62109375 14.7578125 C1.74613281 15.49773437 1.87117188 16.23765625 2 17 C0.125 19.1875 0.125 19.1875 -2 21 C-2.33 21.66 -2.66 22.32 -3 23 C-14.22 23 -25.44 23 -37 23 C-37 22.34 -37 21.68 -37 21 C-38.98 21 -40.96 21 -43 21 C-43 20.67 -43 20.34 -43 20 C-42.33613281 20.01160156 -41.67226562 20.02320312 -40.98828125 20.03515625 C-36.47169947 20.0813111 -32.42697012 19.90809644 -28 19 C-24.99806451 18.91320935 -22.0023132 18.94113111 -19 19 C-18.73445313 18.08476563 -18.46890625 17.16953125 -18.1953125 16.2265625 C-17.84210938 15.03804687 -17.48890625 13.84953125 -17.125 12.625 C-16.77695313 11.44164063 -16.42890625 10.25828125 -16.0703125 9.0390625 C-15 6 -15 6 -13 4 C-10.375 3.875 -10.375 3.875 -8 4 C-8.60108576 9.65020618 -10.07528683 14.66164461 -12 20 C-9.69 19.67 -7.38 19.34 -5 19 C-4.34922704 16.95990245 -3.70460176 14.91784331 -3.0625 12.875 C-2.70285156 11.73804687 -2.34320313 10.60109375 -1.97265625 9.4296875 C-1.08101661 6.28567301 -0.46648986 3.23105607 0 0 Z " fill="#F1ED2D" transform="translate(205,96)"/>
<path d="M0 0 C2.64 0 5.28 0 8 0 C7.67 1.98 7.34 3.96 7 6 C7.99 6 8.98 6 10 6 C9.67 7.65 9.34 9.3 9 11 C7.35 11 5.7 11 4 11 C3.86722656 11.61488281 3.73445313 12.22976562 3.59765625 12.86328125 C3.42105469 13.67152344 3.24445313 14.47976562 3.0625 15.3125 C2.88847656 16.11300781 2.71445313 16.91351563 2.53515625 17.73828125 C2 20 2 20 1 23 C2.32 23.33 3.64 23.66 5 24 C4.34 25.32 3.68 26.64 3 28 C1.52093108 28.02689216 0.04172517 28.04634621 -1.4375 28.0625 C-2.67306641 28.07990234 -2.67306641 28.07990234 -3.93359375 28.09765625 C-6 28 -6 28 -7 27 C-6.58784081 21.12673157 -5.23271642 16.43617912 -3 11 C-3.99 11 -4.98 11 -6 11 C-5.67 9.35 -5.34 7.7 -5 6 C-3.68 6 -2.36 6 -1 6 C-0.67 4.02 -0.34 2.04 0 0 Z " fill="#0A0802" transform="translate(66,88)"/>
<path d="M0 0 C1.134375 0.020625 2.26875 0.04125 3.4375 0.0625 C1.07744226 9.8416754 -1.47840374 19.48211588 -4.5625 29.0625 C-7.2025 29.0625 -9.8425 29.0625 -12.5625 29.0625 C-11.82686036 23.06499349 -9.910558 17.47601102 -8.0625 11.75 C-7.58103516 10.22922852 -7.58103516 10.22922852 -7.08984375 8.67773438 C-4.33592808 0.07606891 -4.33592808 0.07606891 0 0 Z " fill="#0B0C03" transform="translate(57.5625,86.9375)"/>
<path d="M0 0 C2.64 0 5.28 0 8 0 C8 0.99 8 1.98 8 3 C8.86625 2.2575 8.86625 2.2575 9.75 1.5 C12 0 12 0 16 0 C15.67 2.31 15.34 4.62 15 7 C13.906875 7.103125 12.81375 7.20625 11.6875 7.3125 C7.56383923 8.07123611 7.56383923 8.07123611 5 11 C4.03572359 13.45758227 4.03572359 13.45758227 3.375 16.125 C2.08333333 20.91666667 2.08333333 20.91666667 1 22 C-1.33297433 22.04092937 -3.66705225 22.04241723 -6 22 C-5.37798054 19.45757096 -4.75248241 16.91608125 -4.125 14.375 C-3.95097656 13.66214844 -3.77695313 12.94929688 -3.59765625 12.21484375 C-2.57145662 8.07203784 -1.41209271 4.03273322 0 0 Z " fill="#1F1F05" transform="translate(78,94)"/>
<path d="M0 0 C1.62418745 -0.08090971 3.24951745 -0.13914995 4.875 -0.1875 C5.77992188 -0.22230469 6.68484375 -0.25710937 7.6171875 -0.29296875 C8.79667969 -0.14794922 8.79667969 -0.14794922 10 0 C10.66 0.99 11.32 1.98 12 3 C12.66 3 13.32 3 14 3 C14.28875 3.78375 14.5775 4.5675 14.875 5.375 C15.84912254 8.09671632 15.84912254 8.09671632 18 10 C17.67 10.99 17.34 11.98 17 13 C11.72 12.34 6.44 11.68 1 11 C-0.2077558 7.37673261 0.45688872 6.35853631 2 3 C1.34 3 0.68 3 0 3 C0 2.01 0 1.02 0 0 Z " fill="#0D0C04" transform="translate(186,123)"/>
<path d="M0 0 C1.12758089 3.38274266 0.81750262 4.76778223 0.0625 8.1875 C-0.13214844 9.08855469 -0.32679687 9.98960938 -0.52734375 10.91796875 C-0.68332031 11.60503906 -0.83929688 12.29210937 -1 13 C-7.33333333 13 -13.66666667 13 -20 13 C-20 12.34 -20 11.68 -20 11 C-20.66 10.67 -21.32 10.34 -22 10 C-22 8.68 -22 7.36 -22 6 C-20.02 5.67 -18.04 5.34 -16 5 C-15.67 5.99 -15.34 6.98 -15 8 C-13.02 7.67 -11.04 7.34 -9 7 C-8.67 5.35 -8.34 3.7 -8 2 C-7.34 2 -6.68 2 -6 2 C-5.67 2.66 -5.34 3.32 -5 4 C-4.34 4 -3.68 4 -3 4 C-2.67 3.34 -2.34 2.68 -2 2 C-1.34 2 -0.68 2 0 2 C0 1.34 0 0.68 0 0 Z " fill="#131002" transform="translate(113,103)"/>
<path d="M0 0 C1.5159375 0.0309375 1.5159375 0.0309375 3.0625 0.0625 C3.7225 0.0625 4.3825 0.0625 5.0625 0.0625 C7.0625 0.0625 9.0625 0.0625 11.0625 0.0625 C10.0725 3.3625 9.0825 6.6625 8.0625 10.0625 C3.4425 10.0625 -1.1775 10.0625 -5.9375 10.0625 C-3.82883052 0.08146448 -3.82883052 0.08146448 0 0 Z " fill="#ECE943" transform="translate(93.9375,122.9375)"/>
<path d="M0 0 C9.00105708 -0.61839323 9.00105708 -0.61839323 12.625 1.625 C14.36781772 4.63532152 14.37252607 6.57276017 14 10 C13.67 10.66 13.34 11.32 13 12 C7.39 12 1.78 12 -4 12 C-3.67 10.35 -3.34 8.7 -3 7 C-2.67 7.66 -2.34 8.32 -2 9 C0.97 9 3.94 9 7 9 C6.67 7.68 6.34 6.36 6 5 C2.51202512 3.20728609 2.51202512 3.20728609 -1 2 C-0.67 1.34 -0.34 0.68 0 0 Z " fill="#090801" transform="translate(141,94)"/>
<path d="M0 0 C0.99 0.99 1.98 1.98 3 3 C2.20969983 5.70873873 1.41780434 8.41699416 0.625 11.125 C0.29242188 12.26582031 0.29242188 12.26582031 -0.046875 13.4296875 C-1.28382784 17.64987953 -2.57708693 21.83764682 -4 26 C-4.99 25.67 -5.98 25.34 -7 25 C-10.15020361 25.88319294 -10.15020361 25.88319294 -13 27 C-13 27.66 -13 28.32 -13 29 C-14.32 29 -15.64 29 -17 29 C-17 28.34 -17 27.68 -17 27 C-17.74765625 27.04640625 -18.4953125 27.0928125 -19.265625 27.140625 C-27.25453113 27.43341214 -27.25453113 27.43341214 -30.6875 25.4375 C-32.46422538 22.13786716 -32.34179024 19.69133463 -32 16 C-31.67 15.34 -31.34 14.68 -31 14 C-30.34 14.33 -29.68 14.66 -29 15 C-29 17.97 -29 20.94 -29 24 C-26.07539571 25.46230215 -23.44347176 25.20908727 -20.1875 25.25 C-18.96417969 25.27578125 -17.74085937 25.3015625 -16.48046875 25.328125 C-12.74868609 24.97630711 -10.95691432 24.24683095 -8 22 C-3.19725427 15.59633903 -1.85163999 7.65278869 0 0 Z " fill="#E0DD46" transform="translate(49,90)"/>
<path d="M0 0 C1.32 0.33 2.64 0.66 4 1 C3.34 3.97 2.68 6.94 2 10 C2.63164063 9.98839844 3.26328125 9.97679688 3.9140625 9.96484375 C11.64964919 9.8868191 19.29234406 10.36988506 27 11 C27 11.66 27 12.32 27 13 C15.45 13 3.9 13 -8 13 C-8 12.67 -8 12.34 -8 12 C-6.35 12 -4.7 12 -3 12 C-3.226875 11.484375 -3.45375 10.96875 -3.6875 10.4375 C-4.16000886 6.75193088 -2.6031717 4.26800385 -1 1 C-0.67 0.67 -0.34 0.34 0 0 Z " fill="#F5F01D" transform="translate(85,106)"/>
<path d="M0 0 C0.66 0 1.32 0 2 0 C2 1.98 2 3.96 2 6 C2.90363281 6 3.80726562 6 4.73828125 6 C9.15885417 6 13.57942708 6 18 6 C18.66 6.66 19.32 7.32 20 8 C16.77396455 9.61301773 13.25289962 9.12053599 9.7109375 9.09765625 C8.48330185 9.09553383 8.48330185 9.09553383 7.23086548 9.09336853 C4.61220675 9.0877629 1.99363296 9.07520948 -0.625 9.0625 C-2.39843627 9.05748572 -4.17187387 9.05292269 -5.9453125 9.04882812 C-10.29690782 9.03779164 -14.6484395 9.02052325 -19 9 C-19 8.34 -19 7.68 -19 7 C-17.03533587 5.93224776 -15.03144641 4.93446535 -13 4 C-12.34 4.33 -11.68 4.66 -11 5 C-9.46331135 5.22467831 -7.92031946 5.40796805 -6.375 5.5625 C-5.55773438 5.64628906 -4.74046875 5.73007813 -3.8984375 5.81640625 C-3.27195312 5.87699219 -2.64546875 5.93757813 -2 6 C-1.34 4.02 -0.68 2.04 0 0 Z " fill="#F7F31D" transform="translate(55,110)"/>
<path d="M0 0 C0.9384375 -0.01675781 1.876875 -0.03351563 2.84375 -0.05078125 C5.93731882 0.37230978 7.30758913 1.10984422 9.5 3.3125 C9.75 6.5 9.75 6.5 9.5 9.3125 C6.86 9.3125 4.22 9.3125 1.5 9.3125 C1.5 7.9925 1.5 6.6725 1.5 5.3125 C-1.47065509 5.65477572 -1.47065509 5.65477572 -4.5 6.3125 C-4.83 6.9725 -5.16 7.6325 -5.5 8.3125 C-6.16 8.3125 -6.82 8.3125 -7.5 8.3125 C-7.5 6.9925 -7.5 5.6725 -7.5 4.3125 C-8.16 3.6525 -8.82 2.9925 -9.5 2.3125 C-6.25199139 0.38974018 -3.75605246 0.01547824 0 0 Z " fill="#171502" transform="translate(171.5,93.6875)"/>
<path d="M0 0 C8.25 0.33 16.5 0.66 25 1 C25 1.33 25 1.66 25 2 C17.08 2 9.16 2 1 2 C0.67 3.98 0.34 5.96 0 8 C2.31 8 4.62 8 7 8 C6.67 10.31 6.34 12.62 6 15 C5.34 15 4.68 15 4 15 C4 13.35 4 11.7 4 10 C3.01 9.67 2.02 9.34 1 9 C0.67 9.66 0.34 10.32 0 11 C0 10.34 0 9.68 0 9 C-2.39614126 8.94574774 -4.79103853 8.90620973 -7.1875 8.875 C-7.86103516 8.85824219 -8.53457031 8.84148437 -9.22851562 8.82421875 C-13.28807807 8.78461326 -16.34998815 9.19979998 -20 11 C-20 11.66 -20 12.32 -20 13 C-20.66 13 -21.32 13 -22 13 C-21.67 11.35 -21.34 9.7 -21 8 C-25.54170996 9.90884692 -25.54170996 9.90884692 -30 12 C-29.67 10.68 -29.34 9.36 -29 8 C-19.70667786 5.17464327 -10.52499175 6.23219021 -1 7 C-0.67 4.69 -0.34 2.38 0 0 Z " fill="#C8C538" transform="translate(115,86)"/>
<path d="M0 0 C3.63 0 7.26 0 11 0 C10.54177532 3.46941546 10.10868317 6.67395049 9 10 C5 10 1 10 -3 10 C-2.01 6.7 -1.02 3.4 0 0 Z " fill="#DDDB39" transform="translate(155,123)"/>
<path d="M0 0 C1.98 0 3.96 0 6 0 C7.1750709 3.52521269 6.72717795 4.65667856 5.625 8.125 C5.21121094 9.45917969 5.21121094 9.45917969 4.7890625 10.8203125 C4 13 4 13 3 14 C0.66702567 14.04092937 -1.66705225 14.04241723 -4 14 C-3.52372025 12.04096255 -3.04388577 10.08278903 -2.5625 8.125 C-2.29566406 7.03445312 -2.02882813 5.94390625 -1.75390625 4.8203125 C-1 2 -1 2 0 0 Z " fill="#0A0903" transform="translate(76,102)"/>
<path d="M0 0 C0.66 0.99 1.32 1.98 2 3 C1.67 3.33 1.34 3.66 1 4 C0.63239269 6.32817964 0.29758419 8.6618385 0 11 C-0.66 11 -1.32 11 -2 11 C-2 12.98 -2 14.96 -2 17 C-0.68 17 0.64 17 2 17 C1.67 15.35 1.34 13.7 1 12 C2.32 11.67 3.64 11.34 5 11 C4.74337755 12.44010481 4.46909179 13.8770687 4.1875 15.3125 C4.03667969 16.11300781 3.88585938 16.91351563 3.73046875 17.73828125 C2.91008287 20.27840652 2.10880839 21.38738182 0 23 C-2.6875 23.1875 -2.6875 23.1875 -5 23 C-6.85559754 17.79372346 -4.84335018 13.62478049 -3.0625 8.6875 C-2.77181641 7.85154297 -2.48113281 7.01558594 -2.18164062 6.15429688 C-1.46524446 4.09906197 -0.73406239 2.04899155 0 0 Z " fill="#EEEA32" transform="translate(33,88)"/>
<path d="M0 0 C0.99 0.33 1.98 0.66 3 1 C3 1.33 3 1.66 3 2 C5.31 2.33 7.62 2.66 10 3 C9.6875 4.875 9.6875 4.875 9 7 C6 9 6 9 3.375 8.75 C2.59125 8.5025 1.8075 8.255 1 8 C0.67 7.34 0.34 6.68 0 6 C-0.99 6.33 -1.98 6.66 -3 7 C-3.66 6.67 -4.32 6.34 -5 6 C-5 7.32 -5 8.64 -5 10 C-4.01 10.33 -3.02 10.66 -2 11 C-2.33 11.66 -2.66 12.32 -3 13 C-4.32 12.34 -5.64 11.68 -7 11 C-7.3125 8.8125 -7.3125 8.8125 -7 6 C-4.82453396 3.48103932 -2.989803 1.4949015 0 0 Z " fill="#221F01" transform="translate(96,103)"/>
<path d="M0 0 C1.85625 0.1546875 1.85625 0.1546875 3.75 0.3125 C4.08 1.6325 4.41 2.9525 4.75 4.3125 C3.43 4.3125 2.11 4.3125 0.75 4.3125 C0.75 3.6525 0.75 2.9925 0.75 2.3125 C-1.4977975 4.36483685 -2.2522242 5.31917261 -3.25 8.3125 C-2.59 8.3125 -1.93 8.3125 -1.25 8.3125 C-1.25 7.6525 -1.25 6.9925 -1.25 6.3125 C0.4 6.3125 2.05 6.3125 3.75 6.3125 C3.09 7.6325 2.43 8.9525 1.75 10.3125 C-1.22 10.3125 -4.19 10.3125 -7.25 10.3125 C-8 8.125 -8 8.125 -8.25 5.3125 C-6.14964023 1.20310044 -4.49932993 0 0 0 Z " fill="#E1DE3B" transform="translate(35.25,122.6875)"/>
<path d="M0 0 C3.3 0 6.6 0 10 0 C10 0.66 10 1.32 10 2 C8.02 2.33 6.04 2.66 4 3 C5.32 3.33 6.64 3.66 8 4 C8 4.66 8 5.32 8 6 C6.02 6 4.04 6 2 6 C2 6.66 2 7.32 2 8 C3.65 8 5.3 8 7 8 C7 8.66 7 9.32 7 10 C3.7 10 0.4 10 -3 10 C-2.01 6.7 -1.02 3.4 0 0 Z " fill="#EDEB57" transform="translate(61,123)"/>
<path d="M0 0 C1.5390625 1.21484375 1.5390625 1.21484375 3 3 C2.9609375 5.19140625 2.9609375 5.19140625 2.375 7.5625 C2.19710937 8.34753906 2.01921875 9.13257812 1.8359375 9.94140625 C1 12 1 12 -2 14 C-2 15.32 -2 16.64 -2 18 C-3.32 18 -4.64 18 -6 18 C-6 16.02 -6 14.04 -6 12 C-5.34 12 -4.68 12 -4 12 C-4 9.69 -4 7.38 -4 5 C-2.68 4.34 -1.36 3.68 0 3 C0 2.01 0 1.02 0 0 Z " fill="#FAF31B" transform="translate(37,87)"/>
<path d="M0 0 C3.3 0 6.6 0 10 0 C10 0.66 10 1.32 10 2 C8.02 2 6.04 2 4 2 C4 2.66 4 3.32 4 4 C5.32 4 6.64 4 8 4 C8 4.66 8 5.32 8 6 C6.02 6 4.04 6 2 6 C2 6.66 2 7.32 2 8 C3.65 8 5.3 8 7 8 C7 8.66 7 9.32 7 10 C3.7 10 0.4 10 -3 10 C-2.01 6.7 -1.02 3.4 0 0 Z " fill="#EFED56" transform="translate(125,123)"/>
<path d="M0 0 C2.64 0 5.28 0 8 0 C7.01 3.3 6.02 6.6 5 10 C2 10 2 10 -0.1875 8 C-0.785625 7.34 -1.38375 6.68 -2 6 C-1.34 4.02 -0.68 2.04 0 0 Z " fill="#0D0B03" transform="translate(187,87)"/>
<path d="M0 0 C1.65 0 3.3 0 5 0 C4.01 3.63 3.02 7.26 2 11 C-0.64 11 -3.28 11 -6 11 C-5.67 9.02 -5.34 7.04 -5 5 C-4.34 5.33 -3.68 5.66 -3 6 C-2.01 4.02 -1.02 2.04 0 0 Z " fill="#171602" transform="translate(51,105)"/>
<path d="M0 0 C2.625 0.375 2.625 0.375 5 1 C4.3046875 2.95703125 4.3046875 2.95703125 3 5 C0.7578125 5.57421875 0.7578125 5.57421875 -1.875 5.6875 C-5.05975783 5.85386795 -7.92780456 6.12120921 -11 7 C-11 6.34 -11 5.68 -11 5 C-13.31 5 -15.62 5 -18 5 C-17.67 4.34 -17.34 3.68 -17 3 C-14.69 3 -12.38 3 -10 3 C-9.67 2.34 -9.34 1.68 -9 1 C-9 1.66 -9 2.32 -9 3 C-3.98464948 2.67039784 -3.98464948 2.67039784 0 0 Z " fill="#EEE957" transform="translate(103,98)"/>
<path d="M0 0 C3.3 0 6.6 0 10 0 C10 0.99 10 1.98 10 3 C9.01 3.33 8.02 3.66 7 4 C5.77479736 7.00847418 5.77479736 7.00847418 5 10 C3.35 10 1.7 10 0 10 C0.66 7.69 1.32 5.38 2 3 C1.34 3 0.68 3 0 3 C0 2.01 0 1.02 0 0 Z " fill="#E0DF47" transform="translate(186,123)"/>
<path d="M0 0 C1.32 0.33 2.64 0.66 4 1 C4.34548714 7.33393082 3.29342747 12.10261508 1 18 C0.67 18 0.34 18 0 18 C0.33 15.69 0.66 13.38 1 11 C0.34 11 -0.32 11 -1 11 C-1.33 12.32 -1.66 13.64 -2 15 C-3.31534494 11.34142468 -2.65468309 8.91973519 -1.5625 5.25 C-1.27503906 4.26515625 -0.98757812 3.2803125 -0.69140625 2.265625 C-0.46324219 1.51796875 -0.23507813 0.7703125 0 0 Z " fill="#E7E53C" transform="translate(116,95)"/>
<path d="M0 0 C0.33 0 0.66 0 1 0 C1.1953125 2.05078125 1.390625 4.1015625 1.5859375 6.15234375 C1.72257812 6.76207031 1.85921875 7.37179688 2 8 C2.66 8.33 3.32 8.66 4 9 C3.01 9 2.02 9 1 9 C0.67 8.67 0.34 8.34 0 8 C0 8.99 0 9.98 0 11 C-0.84820312 10.83628906 -1.69640625 10.67257813 -2.5703125 10.50390625 C-6.0645531 9.99051555 -9.34627574 9.90149261 -12.875 9.9375 C-14.02742187 9.94652344 -15.17984375 9.95554687 -16.3671875 9.96484375 C-17.23601562 9.97644531 -18.10484375 9.98804687 -19 10 C-19 9.67 -19 9.34 -19 9 C-18.33613281 8.96261719 -17.67226562 8.92523438 -16.98828125 8.88671875 C-10.01433671 8.39055034 -10.01433671 8.39055034 -4 5 C-3.67 4.34 -3.34 3.68 -3 3 C-2.34 3 -1.68 3 -1 3 C-0.67 2.01 -0.34 1.02 0 0 Z " fill="#DDDA2C" transform="translate(155,107)"/>
<path d="M0 0 C1.28132813 0.19464844 2.56265625 0.38929687 3.8828125 0.58984375 C4.87023437 0.74582031 5.85765625 0.90179688 6.875 1.0625 C4.875 3.0625 4.875 3.0625 2.99560547 3.28955078 C2.25197754 3.27907715 1.50834961 3.26860352 0.7421875 3.2578125 C-0.06347656 3.25136719 -0.86914062 3.24492188 -1.69921875 3.23828125 C-2.54097656 3.22152344 -3.38273438 3.20476562 -4.25 3.1875 C-5.52423828 3.17396484 -5.52423828 3.17396484 -6.82421875 3.16015625 C-8.92459884 3.13655647 -11.02483444 3.10068483 -13.125 3.0625 C-13.125 2.4025 -13.125 1.7425 -13.125 1.0625 C-15.105 1.0625 -17.085 1.0625 -19.125 1.0625 C-19.125 0.7325 -19.125 0.4025 -19.125 0.0625 C-18.07699219 0.07990234 -18.07699219 0.07990234 -17.0078125 0.09765625 C-16.09773437 0.10667969 -15.18765625 0.11570312 -14.25 0.125 C-12.89261719 0.14240234 -12.89261719 0.14240234 -11.5078125 0.16015625 C-1.5929878 -0.24618902 -1.5929878 -0.24618902 0 0 Z " fill="#F8F31D" transform="translate(181.125,115.9375)"/>
<path d="M0 0 C0.33 0 0.66 0 1 0 C0.98839844 0.80824219 0.97679687 1.61648437 0.96484375 2.44921875 C0.95582031 3.51785156 0.94679687 4.58648437 0.9375 5.6875 C0.92589844 6.74324219 0.91429687 7.79898438 0.90234375 8.88671875 C0.90139112 11.96416972 0.90139112 11.96416972 1.6171875 14.7578125 C1.74351562 15.49773437 1.86984375 16.23765625 2 17 C0.1875 19.1875 0.1875 19.1875 -2 21 C-2.66 21.66 -3.32 22.32 -4 23 C-5.50154136 19.1035952 -4.42805244 16.4802379 -3.125 12.625 C-1.71372306 8.41090732 -0.62532824 4.40390736 0 0 Z " fill="#E7E231" transform="translate(205,96)"/>
<path d="M0 0 C-0.33 2.31 -0.66 4.62 -1 7 C-3.97 7 -6.94 7 -10 7 C-10.66 5.02 -11.32 3.04 -12 1 C-11.01 1 -10.02 1 -9 1 C-8.67 1.66 -8.34 2.32 -8 3 C-7.4225 2.505 -6.845 2.01 -6.25 1.5 C-4 0 -4 0 0 0 Z " fill="#080600" transform="translate(94,94)"/>
<path d="M0 0 C1.32 0 2.64 0 4 0 C4 0.99 4 1.98 4 3 C4.99 3.33 5.98 3.66 7 4 C6.34 4 5.68 4 5 4 C4.87625 4.61875 4.7525 5.2375 4.625 5.875 C4 8 4 8 2 10 C0.35 10 -1.3 10 -3 10 C-2.01 6.7 -1.02 3.4 0 0 Z " fill="#F6F130" transform="translate(167,101)"/>
<path d="M0 0 C5.28 0 10.56 0 16 0 C16.33 1.65 16.66 3.3 17 5 C16.34 4.34 15.68 3.68 15 3 C13.08993694 2.6823754 13.08993694 2.6823754 11 2.75 C10.29875 2.74484375 9.5975 2.7396875 8.875 2.734375 C6.7564331 2.84294485 6.7564331 2.84294485 5 5 C2.375 4.625 2.375 4.625 0 4 C0 2.68 0 1.36 0 0 Z " fill="#EFEF60" transform="translate(138,107)"/>
<path d="M0 0 C1.98 0 3.96 0 6 0 C5.01 3.3 4.02 6.6 3 10 C1.68 10 0.36 10 -1 10 C-0.67 8.35 -0.34 6.7 0 5 C-0.66 4.67 -1.32 4.34 -2 4 C-1.34 2.68 -0.68 1.36 0 0 Z " fill="#ECE946" transform="translate(99,123)"/>
<path d="M0 0 C0.66 0.33 1.32 0.66 2 1 C1.5247412 2.64696604 1.04468109 4.29254728 0.5625 5.9375 C0.29566406 6.85402344 0.02882813 7.77054687 -0.24609375 8.71484375 C-1 11 -1 11 -2 12 C-4.33297433 12.04092937 -6.66705225 12.04241723 -9 12 C-8.67 10.02 -8.34 8.04 -8 6 C-6.68 6.66 -5.36 7.32 -4 8 C-3.67 6.68 -3.34 5.36 -3 4 C-2.34 4 -1.68 4 -1 4 C-0.67 2.68 -0.34 1.36 0 0 Z " fill="#0D0901" transform="translate(81,104)"/>
<path d="M0 0 C1.65 0 3.3 0 5 0 C5 1.65 5 3.3 5 5 C4.01 5 3.02 5 2 5 C1.67 6.65 1.34 8.3 1 10 C-0.32 10 -1.64 10 -3 10 C-2.01 6.7 -1.02 3.4 0 0 Z " fill="#EBE845" transform="translate(155,123)"/>
<path d="M0 0 C1.134375 0.020625 2.26875 0.04125 3.4375 0.0625 C2.7775 3.0325 2.1175 6.0025 1.4375 9.0625 C1.1075 7.7425 0.7775 6.4225 0.4375 5.0625 C0.1075 4.4025 -0.2225 3.7425 -0.5625 3.0625 C-3.5165719 7.32827569 -3.5165719 7.32827569 -5.5625 12.0625 C-6.2225 11.7325 -6.8825 11.4025 -7.5625 11.0625 C-7.0872412 9.41553396 -6.60718109 7.76995272 -6.125 6.125 C-5.85816406 5.20847656 -5.59132812 4.29195313 -5.31640625 3.34765625 C-4.11553837 -0.29228007 -4.12005153 0.07228161 0 0 Z " fill="#171102" transform="translate(57.5625,86.9375)"/>
<path d="M0 0 C0.66 0.33 1.32 0.66 2 1 C2 3.97 2 6.94 2 10 C5.171738 11.585869 8.63513822 11.37866445 12.125 11.5625 C13.25615234 11.62727539 13.25615234 11.62727539 14.41015625 11.69335938 C16.27321888 11.7994832 18.13658524 11.90025001 20 12 C19.01 12.495 19.01 12.495 18 13 C18 13.66 18 14.32 18 15 C16.68 15 15.36 15 14 15 C14 14.34 14 13.68 14 13 C13.25234375 13.04640625 12.5046875 13.0928125 11.734375 13.140625 C3.74546887 13.43341214 3.74546887 13.43341214 0.3125 11.4375 C-1.46422538 8.13786716 -1.34179024 5.69133463 -1 2 C-0.67 1.34 -0.34 0.68 0 0 Z " fill="#E2DC43" transform="translate(18,104)"/>
<path d="M0 0 C2.05078125 0.03255208 4.1015625 0.06510417 6.15234375 0.09765625 C4.70762029 3.90647264 2.82631304 5.39508511 -0.84765625 7.09765625 C-1.83765625 6.76765625 -2.82765625 6.43765625 -3.84765625 6.09765625 C-2.77957394 0.14691194 -2.77957394 0.14691194 0 0 Z " fill="#150F01" transform="translate(146.84765625,108.90234375)"/>
<path d="M0 0 C2.97 0 5.94 0 9 0 C8.34 1.98 7.68 3.96 7 6 C5.02 6 3.04 6 1 6 C-0.0625 4.125 -0.0625 4.125 -1 2 C-0.67 1.34 -0.34 0.68 0 0 Z " fill="#111101" transform="translate(132,88)"/>
<path d="M0 0 C-2.93720508 1.52299523 -5.9168649 2.80100302 -9 4 C-9 4.66 -9 5.32 -9 6 C-9.66 6 -10.32 6 -11 6 C-10.67 4.35 -10.34 2.7 -10 1 C-14.54170996 2.90884692 -14.54170996 2.90884692 -19 5 C-18.67 3.68 -18.34 2.36 -18 1 C-11.60985973 -0.58444052 -6.49551291 -1.20287276 0 0 Z " fill="#DBDC45" transform="translate(104,93)"/>
<path d="M0 0 C1.53202706 0.25195908 3.05257128 0.57596777 4.5625 0.9375 C5.80193359 1.22947266 5.80193359 1.22947266 7.06640625 1.52734375 C7.70449219 1.68332031 8.34257812 1.83929688 9 2 C9 2.33 9 2.66 9 3 C1.74 3 -5.52 3 -13 3 C-13 2.34 -13 1.68 -13 1 C-11.71802734 1.01740234 -11.71802734 1.01740234 -10.41015625 1.03515625 C-8.75306641 1.04869141 -8.75306641 1.04869141 -7.0625 1.0625 C-5.40927734 1.07990234 -5.40927734 1.07990234 -3.72265625 1.09765625 C-1.08552366 1.31262571 -1.08552366 1.31262571 0 0 Z " fill="#F9F318" transform="translate(128,116)"/>
<path d="M0 0 C2.97 0 5.94 0 9 0 C8.34 3.3 7.68 6.6 7 10 C4.36 10.33 1.72 10.66 -1 11 C-1 10.34 -1 9.68 -1 9 C-0.05125 8.38125 0.8975 7.7625 1.875 7.125 C4.82241872 5.12075527 5.83853833 4.25209269 7 1 C4.69 1 2.38 1 0 1 C0 0.67 0 0.34 0 0 Z " fill="#E9E451" transform="translate(172,106)"/>
<path d="M0 0 C0.66 0.33 1.32 0.66 2 1 C1.54177532 4.46941546 1.10868317 7.67395049 0 11 C-0.99 10.67 -1.98 10.34 -3 10 C-5.00875442 10.27571139 -7.01178687 10.60235737 -9 11 C-8.2575 10.484375 -7.515 9.96875 -6.75 9.4375 C-3.46371455 6.52465608 -2.01236241 3.87566094 0 0 Z " fill="#E9E744" transform="translate(45,105)"/>
<path d="M0 0 C1.4540625 0.0309375 1.4540625 0.0309375 2.9375 0.0625 C2.625 1.9375 2.625 1.9375 1.9375 4.0625 C-1.0625 6.0625 -1.0625 6.0625 -3.75 5.6875 C-4.513125 5.48125 -5.27625 5.275 -6.0625 5.0625 C-3.64893617 0.07446809 -3.64893617 0.07446809 0 0 Z " fill="#DCDA3E" transform="translate(103.0625,105.9375)"/>
<path d="M0 0 C2.64 0 5.28 0 8 0 C7.67 1.98 7.34 3.96 7 6 C7.99 6 8.98 6 10 6 C9.67 6.66 9.34 7.32 9 8 C8.01 7.67 7.02 7.34 6 7 C5.66666667 5.66666667 5.33333333 4.33333333 5 3 C4.01 2.67 3.02 2.34 2 2 C2 2.66 2 3.32 2 4 C1.34 4 0.68 4 0 4 C-0.33 5.32 -0.66 6.64 -1 8 C-2.32 7.34 -3.64 6.68 -5 6 C-3.68 6 -2.36 6 -1 6 C-0.67 4.02 -0.34 2.04 0 0 Z " fill="#2B2506" transform="translate(66,88)"/>
<path d="M0 0 C3.96 0 7.92 0 12 0 C12 0.33 12 0.66 12 1 C9.69 1 7.38 1 5 1 C4.67 2.98 4.34 4.96 4 7 C2.68 7 1.36 7 0 7 C0 4.69 0 2.38 0 0 Z " fill="#E2DC38" transform="translate(61,87)"/>
<path d="M0 0 C0.66 0.99 1.32 1.98 2 3 C2.99 3.66 3.98 4.32 5 5 C1.6875 6.125 1.6875 6.125 -2 7 C-2.99 6.34 -3.98 5.68 -5 5 C-5 3.68 -5 2.36 -5 1 C-3.35 0.67 -1.7 0.34 0 0 Z " fill="#070604" transform="translate(96,108)"/>
<path d="M0 0 C0 1.32 0 2.64 0 4 C-2.64 4 -5.28 4 -8 4 C-7.625 2.0625 -7.625 2.0625 -7 0 C-4.3333581 -1.33332095 -2.83319697 -0.67102033 0 0 Z " fill="#D9D541" transform="translate(148,99)"/>
<path d="M0 0 C0.33 0 0.66 0 1 0 C1.125 6.625 1.125 6.625 0 10 C0.99 10 1.98 10 3 10 C2.67 11.65 2.34 13.3 2 15 C0.35 14.01 -1.3 13.02 -3 12 C-2.01 8.04 -1.02 4.08 0 0 Z " fill="#CDCA3E" transform="translate(60,89)"/>
<path d="M0 0 C2.97 0.33 5.94 0.66 9 1 C9 1.33 9 1.66 9 2 C6.36 2.33 3.72 2.66 1 3 C-0.32 7.29 -1.64 11.58 -3 16 C-3.94387074 12.22451702 -4.02924388 11.0164254 -3.1875 7.4375 C-3.01605469 6.67308594 -2.84460938 5.90867187 -2.66796875 5.12109375 C-2 3 -2 3 0 0 Z " fill="#DBDA38" transform="translate(24,86)"/>
<path d="M0 0 C2.64 0.33 5.28 0.66 8 1 C8 1.66 8 2.32 8 3 C5.69 3.33 3.38 3.66 1 4 C0.34 5.65 -0.32 7.3 -1 9 C-2.1875 7.3125 -2.1875 7.3125 -3 5 C-1.625 2.25 -1.625 2.25 0 0 Z " fill="#EFED42" transform="translate(53,84)"/>
<path d="M0 0 C0.66 0.33 1.32 0.66 2 1 C2 1.99 2 2.98 2 4 C4.97 4.495 4.97 4.495 8 5 C8 5.99 8 6.98 8 8 C5.36 7.67 2.72 7.34 0 7 C-1.125 2.25 -1.125 2.25 0 0 Z " fill="#E6E12C" transform="translate(42,81)"/>
<path d="M0 0 C1.32 0.66 2.64 1.32 4 2 C3.67 3.32 3.34 4.64 3 6 C2.34 6 1.68 6 1 6 C1 6.66 1 7.32 1 8 C-0.32 8 -1.64 8 -3 8 C-3.33 7.01 -3.66 6.02 -4 5 C-3.34 4.01 -2.68 3.02 -2 2 C-1.67 2.66 -1.34 3.32 -1 4 C-0.67 2.68 -0.34 1.36 0 0 Z " fill="#C1BE2C" transform="translate(96,125)"/>
<path d="M0 0 C2.97 0 5.94 0 9 0 C5.71195019 2.91227269 3.40114397 4.49701212 -1 5 C-0.67 3.35 -0.34 1.7 0 0 Z " fill="#EFEA44" transform="translate(131,94)"/>
<path d="M0 0 C0.515625 0.639375 1.03125 1.27875 1.5625 1.9375 C4.65935623 4.55791681 7.02067623 4.69389817 11 5 C11 5.33 11 5.66 11 6 C8.69 6 6.38 6 4 6 C4 6.66 4 7.32 4 8 C3.34 8 2.68 8 2 8 C2 7.34 2 6.68 2 6 C1.01 6 0.02 6 -1 6 C-1.042721 4.33388095 -1.04063832 2.66617115 -1 1 C-0.67 0.67 -0.34 0.34 0 0 Z " fill="#F3F03D" transform="translate(74,88)"/>
<path d="M0 0 C0 0.66 0 1.32 0 2 C0.99 1.67 1.98 1.34 3 1 C3 1.66 3 2.32 3 3 C-2.28 3 -7.56 3 -13 3 C-8.29785627 0.64892813 -5.22704461 0 0 0 Z " fill="#FAF219" transform="translate(153,116)"/>
<path d="M0 0 C0.33 0 0.66 0 1 0 C1.02689216 1.47906892 1.04634621 2.95827483 1.0625 4.4375 C1.07410156 5.26121094 1.08570312 6.08492188 1.09765625 6.93359375 C1 9 1 9 0 10 C1.65 10.33 3.3 10.66 5 11 C5 11.33 5 11.66 5 12 C2.36 12 -0.28 12 -3 12 C-2.68950274 10.56206608 -2.3765224 9.1246682 -2.0625 7.6875 C-1.88847656 6.88699219 -1.71445313 6.08648437 -1.53515625 5.26171875 C-1 3 -1 3 0 0 Z " fill="#242001" transform="translate(119,104)"/>
<path d="M0 0 C2.625 0.375 2.625 0.375 5 1 C4.01 1.66 3.02 2.32 2 3 C1.34 2.67 0.68 2.34 0 2 C0 3.32 0 4.64 0 6 C0.99 6.33 1.98 6.66 3 7 C2.67 7.66 2.34 8.32 2 9 C0.68 8.34 -0.64 7.68 -2 7 C-2.125 4.625 -2.125 4.625 -2 2 C-1.34 1.34 -0.68 0.68 0 0 Z " fill="#151301" transform="translate(91,107)"/>
<path d="M0 0 C0.928125 0.0825 1.85625 0.165 2.8125 0.25 C2.4825 0.91 2.1525 1.57 1.8125 2.25 C0.4925 2.25 -0.8275 2.25 -2.1875 2.25 C-3.1775 5.22 -4.1675 8.19 -5.1875 11.25 C-5.8475 11.25 -6.5075 11.25 -7.1875 11.25 C-6.15216565 0.4825228 -6.15216565 0.4825228 0 0 Z " fill="#D3D345" transform="translate(170.1875,98.75)"/>
<path d="M0 0 C1.67542976 0.28604898 3.34385343 0.61781233 5 1 C4.34 2.32 3.68 3.64 3 5 C1.35 5 -0.3 5 -2 5 C-1.125 1.125 -1.125 1.125 0 0 Z " fill="#E1DF47" transform="translate(103,98)"/>
<path d="M0 0 C-0.33 2.31 -0.66 4.62 -1 7 C-2.32 6.67 -3.64 6.34 -5 6 C-5.33 4.35 -5.66 2.7 -6 1 C-4 0 -4 0 0 0 Z " fill="#110E01" transform="translate(94,94)"/>
<path d="M0 0 C0.66 0 1.32 0 2 0 C2 1.98 2 3.96 2 6 C-2.32734391 8.22923777 -5.28400182 7.92470553 -10 7 C-10 6.67 -10 6.34 -10 6 C-7.36 6 -4.72 6 -2 6 C-1.34 4.02 -0.68 2.04 0 0 Z " fill="#F8F52E" transform="translate(55,110)"/>
<path d="M0 0 C1.65 0 3.3 0 5 0 C4.34 1.32 3.68 2.64 3 4 C0.03 4 -2.94 4 -6 4 C-3 2 -3 2 0 2 C0 1.34 0 0.68 0 0 Z " fill="#DEE25A" transform="translate(34,129)"/>
<path d="M0 0 C3.96 0 7.92 0 12 0 C11 2 11 2 9.4375 2.6875 C5.83532854 3.14931685 2.58833068 2.5382496 -1 2 C-0.67 1.34 -0.34 0.68 0 0 Z " fill="#1D1802" transform="translate(32,121)"/>
<path d="M0 0 C0.33 0 0.66 0 1 0 C2.125 5.75 2.125 5.75 1 8 C0.01 8 -0.98 8 -2 8 C-1.67 8.99 -1.34 9.98 -1 11 C-1.66 11.66 -2.32 12.32 -3 13 C-2.88490339 11.58249437 -2.75746342 10.16598831 -2.625 8.75 C-2.55539063 7.96109375 -2.48578125 7.1721875 -2.4140625 6.359375 C-1.98492887 3.914123 -1.21399362 2.15163097 0 0 Z " fill="#201B02" transform="translate(133,99)"/>
<path d="M0 0 C1.65 0 3.3 0 5 0 C4.25 6.625 4.25 6.625 2 10 C2 7.69 2 5.38 2 3 C0.68 3.33 -0.64 3.66 -2 4 C-1.34 2.68 -0.68 1.36 0 0 Z " fill="#E1DF49" transform="translate(192,100)"/>
<path d="M0 0 C2.64 0 5.28 0 8 0 C7.34 2.64 6.68 5.28 6 8 C4.68 6.35 3.36 4.7 2 3 C2.66 2.67 3.32 2.34 4 2 C2.68 1.34 1.36 0.68 0 0 Z " fill="#211E01" transform="translate(187,87)"/>
<path d="M0 0 C0.33 0 0.66 0 1 0 C1 1.65 1 3.3 1 5 C2.65 5 4.3 5 6 5 C6 5.33 6 5.66 6 6 C-0.28571429 8.42857143 -0.28571429 8.42857143 -4 7 C-4 6.34 -4 5.68 -4 5 C-3.01 4.67 -2.02 4.34 -1 4 C-0.26676204 1.98491642 -0.26676204 1.98491642 0 0 Z " fill="#1F1900" transform="translate(157,128)"/>
<path d="M0 0 C0.66 0.33 1.32 0.66 2 1 C1.7834375 2.04800781 1.7834375 2.04800781 1.5625 3.1171875 C1.376875 4.02726562 1.19125 4.93734375 1 5.875 C0.814375 6.77992187 0.62875 7.68484375 0.4375 8.6171875 C-0.06019595 10.92407903 -0.06019595 10.92407903 0 13 C-0.99 12.67 -1.98 12.34 -3 12 C-2.01 8.04 -1.02 4.08 0 0 Z " fill="#DEDC38" transform="translate(82,105)"/>
<path d="M0 0 C1.485 0.99 1.485 0.99 3 2 C2.67 4.31 2.34 6.62 2 9 C1.01 8.67 0.02 8.34 -1 8 C-0.67 5.36 -0.34 2.72 0 0 Z " fill="#161101" transform="translate(60,107)"/>
<path d="M0 0 C2 3 2 3 1.625 6.1875 C1.41875 7.115625 1.2125 8.04375 1 9 C-0.65 9.33 -2.3 9.66 -4 10 C-3.71125 9.46375 -3.4225 8.9275 -3.125 8.375 C-1.83288192 5.64719516 -0.91441408 2.87387282 0 0 Z " fill="#1F1F06" transform="translate(37,102)"/>
<path d="M0 0 C5.94 0 11.88 0 18 0 C18 0.33 18 0.66 18 1 C16.329375 1.2165625 16.329375 1.2165625 14.625 1.4375 C11.17857953 1.78372035 11.17857953 1.78372035 9 3 C6.8359375 2.66015625 6.8359375 2.66015625 4.375 2.0625 C3.14910156 1.77052734 3.14910156 1.77052734 1.8984375 1.47265625 C0.95871094 1.23869141 0.95871094 1.23869141 0 1 C0 0.67 0 0.34 0 0 Z " fill="#080500" transform="translate(126,121)"/>
<path d="M0 0 C0.33 0 0.66 0 1 0 C1.22036864 3.85645121 0.60355101 6.49223216 -1 10 C-3 8 -3 8 -3.125 4.875 C-3.08375 3.92625 -3.0425 2.9775 -3 2 C-2.01 2 -1.02 2 0 2 C0 1.34 0 0.68 0 0 Z " fill="#FCF21B" transform="translate(194,101)"/>
<path d="M0 0 C2.64 0 5.28 0 8 0 C8 0.66 8 1.32 8 2 C5.29120665 3.35439668 2.99066732 3.06501451 0 3 C0 2.01 0 1.02 0 0 Z " fill="#090500" transform="translate(99,103)"/>
<path d="M0 0 C0.66 0 1.32 0 2 0 C1.01 3.96 0.02 7.92 -1 12 C-1.33 12 -1.66 12 -2 12 C-2.05422947 10.5629191 -2.09289723 9.12524538 -2.125 7.6875 C-2.14820312 6.88699219 -2.17140625 6.08648437 -2.1953125 5.26171875 C-2 3 -2 3 0 0 Z " fill="#E5E13C" transform="translate(19,121)"/>
<path d="M0 0 C4.62 0 9.24 0 14 0 C13.01 0.495 13.01 0.495 12 1 C12 1.66 12 2.32 12 3 C10.68 3 9.36 3 8 3 C8 2.34 8 1.68 8 1 C5.36 1 2.72 1 0 1 C0 0.67 0 0.34 0 0 Z " fill="#CFCA26" transform="translate(24,116)"/>
<path d="M0 0 C0.66 0 1.32 0 2 0 C1.25 4.75 1.25 4.75 -1 7 C-3.68839385 7.26991906 -6.29141936 7.08737357 -9 7 C-9 6.67 -9 6.34 -9 6 C-5.535 5.505 -5.535 5.505 -2 5 C-1.34 3.35 -0.68 1.7 0 0 Z " fill="#D9DB45" transform="translate(71,110)"/>
<path d="M0 0 C0.33 0 0.66 0 1 0 C0.96519531 0.62648438 0.93039063 1.25296875 0.89453125 1.8984375 C0.86746094 2.71570313 0.84039063 3.53296875 0.8125 4.375 C0.77769531 5.18710938 0.74289063 5.99921875 0.70703125 6.8359375 C0.80371094 7.55007812 0.90039062 8.26421875 1 9 C1.99 9.66 2.98 10.32 4 11 C2.35 11 0.7 11 -1 11 C-2.26264601 6.70700357 -1.62950412 4.12168689 0 0 Z " fill="#D2CC48" transform="translate(29,100)"/>
<path d="M0 0 C2.31 0 4.62 0 7 0 C7.33 1.32 7.66 2.64 8 4 C6.68 4 5.36 4 4 4 C4 3.34 4 2.68 4 2 C2.68 1.34 1.36 0.68 0 0 Z " fill="#EFEE5C" transform="translate(32,123)"/>
<path d="M0 0 C1.32 0.99 2.64 1.98 4 3 C2.68 4.32 1.36 5.64 0 7 C-0.99 6.67 -1.98 6.34 -3 6 C-2.01 4.02 -1.02 2.04 0 0 Z " fill="#130C00" transform="translate(39,108)"/>
<path d="M0 0 C1.32 0 2.64 0 4 0 C4 0.99 4 1.98 4 3 C4.99 3.33 5.98 3.66 7 4 C6.34 4 5.68 4 5 4 C4.67 4.99 4.34 5.98 4 7 C2 6 2 6 0.875 2.9375 C0.58625 1.968125 0.2975 0.99875 0 0 Z " fill="#F3EF1C" transform="translate(167,101)"/>
<path d="M0 0 C1.43655854 -0.08131463 2.8744483 -0.13933559 4.3125 -0.1875 C5.51326172 -0.23970703 5.51326172 -0.23970703 6.73828125 -0.29296875 C9.47851584 0.06198392 10.29171079 0.89366282 12 3 C10.02 3 8.04 3 6 3 C6 2.34 6 1.68 6 1 C4.02 1 2.04 1 0 1 C0 0.67 0 0.34 0 0 Z " fill="#DDD921" transform="translate(162,116)"/>
<path d="M0 0 C0 0.66 0 1.32 0 2 C1.32 2.33 2.64 2.66 4 3 C0.7 3 -2.6 3 -6 3 C-6 2.34 -6 1.68 -6 1 C-4 0 -4 0 0 0 Z " fill="#F9F516" transform="translate(42,116)"/>
<path d="M0 0 C0.99 0.33 1.98 0.66 3 1 C2.67 2.65 2.34 4.3 2 6 C0.68 6 -0.64 6 -2 6 C-1.34 4.02 -0.68 2.04 0 0 Z " fill="#070404" transform="translate(182,109)"/>
<path d="M0 0 C1.65 0.33 3.3 0.66 5 1 C5 1.99 5 2.98 5 4 C3.35 4 1.7 4 0 4 C0 2.68 0 1.36 0 0 Z " fill="#070603" transform="translate(139,112)"/>
<path d="M0 0 C0.66 0 1.32 0 2 0 C2 2.31 2 4.62 2 7 C0.68 7 -0.64 7 -2 7 C-2 6.01 -2 5.02 -2 4 C-1.34 4 -0.68 4 0 4 C0 2.68 0 1.36 0 0 Z " fill="#FAF321" transform="translate(71,102)"/>
<path d="M0 0 C2.475 0.99 2.475 0.99 5 2 C4.67 2.66 4.34 3.32 4 4 C1.36 4 -1.28 4 -4 4 C-2.68 2.68 -1.36 1.36 0 0 Z " fill="#1C1900" transform="translate(138,95)"/>
<path d="M0 0 C1.65 0.33 3.3 0.66 5 1 C0.25 4.875 0.25 4.875 -2 6 C-1.34 4.02 -0.68 2.04 0 0 Z " fill="#110E00" transform="translate(105,124)"/>
<path d="M0 0 C1.65 0 3.3 0 5 0 C4.67 1.32 4.34 2.64 4 4 C2.68 4 1.36 4 0 4 C0 2.68 0 1.36 0 0 Z " fill="#F3EE35" transform="translate(139,108)"/>
<path d="M0 0 C1.32 0.33 2.64 0.66 4 1 C4 2.98 4 4.96 4 7 C3.01 7 2.02 7 1 7 C0.67 4.69 0.34 2.38 0 0 Z " fill="#F8F420" transform="translate(116,95)"/>
<path d="M0 0 C2.64 0.33 5.28 0.66 8 1 C6.3125 2.5625 6.3125 2.5625 4 4 C1.25 3.6875 1.25 3.6875 -1 3 C-0.67 2.01 -0.34 1.02 0 0 Z " fill="#2E2B07" transform="translate(27,132)"/>
<path d="M0 0 C2.97 0 5.94 0 9 0 C9 0.66 9 1.32 9 2 C6.1875 2.6875 6.1875 2.6875 3 3 C2.01 2.01 1.02 1.02 0 0 Z " fill="#080407" transform="translate(140,95)"/>
<path d="M0 0 C1.98 0 3.96 0 6 0 C5.67 2.31 5.34 4.62 5 7 C4.34 7 3.68 7 3 7 C3.061875 6.21625 3.12375 5.4325 3.1875 4.625 C3.125625 3.75875 3.06375 2.8925 3 2 C2.01 1.34 1.02 0.68 0 0 Z " fill="#EBEB43" transform="translate(116,94)"/>
<path d="M0 0 C0.433125 0.61875 0.86625 1.2375 1.3125 1.875 C2.99740483 4.2197245 2.99740483 4.2197245 6 6 C3.69 6 1.38 6 -1 6 C-0.67 4.02 -0.34 2.04 0 0 Z " fill="#211D00" transform="translate(73,110)"/>
<path d="M0 0 C0.66 0 1.32 0 2 0 C0.52307692 4.67692308 0.52307692 4.67692308 -2.125 6.3125 C-3.053125 6.6528125 -3.053125 6.6528125 -4 7 C-2.79618552 4.50638429 -1.54571278 2.31856917 0 0 Z " fill="#1C1701" transform="translate(177,107)"/>
<path d="M0 0 C0 3.69418201 -1.28179295 5.77836178 -3 9 C-3.75 7.3125 -3.75 7.3125 -4 5 C-2.0625 2.25 -2.0625 2.25 0 0 Z " fill="#060400" transform="translate(51,103)"/>
<path d="M0 0 C1.5625 1.1875 1.5625 1.1875 3 3 C2.6875 5.6875 2.6875 5.6875 2 8 C1.01 7.34 0.02 6.68 -1 6 C-0.67 4.02 -0.34 2.04 0 0 Z " fill="#D5D342" transform="translate(49,90)"/>
<path d="M0 0 C0.99 0.33 1.98 0.66 3 1 C3 2.65 3 4.3 3 6 C2.01 6 1.02 6 0 6 C0 4.02 0 2.04 0 0 Z " fill="#F8F333" transform="translate(61,88)"/>
</svg>
